<svg width="29" height="30" viewBox="0 0 29 30" fill="none" xmlns="http://www.w3.org/2000/svg">
<path fill-rule="evenodd" clip-rule="evenodd" d="M6.25004 5.00535C5.83585 5.00535 5.50008 5.30741 5.50008 5.68001V9.41956C5.50008 9.79216 5.83585 10.0942 6.25004 10.0942H9.00005C9.41424 10.0942 9.75001 9.79216 9.75001 9.41956V5.68001C9.75001 5.30741 9.41424 5.00535 9.00005 5.00535H6.25004ZM8.25008 6.35466V8.7449H7V6.35466H8.25008Z" fill="#9F6BC9"/>
<path fill-rule="evenodd" clip-rule="evenodd" d="M13.0931 5.00535C12.6789 5.00535 12.3431 5.30741 12.3431 5.68001V9.41956C12.3431 9.79216 12.6789 10.0942 13.0931 10.0942H15.8431C16.2573 10.0942 16.5931 9.79216 16.5931 9.41956V5.68001C16.5931 5.30741 16.2573 5.00535 15.8431 5.00535H13.0931ZM15.0931 6.35466V8.7449H13.843V6.35466H15.0931Z" fill="#9F6BC9"/>
<path fill-rule="evenodd" clip-rule="evenodd" d="M20.0001 5.00535C19.5859 5.00535 19.2501 5.30741 19.2501 5.68001V9.41956C19.2501 9.79216 19.5859 10.0942 20.0001 10.0942H22.7501C23.1643 10.0942 23.5 9.79216 23.5 9.41956V5.68001C23.5 5.30741 23.1643 5.00535 22.7501 5.00535H20.0001ZM20.75 8.7449V6.35466H22.0001V8.7449H20.75Z" fill="#9F6BC9"/>
<path fill-rule="evenodd" clip-rule="evenodd" d="M6.25004 12.4845C5.83585 12.4845 5.50008 12.7865 5.50008 13.1591V16.8987C5.50008 17.2713 5.83585 17.5733 6.25004 17.5733H9.00005C9.41424 17.5733 9.75001 17.2713 9.75001 16.8987V13.1591C9.75001 12.7865 9.41424 12.4845 9.00005 12.4845H6.25004ZM8.25008 13.8338V16.224H7V13.8338H8.25008Z" fill="#9F6BC9"/>
<path fill-rule="evenodd" clip-rule="evenodd" d="M13.0931 12.4845C12.6789 12.4845 12.3431 12.7865 12.3431 13.1591V16.8987C12.3431 17.2713 12.6789 17.5733 13.0931 17.5733H15.8431C16.2573 17.5733 16.5931 17.2713 16.5931 16.8987V13.1591C16.5931 12.7865 16.2573 12.4845 15.8431 12.4845H13.0931ZM13.843 16.224V13.8338H15.0931V16.224H13.843Z" fill="#9F6BC9"/>
<path fill-rule="evenodd" clip-rule="evenodd" d="M20.0001 12.4845C19.5859 12.4845 19.2501 12.7865 19.2501 13.1591V16.8987C19.2501 17.2713 19.5859 17.5733 20.0001 17.5733H22.7501C23.1643 17.5733 23.5 17.2713 23.5 16.8987V13.1591C23.5 12.7865 23.1643 12.4845 22.7501 12.4845H20.0001ZM22.0001 13.8338V16.224H20.75V13.8338H22.0001Z" fill="#9F6BC9"/>
<path fill-rule="evenodd" clip-rule="evenodd" d="M6.25004 19.9635C5.83585 19.9635 5.50008 20.2656 5.50008 20.6382V24.3777C5.50008 24.7503 5.83585 25.0524 6.25004 25.0524H9.00005C9.41424 25.0524 9.75001 24.7503 9.75001 24.3777V20.6382C9.75001 20.2656 9.41424 19.9635 9.00005 19.9635H6.25004ZM7 23.7031V21.3129H8.25008V23.7031H7Z" fill="#9F6BC9"/>
<path fill-rule="evenodd" clip-rule="evenodd" d="M20.0001 19.9635C19.5859 19.9635 19.2501 20.2656 19.2501 20.6382V24.3777C19.2501 24.7503 19.5859 25.0524 20.0001 25.0524H22.7501C23.1643 25.0524 23.5 24.7503 23.5 24.3777V20.6382C23.5 20.2656 23.1643 19.9635 22.7501 19.9635H20.0001ZM22.0001 21.3129V23.7031H20.75V21.3129H22.0001Z" fill="#9F6BC9"/>
<path fill-rule="evenodd" clip-rule="evenodd" d="M7.65699 0C7.2428 0 6.90703 0.302052 6.90703 0.674653V1.26569H4.90698C3.74829 1.26569 2.75004 2.12275 2.75004 3.14851V28.6506H0.749963C0.33577 28.6506 0 28.9526 0 29.3252C0 29.6978 0.33577 29.9999 0.749963 29.9999H3.48726L3.5 30H11.75C12.1642 30 12.5 29.6979 12.5 29.3253V21.3127H16.5001V29.3253C16.5001 29.6979 16.8358 30 17.25 30H25.5001L25.5128 29.9999H28.25C28.6642 29.9999 29 29.6978 29 29.3252C29 28.9526 28.6642 28.6506 28.25 28.6506H26.25V3.14851C26.25 2.06455 25.251 1.26569 24.157 1.26569H22.157V0.674653C22.157 0.302052 21.8212 0 21.407 0H7.65699ZM8.40695 1.94035V1.34931H20.6571V1.94035C20.6571 2.31295 20.9928 2.615 21.407 2.615H24.157C24.4688 2.615 24.7501 2.85059 24.7501 3.14851V28.6507H18V20.6381C18 20.2655 17.6642 19.9634 17.25 19.9634H11.75C11.3358 19.9634 11.0001 20.2655 11.0001 20.6381V28.6507H4.24996V3.14851C4.24996 3.03153 4.31684 2.89771 4.43784 2.79139C4.55756 2.68621 4.72259 2.615 4.90698 2.615H7.65699C8.07118 2.615 8.40695 2.31295 8.40695 1.94035Z" fill="#9F6BC9"/>
</svg>
