<svg width="24" height="24" viewBox="0 0 24 24" fill="none" xmlns="http://www.w3.org/2000/svg">
<path fill-rule="evenodd" clip-rule="evenodd" d="M17 12.3287C17 11.8693 16.6224 11.4916 16.1609 11.4916H7.8391C7.37764 11.4916 7 11.8693 7 12.3287C7 12.7882 7.37763 13.1658 7.8391 13.1658H16.1609C16.6224 13.1658 17 12.7882 17 12.3287Z" fill="#9F6BC9"/>
<path fill-rule="evenodd" clip-rule="evenodd" d="M7.8391 8.1516C7.37764 8.1516 7 8.52926 7 8.9887C7 9.44814 7.37764 9.8258 7.8391 9.8258H16.1609C16.6224 9.8258 17 9.44814 17 8.9887C17 8.52926 16.6224 8.1516 16.1609 8.1516H7.8391Z" fill="#9F6BC9"/>
<path fill-rule="evenodd" clip-rule="evenodd" d="M17 15.6629C17 15.2035 16.6224 14.8258 16.1609 14.8258H7.8391C7.37764 14.8258 7 15.2035 7 15.6629C7 16.1223 7.37764 16.5 7.8391 16.5H16.1609C16.6224 16.5 17 16.1223 17 15.6629Z" fill="#9F6BC9"/>
<path fill-rule="evenodd" clip-rule="evenodd" d="M15.3621 0.473779L15.2597 0.443545L15.2579 0.443032C10.1903 -1.00204 4.62542 1.17834 1.78115 5.66707L1.78026 5.66851C-1.02775 10.1856 -0.454971 16.1588 3.08188 20.0527L3.0826 20.0535L3.08333 20.0543C4.74723 21.9227 7.08858 23.2725 9.58324 23.7393L9.58566 23.7398C10.8854 23.9993 12.2411 24 13.5696 24H23.161C23.6224 24 24.0001 23.6223 24.0001 23.1629V12.0036C24.0001 6.70704 20.4615 1.97967 15.3621 0.473779ZM12.7899 1.68157C18.1545 2.06027 22.3198 6.65448 22.3742 12.001L22.3742 22.3258H12.1383C10.2471 22.3258 8.35317 21.8406 6.72696 20.867L6.72602 20.8664C2.60987 18.4331 0.716424 13.3548 2.17827 8.81544L2.17859 8.81445C3.64096 4.32788 8.0799 1.35743 12.7899 1.68157Z" fill="#9F6BC9"/>
</svg>
