<svg width="60" height="60" viewBox="0 0 60 60" fill="none" xmlns="http://www.w3.org/2000/svg">
<path d="M0 10C0 4.47715 4.47715 0 10 0H60L0 60V10Z" fill="#CB243C"/>
<path d="M9.5527 27.2867C9.25288 27.5866 9.03792 27.909 8.90781 28.2541C8.77205 28.5935 8.72114 28.9499 8.75508 29.3232C8.79468 29.6909 8.91347 30.0643 9.11146 30.4433C9.31511 30.8166 9.59795 31.1843 9.95999 31.5464C10.4352 32.0215 10.9188 32.3638 11.411 32.5731C11.8975 32.7767 12.3755 32.8305 12.845 32.7343C13.3145 32.6381 13.7642 32.3751 14.1941 31.9452C14.4544 31.6849 14.6806 31.4134 14.873 31.1306C15.0653 30.8364 15.2463 30.5253 15.416 30.1972L16.2052 30.9863C16.0581 31.3144 15.8799 31.6227 15.6706 31.9112C15.4669 32.2054 15.2011 32.5165 14.873 32.8446C14.2564 33.4612 13.6143 33.8487 12.9468 34.0071C12.285 34.1598 11.6174 34.1033 10.9443 33.8374C10.2711 33.5715 9.62058 33.1246 8.99267 32.4967C8.53446 32.0385 8.17808 31.5577 7.92352 31.0542C7.66896 30.5394 7.52471 30.0218 7.49077 29.5014C7.45683 28.981 7.54451 28.469 7.75382 27.9656C7.96312 27.4508 8.30253 26.9586 8.77205 26.4891C9.07752 26.1837 9.41127 25.9178 9.77331 25.6915C10.1297 25.4596 10.4861 25.2842 10.8425 25.1654L11.2667 26.2685C10.9782 26.376 10.6841 26.5118 10.3843 26.6758C10.0844 26.8285 9.80725 27.0322 9.5527 27.2867ZM15.8048 22.596L16.789 21.6117L17.0775 25.7186L21.5238 26.024L20.4886 27.0592L16.1696 26.7453L18.4861 29.0618L17.5867 29.9612L13.0131 25.3876L13.9125 24.4882L16.1357 26.7113L15.8048 22.596ZM23.8754 19.0904C24.2544 19.4694 24.5401 19.8569 24.7324 20.2529C24.9247 20.6489 25.0294 21.042 25.0464 21.4324C25.0633 21.8227 24.9926 22.2045 24.8342 22.5779C24.6702 22.9456 24.4213 23.2963 24.0875 23.63C23.782 23.9355 23.4483 24.1675 23.0863 24.3258C22.7186 24.4786 22.3367 24.5493 21.9407 24.538C21.5504 24.521 21.1544 24.4192 20.7528 24.2325C20.3512 24.0458 19.958 23.7602 19.5733 23.3755C19.0699 22.872 18.7276 22.3601 18.5466 21.8397C18.3713 21.3136 18.3543 20.7988 18.4957 20.2953C18.6371 19.7806 18.9285 19.3026 19.3697 18.8613C19.7883 18.4427 20.2493 18.1684 20.7528 18.0382C21.2563 17.8968 21.7739 17.911 22.3056 18.0807C22.843 18.2447 23.3663 18.5813 23.8754 19.0904ZM20.5067 22.4591C20.8461 22.7985 21.1827 23.0502 21.5165 23.2143C21.8446 23.3727 22.1642 23.4264 22.4753 23.3755C22.7864 23.3246 23.0834 23.1577 23.3663 22.8749C23.6491 22.592 23.816 22.295 23.8669 21.9839C23.9178 21.6728 23.8641 21.3532 23.7057 21.0251C23.5416 20.6913 23.2899 20.3547 22.9505 20.0153C22.5998 19.6646 22.2604 19.4157 21.9323 19.2686C21.6098 19.1159 21.2959 19.0678 20.9904 19.1244C20.6849 19.1696 20.3879 19.3365 20.0994 19.625C19.6752 20.0493 19.5083 20.499 19.5988 20.9742C19.6893 21.4493 19.992 21.9443 20.5067 22.4591ZM24.9307 13.3003C25.4795 12.7516 26.1187 12.5083 26.8484 12.5705C27.5838 12.6271 28.3447 13.0485 29.131 13.8349C29.6457 14.3496 30.0049 14.8616 30.2086 15.3707C30.4122 15.8798 30.466 16.3635 30.3698 16.8217C30.268 17.2742 30.0332 17.6843 29.6655 18.052C29.4336 18.284 29.2017 18.4593 28.9697 18.5781C28.7321 18.6913 28.503 18.762 28.2824 18.7903C28.0618 18.8072 27.8497 18.8044 27.646 18.7818L27.5866 18.8412C27.7054 18.926 27.8412 19.0335 27.9939 19.1636C28.141 19.2881 28.2683 19.404 28.3758 19.5115L30.2425 21.3783L29.3431 22.2777L22.7331 15.6677L23.4628 14.9379L24.201 15.4216L24.2434 15.3792C24.2095 15.1642 24.201 14.9408 24.218 14.7088C24.235 14.4769 24.3 14.2421 24.4131 14.0046C24.5263 13.767 24.6988 13.5322 24.9307 13.3003ZM25.4568 14.2506C25.174 14.5335 25.0043 14.8163 24.9477 15.0992C24.8855 15.3763 24.9251 15.6648 25.0665 15.9647C25.2079 16.2532 25.4427 16.5671 25.7708 16.9065L25.9066 17.0423C26.2573 17.393 26.5939 17.6561 26.9163 17.8314C27.2331 18.0011 27.5414 18.0662 27.8412 18.0266C28.141 17.9757 28.4408 17.8003 28.7406 17.5005C28.9952 17.2459 29.1338 16.9716 29.1564 16.6774C29.179 16.372 29.1055 16.0552 28.9358 15.7271C28.7661 15.399 28.5172 15.0709 28.1891 14.7428C27.6913 14.245 27.2076 13.9423 26.7381 13.8349C26.2686 13.7274 25.8415 13.866 25.4568 14.2506ZM34.308 8.65784C34.687 9.03685 34.9727 9.42434 35.165 9.82032C35.3573 10.2163 35.462 10.6095 35.4789 10.9998C35.4959 11.3901 35.4252 11.7719 35.2668 12.1453C35.1028 12.513 34.8539 12.8637 34.5201 13.1975C34.2146 13.5029 33.8809 13.7349 33.5188 13.8933C33.1511 14.046 32.7693 14.1167 32.3733 14.1054C31.983 14.0884 31.587 13.9866 31.1854 13.7999C30.7838 13.6132 30.3906 13.3276 30.0059 12.9429C29.5025 12.4394 29.1602 11.9275 28.9792 11.4071C28.8039 10.881 28.7869 10.3662 28.9283 9.86275C29.0697 9.34797 29.3611 8.86997 29.8023 8.42873C30.2209 8.01013 30.6819 7.73577 31.1854 7.60566C31.6888 7.46424 32.2065 7.47838 32.7382 7.64809C33.2756 7.81214 33.7989 8.14872 34.308 8.65784ZM30.9393 12.0265C31.2787 12.3659 31.6153 12.6176 31.9491 12.7817C32.2772 12.9401 32.5968 12.9938 32.9079 12.9429C33.219 12.892 33.516 12.7251 33.7989 12.4423C34.0817 12.1594 34.2486 11.8624 34.2995 11.5513C34.3504 11.2402 34.2967 10.9206 34.1383 10.5925C33.9742 10.2587 33.7225 9.92214 33.3831 9.58273C33.0324 9.23201 32.6929 8.98311 32.3648 8.83603C32.0424 8.68329 31.7284 8.63521 31.423 8.69178C31.1175 8.73703 30.8205 8.90391 30.532 9.19241C30.1078 9.61667 29.9409 10.0664 30.0314 10.5416C30.1219 11.0167 30.4245 11.5117 30.9393 12.0265Z" fill="white"/>
</svg>
