<svg width="24" height="24" viewBox="0 0 24 24" fill="none" xmlns="http://www.w3.org/2000/svg">
<path d="M21.425 3.43198H20.3793C20.0551 2.28287 19.3052 1.30041 18.2822 0.684454C17.2593 0.0684934 16.0402 -0.134688 14.873 0.116289C13.7055 0.367076 12.6775 1.05326 11.998 2.03518C11.3212 1.04904 10.293 0.358893 9.12398 0.105956C7.95499 -0.146936 6.7334 0.0567942 5.70956 0.675051C4.68571 1.29331 3.93704 2.27964 3.61662 3.43198H2.57099C1.88902 3.43198 1.2352 3.70285 0.752933 4.18492C0.27087 4.66717 0 5.321 0 6.00297V8.57396C0.00153035 9.10442 0.167002 9.62131 0.473836 10.054C0.78067 10.4867 1.21394 10.8139 1.71398 10.9908V21.429C1.71398 22.111 1.98485 22.7648 2.46692 23.2471C2.94917 23.7291 3.603 24 4.28497 24H19.7109C20.3929 24 21.0467 23.7291 21.529 23.2471C22.011 22.7648 22.2819 22.111 22.2819 21.429V10.9908C22.7819 10.8138 23.2152 10.4867 23.522 10.054C23.8289 9.62132 23.9944 9.10442 23.9959 8.57396V6.00297C23.9959 5.321 23.725 4.66719 23.243 4.18492C22.7607 3.70285 22.1069 3.43198 21.4249 3.43198H21.425ZM15.8545 1.71799C16.4205 1.71895 16.9747 1.88059 17.4526 2.18398C17.9304 2.48737 18.3125 2.92007 18.554 3.43197H13.1549C13.3966 2.92007 13.7785 2.48736 14.2564 2.18398C14.7343 1.88059 15.2884 1.71895 15.8545 1.71799ZM8.14152 1.71799C8.70772 1.71799 9.26232 1.87906 9.74033 2.18265C10.2184 2.48604 10.6002 2.91952 10.8411 3.432H5.44198C5.68358 2.9201 6.06558 2.48739 6.54344 2.18402C7.02129 1.88062 7.57546 1.71898 8.14152 1.71803V1.71799ZM1.71404 6.00297C1.71404 5.77572 1.80434 5.55764 1.96502 5.39696C2.1257 5.23627 2.34378 5.14598 2.57104 5.14598H11.141V9.43096H2.57104C2.34378 9.43096 2.1257 9.34067 1.96502 9.17998C1.80434 9.0193 1.71404 8.80122 1.71404 8.57396V6.00297ZM4.28503 22.2859C4.05778 22.2859 3.8397 22.1956 3.67901 22.0349C3.51833 21.8742 3.42804 21.6562 3.42804 21.4289V11.145H11.141V22.2859H4.28503ZM20.568 21.4289C20.568 21.6562 20.4777 21.8742 20.317 22.0349C20.1563 22.1956 19.9382 22.2859 19.711 22.2859H12.855V11.145H20.568V21.4289ZM22.282 8.57396C22.282 8.80122 22.1917 9.0193 22.031 9.17998C21.8703 9.34067 21.6522 9.43096 21.425 9.43096H12.855V5.14598H21.425C21.6522 5.14598 21.8703 5.23627 22.031 5.39696C22.1917 5.55764 22.282 5.77572 22.282 6.00297V8.57396Z" fill="#9F6BC9"/>
</svg>
