<svg width="40" height="40" viewBox="0 0 40 40" fill="none" xmlns="http://www.w3.org/2000/svg">
<path d="M17.3539 11.8652C17.5298 12.1895 17.5006 12.6021 17.2952 12.8673C17.0898 13.1621 16.8847 13.3093 16.6501 13.4567C16.0637 13.8693 15.5652 14.3113 15.4773 15.5494C15.4773 15.6969 15.5065 15.8443 15.6239 15.9327C15.7119 16.0505 15.8585 16.1095 16.0052 16.1095H16.6796C16.9434 16.1095 17.1488 15.9031 17.178 15.6378C17.2058 15.1628 17.3127 15.0851 17.5987 14.8774C17.6143 14.866 17.6305 14.8542 17.6473 14.842L17.6582 14.8343C17.95 14.629 18.3263 14.3642 18.7029 13.8694C19.2893 13.0735 19.3773 11.9831 18.9082 11.0694C18.4098 10.0968 17.4128 9.50733 16.2398 9.50733C14.2752 9.50733 13.3955 10.922 13.2195 12.1305C13.1903 12.2779 13.2488 12.4253 13.3367 12.5431C13.4247 12.6609 13.5713 12.7199 13.718 12.7199H14.4218C14.6564 12.7199 14.8616 12.5431 14.9203 12.3073C15.0082 11.8063 15.3015 11.2462 16.2397 11.2462C16.9434 11.2462 17.2365 11.6294 17.3539 11.8652Z" fill="white"/>
<path d="M16.2984 18.9095C16.8652 18.9095 17.3246 18.4475 17.3246 17.8779C17.3246 17.3081 16.8652 16.8462 16.2984 16.8462C15.7316 16.8462 15.272 17.3082 15.272 17.8779C15.272 18.4476 15.7316 18.9095 16.2984 18.9095Z" fill="white"/>
<path fill-rule="evenodd" clip-rule="evenodd" d="M30.6079 32.3494C30.1681 32.0546 29.9041 31.5536 29.9041 31.0232C29.9041 30.4927 30.168 29.9915 30.5785 29.6969C30.8423 29.5201 30.989 29.2549 30.989 28.9306L30.9892 13.8401C30.9892 12.4255 29.8456 11.276 28.4381 11.276L23.8051 11.2758C22.6323 8.181 19.6705 6 16.1811 6C11.6655 6 8 9.6842 8 14.2231C8 17.4063 9.7887 20.1473 12.4277 21.5031V30.9936C12.4277 32.6441 13.7767 34 15.4187 34H30.1096C30.5201 34 30.8426 33.7348 30.9598 33.3516C31.0772 32.9684 30.9305 32.5556 30.6079 32.3494ZM9.64195 14.2231C9.64195 10.5979 12.5743 7.67999 16.1517 7.67999C19.7291 7.67999 22.6614 10.6274 22.6614 14.2231C22.6614 17.8189 19.7291 20.7663 16.1517 20.7663C12.5743 20.7663 9.64195 17.8189 9.64195 14.2231ZM28.2914 32.1726H15.3893C14.7442 32.1726 14.2164 31.6422 14.2164 30.9937C14.2164 30.3453 14.7442 29.8149 15.3893 29.8149H28.2914C28.1447 30.1981 28.086 30.5812 28.086 30.9937C28.086 31.4062 28.1447 31.8188 28.2914 32.1726ZM29.1711 28.0167H15.3893C14.9788 28.0167 14.5975 28.1052 14.2165 28.2526L14.2163 22.181C14.8322 22.3284 15.4771 22.4168 16.1517 22.4168C20.6673 22.4168 24.3328 18.7326 24.3328 14.1937C24.3328 13.8104 24.3035 13.4568 24.2448 13.0736H28.4087C28.8192 13.0736 29.171 13.3978 29.171 13.8399L29.1711 28.0167Z" fill="white"/>
</svg>
