<svg width="50" height="50" viewBox="0 0 50 50" fill="none" xmlns="http://www.w3.org/2000/svg">
<rect x="-1" y="1" width="48" height="48" rx="24" transform="matrix(-1 0 0 1 48 0)" stroke="#9F6BC9" stroke-width="2"/>
<path d="M31 25C31 25.3458 30.8722 25.6407 30.6067 25.9051L22.9371 33.6644C22.7306 33.8881 22.4553 34 22.1406 34C21.5015 34 21 33.4915 21 32.8203C21 32.4949 21.1278 32.2 21.3441 31.9763L28.2566 25L21.3441 18.0237C21.1278 17.7898 21 17.4949 21 17.1695C21 16.5085 21.5015 16 22.1406 16C22.4553 16 22.7306 16.1119 22.9371 16.3356L30.6067 24.0949C30.8722 24.3593 30.9902 24.6542 31 25Z" fill="#D2343E"/>
</svg>
