<svg width="50" height="50" viewBox="0 0 50 50" fill="none" xmlns="http://www.w3.org/2000/svg">
<rect x="1" y="1" width="48" height="48" rx="24" stroke="#9F6BC9" stroke-width="2"/>
<path d="M19 25C19 25.3458 19.1278 25.6407 19.3933 25.9051L27.0629 33.6644C27.2694 33.8881 27.5447 34 27.8594 34C28.4985 34 29 33.4915 29 32.8203C29 32.4949 28.8722 32.2 28.6559 31.9763L21.7434 25L28.6559 18.0237C28.8722 17.7898 29 17.4949 29 17.1695C29 16.5085 28.4985 16 27.8594 16C27.5447 16 27.2694 16.1119 27.0629 16.3356L19.3933 24.0949C19.1278 24.3593 19.0098 24.6542 19 25Z" fill="#9F6BC9"/>
</svg>
