<svg width="230" height="57" viewBox="0 0 230 57" fill="none" xmlns="http://www.w3.org/2000/svg">
<path d="M224.251 31.6381C225.366 32.9752 227.355 33.1547 228.692 32.039C230.029 30.9233 230.208 28.9349 229.093 27.5979L224.251 31.6381ZM8.89609 54.6952C9.41189 56.3585 11.1784 57.2887 12.8416 56.7729L39.9463 48.3675C41.6096 47.8517 42.5398 46.0853 42.024 44.422C41.5082 42.7587 39.7417 41.8285 38.0784 42.3443L13.9854 49.8157L6.51398 25.7227C5.99818 24.0594 4.2317 23.1292 2.56841 23.645C0.905139 24.1608 -0.0250719 25.9273 0.490723 27.5906L8.89609 54.6952ZM17.5807 50.4212C18.5232 48.9568 18.1001 47.0057 16.6358 46.0633C15.1714 45.1208 13.2204 45.5439 12.2779 47.0082L17.5807 50.4212ZM19.3409 37.1573C18.2593 38.5221 18.4887 40.5053 19.8535 41.587C21.2182 42.6686 23.2014 42.4392 24.2831 41.0744L19.3409 37.1573ZM31.8579 32.4136C33.0681 31.1614 33.034 29.1653 31.7818 27.9551C30.5296 26.7449 28.5335 26.779 27.3233 28.0312L31.8579 32.4136ZM36.2266 19.7554C34.8868 20.8678 34.7025 22.8557 35.8149 24.1955C36.9274 25.5353 38.9153 25.7197 40.2551 24.6073L36.2266 19.7554ZM49.4674 17.8711C50.9367 16.9364 51.37 14.9875 50.4353 13.5182C49.5006 12.0489 47.5518 11.6155 46.0825 12.5503L49.4674 17.8711ZM56.8713 6.7215C55.2819 7.43314 54.5704 9.29847 55.282 10.8878C55.9936 12.4772 57.859 13.1888 59.4484 12.4771L56.8713 6.7215ZM70.0842 8.70547C71.7679 8.26104 72.7726 6.53581 72.3282 4.85206C71.8838 3.16831 70.1585 2.16365 68.4748 2.60807L70.0842 8.70547ZM80.6255 0.49388C78.8905 0.643331 77.6051 2.17097 77.7546 3.90596C77.904 5.64095 79.4317 6.92629 81.1667 6.77684L80.6255 0.49388ZM93.5361 6.82735C95.2708 6.98016 96.8009 5.69778 96.9537 3.96308C97.1065 2.22838 95.8242 0.698258 94.0895 0.54545L93.5361 6.82735ZM108.409 3.18465C106.736 2.70329 104.989 3.66976 104.507 5.34332C104.026 7.01689 104.993 8.7638 106.666 9.24517L108.409 3.18465ZM118.997 14.2337C120.532 15.0563 122.443 14.4789 123.265 12.9441C124.088 11.4092 123.511 9.49808 121.976 8.67545L118.997 14.2337ZM134.056 17.0612C132.754 15.9046 130.762 16.0224 129.605 17.3243C128.448 18.6262 128.566 20.6191 129.868 21.7757L134.056 17.0612ZM138.306 31.6753C139.211 33.1636 141.15 33.6372 142.638 32.733C144.127 31.8288 144.6 29.8893 143.696 28.4011L138.306 31.6753ZM147.469 44.0969C147.933 42.4185 146.949 40.6815 145.27 40.2173C143.592 39.7531 141.855 40.7374 141.391 42.4158L147.469 44.0969ZM137.212 43.7056C136.398 42.1658 134.491 41.577 132.951 42.3904C131.411 43.2039 130.822 45.1115 131.636 46.6513L137.212 43.7056ZM132.775 32.93C132.089 34.5309 132.831 36.3842 134.432 37.0696C136.033 37.755 137.886 37.0129 138.572 35.412L132.775 32.93ZM144.029 26.3566C145.097 24.9813 144.848 23.0004 143.473 21.9322C142.098 20.864 140.117 21.1129 139.049 22.4882L144.029 26.3566ZM147.426 13.8075C146.088 14.9224 145.908 16.9107 147.023 18.2484C148.138 19.5861 150.126 19.7666 151.464 18.6517L147.426 13.8075ZM160.354 12.8681C161.922 12.1102 162.579 10.2248 161.821 8.657C161.063 7.08915 159.178 6.43255 157.61 7.19042L160.354 12.8681ZM169.328 3.48671C167.607 3.75456 166.429 5.3666 166.697 7.08729C166.965 8.80799 168.577 9.98574 170.298 9.71788L169.328 3.48671ZM182.349 9.76097C184.078 9.96556 185.646 8.72948 185.851 7.00013C186.055 5.27077 184.819 3.703 183.09 3.49842L182.349 9.76097ZM197.821 6.91185C196.177 6.3382 194.379 7.20608 193.806 8.8503C193.232 10.4945 194.1 12.2925 195.744 12.8661L197.821 6.91185ZM208.262 18.7231C209.759 19.6125 211.694 19.1198 212.583 17.6227C213.472 16.1255 212.98 14.1908 211.483 13.3014L208.262 18.7231ZM223.644 22.1695C222.34 21.0147 220.347 21.1352 219.193 22.4386C218.038 23.742 218.158 25.7348 219.462 26.8897L223.644 22.1695ZM11.9077 53.7613C14.6976 55.2304 14.6975 55.2306 14.6974 55.2308C14.6974 55.2309 14.6973 55.231 14.6973 55.2311C14.6971 55.2313 14.6971 55.2315 14.697 55.2317C14.6968 55.232 14.6967 55.2322 14.6967 55.2322C14.6966 55.2324 14.6968 55.232 14.6972 55.2312C14.6981 55.2296 14.6999 55.2262 14.7027 55.2209C14.7083 55.2103 14.7179 55.1924 14.7314 55.1673C14.7584 55.1172 14.8011 55.0385 14.8595 54.9327C14.9762 54.721 15.1554 54.4009 15.3966 53.9842C15.8789 53.1507 16.6085 51.9317 17.5807 50.4212L12.2779 47.0082C11.2474 48.6093 10.4662 49.9135 9.9385 50.8254C9.67456 51.2814 9.47388 51.6396 9.33696 51.888C9.26848 52.0121 9.21594 52.1089 9.1794 52.1768C9.16113 52.2107 9.14685 52.2374 9.13657 52.2567C9.13143 52.2663 9.12731 52.2741 9.12417 52.28C9.1226 52.283 9.1213 52.2855 9.12022 52.2875C9.11969 52.2885 9.11922 52.2894 9.11881 52.2902C9.11862 52.2905 9.11843 52.2909 9.11825 52.2912C9.11816 52.2914 9.11805 52.2916 9.11801 52.2917C9.1179 52.2919 9.11779 52.2921 11.9077 53.7613ZM24.2831 41.0744C26.4552 38.3339 28.9833 35.388 31.8579 32.4136L27.3233 28.0312C24.2882 31.1717 21.6249 34.2757 19.3409 37.1573L24.2831 41.0744ZM40.2551 24.6073C43.1058 22.2404 46.1783 19.9634 49.4674 17.8711L46.0825 12.5503C42.547 14.7994 39.2604 17.2365 36.2266 19.7554L40.2551 24.6073ZM59.4484 12.4771C62.82 10.9675 66.3662 9.68685 70.0842 8.70547L68.4748 2.60807C64.4037 3.68264 60.5345 5.08135 56.8713 6.7215L59.4484 12.4771ZM81.1667 6.77684C83.0099 6.61807 84.8901 6.53517 86.8073 6.53516L86.8073 0.228936C84.7081 0.228942 82.6473 0.319725 80.6255 0.49388L81.1667 6.77684ZM86.8073 6.53516C89.1209 6.53515 91.364 6.63602 93.5361 6.82735L94.0895 0.54545C91.7321 0.337794 89.3043 0.228926 86.8073 0.228936L86.8073 6.53516ZM106.666 9.24517C111.201 10.5495 115.315 12.2604 118.997 14.2337L121.976 8.67545C117.907 6.49479 113.379 4.61418 108.409 3.18465L106.666 9.24517ZM129.868 21.7757C133.54 25.0382 136.356 28.4652 138.306 31.6753L143.696 28.4011C141.393 24.6102 138.159 20.706 134.056 17.0612L129.868 21.7757ZM141.391 42.4158C141.22 43.0317 140.958 43.3904 140.68 43.6187C140.398 43.8508 139.905 44.1058 139.023 44.1905L139.627 50.4678C141.525 50.2853 143.266 49.6549 144.682 48.4928C146.102 47.3269 147.002 45.7829 147.469 44.0969L141.391 42.4158ZM139.023 44.1905C138.185 44.2711 137.753 44.146 137.569 44.062C137.425 43.996 137.319 43.9089 137.212 43.7056L131.636 46.6513C132.354 48.0115 133.464 49.1186 134.945 49.7965C136.388 50.4564 137.993 50.6249 139.627 50.4678L139.023 44.1905ZM138.572 35.412C139.783 32.5827 141.626 29.4505 144.029 26.3566L139.049 22.4882C136.353 25.958 134.221 29.5511 132.775 32.93L138.572 35.412ZM151.464 18.6517C154.157 16.4064 157.14 14.4218 160.354 12.8681L157.61 7.19042C153.882 8.99251 150.47 11.2706 147.426 13.8075L151.464 18.6517ZM170.298 9.71788C171.982 9.45564 173.709 9.32165 175.473 9.33338L175.515 3.02729C173.403 3.01325 171.338 3.17379 169.328 3.48671L170.298 9.71788ZM175.473 9.33338C177.839 9.3491 180.132 9.49867 182.349 9.76097L183.09 3.49842C180.646 3.20933 178.12 3.0446 175.515 3.02729L175.473 9.33338ZM195.744 12.8661C200.439 14.504 204.628 16.5647 208.262 18.7231L211.483 13.3014C207.537 10.9576 202.966 8.70665 197.821 6.91185L195.744 12.8661ZM219.462 26.8897C221.064 28.3089 222.281 29.5195 223.088 30.3646C223.492 30.787 223.792 31.1175 223.987 31.3365C224.085 31.4459 224.156 31.5275 224.2 31.5786C224.222 31.6041 224.237 31.6221 224.245 31.6321C224.25 31.6371 224.252 31.6402 224.253 31.6412C224.254 31.6417 224.254 31.6417 224.253 31.6412C224.253 31.6409 224.253 31.6406 224.252 31.6401C224.252 31.6398 224.252 31.6395 224.251 31.6392C224.251 31.639 224.251 31.6388 224.251 31.6387C224.251 31.6384 224.251 31.6381 226.672 29.618C229.093 27.5979 229.092 27.5976 229.092 27.5973C229.092 27.5972 229.092 27.5968 229.092 27.5966C229.091 27.5962 229.091 27.5957 229.09 27.5952C229.089 27.5942 229.088 27.593 229.087 27.5917C229.085 27.5891 229.083 27.5861 229.08 27.5825C229.074 27.5753 229.066 27.566 229.056 27.5548C229.037 27.5323 229.011 27.5018 228.978 27.4635C228.912 27.387 228.819 27.2796 228.698 27.1438C228.456 26.8722 228.105 26.4869 227.648 26.008C226.733 25.0506 225.39 23.7169 223.644 22.1695L219.462 26.8897Z" fill="#9F6BC9"/>
</svg>
