<svg width="128" height="96" viewBox="0 0 128 96" fill="none" xmlns="http://www.w3.org/2000/svg">
<path d="M121.91 22.43C121.361 22.43 120.797 22.5083 120.235 22.6638L113.868 24.4177L107.257 8.31329C105.385 3.75059 99.848 0.0390625 94.9163 0.0390625H33.0454C28.1132 0.0390625 22.577 3.75059 20.7046 8.31329L14.1022 24.3957L7.81564 22.6638C7.25354 22.5088 6.68931 22.43 6.14062 22.43C3.13225 22.43 0.948242 24.7282 0.948242 27.8953V31.6492C0.948242 35.3463 3.95554 38.3536 7.65259 38.3536H8.37236L7.30557 40.9527C5.56566 45.192 4.15024 52.3678 4.15024 56.9498V88.9435C4.15024 92.6405 7.15807 95.6478 10.8546 95.6478H19.611C23.308 95.6478 26.3153 92.6405 26.3153 88.9435V80.9535H101.647V88.9435C101.647 92.6405 104.655 95.6478 108.352 95.6478H117.108C120.805 95.6478 123.812 92.6405 123.812 88.9435V56.9498C123.812 52.3683 122.397 45.192 120.656 40.9527L119.589 38.3536H120.398C124.095 38.3536 127.103 35.3463 127.103 31.6492V27.8953C127.103 24.7282 124.919 22.43 121.91 22.43ZM18.91 34.7118L28.9102 10.3525C30.0306 7.62355 33.3608 5.39074 36.3107 5.39074H91.6521C94.602 5.39074 97.9322 7.62355 99.0521 10.3525L109.052 34.7118C110.173 37.4407 108.676 39.6735 105.726 39.6735H22.2369C19.287 39.6735 17.7901 37.4407 18.91 34.7118ZM41.2344 65.5228C41.2344 66.9977 40.0276 68.2045 38.5526 68.2045H19.5552C18.0803 68.2045 16.8735 66.9977 16.8735 65.5228V56.4054C16.8735 54.9305 18.0803 53.7237 19.5552 53.7237H38.5526C40.0276 53.7237 41.2344 54.9305 41.2344 56.4054V65.5228ZM110.909 65.5228C110.909 66.9977 109.702 68.2045 108.227 68.2045H89.2305C87.7555 68.2045 86.5488 66.9977 86.5488 65.5228V56.4054C86.5488 54.9305 87.7555 53.7237 89.2305 53.7237H108.227C109.702 53.7237 110.909 54.9305 110.909 56.4054V65.5228Z" fill="#9F6BC9"/>
</svg>
