<svg width="48" height="49" viewBox="0 0 48 49" fill="none" xmlns="http://www.w3.org/2000/svg">
<mask id="path-1-outside-1_10_3497" maskUnits="userSpaceOnUse" x="0" y="0" width="48" height="49" fill="black">
<rect fill="white" width="48" height="49"/>
<path d="M22.6875 1.3582C17.4132 2.13925 13.8961 4.81861 12.9083 5.65397C10.5365 6.27467 7.40155 8.17168 7.11879 8.34367C6.93673 8.53893 6.75727 8.73807 6.58038 8.93851C6.50162 9.03032 6.42415 9.12213 6.34539 9.21524C6.22918 9.35231 6.11169 9.48809 5.99807 9.62774C3.97741 12.2993 3.20788 15.421 2.98709 16.5227L1.30859 19.4478C1.25436 19.6986 1.20401 19.9508 1.15623 20.2042C1.13945 20.2973 1.12266 20.3917 1.10717 20.4861C1.06972 20.7034 1.03099 20.9193 1 21.1379C1.02324 21.1172 1.0452 21.0926 1.06198 21.0642L3.2634 17.2287C3.96966 17.6063 5.56682 18.1313 6.36733 18.3848C6.46288 19.3068 7.27502 26.869 8.53002 28.5643C7.78502 29.5057 6.59458 33.1484 6.47838 34.9485C4.20853 35.0286 2.49645 33.4446 2.47837 33.4277C2.46159 33.4122 2.44093 33.4032 2.42027 33.3915C2.56359 33.7549 2.71466 34.1131 2.87605 34.4674C3.62234 34.9523 4.83474 35.5472 6.29891 35.5472C6.37509 35.5472 6.45255 35.5433 6.53002 35.5407C7.11879 37.3446 11.9994 41.0999 13.142 41.9598C13.368 42.9296 13.98 44.7155 15.6081 46.6228C15.9994 46.7754 16.3944 46.9189 16.7947 47.0508C16.7844 47.0353 16.7766 47.0172 16.7624 47.003C14.8399 45.0775 14.0794 43.1572 13.7824 42.0684C16.419 41.5693 18.765 40.0382 19.6365 39.4136C20.7379 39.8261 24.7366 41.2059 29.0413 41.2059C29.3564 41.2059 29.674 41.1943 29.9916 41.1788C30.5055 43.0965 31.7437 44.4478 32.2163 44.9081C31.7205 45.4551 30.2047 46.8504 26.8322 47.925C26.7857 47.9392 26.7482 47.9677 26.716 48C27.1317 47.9483 27.5436 47.8836 27.9516 47.8112C28.0626 47.7905 28.175 47.7724 28.2847 47.7504C28.4384 47.7207 28.5907 47.6884 28.7431 47.656C29.0387 47.5914 29.3331 47.5241 29.6249 47.4478L29.6288 47.4465C32.051 46.2504 32.8631 45.0633 32.9057 44.9986C32.9135 44.987 32.9148 44.9754 32.9199 44.9637C42.122 42.8469 42.8283 36.464 42.8657 34.8153C43.6068 33.9605 45.3525 31.6575 46.8128 27.5557C46.8593 27.1729 46.8967 26.7863 46.9264 26.3983C46.9355 26.2716 46.9471 26.1449 46.9548 26.0168C46.9639 25.8733 46.9703 25.7298 46.9755 25.5862C46.9884 25.2565 47 24.9254 47 24.5905C47 24.2284 46.9897 23.869 46.9729 23.5121C46.969 23.4164 46.9639 23.322 46.9587 23.2276C46.9406 22.9107 46.9187 22.5952 46.8877 22.2823C46.8838 22.2383 46.8812 22.1956 46.8761 22.1517C46.8412 21.8064 46.7973 21.4637 46.7482 21.1224C46.734 21.0241 46.7185 20.9271 46.703 20.8301C46.6591 20.5534 46.6114 20.2779 46.5584 20.0038C46.5442 19.9288 46.5313 19.8525 46.5158 19.7775C46.45 19.4529 46.3764 19.1309 46.2976 18.8102C46.2718 18.7068 46.2447 18.6046 46.2176 18.5012C46.1543 18.2594 46.0872 18.0188 46.0161 17.7796C45.9864 17.6813 45.9593 17.5818 45.9283 17.4835C45.8354 17.1809 45.736 16.8822 45.6301 16.5861C45.5914 16.4761 45.55 16.3675 45.51 16.2589C45.4312 16.0481 45.3512 15.8373 45.2673 15.6291C45.2208 15.5141 45.1756 15.399 45.1265 15.2852C45.009 15.0059 44.8864 14.7291 44.7586 14.4563C44.7069 14.3451 44.6514 14.2352 44.5972 14.1252C44.5055 13.9364 44.4112 13.7489 44.3144 13.5627C44.2524 13.4425 44.1892 13.3222 44.1246 13.2019C43.9839 12.942 43.8405 12.6847 43.6908 12.4312L43.6895 12.4287C43.9167 13.3002 44.6759 16.4335 44.1001 17.4421C41.7747 16.8162 38.7741 16.7761 37.7437 16.7826C37.1524 15.1248 32.3957 11.1769 30.9497 10.3403C30.9458 9.8062 30.8386 5.25439 30.8102 4.00781C32.3686 3.78022 36.073 4.5755 36.073 4.5755C36.0755 4.56903 36.0781 4.56386 36.0807 4.55739C32.5365 2.30476 28.3544 1 23.8715 1C23.7644 1 23.6585 1.00647 23.5513 1.00776L22.6875 1.3582ZM9.21305 28.4906C9.19626 28.4285 9.16269 28.3703 9.10717 28.3289C8.2266 27.6837 7.32538 21.8943 6.95998 18.3641C9.1459 15.1584 12.2679 12.417 13.1575 11.6657C13.4906 11.7317 20.0458 13.0481 22.3699 14.2313C22.5171 15.9692 23.6017 21.5387 23.9981 22.9819C23.0684 23.9013 18.06 28.8811 16.7624 30.61C15.448 30.0824 10.7327 28.8746 9.21305 28.4906ZM37.7166 17.3762C38.7043 17.371 41.8548 17.4085 44.1323 18.0641C44.805 18.9706 46.4332 21.6176 46.6204 26.2289C46.6204 26.2289 46.6281 26.2276 46.6398 26.2263C45.2092 30.7458 43.3254 33.3398 42.5081 34.32C41.3757 34.1532 37.8767 34.0497 36.7689 34.0213C36.5391 31.6303 34.7586 26.7526 34.0252 24.822C35.5952 23.428 37.2983 18.6124 37.7166 17.3762ZM33.4764 25.0496C34.2511 27.0979 36.2021 32.4579 36.2021 34.4868C36.2021 34.5075 36.2098 34.5256 36.2137 34.5463C35.2156 36.1679 30.9058 39.7486 30.0433 40.5878C25.563 40.8309 21.1795 39.3554 19.9232 38.8899C19.5333 37.6511 17.7966 32.1799 17.2143 30.9915C18.3764 29.4152 23.3086 24.5 24.357 23.4603C25.7437 24.0228 32.2615 24.8905 33.4764 25.0496ZM30.3648 10.1851C28.6966 10.3118 23.3835 13.1683 22.5132 13.6416C20.1349 12.4985 14.4267 11.3179 13.4041 11.111C13.4041 9.99111 13.4041 7.14623 13.4041 6.01475C14.5003 5.12378 17.9567 2.6177 22.92 1.92071C26.0936 2.20907 29.0723 3.33021 30.2214 3.80609C30.2382 4.5186 30.348 9.14929 30.3648 10.1851Z"/>
</mask>
<path d="M22.6875 1.3582C17.4132 2.13925 13.8961 4.81861 12.9083 5.65397C10.5365 6.27467 7.40155 8.17168 7.11879 8.34367C6.93673 8.53893 6.75727 8.73807 6.58038 8.93851C6.50162 9.03032 6.42415 9.12213 6.34539 9.21524C6.22918 9.35231 6.11169 9.48809 5.99807 9.62774C3.97741 12.2993 3.20788 15.421 2.98709 16.5227L1.30859 19.4478C1.25436 19.6986 1.20401 19.9508 1.15623 20.2042C1.13945 20.2973 1.12266 20.3917 1.10717 20.4861C1.06972 20.7034 1.03099 20.9193 1 21.1379C1.02324 21.1172 1.0452 21.0926 1.06198 21.0642L3.2634 17.2287C3.96966 17.6063 5.56682 18.1313 6.36733 18.3848C6.46288 19.3068 7.27502 26.869 8.53002 28.5643C7.78502 29.5057 6.59458 33.1484 6.47838 34.9485C4.20853 35.0286 2.49645 33.4446 2.47837 33.4277C2.46159 33.4122 2.44093 33.4032 2.42027 33.3915C2.56359 33.7549 2.71466 34.1131 2.87605 34.4674C3.62234 34.9523 4.83474 35.5472 6.29891 35.5472C6.37509 35.5472 6.45255 35.5433 6.53002 35.5407C7.11879 37.3446 11.9994 41.0999 13.142 41.9598C13.368 42.9296 13.98 44.7155 15.6081 46.6228C15.9994 46.7754 16.3944 46.9189 16.7947 47.0508C16.7844 47.0353 16.7766 47.0172 16.7624 47.003C14.8399 45.0775 14.0794 43.1572 13.7824 42.0684C16.419 41.5693 18.765 40.0382 19.6365 39.4136C20.7379 39.8261 24.7366 41.2059 29.0413 41.2059C29.3564 41.2059 29.674 41.1943 29.9916 41.1788C30.5055 43.0965 31.7437 44.4478 32.2163 44.9081C31.7205 45.4551 30.2047 46.8504 26.8322 47.925C26.7857 47.9392 26.7482 47.9677 26.716 48C27.1317 47.9483 27.5436 47.8836 27.9516 47.8112C28.0626 47.7905 28.175 47.7724 28.2847 47.7504C28.4384 47.7207 28.5907 47.6884 28.7431 47.656C29.0387 47.5914 29.3331 47.5241 29.6249 47.4478L29.6288 47.4465C32.051 46.2504 32.8631 45.0633 32.9057 44.9986C32.9135 44.987 32.9148 44.9754 32.9199 44.9637C42.122 42.8469 42.8283 36.464 42.8657 34.8153C43.6068 33.9605 45.3525 31.6575 46.8128 27.5557C46.8593 27.1729 46.8967 26.7863 46.9264 26.3983C46.9355 26.2716 46.9471 26.1449 46.9548 26.0168C46.9639 25.8733 46.9703 25.7298 46.9755 25.5862C46.9884 25.2565 47 24.9254 47 24.5905C47 24.2284 46.9897 23.869 46.9729 23.5121C46.969 23.4164 46.9639 23.322 46.9587 23.2276C46.9406 22.9107 46.9187 22.5952 46.8877 22.2823C46.8838 22.2383 46.8812 22.1956 46.8761 22.1517C46.8412 21.8064 46.7973 21.4637 46.7482 21.1224C46.734 21.0241 46.7185 20.9271 46.703 20.8301C46.6591 20.5534 46.6114 20.2779 46.5584 20.0038C46.5442 19.9288 46.5313 19.8525 46.5158 19.7775C46.45 19.4529 46.3764 19.1309 46.2976 18.8102C46.2718 18.7068 46.2447 18.6046 46.2176 18.5012C46.1543 18.2594 46.0872 18.0188 46.0161 17.7796C45.9864 17.6813 45.9593 17.5818 45.9283 17.4835C45.8354 17.1809 45.736 16.8822 45.6301 16.5861C45.5914 16.4761 45.55 16.3675 45.51 16.2589C45.4312 16.0481 45.3512 15.8373 45.2673 15.6291C45.2208 15.5141 45.1756 15.399 45.1265 15.2852C45.009 15.0059 44.8864 14.7291 44.7586 14.4563C44.7069 14.3451 44.6514 14.2352 44.5972 14.1252C44.5055 13.9364 44.4112 13.7489 44.3144 13.5627C44.2524 13.4425 44.1892 13.3222 44.1246 13.2019C43.9839 12.942 43.8405 12.6847 43.6908 12.4312L43.6895 12.4287C43.9167 13.3002 44.6759 16.4335 44.1001 17.4421C41.7747 16.8162 38.7741 16.7761 37.7437 16.7826C37.1524 15.1248 32.3957 11.1769 30.9497 10.3403C30.9458 9.8062 30.8386 5.25439 30.8102 4.00781C32.3686 3.78022 36.073 4.5755 36.073 4.5755C36.0755 4.56903 36.0781 4.56386 36.0807 4.55739C32.5365 2.30476 28.3544 1 23.8715 1C23.7644 1 23.6585 1.00647 23.5513 1.00776L22.6875 1.3582ZM9.21305 28.4906C9.19626 28.4285 9.16269 28.3703 9.10717 28.3289C8.2266 27.6837 7.32538 21.8943 6.95998 18.3641C9.1459 15.1584 12.2679 12.417 13.1575 11.6657C13.4906 11.7317 20.0458 13.0481 22.3699 14.2313C22.5171 15.9692 23.6017 21.5387 23.9981 22.9819C23.0684 23.9013 18.06 28.8811 16.7624 30.61C15.448 30.0824 10.7327 28.8746 9.21305 28.4906ZM37.7166 17.3762C38.7043 17.371 41.8548 17.4085 44.1323 18.0641C44.805 18.9706 46.4332 21.6176 46.6204 26.2289C46.6204 26.2289 46.6281 26.2276 46.6398 26.2263C45.2092 30.7458 43.3254 33.3398 42.5081 34.32C41.3757 34.1532 37.8767 34.0497 36.7689 34.0213C36.5391 31.6303 34.7586 26.7526 34.0252 24.822C35.5952 23.428 37.2983 18.6124 37.7166 17.3762ZM33.4764 25.0496C34.2511 27.0979 36.2021 32.4579 36.2021 34.4868C36.2021 34.5075 36.2098 34.5256 36.2137 34.5463C35.2156 36.1679 30.9058 39.7486 30.0433 40.5878C25.563 40.8309 21.1795 39.3554 19.9232 38.8899C19.5333 37.6511 17.7966 32.1799 17.2143 30.9915C18.3764 29.4152 23.3086 24.5 24.357 23.4603C25.7437 24.0228 32.2615 24.8905 33.4764 25.0496ZM30.3648 10.1851C28.6966 10.3118 23.3835 13.1683 22.5132 13.6416C20.1349 12.4985 14.4267 11.3179 13.4041 11.111C13.4041 9.99111 13.4041 7.14623 13.4041 6.01475C14.5003 5.12378 17.9567 2.6177 22.92 1.92071C26.0936 2.20907 29.0723 3.33021 30.2214 3.80609C30.2382 4.5186 30.348 9.14929 30.3648 10.1851Z" fill="#263238"/>
<path d="M22.6875 1.3582C17.4132 2.13925 13.8961 4.81861 12.9083 5.65397C10.5365 6.27467 7.40155 8.17168 7.11879 8.34367C6.93673 8.53893 6.75727 8.73807 6.58038 8.93851C6.50162 9.03032 6.42415 9.12213 6.34539 9.21524C6.22918 9.35231 6.11169 9.48809 5.99807 9.62774C3.97741 12.2993 3.20788 15.421 2.98709 16.5227L1.30859 19.4478C1.25436 19.6986 1.20401 19.9508 1.15623 20.2042C1.13945 20.2973 1.12266 20.3917 1.10717 20.4861C1.06972 20.7034 1.03099 20.9193 1 21.1379C1.02324 21.1172 1.0452 21.0926 1.06198 21.0642L3.2634 17.2287C3.96966 17.6063 5.56682 18.1313 6.36733 18.3848C6.46288 19.3068 7.27502 26.869 8.53002 28.5643C7.78502 29.5057 6.59458 33.1484 6.47838 34.9485C4.20853 35.0286 2.49645 33.4446 2.47837 33.4277C2.46159 33.4122 2.44093 33.4032 2.42027 33.3915C2.56359 33.7549 2.71466 34.1131 2.87605 34.4674C3.62234 34.9523 4.83474 35.5472 6.29891 35.5472C6.37509 35.5472 6.45255 35.5433 6.53002 35.5407C7.11879 37.3446 11.9994 41.0999 13.142 41.9598C13.368 42.9296 13.98 44.7155 15.6081 46.6228C15.9994 46.7754 16.3944 46.9189 16.7947 47.0508C16.7844 47.0353 16.7766 47.0172 16.7624 47.003C14.8399 45.0775 14.0794 43.1572 13.7824 42.0684C16.419 41.5693 18.765 40.0382 19.6365 39.4136C20.7379 39.8261 24.7366 41.2059 29.0413 41.2059C29.3564 41.2059 29.674 41.1943 29.9916 41.1788C30.5055 43.0965 31.7437 44.4478 32.2163 44.9081C31.7205 45.4551 30.2047 46.8504 26.8322 47.925C26.7857 47.9392 26.7482 47.9677 26.716 48C27.1317 47.9483 27.5436 47.8836 27.9516 47.8112C28.0626 47.7905 28.175 47.7724 28.2847 47.7504C28.4384 47.7207 28.5907 47.6884 28.7431 47.656C29.0387 47.5914 29.3331 47.5241 29.6249 47.4478L29.6288 47.4465C32.051 46.2504 32.8631 45.0633 32.9057 44.9986C32.9135 44.987 32.9148 44.9754 32.9199 44.9637C42.122 42.8469 42.8283 36.464 42.8657 34.8153C43.6068 33.9605 45.3525 31.6575 46.8128 27.5557C46.8593 27.1729 46.8967 26.7863 46.9264 26.3983C46.9355 26.2716 46.9471 26.1449 46.9548 26.0168C46.9639 25.8733 46.9703 25.7298 46.9755 25.5862C46.9884 25.2565 47 24.9254 47 24.5905C47 24.2284 46.9897 23.869 46.9729 23.5121C46.969 23.4164 46.9639 23.322 46.9587 23.2276C46.9406 22.9107 46.9187 22.5952 46.8877 22.2823C46.8838 22.2383 46.8812 22.1956 46.8761 22.1517C46.8412 21.8064 46.7973 21.4637 46.7482 21.1224C46.734 21.0241 46.7185 20.9271 46.703 20.8301C46.6591 20.5534 46.6114 20.2779 46.5584 20.0038C46.5442 19.9288 46.5313 19.8525 46.5158 19.7775C46.45 19.4529 46.3764 19.1309 46.2976 18.8102C46.2718 18.7068 46.2447 18.6046 46.2176 18.5012C46.1543 18.2594 46.0872 18.0188 46.0161 17.7796C45.9864 17.6813 45.9593 17.5818 45.9283 17.4835C45.8354 17.1809 45.736 16.8822 45.6301 16.5861C45.5914 16.4761 45.55 16.3675 45.51 16.2589C45.4312 16.0481 45.3512 15.8373 45.2673 15.6291C45.2208 15.5141 45.1756 15.399 45.1265 15.2852C45.009 15.0059 44.8864 14.7291 44.7586 14.4563C44.7069 14.3451 44.6514 14.2352 44.5972 14.1252C44.5055 13.9364 44.4112 13.7489 44.3144 13.5627C44.2524 13.4425 44.1892 13.3222 44.1246 13.2019C43.9839 12.942 43.8405 12.6847 43.6908 12.4312L43.6895 12.4287C43.9167 13.3002 44.6759 16.4335 44.1001 17.4421C41.7747 16.8162 38.7741 16.7761 37.7437 16.7826C37.1524 15.1248 32.3957 11.1769 30.9497 10.3403C30.9458 9.8062 30.8386 5.25439 30.8102 4.00781C32.3686 3.78022 36.073 4.5755 36.073 4.5755C36.0755 4.56903 36.0781 4.56386 36.0807 4.55739C32.5365 2.30476 28.3544 1 23.8715 1C23.7644 1 23.6585 1.00647 23.5513 1.00776L22.6875 1.3582ZM9.21305 28.4906C9.19626 28.4285 9.16269 28.3703 9.10717 28.3289C8.2266 27.6837 7.32538 21.8943 6.95998 18.3641C9.1459 15.1584 12.2679 12.417 13.1575 11.6657C13.4906 11.7317 20.0458 13.0481 22.3699 14.2313C22.5171 15.9692 23.6017 21.5387 23.9981 22.9819C23.0684 23.9013 18.06 28.8811 16.7624 30.61C15.448 30.0824 10.7327 28.8746 9.21305 28.4906ZM37.7166 17.3762C38.7043 17.371 41.8548 17.4085 44.1323 18.0641C44.805 18.9706 46.4332 21.6176 46.6204 26.2289C46.6204 26.2289 46.6281 26.2276 46.6398 26.2263C45.2092 30.7458 43.3254 33.3398 42.5081 34.32C41.3757 34.1532 37.8767 34.0497 36.7689 34.0213C36.5391 31.6303 34.7586 26.7526 34.0252 24.822C35.5952 23.428 37.2983 18.6124 37.7166 17.3762ZM33.4764 25.0496C34.2511 27.0979 36.2021 32.4579 36.2021 34.4868C36.2021 34.5075 36.2098 34.5256 36.2137 34.5463C35.2156 36.1679 30.9058 39.7486 30.0433 40.5878C25.563 40.8309 21.1795 39.3554 19.9232 38.8899C19.5333 37.6511 17.7966 32.1799 17.2143 30.9915C18.3764 29.4152 23.3086 24.5 24.357 23.4603C25.7437 24.0228 32.2615 24.8905 33.4764 25.0496ZM30.3648 10.1851C28.6966 10.3118 23.3835 13.1683 22.5132 13.6416C20.1349 12.4985 14.4267 11.3179 13.4041 11.111C13.4041 9.99111 13.4041 7.14623 13.4041 6.01475C14.5003 5.12378 17.9567 2.6177 22.92 1.92071C26.0936 2.20907 29.0723 3.33021 30.2214 3.80609C30.2382 4.5186 30.348 9.14929 30.3648 10.1851Z" stroke="#263238" stroke-width="0.374978" mask="url(#path-1-outside-1_10_3497)"/>
</svg>
