<svg width="54" height="54" viewBox="0 0 54 54" fill="none" xmlns="http://www.w3.org/2000/svg">
<path fill-rule="evenodd" clip-rule="evenodd" d="M39.0492 30.5492C39.7814 29.8169 40.9686 29.8169 41.7008 30.5492L45.4508 34.2992C46.1831 35.0314 46.1831 36.2186 45.4508 36.9508L39.4153 42.9864C38.126 44.2757 36.3773 45 34.5539 45H32.875C31.8395 45 31 44.1605 31 43.125V41.4461C31 39.6227 31.7243 37.874 33.0136 36.5847L39.0492 30.5492ZM40.375 34.5267L35.6653 39.2364C35.1272 39.7745 34.8056 40.4886 34.7566 41.2434C35.5114 41.1944 36.2255 40.8728 36.7636 40.3347L41.4733 35.625L40.375 34.5267Z" fill="white"/>
<path fill-rule="evenodd" clip-rule="evenodd" d="M6.875 3.76744C5.14911 3.76744 3.75 5.17306 3.75 6.90698V11.9302C3.75 12.9706 2.91053 13.814 1.875 13.814C0.839466 13.814 0 12.9706 0 11.9302V6.90698C0 3.09236 3.07804 0 6.875 0H21.1801C22.9002 0 24.5577 0.647772 25.8257 1.81547L37.7706 12.8159C39.1912 14.1242 40 15.9713 40 17.9074V18.2093C40 19.2497 39.1605 20.093 38.125 20.093C37.0895 20.093 36.25 19.2497 36.25 18.2093V17.9074C36.25 17.0274 35.8824 16.1877 35.2366 15.5931L23.2917 4.59266L24.5255 3.2405L23.2917 4.59266C22.7154 4.06188 21.9619 3.76744 21.1801 3.76744H6.875ZM1.875 20.093C2.91053 20.093 3.75 20.9364 3.75 21.9767V47.093C3.75 48.8269 5.14911 50.2326 6.875 50.2326H20.625C21.6605 50.2326 22.5 51.0759 22.5 52.1163C22.5 53.1566 21.6605 54 20.625 54H6.875C3.07804 54 0 50.9076 0 47.093V21.9767C0 20.9364 0.839466 20.093 1.875 20.093Z" fill="white"/>
<path fill-rule="evenodd" clip-rule="evenodd" d="M38.5 26.72C31.9941 26.72 26.72 31.9941 26.72 38.5C26.72 45.0059 31.9941 50.28 38.5 50.28C45.0059 50.28 50.28 45.0059 50.28 38.5C50.28 31.9941 45.0059 26.72 38.5 26.72ZM23 38.5C23 29.9396 29.9396 23 38.5 23C47.0604 23 54 29.9396 54 38.5C54 47.0604 47.0604 54 38.5 54C29.9396 54 23 47.0604 23 38.5Z" fill="white"/>
<path fill-rule="evenodd" clip-rule="evenodd" d="M22.9286 1C23.9937 1 24.8571 1.82655 24.8571 2.84615V10.2308C24.8571 11.9301 26.2962 13.3077 28.0714 13.3077H37.0714C38.1365 13.3077 39 14.1342 39 15.1538C39 16.1734 38.1365 17 37.0714 17H28.0714C24.166 17 21 13.9693 21 10.2308V2.84615C21 1.82655 21.8635 1 22.9286 1Z" fill="white"/>
</svg>
