<svg width="375" height="57" viewBox="0 0 375 57" fill="none" xmlns="http://www.w3.org/2000/svg">
<path d="M-424 6.6371e-06L-415.348 0L-405.279 45.7647L-405.277 45.7665C-405.24 46.4783 -404.656 47.0439 -403.942 47.0439C-403.919 47.0439 -403.896 47.0433 -403.874 47.0421L-403.872 47.0439H-397.538L-397.536 47.0419C-396.855 47.0053 -396.309 46.4543 -396.273 45.7667L-396.271 45.7647L-392.623 23.3226C-392.588 23.0781 -392.545 22.8354 -392.496 22.5948L-392.491 22.5654L-392.49 22.5656C-391.905 19.7384 -390.366 17.1937 -388.125 15.3746C-385.684 13.3944 -382.592 12.4207 -379.47 12.6493C-376.347 12.8778 -373.426 14.2917 -371.295 16.6066C-369.163 18.9207 -367.979 21.9637 -367.979 25.1237L-367.979 39.2269C-367.979 40.4028 -367.749 41.5671 -367.304 42.6535C-366.858 43.7398 -366.205 44.7269 -365.381 45.5583C-364.558 46.3898 -363.58 47.0493 -362.505 47.4993C-361.429 47.9493 -360.276 48.1809 -359.111 48.1809C-357.947 48.1809 -356.793 47.9493 -355.718 47.4993C-354.642 47.0493 -353.664 46.3898 -352.841 45.5583C-352.017 44.7269 -351.364 43.7398 -350.918 42.6535C-350.473 41.5671 -350.243 40.4028 -350.243 39.2269L-350.243 17.7658C-350.243 15.4328 -349.788 13.1226 -348.904 10.9671C-348.02 8.81168 -346.724 6.85319 -345.09 5.20348C-343.456 3.55378 -341.517 2.24515 -339.382 1.35234C-337.247 0.459524 -334.959 1.17382e-06 -332.649 1.58276e-06C-330.338 1.9917e-06 -328.05 0.459526 -325.915 1.35234C-323.781 2.24516 -321.841 3.55378 -320.207 5.20349C-318.574 6.85319 -317.278 8.81168 -316.393 10.9671C-315.509 13.1226 -315.054 15.4328 -315.054 17.7658L-315.054 39.2342C-315.054 40.41 -314.825 41.5744 -314.379 42.6607C-313.933 43.7471 -313.28 44.7341 -312.457 45.5656C-311.633 46.3971 -310.656 47.0566 -309.58 47.5066C-308.504 47.9566 -307.351 48.1882 -306.186 48.1882C-305.022 48.1882 -303.869 47.9566 -302.793 47.5066C-301.717 47.0566 -300.739 46.3971 -299.916 45.5656C-299.093 44.7341 -298.439 43.7471 -297.994 42.6607C-297.548 41.5744 -297.319 40.41 -297.319 39.2342L-297.319 17.7658C-297.319 15.4328 -296.864 13.1226 -295.979 10.9671C-295.095 8.81168 -293.799 6.85319 -292.165 5.20348C-290.532 3.55378 -288.592 2.24515 -286.457 1.35234C-284.323 0.459524 -282.035 1.17382e-06 -279.724 1.58276e-06C-277.414 1.9917e-06 -275.126 0.459526 -272.991 1.35234C-270.856 2.24516 -268.917 3.55378 -267.283 5.20349C-265.649 6.85319 -264.353 8.81168 -263.469 10.9671C-262.585 13.1226 -262.129 15.4328 -262.129 17.7658V39.2342C-262.129 40.41 -261.9 41.5744 -261.454 42.6607C-261.009 43.7471 -260.356 44.7341 -259.532 45.5656C-258.709 46.3971 -257.731 47.0566 -256.655 47.5066C-255.579 47.9566 -254.426 48.1882 -253.262 48.1882C-252.097 48.1882 -250.944 47.9566 -249.868 47.5066C-248.792 47.0566 -247.815 46.3971 -246.991 45.5656C-246.168 44.7341 -245.515 43.7471 -245.069 42.6607C-244.623 41.5744 -244.394 40.41 -244.394 39.2342V21.4453L-244.394 17.7658C-244.394 15.4328 -243.939 13.1226 -243.055 10.9671C-242.17 8.81168 -240.874 6.85319 -239.241 5.20348C-237.607 3.55378 -235.667 2.24515 -233.532 1.35234C-231.398 0.459524 -229.11 1.17382e-06 -226.799 1.58276e-06C-224.489 1.9917e-06 -222.201 0.459526 -220.066 1.35234C-217.931 2.24516 -215.992 3.55378 -214.358 5.20349C-212.724 6.85319 -211.428 8.81168 -210.544 10.9671C-209.66 13.1226 -209.205 15.4328 -209.205 17.7658V39.2342C-209.205 40.41 -208.975 41.5744 -208.53 42.6607C-208.084 43.7471 -207.431 44.7341 -206.607 45.5656C-205.784 46.3971 -204.806 47.0566 -203.731 47.5066C-202.655 47.9566 -201.502 48.1882 -200.337 48.1882C-199.172 48.1882 -198.019 47.9566 -196.943 47.5066C-195.868 47.0566 -194.89 46.3971 -194.067 45.5656C-193.243 44.7341 -192.59 43.7471 -192.144 42.6607C-191.699 41.5744 -191.469 40.41 -191.469 39.2342L-191.469 17.7658C-191.469 15.4328 -191.014 13.1226 -190.13 10.9671C-189.246 8.81168 -187.95 6.85319 -186.316 5.20348C-184.682 3.55378 -182.742 2.24515 -180.608 1.35234C-178.473 0.459524 -176.185 1.17382e-06 -173.875 1.58276e-06C-171.564 1.9917e-06 -169.276 0.459526 -167.141 1.35234C-165.007 2.24516 -163.067 3.55378 -161.433 5.20349C-159.799 6.85319 -158.503 8.81168 -157.619 10.9671C-156.735 13.1226 -156.28 15.4328 -156.28 17.7658V39.2342C-156.28 40.41 -156.051 41.5744 -155.605 42.6607C-155.159 43.7471 -154.506 44.7341 -153.683 45.5656C-152.859 46.3971 -151.882 47.0566 -150.806 47.5066C-149.73 47.9566 -148.577 48.1882 -147.412 48.1882C-146.248 48.1882 -145.095 47.9566 -144.019 47.5066C-142.943 47.0566 -141.965 46.3971 -141.142 45.5656C-140.318 44.7341 -139.665 43.7471 -139.22 42.6607C-138.774 41.5744 -138.545 40.41 -138.545 39.2342V35.5547L-138.618 17.7658C-138.618 15.4328 -138.163 13.1226 -137.279 10.9671C-136.395 8.81168 -135.099 6.85319 -133.465 5.20348C-131.831 3.55378 -129.892 2.24515 -127.757 1.35234C-125.622 0.459524 -123.334 1.17382e-06 -121.024 1.58276e-06C-118.713 1.9917e-06 -116.425 0.459526 -114.29 1.35234C-112.156 2.24516 -110.216 3.55378 -108.582 5.20349C-106.949 6.85319 -105.653 8.81168 -104.768 10.9671C-103.884 13.1226 -103.429 15.4328 -103.429 17.7658V39.2342C-103.429 40.41 -103.2 41.5744 -102.754 42.6607C-102.308 43.7471 -101.655 44.7341 -100.832 45.5656C-100.008 46.3971 -99.0308 47.0566 -97.9549 47.5066C-96.879 47.9566 -95.7259 48.1882 -94.5614 48.1882C-93.3969 48.1882 -92.2437 47.9566 -91.1678 47.5066C-90.0919 47.0566 -89.1144 46.3971 -88.291 45.5656C-87.4675 44.7341 -86.8143 43.7471 -86.3687 42.6607C-85.923 41.5744 -85.6937 40.41 -85.6937 39.2342L-85.6935 17.7658C-85.6935 15.4328 -85.2384 13.1226 -84.3542 10.9671C-83.47 8.81168 -82.174 6.85319 -80.5402 5.20348C-78.9064 3.55378 -76.9667 2.24515 -74.8321 1.35234C-72.6974 0.459524 -70.4095 1.17382e-06 -68.0989 1.58276e-06C-65.7883 1.9917e-06 -63.5004 0.459526 -61.3657 1.35234C-59.231 2.24516 -57.2914 3.55378 -55.6576 5.20349C-54.0238 6.85319 -52.7278 8.81168 -51.8436 10.9671C-50.9594 13.1226 -50.5043 15.4328 -50.5043 17.7658V39.2342C-50.5043 40.41 -50.2749 41.5744 -49.8293 42.6607C-49.3836 43.7471 -48.7304 44.7341 -47.907 45.5656C-47.0836 46.3971 -46.106 47.0566 -45.0301 47.5066C-43.9542 47.9566 -42.8011 48.1882 -41.6366 48.1882C-40.4721 48.1882 -39.319 47.9566 -38.2431 47.5066C-37.1672 47.0566 -36.1896 46.3971 -35.3662 45.5656C-34.5428 44.7341 -33.8896 43.7471 -33.4439 42.6607C-32.9983 41.5744 -32.7689 40.41 -32.7689 39.2342L-32.7687 17.7658C-32.7687 15.4328 -32.3137 13.1226 -31.4294 10.9671C-30.5452 8.81168 -29.2492 6.85319 -27.6154 5.20348C-25.9816 3.55378 -24.042 2.24515 -21.9073 1.35234C-19.7726 0.459524 -17.4847 1.17382e-06 -15.1741 1.58276e-06C-12.8636 1.9917e-06 -10.5756 0.459526 -8.44092 1.35234C-6.30627 2.24516 -4.36664 3.55378 -2.73285 5.20349C-1.099 6.85319 0.196991 8.81168 1.08118 10.9671C1.96539 13.1226 2.42053 15.4328 2.42053 17.7658L2.4205 39.2342C2.4205 40.41 2.64987 41.5744 3.09552 42.6607C3.54114 43.7471 4.19434 44.7341 5.01779 45.5656C5.84125 46.3971 6.81876 47.0566 7.89465 47.5066C8.97055 47.9566 10.1237 48.1882 11.2882 48.1882C12.4527 48.1882 13.6058 47.9566 14.6817 47.5066C15.7576 47.0566 16.7352 46.3971 17.5586 45.5656C18.3821 44.7341 19.0352 43.7471 19.4809 42.6607C19.9265 41.5744 20.1559 40.41 20.1559 39.2342V35.5547H20.1012V17.7658C20.1012 15.4328 20.5563 13.1226 21.4405 10.9671C22.3247 8.81168 23.6207 6.85319 25.2546 5.20348C26.8884 3.55378 28.828 2.24515 30.9627 1.35234C33.0974 0.459524 35.3853 1.17382e-06 37.6959 1.58276e-06C40.0064 1.9917e-06 42.2943 0.459526 44.429 1.35234C46.5637 2.24516 48.5033 3.55378 50.1371 5.20349C51.7709 6.85319 53.067 8.81168 53.9511 10.9671C54.8354 13.1226 55.2905 15.4328 55.2905 17.7658V39.2342C55.2905 40.41 55.5198 41.5744 55.9655 42.6607C56.4112 43.7471 57.0643 44.7341 57.8878 45.5656C58.7112 46.3971 59.6888 47.0566 60.7647 47.5066C61.8405 47.9566 62.9937 48.1882 64.1581 48.1882C65.3227 48.1882 66.4758 47.9566 67.5517 47.5066C68.6276 47.0566 69.6051 46.3971 70.4286 45.5656C71.252 44.7341 71.9052 43.7471 72.3509 42.6607C72.7965 41.5744 73.0258 40.41 73.0258 39.2342L73.0258 17.7658C73.0258 15.4328 73.4809 13.1226 74.3651 10.9671C75.2493 8.81168 76.5453 6.85319 78.1791 5.20348C79.813 3.55378 81.7526 2.24515 83.8873 1.35234C86.0219 0.459524 88.3099 1.17382e-06 90.6204 1.58276e-06C92.931 1.9917e-06 95.2189 0.459526 97.3536 1.35234C99.4883 2.24516 101.428 3.55378 103.062 5.20349C104.695 6.85319 105.992 8.81168 106.876 10.9671C107.76 13.1226 108.215 15.4328 108.215 17.7658V39.2342C108.215 40.41 108.444 41.5744 108.89 42.6607C109.336 43.7471 109.989 44.7341 110.812 45.5656C111.636 46.3971 112.613 47.0566 113.689 47.5066C114.765 47.9566 115.918 48.1882 117.083 48.1882C118.247 48.1882 119.4 47.9566 120.476 47.5066C121.552 47.0566 122.53 46.3971 123.353 45.5656C124.177 44.7341 124.83 43.7471 125.275 42.6607C125.721 41.5744 125.95 40.41 125.95 39.2342L125.95 17.7658C125.95 15.4328 126.405 13.1226 127.29 10.9671C128.174 8.81168 129.47 6.85319 131.104 5.20348C132.738 3.55378 134.677 2.24515 136.812 1.35234C138.946 0.459524 141.234 1.17382e-06 143.545 1.58276e-06C145.856 1.9917e-06 148.143 0.459526 150.278 1.35234C152.413 2.24516 154.352 3.55378 155.986 5.20349C157.62 6.85319 158.916 8.81168 159.8 10.9671C160.685 13.1226 161.14 15.4328 161.14 17.7658V39.2342C161.14 40.41 161.369 41.5744 161.815 42.6607C162.26 43.7471 162.913 44.7341 163.737 45.5656C164.56 46.3971 165.538 47.0566 166.614 47.5066C167.69 47.9566 168.843 48.1882 170.007 48.1882C171.172 48.1882 172.325 47.9566 173.401 47.5066C174.477 47.0566 175.454 46.3971 176.278 45.5656C177.101 44.7341 177.754 43.7471 178.2 42.6607C178.646 41.5744 178.875 40.41 178.875 39.2342L178.875 17.7658C178.875 15.4328 179.331 13.1226 180.215 10.9671C181.099 8.81168 182.395 6.85319 184.029 5.20348C185.662 3.55378 187.602 2.24515 189.737 1.35234C191.872 0.459524 194.159 1.17382e-06 196.47 1.58276e-06C198.781 1.9917e-06 201.068 0.459526 203.203 1.35234C205.338 2.24516 207.277 3.55378 208.911 5.20349C210.545 6.85319 211.841 8.81168 212.725 10.9671C213.609 13.1226 214.065 15.4328 214.065 17.7658V39.2342C214.065 40.41 214.294 41.5744 214.74 42.6607C215.185 43.7471 215.838 44.7341 216.662 45.5656C217.485 46.3971 218.463 47.0566 219.539 47.5066C220.615 47.9566 221.768 48.1882 222.932 48.1882C224.097 48.1882 225.25 47.9566 226.326 47.5066C227.402 47.0566 228.379 46.3971 229.203 45.5656C230.026 44.7341 230.679 43.7471 231.125 42.6607C231.571 41.5744 231.8 40.41 231.8 39.2342V35.5547H231.726V17.7658C231.726 15.4328 232.182 13.1226 233.066 10.9671C233.95 8.81168 235.246 6.85319 236.88 5.20348C238.514 3.55378 240.453 2.24515 242.588 1.35234C244.723 0.459524 247.01 1.17382e-06 249.321 1.58276e-06C251.632 1.9917e-06 253.92 0.459526 256.054 1.35234C258.189 2.24516 260.128 3.55378 261.762 5.20349C263.396 6.85319 264.692 8.81168 265.576 10.9671C266.461 13.1226 266.916 15.4328 266.916 17.7658V39.2342C266.916 40.41 267.145 41.5744 267.591 42.6607C268.036 43.7471 268.69 44.7341 269.513 45.5656C270.336 46.3971 271.314 47.0566 272.39 47.5066C273.466 47.9566 274.619 48.1882 275.783 48.1882C276.948 48.1882 278.101 47.9566 279.177 47.5066C280.253 47.0566 281.23 46.3971 282.054 45.5656C282.877 44.7341 283.53 43.7471 283.976 42.6607C284.422 41.5744 284.651 40.41 284.651 39.2342L284.651 17.7658C284.651 15.4328 285.106 13.1226 285.99 10.9671C286.875 8.81168 288.17 6.85319 289.804 5.20348C291.438 3.55378 293.378 2.24515 295.513 1.35234C297.647 0.459524 299.935 1.17382e-06 302.246 1.58276e-06C304.556 1.9917e-06 306.844 0.459526 308.979 1.35234C311.113 2.24516 313.053 3.55378 314.687 5.20349C316.321 6.85319 317.617 8.81168 318.501 10.9671C319.385 13.1226 319.84 15.4328 319.84 17.7658V39.2342C319.84 40.41 320.07 41.5744 320.515 42.6607C320.961 43.7471 321.614 44.7341 322.438 45.5656C323.261 46.3971 324.239 47.0566 325.314 47.5066C326.39 47.9566 327.543 48.1882 328.708 48.1882C329.872 48.1882 331.026 47.9566 332.101 47.5066C333.177 47.0566 334.155 46.3971 334.978 45.5656C335.802 44.7341 336.455 43.7471 336.901 42.6607C337.346 41.5744 337.576 40.41 337.576 39.2342L337.576 17.7658C337.576 15.4328 338.031 13.1226 338.915 10.9671C339.799 8.81168 341.095 6.85319 342.729 5.20348C344.363 3.55378 346.302 2.24515 348.437 1.35234C350.572 0.459524 352.86 1.17382e-06 355.17 1.58276e-06C357.481 1.9917e-06 359.769 0.459526 361.903 1.35234C364.038 2.24516 365.978 3.55378 367.611 5.20349C369.245 6.85319 370.541 8.81168 371.425 10.9671C372.31 13.1226 372.765 15.4328 372.765 17.7658V39.2342C372.765 40.41 372.994 41.5744 373.44 42.6607C373.885 43.7471 374.539 44.7341 375.362 45.5656C376.186 46.3971 377.163 47.0566 378.239 47.5066C379.315 47.9566 380.468 48.1882 381.632 48.1882C382.797 48.1882 383.95 47.9566 385.026 47.5066C386.102 47.0566 387.079 46.3971 387.903 45.5656C388.726 44.7341 389.38 43.7471 389.825 42.6607C390.271 41.5744 390.5 40.41 390.5 39.2342V35.5547H390.454V17.7658C390.454 15.4328 390.909 13.1226 391.794 10.9671C392.678 8.81168 393.974 6.85319 395.608 5.20348C397.242 3.55378 399.181 2.24515 401.316 1.35234C403.45 0.459524 405.738 1.17382e-06 408.049 1.58276e-06C410.36 1.9917e-06 412.648 0.459526 414.782 1.35234C416.917 2.24516 418.856 3.55378 420.49 5.20349C422.124 6.85319 423.42 8.81168 424.304 10.9671C425.188 13.1226 425.644 15.4328 425.644 17.7658V39.2342C425.644 40.41 425.873 41.5744 426.319 42.6607C426.764 43.7471 427.417 44.7341 428.241 45.5656C429.064 46.3971 430.042 47.0566 431.118 47.5066C432.194 47.9566 433.347 48.1882 434.511 48.1882C435.676 48.1882 436.829 47.9566 437.905 47.5066C438.981 47.0566 439.958 46.3971 440.782 45.5656C441.605 44.7341 442.258 43.7471 442.704 42.6607C443.15 41.5744 443.379 40.41 443.379 39.2342L443.379 17.7658C443.379 15.4328 443.834 13.1226 444.719 10.9671C445.603 8.81168 446.899 6.85319 448.533 5.20348C450.167 3.55378 452.106 2.24515 454.241 1.35234C456.375 0.459524 458.663 1.17382e-06 460.974 1.58276e-06C463.284 1.9917e-06 465.572 0.459526 467.707 1.35234C469.842 2.24516 471.781 3.55378 473.415 5.20349C475.049 6.85319 476.345 8.81168 477.229 10.9671C478.113 13.1226 478.569 15.4328 478.569 17.7658V39.2342C478.569 40.41 478.798 41.5744 479.244 42.6607C479.689 43.7471 480.342 44.7341 481.166 45.5656C481.989 46.3971 482.967 47.0566 484.043 47.5066C485.119 47.9566 486.272 48.1882 487.436 48.1882C488.601 48.1882 489.754 47.9566 490.83 47.5066C491.906 47.0566 492.883 46.3971 493.707 45.5656C494.53 44.7341 495.183 43.7471 495.629 42.6607C496.075 41.5744 496.304 40.41 496.304 39.2342L496.304 17.7658C496.304 15.4328 496.759 13.1226 497.643 10.9671C498.527 8.81168 499.823 6.85319 501.457 5.20348C503.091 3.55378 505.031 2.24515 507.165 1.35234C509.3 0.459524 511.588 1.17382e-06 513.899 1.58276e-06C516.209 1.9917e-06 518.497 0.459526 520.632 1.35234C522.766 2.24516 524.706 3.55378 526.34 5.20349C527.974 6.85319 529.27 8.81168 530.154 10.9671C531.038 13.1226 531.493 15.4328 531.493 17.7658V39.2342C531.493 40.41 531.723 41.5744 532.168 42.6607C532.614 43.7471 533.267 44.7341 534.09 45.5656C534.914 46.3971 535.891 47.0566 536.967 47.5066C538.043 47.9566 539.196 48.1882 540.361 48.1882C541.525 48.1882 542.678 47.9566 543.754 47.5066C544.83 47.0566 545.808 46.3971 546.631 45.5656C547.455 44.7341 548.108 43.7471 548.554 42.6607C548.999 41.5744 549.229 40.41 549.229 39.2342V35.5547H549.155V17.7658C549.155 15.4328 549.61 13.1226 550.494 10.9671C551.378 8.81168 552.674 6.85319 554.308 5.20348C555.942 3.55378 557.881 2.24515 560.016 1.35234C562.151 0.459524 564.439 1.17382e-06 566.749 1.58276e-06C569.06 1.9917e-06 571.348 0.459526 573.482 1.35234C575.617 2.24516 577.557 3.55378 579.19 5.20349C580.824 6.85319 582.12 8.81168 583.005 10.9671C583.889 13.1226 584.344 15.4328 584.344 17.7658V39.2342C584.344 40.41 584.573 41.5744 585.019 42.6607C585.464 43.7471 586.118 44.7341 586.941 45.5656C587.765 46.3971 588.742 47.0566 589.818 47.5066C590.894 47.9566 592.047 48.1882 593.211 48.1882C594.376 48.1882 595.529 47.9566 596.605 47.5066C597.681 47.0566 598.658 46.3971 599.482 45.5656C600.305 44.7341 600.958 43.7471 601.404 42.6607C601.85 41.5744 602.079 40.41 602.079 39.2342L602.08 17.7658C602.08 15.4328 602.535 13.1226 603.419 10.9671C604.303 8.81168 605.599 6.85319 607.233 5.20348C608.867 3.55378 610.806 2.24515 612.941 1.35234C615.076 0.459524 617.364 1.17382e-06 619.674 1.58276e-06C621.985 1.9917e-06 624.273 0.459526 626.407 1.35234C628.542 2.24516 630.482 3.55378 632.115 5.20349C633.749 6.85319 635.045 8.81168 635.93 10.9671C636.814 13.1226 637.269 15.4328 637.269 17.7658V39.2342C637.269 40.41 637.498 41.5744 637.944 42.6607C638.389 43.7471 639.043 44.7341 639.866 45.5656C640.689 46.3971 641.667 47.0566 642.743 47.5066C643.819 47.9566 644.972 48.1882 646.136 48.1882C647.301 48.1882 648.454 47.9566 649.53 47.5066C650.606 47.0566 651.583 46.3971 652.407 45.5656C653.23 44.7341 653.884 43.7471 654.329 42.6607C654.775 41.5744 655.004 40.41 655.004 39.2342L655.005 17.7658C655.005 15.4328 655.46 13.1226 656.344 10.9671C657.228 8.81168 658.524 6.85319 660.158 5.20348C661.792 3.55378 663.731 2.24515 665.866 1.35234C668.001 0.459524 670.289 1.17382e-06 672.599 1.58276e-06C674.91 1.9917e-06 677.198 0.459526 679.332 1.35234C681.467 2.24516 683.407 3.55378 685.04 5.20349C686.674 6.85319 687.97 8.81168 688.854 10.9671C689.739 13.1226 690.194 15.4328 690.194 17.7658V39.2342C690.194 40.41 690.423 41.5744 690.869 42.6607C691.314 43.7471 691.968 44.7341 692.791 45.5656C693.615 46.3971 694.592 47.0566 695.668 47.5066C696.744 47.9566 697.897 48.1882 699.062 48.1882C700.226 48.1882 701.379 47.9566 702.455 47.5066C703.531 47.0566 704.508 46.3971 705.332 45.5656C706.155 44.7341 706.808 43.7471 707.254 42.6607C707.7 41.5744 707.929 40.41 707.929 39.2342V35.5547H707.874V17.7658C707.874 15.4328 708.329 13.1226 709.213 10.9671C710.098 8.81168 711.394 6.85319 713.027 5.20348C714.661 3.55378 716.601 2.24515 718.735 1.35234C720.87 0.459524 723.158 1.17382e-06 725.469 1.58276e-06C727.779 1.9917e-06 730.067 0.459526 732.202 1.35234C734.337 2.24516 736.276 3.55378 737.91 5.20349C739.544 6.85319 740.84 8.81168 741.724 10.9671C742.608 13.1226 743.063 15.4328 743.063 17.7658V39.2342C743.063 40.41 743.293 41.5744 743.738 42.6607C744.184 43.7471 744.837 44.7341 745.661 45.5656C746.484 46.3971 747.462 47.0566 748.537 47.5066C749.613 47.9566 750.766 48.1882 751.931 48.1882C753.095 48.1882 754.249 47.9566 755.324 47.5066C756.4 47.0566 757.378 46.3971 758.201 45.5656C759.025 44.7341 759.678 43.7471 760.124 42.6607C760.569 41.5744 760.799 40.41 760.799 39.2342L760.799 17.7658C760.799 15.4328 761.254 13.1226 762.138 10.9671C763.023 8.81168 764.319 6.85319 765.952 5.20348C767.586 3.55378 769.526 2.24515 771.661 1.35234C773.795 0.459524 776.083 1.17382e-06 778.394 1.58276e-06C780.704 1.9917e-06 782.992 0.459526 785.127 1.35234C787.262 2.24516 789.201 3.55378 790.835 5.20349C792.469 6.85319 793.765 8.81168 794.649 10.9671C795.533 13.1226 795.988 15.4328 795.988 17.7658V39.2342C795.988 40.41 796.218 41.5744 796.663 42.6607C797.109 43.7471 797.762 44.7341 798.586 45.5656C799.409 46.3971 800.387 47.0566 801.463 47.5066C802.538 47.9566 803.692 48.1882 804.856 48.1882C806.021 48.1882 807.174 47.9566 808.25 47.5066C809.325 47.0566 810.303 46.3971 811.126 45.5656C811.95 44.7341 812.603 43.7471 813.049 42.6607C813.494 41.5744 813.724 40.41 813.724 39.2342L813.723 17.7658C813.723 15.4328 814.178 13.1226 815.062 10.9671C815.947 8.81168 817.243 6.85319 818.877 5.20348C820.51 3.55378 822.45 2.24515 824.585 1.35234C826.719 0.459524 829.007 1.17382e-06 831.318 1.58276e-06C833.628 1.9917e-06 835.916 0.459526 838.051 1.35234C840.186 2.24516 842.125 3.55378 843.759 5.20349C845.393 6.85319 846.689 8.81168 847.573 10.9671C848.457 13.1226 848.912 15.4328 848.912 17.7658V39.2342C848.912 40.41 849.142 41.5744 849.587 42.6607C850.033 43.7471 850.686 44.7341 851.51 45.5656C852.333 46.3971 853.311 47.0566 854.387 47.5066C855.463 47.9566 856.616 48.1882 857.78 48.1882C858.945 48.1882 860.098 47.9566 861.174 47.5066C862.25 47.0566 863.227 46.3971 864.051 45.5656C864.874 44.7341 865.527 43.7471 865.973 42.6607C866.418 41.5744 866.648 40.41 866.648 39.2342L866.648 17.7658C866.648 15.4328 867.103 13.1226 867.988 10.9671C868.872 8.81168 870.168 6.85319 871.802 5.20348C873.435 3.55378 875.375 2.24515 877.51 1.35234C879.644 0.459524 881.932 1.17382e-06 884.243 1.58276e-06C886.553 1.9917e-06 888.841 0.459526 890.976 1.35234C893.111 2.24516 895.05 3.55378 896.684 5.20349C898.318 6.85319 899.614 8.81168 900.498 10.9671C901.382 13.1226 901.837 15.4328 901.837 17.7658V39.2342C901.837 40.41 902.067 41.5744 902.512 42.6607C902.958 43.7471 903.611 44.7341 904.435 45.5656C905.258 46.3971 906.236 47.0566 907.312 47.5066C908.387 47.9566 909.541 48.1882 910.705 48.1882C911.87 48.1882 913.023 47.9566 914.099 47.5066C915.175 47.0566 916.152 46.3971 916.975 45.5656C917.799 44.7341 918.452 43.7471 918.898 42.6607C919.344 41.5744 919.573 40.41 919.573 39.2342V35.5547H919.499V17.7658C919.499 15.4328 919.954 13.1226 920.839 10.9671C921.723 8.81168 923.019 6.85319 924.653 5.20348C926.286 3.55378 928.226 2.24515 930.361 1.35234C932.495 0.459524 934.783 1.17382e-06 937.094 1.58276e-06C939.404 1.9917e-06 941.692 0.459526 943.827 1.35234C945.962 2.24516 947.901 3.55378 949.535 5.20349C951.169 6.85319 952.465 8.81168 953.349 10.9671C954.233 13.1226 954.688 15.4328 954.688 17.7658V39.2342C954.688 40.41 954.918 41.5744 955.364 42.6607C955.809 43.7471 956.462 44.7341 957.286 45.5656C958.109 46.3971 959.087 47.0566 960.163 47.5066C961.239 47.9566 962.392 48.1882 963.556 48.1882C964.721 48.1882 965.874 47.9566 966.95 47.5066C968.026 47.0566 969.003 46.3971 969.827 45.5656C970.65 44.7341 971.303 43.7471 971.749 42.6607C972.195 41.5744 972.424 40.41 972.424 39.2342L972.424 17.7658C972.424 15.4328 972.879 13.1226 973.764 10.9671C974.648 8.81168 975.944 6.85319 977.578 5.20348C979.211 3.55378 981.151 2.24515 983.286 1.35234C985.42 0.459524 987.708 1.17382e-06 990.019 1.58276e-06C992.329 1.9917e-06 994.617 0.459526 996.752 1.35234C998.887 2.24516 1000.83 3.55378 1002.46 5.20349C1004.09 6.85319 1005.39 8.81168 1006.27 10.9671C1007.16 13.1226 1007.61 15.4328 1007.61 17.7658V39.2342C1007.61 40.41 1007.84 41.5744 1008.29 42.6607C1008.73 43.7471 1009.39 44.7341 1010.21 45.5656C1011.03 46.3971 1012.01 47.0566 1013.09 47.5066C1014.16 47.9566 1015.32 48.1882 1016.48 48.1882C1017.65 48.1882 1018.8 47.9566 1019.87 47.5066C1020.95 47.0566 1021.93 46.3971 1022.75 45.5656C1023.57 44.7341 1024.23 43.7471 1024.67 42.6607C1025.12 41.5744 1025.35 40.41 1025.35 39.2342L1025.35 17.7658C1025.35 15.4328 1025.8 13.1226 1026.69 10.9671C1027.57 8.81168 1028.87 6.85319 1030.5 5.20348C1032.14 3.55378 1034.08 2.24515 1036.21 1.35234C1038.34 0.459524 1040.63 1.17382e-06 1042.94 1.58276e-06C1045.25 1.9917e-06 1047.54 0.459526 1049.68 1.35234C1051.81 2.24516 1053.75 3.55378 1055.38 5.20349C1057.02 6.85319 1058.31 8.81168 1059.2 10.9671C1060.08 13.1226 1060.54 15.4328 1060.54 17.7658V39.2342C1060.54 40.41 1060.77 41.5744 1061.21 42.6607C1061.66 43.7471 1062.31 44.7341 1063.13 45.5656C1063.96 46.3971 1064.94 47.0566 1066.01 47.5066C1067.09 47.9566 1068.24 48.1882 1069.41 48.1882C1070.57 48.1882 1071.72 47.9566 1072.8 47.5066C1073.87 47.0566 1074.85 46.3971 1075.68 45.5656C1076.5 44.7341 1077.15 43.7471 1077.6 42.6607C1078.04 41.5744 1078.27 40.41 1078.27 39.2342V21.4453L1087 21.4453V39.2342C1087 41.5672 1086.54 43.8774 1085.66 46.0329C1084.78 48.1883 1083.48 50.1468 1081.85 51.7965C1080.21 53.4462 1078.27 54.7548 1076.14 55.6477C1074 56.5405 1071.72 57 1069.41 57C1067.09 57 1064.81 56.5405 1062.67 55.6477C1060.54 54.7548 1058.6 53.4462 1056.96 51.7965C1055.33 50.1468 1054.03 48.1883 1053.15 46.0329C1052.27 43.8774 1051.81 41.5672 1051.81 39.2342V17.7658C1051.81 16.59 1051.58 15.4256 1051.14 14.3393C1050.69 13.2529 1050.04 12.2659 1049.21 11.4344C1048.39 10.6029 1047.41 9.9434 1046.34 9.49342C1045.26 9.04344 1044.11 8.81184 1042.94 8.81184C1041.78 8.81184 1040.63 9.04344 1039.55 9.49342C1038.47 9.9434 1037.5 10.6029 1036.67 11.4344C1035.85 12.2659 1035.2 13.2529 1034.75 14.3393C1034.3 15.4256 1034.08 16.59 1034.08 17.7658L1034.08 39.2342C1034.08 41.5672 1033.62 43.8774 1032.74 46.0329C1031.85 48.1883 1030.56 50.1468 1028.92 51.7965C1027.29 53.4462 1025.35 54.7548 1023.21 55.6477C1021.08 56.5405 1018.79 57 1016.48 57C1014.17 57 1011.88 56.5405 1009.75 55.6477C1007.61 54.7548 1005.67 53.4462 1004.04 51.7965C1002.41 50.1468 1001.11 48.1883 1000.23 46.0329C999.342 43.8774 998.887 41.5672 998.887 39.2342V17.7658C998.887 16.59 998.657 15.4256 998.212 14.3393C997.766 13.2529 997.113 12.2659 996.289 11.4344C995.466 10.6029 994.488 9.9434 993.412 9.49342C992.337 9.04344 991.183 8.81184 990.019 8.81184C988.854 8.81184 987.701 9.04344 986.625 9.49342C985.549 9.9434 984.572 10.6029 983.749 11.4344C982.925 12.2659 982.272 13.2529 981.826 14.3393C981.38 15.4256 981.151 16.59 981.151 17.7658L981.151 39.2342C981.151 41.5672 980.696 43.8774 979.812 46.0329C978.927 48.1883 977.631 50.1468 975.997 51.7965C974.364 53.4462 972.424 54.7548 970.289 55.6477C968.155 56.5405 965.867 57 963.556 57C961.246 57 958.958 56.5405 956.823 55.6477C954.688 54.7548 952.749 53.4462 951.115 51.7965C949.481 50.1468 948.185 48.1883 947.301 46.0329C946.417 43.8774 945.962 41.5672 945.962 39.2342V17.7658C945.962 16.59 945.732 15.4256 945.287 14.3393C944.841 13.2529 944.188 12.2659 943.364 11.4344C942.541 10.6029 941.563 9.9434 940.487 9.49342C939.411 9.04344 938.258 8.81184 937.094 8.81184C935.929 8.81184 934.776 9.04344 933.7 9.49342C932.625 9.9434 931.647 10.6029 930.823 11.4344C930 12.2659 929.347 13.2529 928.901 14.3393C928.456 15.4256 928.226 16.59 928.226 17.7658V21.4453H928.3V39.2342C928.3 41.5672 927.845 43.8774 926.96 46.0329C926.076 48.1883 924.78 50.1468 923.146 51.7965C921.513 53.4462 919.573 54.7548 917.438 55.6477C915.304 56.5405 913.016 57 910.705 57C908.395 57 906.107 56.5405 903.972 55.6477C901.837 54.7548 899.898 53.4462 898.264 51.7965C896.63 50.1468 895.334 48.1883 894.45 46.0329C893.566 43.8774 893.11 41.5672 893.11 39.2342V17.7658C893.11 16.59 892.881 15.4256 892.436 14.3393C891.99 13.2529 891.337 12.2659 890.513 11.4344C889.69 10.6029 888.712 9.9434 887.636 9.49342C886.56 9.04344 885.407 8.81184 884.243 8.81184C883.078 8.81184 881.925 9.04344 880.849 9.49342C879.773 9.9434 878.796 10.6029 877.972 11.4344C877.149 12.2659 876.496 13.2529 876.05 14.3393C875.604 15.4256 875.375 16.59 875.375 17.7658L875.375 39.2342C875.375 41.5672 874.92 43.8774 874.035 46.0329C873.151 48.1883 871.855 50.1468 870.222 51.7965C868.588 53.4462 866.648 54.7548 864.513 55.6477C862.379 56.5405 860.091 57 857.78 57C855.47 57 853.182 56.5405 851.047 55.6477C848.912 54.7548 846.973 53.4462 845.339 51.7965C843.705 50.1468 842.409 48.1883 841.525 46.0329C840.641 43.8774 840.186 41.5672 840.186 39.2342V17.7658C840.186 16.59 839.956 15.4256 839.511 14.3393C839.065 13.2529 838.412 12.2659 837.588 11.4344C836.765 10.6029 835.787 9.9434 834.711 9.49342C833.635 9.04344 832.482 8.81184 831.318 8.81184C830.153 8.81184 829 9.04344 827.924 9.49342C826.848 9.9434 825.871 10.6029 825.047 11.4344C824.224 12.2659 823.571 13.2529 823.125 14.3393C822.679 15.4256 822.45 16.59 822.45 17.7658L822.451 39.2342C822.451 41.5672 821.995 43.8774 821.111 46.0329C820.227 48.1883 818.931 50.1468 817.297 51.7965C815.663 53.4462 813.724 54.7548 811.589 55.6477C809.454 56.5405 807.167 57 804.856 57C802.546 57 800.257 56.5405 798.123 55.6477C795.988 54.7548 794.048 53.4462 792.415 51.7965C790.781 50.1468 789.485 48.1883 788.601 46.0329C787.717 43.8774 787.261 41.5672 787.261 39.2342V17.7658C787.261 16.59 787.032 15.4256 786.586 14.3393C786.141 13.2529 785.488 12.2659 784.664 11.4344C783.841 10.6029 782.863 9.9434 781.787 9.49342C780.711 9.04344 779.558 8.81184 778.394 8.81184C777.229 8.81184 776.076 9.04344 775 9.49342C773.924 9.9434 772.947 10.6029 772.123 11.4344C771.3 12.2659 770.647 13.2529 770.201 14.3393C769.755 15.4256 769.526 16.59 769.526 17.7658L769.526 39.2342C769.526 41.5672 769.07 43.8774 768.186 46.0329C767.302 48.1883 766.006 50.1468 764.372 51.7965C762.739 53.4462 760.799 54.7548 758.664 55.6477C756.53 56.5405 754.242 57 751.931 57C749.62 57 747.333 56.5405 745.198 55.6477C743.063 54.7548 741.124 53.4462 739.49 51.7965C737.856 50.1468 736.56 48.1883 735.676 46.0329C734.792 43.8774 734.336 41.5672 734.336 39.2342V17.7658C734.336 16.59 734.107 15.4256 733.661 14.3393C733.216 13.2529 732.562 12.2659 731.739 11.4344C730.916 10.6029 729.938 9.9434 728.862 9.49342C727.786 9.04344 726.633 8.81184 725.469 8.81184C724.304 8.81184 723.151 9.04344 722.075 9.49342C720.999 9.9434 720.022 10.6029 719.198 11.4344C718.375 12.2659 717.722 13.2529 717.276 14.3393C716.83 15.4256 716.601 16.59 716.601 17.7658V21.4453H716.656V39.2342C716.656 41.5672 716.201 43.8774 715.317 46.0329C714.433 48.1883 713.136 50.1468 711.503 51.7965C709.869 53.4462 707.929 54.7548 705.795 55.6477C703.66 56.5405 701.372 57 699.062 57C696.751 57 694.463 56.5405 692.328 55.6477C690.194 54.7548 688.254 53.4462 686.62 51.7965C684.986 50.1468 683.69 48.1883 682.806 46.0329C681.922 43.8774 681.467 41.5672 681.467 39.2342V17.7658C681.467 16.59 681.237 15.4256 680.792 14.3393C680.346 13.2529 679.693 12.2659 678.87 11.4344C678.046 10.6029 677.069 9.9434 675.993 9.49342C674.917 9.04344 673.764 8.81184 672.599 8.81184C671.435 8.81184 670.281 9.04344 669.206 9.49342C668.13 9.9434 667.152 10.6029 666.329 11.4344C665.505 12.2659 664.852 13.2529 664.406 14.3393C663.961 15.4256 663.732 16.59 663.732 17.7658L663.731 39.2342C663.731 41.5672 663.276 43.8774 662.392 46.0329C661.508 48.1883 660.212 50.1468 658.578 51.7965C656.944 53.4462 655.004 54.7548 652.87 55.6477C650.735 56.5405 648.447 57 646.136 57C643.826 57 641.538 56.5405 639.403 55.6477C637.269 54.7548 635.329 53.4462 633.695 51.7965C632.061 50.1468 630.765 48.1883 629.881 46.0329C628.997 43.8774 628.542 41.5672 628.542 39.2342V17.7658C628.542 16.59 628.312 15.4256 627.867 14.3393C627.421 13.2529 626.768 12.2659 625.945 11.4344C625.121 10.6029 624.144 9.9434 623.068 9.49342C621.992 9.04344 620.839 8.81184 619.674 8.81184C618.51 8.81184 617.357 9.04344 616.281 9.49342C615.205 9.9434 614.227 10.6029 613.404 11.4344C612.58 12.2659 611.927 13.2529 611.481 14.3393C611.036 15.4256 610.807 16.59 610.807 17.7658L610.806 39.2342C610.806 41.5672 610.351 43.8774 609.467 46.0329C608.583 48.1883 607.287 50.1468 605.653 51.7965C604.019 53.4462 602.079 54.7548 599.945 55.6477C597.81 56.5405 595.522 57 593.211 57C590.901 57 588.613 56.5405 586.478 55.6477C584.344 54.7548 582.404 53.4462 580.77 51.7965C579.136 50.1468 577.84 48.1883 576.956 46.0329C576.072 43.8774 575.617 41.5672 575.617 39.2342V17.7658C575.617 16.59 575.387 15.4256 574.942 14.3393C574.496 13.2529 573.843 12.2659 573.02 11.4344C572.196 10.6029 571.219 9.9434 570.143 9.49342C569.067 9.04344 567.914 8.81184 566.749 8.81184C565.585 8.81184 564.432 9.04344 563.356 9.49342C562.28 9.9434 561.302 10.6029 560.479 11.4344C559.655 12.2659 559.002 13.2529 558.557 14.3393C558.111 15.4256 557.882 16.59 557.882 17.7658V21.4453H557.955V39.2342C557.955 41.5672 557.5 43.8774 556.616 46.0329C555.732 48.1883 554.436 50.1468 552.802 51.7965C551.168 53.4462 549.229 54.7548 547.094 55.6477C544.959 56.5405 542.671 57 540.361 57C538.05 57 535.762 56.5405 533.628 55.6477C531.493 54.7548 529.553 53.4462 527.92 51.7965C526.286 50.1468 524.99 48.1883 524.105 46.0329C523.221 43.8774 522.766 41.5672 522.766 39.2342V17.7658C522.766 16.59 522.537 15.4256 522.091 14.3393C521.646 13.2529 520.992 12.2659 520.169 11.4344C519.345 10.6029 518.368 9.9434 517.292 9.49342C516.216 9.04344 515.063 8.81184 513.899 8.81184C512.734 8.81184 511.581 9.04344 510.505 9.49342C509.429 9.9434 508.452 10.6029 507.628 11.4344C506.805 12.2659 506.151 13.2529 505.706 14.3393C505.26 15.4256 505.031 16.59 505.031 17.7658V39.2342C505.031 41.5672 504.576 43.8774 503.692 46.0329C502.807 48.1883 501.511 50.1468 499.878 51.7965C498.244 53.4462 496.304 54.7548 494.169 55.6477C492.035 56.5405 489.747 57 487.436 57C485.126 57 482.838 56.5405 480.703 55.6477C478.568 54.7548 476.629 53.4462 474.995 51.7965C473.361 50.1468 472.065 48.1883 471.181 46.0329C470.297 43.8774 469.842 41.5672 469.842 39.2342V17.7658C469.842 16.59 469.612 15.4256 469.167 14.3393C468.721 13.2529 468.068 12.2659 467.244 11.4344C466.421 10.6029 465.443 9.9434 464.367 9.49342C463.292 9.04344 462.138 8.81184 460.974 8.81184C459.81 8.81184 458.656 9.04344 457.58 9.49342C456.505 9.9434 455.527 10.6029 454.703 11.4344C453.88 12.2659 453.227 13.2529 452.781 14.3393C452.336 15.4256 452.106 16.59 452.106 17.7658L452.106 39.2342C452.106 41.5672 451.651 43.8774 450.767 46.0329C449.882 48.1883 448.586 50.1468 446.953 51.7965C445.319 53.4462 443.379 54.7548 441.244 55.6477C439.11 56.5405 436.822 57 434.511 57C432.201 57 429.913 56.5405 427.778 55.6477C425.643 54.7548 423.704 53.4462 422.07 51.7965C420.436 50.1468 419.14 48.1883 418.256 46.0329C417.372 43.8774 416.917 41.5672 416.917 39.2342L416.917 17.7658C416.917 16.59 416.687 15.4256 416.242 14.3393C415.796 13.2529 415.143 12.2659 414.319 11.4344C413.496 10.6029 412.518 9.9434 411.443 9.49342C410.367 9.04344 409.214 8.81184 408.049 8.81184C406.884 8.81184 405.731 9.04344 404.655 9.49342C403.58 9.9434 402.602 10.6029 401.779 11.4344C400.955 12.2659 400.302 13.2529 399.856 14.3393C399.411 15.4256 399.181 16.59 399.181 17.7658V21.4453H399.227V39.2342C399.227 41.5672 398.772 43.8774 397.888 46.0329C397.004 48.1883 395.708 50.1468 394.074 51.7965C392.44 53.4462 390.5 54.7548 388.366 55.6477C386.231 56.5405 383.943 57 381.632 57C379.322 57 377.034 56.5405 374.899 55.6477C372.765 54.7548 370.825 53.4462 369.191 51.7965C367.557 50.1468 366.261 48.1883 365.377 46.0329C364.493 43.8774 364.038 41.5672 364.038 39.2342L364.038 17.7658C364.038 16.59 363.808 15.4256 363.363 14.3393C362.917 13.2529 362.264 12.2659 361.441 11.4344C360.617 10.6029 359.64 9.9434 358.564 9.49342C357.488 9.04344 356.335 8.81184 355.17 8.81184C354.006 8.81184 352.853 9.04344 351.777 9.49342C350.701 9.9434 349.723 10.6029 348.9 11.4344C348.076 12.2659 347.423 13.2529 346.977 14.3393C346.532 15.4256 346.302 16.59 346.302 17.7658L346.303 39.2342C346.303 41.5672 345.847 43.8774 344.963 46.0329C344.079 48.1883 342.783 50.1468 341.149 51.7965C339.515 53.4462 337.576 54.7548 335.441 55.6477C333.306 56.5405 331.018 57 328.708 57C326.397 57 324.109 56.5405 321.975 55.6477C319.84 54.7548 317.9 53.4462 316.267 51.7965C314.633 50.1468 313.337 48.1883 312.453 46.0329C311.568 43.8774 311.113 41.5672 311.113 39.2342V17.7658C311.113 16.59 310.884 15.4256 310.438 14.3393C309.993 13.2529 309.339 12.2659 308.516 11.4344C307.693 10.6029 306.715 9.9434 305.639 9.49342C304.563 9.04344 303.41 8.81184 302.246 8.81184C301.081 8.81184 299.928 9.04344 298.852 9.49342C297.776 9.9434 296.799 10.6029 295.975 11.4344C295.152 12.2659 294.499 13.2529 294.053 14.3393C293.607 15.4256 293.378 16.59 293.378 17.7658L293.378 39.2342C293.378 41.5672 292.923 43.8774 292.039 46.0329C291.154 48.1883 289.858 50.1468 288.225 51.7965C286.591 53.4462 284.651 54.7548 282.517 55.6477C280.382 56.5405 278.094 57 275.783 57C273.473 57 271.185 56.5405 269.05 55.6477C266.916 54.7548 264.976 53.4462 263.342 51.7965C261.708 50.1468 260.412 48.1883 259.528 46.0329C258.644 43.8774 258.189 41.5672 258.189 39.2342L258.189 17.7658C258.189 16.59 257.959 15.4256 257.514 14.3393C257.068 13.2529 256.415 12.2659 255.591 11.4344C254.768 10.6029 253.79 9.9434 252.715 9.49342C251.639 9.04344 250.486 8.81184 249.321 8.81184C248.156 8.81184 247.003 9.04344 245.928 9.49342C244.852 9.9434 243.874 10.6029 243.051 11.4344C242.227 12.2659 241.574 13.2529 241.128 14.3393C240.683 15.4256 240.453 16.59 240.453 17.7658V21.4453H240.527V39.2342C240.527 41.5672 240.072 43.8774 239.188 46.0329C238.303 48.1883 237.007 50.1468 235.374 51.7965C233.74 53.4462 231.8 54.7548 229.665 55.6477C227.531 56.5405 225.243 57 222.932 57C220.622 57 218.334 56.5405 216.199 55.6477C214.064 54.7548 212.125 53.4462 210.491 51.7965C208.857 50.1468 207.561 48.1883 206.677 46.0329C205.793 43.8774 205.338 41.5672 205.338 39.2342V17.7658C205.338 16.59 205.108 15.4256 204.663 14.3393C204.217 13.2529 203.564 12.2659 202.74 11.4344C201.917 10.6029 200.939 9.9434 199.863 9.49342C198.788 9.04344 197.634 8.81184 196.47 8.81184C195.305 8.81184 194.152 9.04344 193.076 9.49342C192.001 9.9434 191.023 10.6029 190.2 11.4344C189.376 12.2659 188.723 13.2529 188.277 14.3393C187.832 15.4256 187.602 16.59 187.602 17.7658L187.602 39.2342C187.602 41.5672 187.147 43.8774 186.263 46.0329C185.378 48.1883 184.082 50.1468 182.449 51.7965C180.815 53.4462 178.875 54.7548 176.74 55.6477C174.606 56.5405 172.318 57 170.007 57C167.697 57 165.409 56.5405 163.274 55.6477C161.139 54.7548 159.2 53.4462 157.566 51.7965C155.932 50.1468 154.636 48.1883 153.752 46.0329C152.868 43.8774 152.413 41.5672 152.413 39.2342L152.413 17.7658C152.413 16.59 152.183 15.4256 151.738 14.3393C151.292 13.2529 150.639 12.2659 149.815 11.4344C148.992 10.6029 148.014 9.9434 146.939 9.49342C145.863 9.04344 144.71 8.81184 143.545 8.81184C142.38 8.81184 141.227 9.04344 140.151 9.49342C139.076 9.9434 138.098 10.6029 137.275 11.4344C136.451 12.2659 135.798 13.2529 135.352 14.3393C134.907 15.4256 134.677 16.59 134.677 17.7658L134.677 39.2342C134.677 41.5672 134.222 43.8774 133.338 46.0329C132.454 48.1883 131.158 50.1468 129.524 51.7965C127.89 53.4462 125.951 54.7548 123.816 55.6477C121.681 56.5405 119.393 57 117.083 57C114.772 57 112.484 56.5405 110.35 55.6477C108.215 54.7548 106.275 53.4462 104.641 51.7965C103.008 50.1468 101.712 48.1883 100.827 46.0329C99.9432 43.8774 99.4881 41.5672 99.4881 39.2342L99.4882 17.7658C99.4882 16.59 99.2587 15.4256 98.8131 14.3393C98.3675 13.2529 97.7142 12.2659 96.8908 11.4344C96.0673 10.6029 95.0898 9.9434 94.0139 9.49342C92.938 9.04344 91.7849 8.81184 90.6204 8.81184C89.4559 8.81184 88.3028 9.04344 87.2269 9.49342C86.151 9.9434 85.1734 10.6029 84.35 11.4344C83.5266 12.2659 82.8734 13.2529 82.4277 14.3393C81.9821 15.4256 81.7527 16.59 81.7527 17.7658L81.7528 39.2342C81.7528 41.5672 81.2976 43.8774 80.4135 46.0329C79.5292 48.1883 78.2333 50.1468 76.5994 51.7965C74.9656 53.4462 73.026 54.7548 70.8914 55.6477C68.7567 56.5405 66.4687 57 64.1581 57C61.8476 57 59.5597 56.5405 57.425 55.6477C55.2903 54.7548 53.3507 53.4462 51.7169 51.7965C50.0831 50.1468 48.787 48.1883 47.9029 46.0329C47.0186 43.8774 46.5635 41.5672 46.5635 39.2342L46.5636 17.7658C46.5636 16.59 46.3342 15.4256 45.8885 14.3393C45.4429 13.2529 44.7897 12.2659 43.9662 11.4344C43.1428 10.6029 42.1652 9.9434 41.0894 9.49342C40.0135 9.04344 38.8604 8.81184 37.6959 8.81184C36.5313 8.81184 35.3782 9.04344 34.3023 9.49342C33.2264 9.9434 32.2489 10.6029 31.4254 11.4344C30.6021 12.2659 29.9488 13.2529 29.5031 14.3393C29.0575 15.4256 28.8282 16.59 28.8282 17.7658V21.4453H28.8828V39.2342C28.8828 41.5672 28.4277 43.8774 27.5435 46.0329C26.6593 48.1883 25.3633 50.1468 23.7295 51.7965C22.0956 53.4462 20.156 54.7548 18.0214 55.6477C15.8867 56.5405 13.5988 57 11.2882 57C8.97763 57 6.6897 56.5405 4.55502 55.6477C2.42032 54.7548 0.480713 53.4462 -1.15311 51.7965C-2.7869 50.1468 -4.08292 48.1883 -4.96716 46.0329C-5.85138 43.8774 -6.30643 41.5672 -6.30643 39.2342V17.7658C-6.30643 16.59 -6.5358 15.4256 -6.98145 14.3393C-7.42709 13.2529 -8.08029 12.2659 -8.90372 11.4344C-9.72714 10.6029 -10.7047 9.9434 -11.7806 9.49342C-12.8565 9.04344 -14.0096 8.81184 -15.1741 8.81184C-16.3387 8.81184 -17.4918 9.04344 -18.5676 9.49342C-19.6435 9.9434 -20.6211 10.6029 -21.4445 11.4344C-22.268 12.2659 -22.9211 13.2529 -23.3668 14.3393C-23.8124 15.4256 -24.0418 16.59 -24.0418 17.7658L-24.042 39.2342C-24.042 41.5672 -24.4971 43.8774 -25.3813 46.0329C-26.2655 48.1883 -27.5615 50.1468 -29.1953 51.7965C-30.8291 53.4462 -32.7688 54.7548 -34.9034 55.6477C-37.0381 56.5405 -39.326 57 -41.6366 57C-43.9471 57 -46.2351 56.5405 -48.3698 55.6477C-50.5045 54.7548 -52.4441 53.4462 -54.0779 51.7965C-55.7117 50.1468 -57.0077 48.1883 -57.8919 46.0329C-58.7761 43.8774 -59.2312 41.5672 -59.2312 39.2342V17.7658C-59.2312 16.59 -59.4606 15.4256 -59.9062 14.3393C-60.3519 13.2529 -61.0051 12.2659 -61.8285 11.4344C-62.6519 10.6029 -63.6295 9.9434 -64.7054 9.49342C-65.7812 9.04344 -66.9344 8.81184 -68.0989 8.81184C-69.2634 8.81184 -70.4165 9.04344 -71.4924 9.49342C-72.5683 9.9434 -73.5458 10.6029 -74.3693 11.4344C-75.1927 12.2659 -75.8459 13.2529 -76.2916 14.3393C-76.7372 15.4256 -76.9666 16.59 -76.9666 17.7658L-76.9667 39.2342C-76.9668 41.5672 -77.4218 43.8774 -78.306 46.0329C-79.1902 48.1883 -80.4863 50.1468 -82.1201 51.7965C-83.7539 53.4462 -85.6935 54.7548 -87.8282 55.6477C-89.9629 56.5405 -92.2508 57 -94.5614 57C-96.8719 57 -99.1599 56.5405 -101.295 55.6477C-103.429 54.7548 -105.369 53.4462 -107.003 51.7965C-108.636 50.1468 -109.932 48.1883 -110.817 46.0329C-111.701 43.8774 -112.156 41.5672 -112.156 39.2342V17.7658C-112.156 16.59 -112.385 15.4256 -112.831 14.3393C-113.277 13.2529 -113.93 12.2659 -114.753 11.4344C-115.577 10.6029 -116.554 9.9434 -117.63 9.49342C-118.706 9.04344 -119.859 8.81184 -121.024 8.81184C-122.188 8.81184 -123.341 9.04344 -124.417 9.49342C-125.493 9.9434 -126.471 10.6029 -127.294 11.4344C-128.118 12.2659 -128.771 13.2529 -129.216 14.3393C-129.662 15.4256 -129.891 16.59 -129.891 17.7658V21.4453L-129.818 39.2342C-129.818 41.5672 -130.273 43.8774 -131.157 46.0329C-132.041 48.1883 -133.337 50.1468 -134.971 51.7965C-136.605 53.4462 -138.544 54.7548 -140.679 55.6477C-142.814 56.5405 -145.102 57 -147.412 57C-149.723 57 -152.011 56.5405 -154.145 55.6477C-156.28 54.7548 -158.22 53.4462 -159.854 51.7965C-161.487 50.1468 -162.783 48.1883 -163.668 46.0329C-164.552 43.8774 -165.007 41.5672 -165.007 39.2342V17.7658C-165.007 16.59 -165.236 15.4256 -165.682 14.3393C-166.128 13.2529 -166.781 12.2659 -167.604 11.4344C-168.428 10.6029 -169.405 9.9434 -170.481 9.49342C-171.557 9.04344 -172.71 8.81184 -173.875 8.81184C-175.039 8.81184 -176.192 9.04344 -177.268 9.49342C-178.344 9.9434 -179.322 10.6029 -180.145 11.4344C-180.968 12.2659 -181.622 13.2529 -182.067 14.3393C-182.513 15.4256 -182.742 16.59 -182.742 17.7658L-182.742 39.2342C-182.742 41.5672 -183.197 43.8774 -184.082 46.0329C-184.966 48.1883 -186.262 50.1468 -187.896 51.7965C-189.53 53.4462 -191.469 54.7548 -193.604 55.6477C-195.739 56.5405 -198.026 57 -200.337 57C-202.648 57 -204.936 56.5405 -207.07 55.6477C-209.205 54.7548 -211.144 53.4462 -212.778 51.7965C-214.412 50.1468 -215.708 48.1883 -216.592 46.0329C-217.477 43.8774 -217.932 41.5672 -217.932 39.2342V17.7658C-217.932 16.59 -218.161 15.4256 -218.607 14.3393C-219.052 13.2529 -219.705 12.2659 -220.529 11.4344C-221.352 10.6029 -222.33 9.9434 -223.406 9.49342C-224.482 9.04344 -225.635 8.81184 -226.799 8.81184C-227.964 8.81184 -229.117 9.04344 -230.193 9.49342C-231.269 9.9434 -232.246 10.6029 -233.07 11.4344C-233.893 12.2659 -234.546 13.2529 -234.992 14.3393C-235.438 15.4256 -235.667 16.59 -235.667 17.7658L-235.667 35.5547L-235.667 39.2342C-235.667 41.5672 -236.122 43.8774 -237.006 46.0329C-237.891 48.1883 -239.187 50.1468 -240.82 51.7965C-242.454 53.4462 -244.394 54.7548 -246.529 55.6477C-248.663 56.5405 -250.951 57 -253.262 57C-255.572 57 -257.86 56.5405 -259.995 55.6477C-262.13 54.7548 -264.069 53.4462 -265.703 51.7965C-267.337 50.1468 -268.633 48.1883 -269.517 46.0329C-270.401 43.8774 -270.856 41.5672 -270.856 39.2342V17.7658C-270.856 16.59 -271.086 15.4256 -271.531 14.3393C-271.977 13.2529 -272.63 12.2659 -273.454 11.4344C-274.277 10.6029 -275.255 9.9434 -276.331 9.49342C-277.406 9.04344 -278.56 8.81184 -279.724 8.81184C-280.889 8.81184 -282.042 9.04344 -283.118 9.49342C-284.193 9.9434 -285.171 10.6029 -285.994 11.4344C-286.818 12.2659 -287.471 13.2529 -287.917 14.3393C-288.362 15.4256 -288.592 16.59 -288.592 17.7658L-288.592 39.2342C-288.592 41.5672 -289.047 43.8774 -289.931 46.0329C-290.815 48.1883 -292.111 50.1468 -293.745 51.7965C-295.379 53.4462 -297.319 54.7548 -299.453 55.6477C-301.588 56.5405 -303.876 57 -306.186 57C-308.497 57 -310.785 56.5405 -312.92 55.6477C-315.054 54.7548 -316.994 53.4462 -318.628 51.7965C-320.261 50.1468 -321.557 48.1883 -322.442 46.0329C-323.326 43.8774 -323.781 41.5672 -323.781 39.2342V17.7658C-323.781 16.59 -324.01 15.4256 -324.456 14.3393C-324.902 13.2529 -325.555 12.2659 -326.378 11.4344C-327.202 10.6029 -328.179 9.9434 -329.255 9.49342C-330.331 9.04344 -331.484 8.81184 -332.649 8.81184C-333.813 8.81184 -334.966 9.04344 -336.042 9.49342C-337.118 9.9434 -338.096 10.6029 -338.919 11.4344C-339.743 12.2659 -340.396 13.2529 -340.841 14.3393C-341.287 15.4256 -341.516 16.59 -341.516 17.7658L-341.516 39.2269C-341.516 41.56 -341.972 43.8702 -342.856 46.0256C-343.74 48.1811 -345.036 50.1395 -346.67 51.7893C-348.304 53.439 -350.243 54.7476 -352.378 55.6404C-354.513 56.5332 -356.8 56.9927 -359.111 56.9927C-361.422 56.9927 -363.71 56.5332 -365.844 55.6404C-367.979 54.7476 -369.919 53.439 -371.552 51.7892C-373.186 50.1395 -374.482 48.1811 -375.366 46.0256C-376.251 43.8702 -376.706 41.56 -376.706 39.2269L-376.706 25.1237C-376.706 24.19 -377.056 23.291 -377.685 22.6073C-378.315 21.9233 -379.178 21.5056 -380.101 21.438C-381.023 21.3705 -381.937 21.6582 -382.658 22.2432C-383.291 22.7568 -383.734 23.4661 -383.923 24.257L-389.233 55.8557H-403.028L-403.027 55.8581L-411.759 55.8581L-424 6.6371e-06Z" fill="#34363B"/>
</svg>
