<svg width="60" height="60" viewBox="0 0 60 60" fill="none" xmlns="http://www.w3.org/2000/svg">
<g filter="url(#filter0_d_652_3778)">
<rect x="50" y="47" width="40" height="40" rx="12" transform="rotate(-180 50 47)" fill="url(#paint0_linear_652_3778)"/>
</g>
<g filter="url(#filter1_i_652_3778)">
<rect x="13" y="10" width="34" height="34" rx="10" fill="url(#paint1_radial_652_3778)"/>
</g>
<rect x="14" y="11" width="32" height="32" rx="9" stroke="url(#paint2_linear_652_3778)" stroke-width="2"/>
<path d="M35.7046 31.2785L25.7215 21.2954C25.3277 20.9015 24.6892 20.9015 24.2954 21.2954C23.9015 21.6892 23.9015 22.3277 24.2954 22.7215L34.2785 32.7046C34.6723 33.0985 35.3108 33.0985 35.7046 32.7046C36.0985 32.3108 36.0985 31.6723 35.7046 31.2785Z" fill="white"/>
<path d="M25.7215 32.7046L35.7046 22.7215C36.0985 22.3277 36.0985 21.6892 35.7046 21.2954C35.3108 20.9015 34.6723 20.9015 34.2785 21.2954L24.2954 31.2785C23.9015 31.6723 23.9015 32.3108 24.2954 32.7046C24.6892 33.0985 25.3277 33.0985 25.7215 32.7046Z" fill="white"/>
<defs>
<filter id="filter0_d_652_3778" x="0" y="0" width="60" height="60" filterUnits="userSpaceOnUse" color-interpolation-filters="sRGB">
<feFlood flood-opacity="0" result="BackgroundImageFix"/>
<feColorMatrix in="SourceAlpha" type="matrix" values="0 0 0 0 0 0 0 0 0 0 0 0 0 0 0 0 0 0 127 0" result="hardAlpha"/>
<feOffset dy="3"/>
<feGaussianBlur stdDeviation="5"/>
<feColorMatrix type="matrix" values="0 0 0 0 0 0 0 0 0 0 0 0 0 0 0 0 0 0 0.2 0"/>
<feBlend mode="normal" in2="BackgroundImageFix" result="effect1_dropShadow_652_3778"/>
<feBlend mode="normal" in="SourceGraphic" in2="effect1_dropShadow_652_3778" result="shape"/>
</filter>
<filter id="filter1_i_652_3778" x="13" y="10" width="34" height="34" filterUnits="userSpaceOnUse" color-interpolation-filters="sRGB">
<feFlood flood-opacity="0" result="BackgroundImageFix"/>
<feBlend mode="normal" in="SourceGraphic" in2="BackgroundImageFix" result="shape"/>
<feColorMatrix in="SourceAlpha" type="matrix" values="0 0 0 0 0 0 0 0 0 0 0 0 0 0 0 0 0 0 127 0" result="hardAlpha"/>
<feOffset/>
<feGaussianBlur stdDeviation="4"/>
<feComposite in2="hardAlpha" operator="arithmetic" k2="-1" k3="1"/>
<feColorMatrix type="matrix" values="0 0 0 0 0 0 0 0 0 0 0 0 0 0 0 0 0 0 0.39 0"/>
<feBlend mode="normal" in2="shape" result="effect1_innerShadow_652_3778"/>
</filter>
<linearGradient id="paint0_linear_652_3778" x1="61.0725" y1="58" x2="64.2764" y2="86.6416" gradientUnits="userSpaceOnUse">
<stop stop-color="#DDC5C0"/>
<stop offset="1" stop-color="white"/>
</linearGradient>
<radialGradient id="paint1_radial_652_3778" cx="0" cy="0" r="1" gradientUnits="userSpaceOnUse" gradientTransform="translate(31.2179 18.16) rotate(90) scale(57.12 38.8603)">
<stop stop-color="#9F6BC9" stop-opacity="0.57"/>
<stop offset="1" stop-color="#9F6BC9"/>
</radialGradient>
<linearGradient id="paint2_linear_652_3778" x1="32.3851" y1="42.0682" x2="32.3851" y2="10" gradientUnits="userSpaceOnUse">
<stop stop-color="white"/>
<stop offset="1" stop-color="white" stop-opacity="0.11"/>
</linearGradient>
</defs>
</svg>
