<svg width="60" height="60" viewBox="0 0 60 60" fill="none" xmlns="http://www.w3.org/2000/svg">
<g filter="url(#filter0_d_652_3651)">
<rect x="50" y="47" width="40" height="40" rx="12" transform="rotate(-180 50 47)" fill="url(#paint0_linear_652_3651)"/>
</g>
<g filter="url(#filter1_i_652_3651)">
<rect x="13" y="10" width="34" height="34" rx="10" fill="url(#paint1_radial_652_3651)"/>
</g>
<rect x="14" y="11" width="32" height="32" rx="9" stroke="url(#paint2_linear_652_3651)" stroke-width="2"/>
<path d="M22 21C22 20.4477 22.4477 20 23 20H37C37.5523 20 38 20.4477 38 21C38 21.5523 37.5523 22 37 22H23C22.4477 22 22 21.5523 22 21ZM22 27C22 26.4477 22.4477 26 23 26H37C37.5523 26 38 26.4477 38 27C38 27.5523 37.5523 28 37 28H23C22.4477 28 22 27.5523 22 27ZM22 33C22 32.4477 22.4477 32 23 32H37C37.5523 32 38 32.4477 38 33C38 33.5523 37.5523 34 37 34H23C22.4477 34 22 33.5523 22 33Z" fill="white"/>
<defs>
<filter id="filter0_d_652_3651" x="0" y="0" width="60" height="60" filterUnits="userSpaceOnUse" color-interpolation-filters="sRGB">
<feFlood flood-opacity="0" result="BackgroundImageFix"/>
<feColorMatrix in="SourceAlpha" type="matrix" values="0 0 0 0 0 0 0 0 0 0 0 0 0 0 0 0 0 0 127 0" result="hardAlpha"/>
<feOffset dy="3"/>
<feGaussianBlur stdDeviation="5"/>
<feColorMatrix type="matrix" values="0 0 0 0 0 0 0 0 0 0 0 0 0 0 0 0 0 0 0.2 0"/>
<feBlend mode="normal" in2="BackgroundImageFix" result="effect1_dropShadow_652_3651"/>
<feBlend mode="normal" in="SourceGraphic" in2="effect1_dropShadow_652_3651" result="shape"/>
</filter>
<filter id="filter1_i_652_3651" x="13" y="10" width="34" height="34" filterUnits="userSpaceOnUse" color-interpolation-filters="sRGB">
<feFlood flood-opacity="0" result="BackgroundImageFix"/>
<feBlend mode="normal" in="SourceGraphic" in2="BackgroundImageFix" result="shape"/>
<feColorMatrix in="SourceAlpha" type="matrix" values="0 0 0 0 0 0 0 0 0 0 0 0 0 0 0 0 0 0 127 0" result="hardAlpha"/>
<feOffset/>
<feGaussianBlur stdDeviation="4"/>
<feComposite in2="hardAlpha" operator="arithmetic" k2="-1" k3="1"/>
<feColorMatrix type="matrix" values="0 0 0 0 0 0 0 0 0 0 0 0 0 0 0 0 0 0 0.39 0"/>
<feBlend mode="normal" in2="shape" result="effect1_innerShadow_652_3651"/>
</filter>
<linearGradient id="paint0_linear_652_3651" x1="61.0725" y1="58" x2="64.2764" y2="86.6416" gradientUnits="userSpaceOnUse">
<stop stop-color="#DDC5C0"/>
<stop offset="1" stop-color="white"/>
</linearGradient>
<radialGradient id="paint1_radial_652_3651" cx="0" cy="0" r="1" gradientUnits="userSpaceOnUse" gradientTransform="translate(31.2179 18.16) rotate(90) scale(57.12 38.8603)">
<stop stop-color="#9F6BC9" stop-opacity="0.57"/>
<stop offset="1" stop-color="#9F6BC9"/>
</radialGradient>
<linearGradient id="paint2_linear_652_3651" x1="32.3851" y1="42.0682" x2="32.3851" y2="10" gradientUnits="userSpaceOnUse">
<stop stop-color="white"/>
<stop offset="1" stop-color="white" stop-opacity="0.11"/>
</linearGradient>
</defs>
</svg>
