<svg width="63" height="63" viewBox="0 0 63 63" fill="none" xmlns="http://www.w3.org/2000/svg">
<g filter="url(#filter0_d_0_622)">
<rect x="52" y="49" width="41" height="41" rx="12.264" transform="rotate(180 52 49)" fill="url(#paint0_linear_0_622)"/>
</g>
<g filter="url(#filter1_i_0_622)">
<rect x="14" y="11" width="35" height="35" rx="10.22" fill="#7DF17B"/>
</g>
<rect x="15.022" y="12.022" width="32.956" height="32.956" rx="9.198" stroke="url(#paint1_linear_0_622)" stroke-width="2.044"/>
<path d="M23 22C23 21.4477 23.4477 21 24 21H38C38.5523 21 39 21.4477 39 22C39 22.5523 38.5523 23 38 23H24C23.4477 23 23 22.5523 23 22ZM23 28C23 27.4477 23.4477 27 24 27H38C38.5523 27 39 27.4477 39 28C39 28.5523 38.5523 29 38 29H24C23.4477 29 23 28.5523 23 28ZM23 34C23 33.4477 23.4477 33 24 33H38C38.5523 33 39 33.4477 39 34C39 34.5523 38.5523 35 38 35H24C23.4477 35 23 34.5523 23 34Z" fill="#263238"/>
<defs>
<filter id="filter0_d_0_622" x="0.780001" y="0.846001" width="61.44" height="61.44" filterUnits="userSpaceOnUse" color-interpolation-filters="sRGB">
<feFlood flood-opacity="0" result="BackgroundImageFix"/>
<feColorMatrix in="SourceAlpha" type="matrix" values="0 0 0 0 0 0 0 0 0 0 0 0 0 0 0 0 0 0 127 0" result="hardAlpha"/>
<feOffset dy="3.066"/>
<feGaussianBlur stdDeviation="5.11"/>
<feColorMatrix type="matrix" values="0 0 0 0 0 0 0 0 0 0 0 0 0 0 0 0 0 0 0.2 0"/>
<feBlend mode="normal" in2="BackgroundImageFix" result="effect1_dropShadow_0_622"/>
<feBlend mode="normal" in="SourceGraphic" in2="effect1_dropShadow_0_622" result="shape"/>
</filter>
<filter id="filter1_i_0_622" x="14" y="11" width="35" height="35" filterUnits="userSpaceOnUse" color-interpolation-filters="sRGB">
<feFlood flood-opacity="0" result="BackgroundImageFix"/>
<feBlend mode="normal" in="SourceGraphic" in2="BackgroundImageFix" result="shape"/>
<feColorMatrix in="SourceAlpha" type="matrix" values="0 0 0 0 0 0 0 0 0 0 0 0 0 0 0 0 0 0 127 0" result="hardAlpha"/>
<feOffset/>
<feGaussianBlur stdDeviation="4.088"/>
<feComposite in2="hardAlpha" operator="arithmetic" k2="-1" k3="1"/>
<feColorMatrix type="matrix" values="0 0 0 0 0 0 0 0 0 0 0 0 0 0 0 0 0 0 0.39 0"/>
<feBlend mode="normal" in2="shape" result="effect1_innerShadow_0_622"/>
</filter>
<linearGradient id="paint0_linear_0_622" x1="63.3493" y1="60.275" x2="66.6333" y2="89.6326" gradientUnits="userSpaceOnUse">
<stop/>
<stop offset="1" stop-color="white"/>
</linearGradient>
<linearGradient id="paint1_linear_0_622" x1="33.9552" y1="44.0114" x2="33.9552" y2="11" gradientUnits="userSpaceOnUse">
<stop stop-color="white"/>
<stop offset="1" stop-color="white" stop-opacity="0.11"/>
</linearGradient>
</defs>
</svg>
