<svg width="146" height="83" viewBox="0 0 146 83" fill="none" xmlns="http://www.w3.org/2000/svg">
<g filter="url(#filter0_d_0_313)">
<rect x="136" y="70" width="126" height="63" rx="10" transform="rotate(180 136 70)" fill="url(#paint0_linear_0_313)"/>
</g>
<g filter="url(#filter1_i_0_313)">
<rect x="13" y="10" width="120" height="57" rx="10" fill="url(#paint1_radial_0_313)"/>
</g>
<rect x="14" y="11" width="118" height="55" rx="9" stroke="url(#paint2_linear_0_313)" stroke-width="2"/>
<line x1="74.5" y1="27" x2="74.5" y2="49" stroke="url(#paint3_linear_0_313)" stroke-width="3"/>
<path d="M108 38C108 38.2689 107.898 38.4983 107.685 38.704L101.55 44.739C101.384 44.913 101.164 45 100.912 45C100.401 45 100 44.6045 100 44.0825C100 43.8294 100.102 43.6 100.275 43.426L105.805 38L100.275 32.574C100.102 32.3921 100 32.1627 100 31.9096C100 31.3955 100.401 31 100.912 31C101.164 31 101.384 31.087 101.55 31.261L107.685 37.296C107.898 37.5017 107.992 37.7311 108 38Z" fill="white"/>
<path d="M38 38C38 38.2689 38.1023 38.4983 38.3147 38.704L44.4503 44.739C44.6155 44.913 44.8358 45 45.0875 45C45.5988 45 46 44.6045 46 44.0825C46 43.8294 45.8977 43.6 45.7247 43.426L40.1947 38L45.7247 32.574C45.8977 32.3921 46 32.1627 46 31.9096C46 31.3955 45.5988 31 45.0875 31C44.8358 31 44.6155 31.087 44.4503 31.261L38.3147 37.296C38.1023 37.5017 38.0079 37.7311 38 38Z" fill="white"/>
<defs>
<filter id="filter0_d_0_313" x="0" y="0" width="146" height="83" filterUnits="userSpaceOnUse" color-interpolation-filters="sRGB">
<feFlood flood-opacity="0" result="BackgroundImageFix"/>
<feColorMatrix in="SourceAlpha" type="matrix" values="0 0 0 0 0 0 0 0 0 0 0 0 0 0 0 0 0 0 127 0" result="hardAlpha"/>
<feOffset dy="3"/>
<feGaussianBlur stdDeviation="5"/>
<feColorMatrix type="matrix" values="0 0 0 0 0 0 0 0 0 0 0 0 0 0 0 0 0 0 0.2 0"/>
<feBlend mode="normal" in2="BackgroundImageFix" result="effect1_dropShadow_0_313"/>
<feBlend mode="normal" in="SourceGraphic" in2="effect1_dropShadow_0_313" result="shape"/>
</filter>
<filter id="filter1_i_0_313" x="13" y="10" width="120" height="57" filterUnits="userSpaceOnUse" color-interpolation-filters="sRGB">
<feFlood flood-opacity="0" result="BackgroundImageFix"/>
<feBlend mode="normal" in="SourceGraphic" in2="BackgroundImageFix" result="shape"/>
<feColorMatrix in="SourceAlpha" type="matrix" values="0 0 0 0 0 0 0 0 0 0 0 0 0 0 0 0 0 0 127 0" result="hardAlpha"/>
<feOffset/>
<feGaussianBlur stdDeviation="4"/>
<feComposite in2="hardAlpha" operator="arithmetic" k2="-1" k3="1"/>
<feColorMatrix type="matrix" values="0 0 0 0 0 0 0 0 0 0 0 0 0 0 0 0 0 0 0.39 0"/>
<feBlend mode="normal" in2="shape" result="effect1_innerShadow_0_313"/>
</filter>
<linearGradient id="paint0_linear_0_313" x1="170.878" y1="87.325" x2="173.425" y2="132.858" gradientUnits="userSpaceOnUse">
<stop stop-color="#DDC5C0"/>
<stop offset="1" stop-color="white"/>
</linearGradient>
<radialGradient id="paint1_radial_0_313" cx="0" cy="0" r="1" gradientUnits="userSpaceOnUse" gradientTransform="translate(77.2985 23.68) rotate(90) scale(95.76 137.154)">
<stop stop-color="#7DF17B"/>
<stop offset="1" stop-color="#21C004"/>
</radialGradient>
<linearGradient id="paint2_linear_0_313" x1="81.4179" y1="63.7614" x2="81.4179" y2="10" gradientUnits="userSpaceOnUse">
<stop stop-color="white"/>
<stop offset="1" stop-color="white" stop-opacity="0.11"/>
</linearGradient>
<linearGradient id="paint3_linear_0_313" x1="73" y1="38" x2="72" y2="38" gradientUnits="userSpaceOnUse">
<stop stop-color="white"/>
<stop offset="1" stop-color="#7DF17B" stop-opacity="0"/>
</linearGradient>
</defs>
</svg>
