<svg width="60" height="60" viewBox="0 0 60 60" fill="none" xmlns="http://www.w3.org/2000/svg">
<path d="M54.432 31.698C54.0405 31.1375 53.4762 30.7243 52.8275 30.5231C52.1788 30.3219 51.4824 30.3441 50.8476 30.5862C50.7992 30.0631 50.6181 29.5616 50.3219 29.13C49.859 28.4627 49.1545 28.0072 48.3614 27.8623C47.5682 27.7175 46.7507 27.8951 46.0863 28.3566L45.5845 28.6889C45.5265 28.1943 45.3502 27.7214 45.0708 27.3113C44.6028 26.6427 43.8926 26.1881 43.0948 26.0467C42.297 25.9052 41.4763 26.0883 40.8113 26.556L40.7695 26.5923C36.7311 30.0243 31.8324 33.5107 30.5779 33.5107C29.6519 33.5107 26.8202 31.9095 24.5501 30.6225C21.6587 28.985 18.9226 27.4382 17.3814 27.3113C14.4302 27.0817 5.43339 32.3687 4.42976 32.9729C4.33131 33.0312 4.24517 33.1086 4.17627 33.2006C4.10738 33.2926 4.05707 33.3974 4.02823 33.509C3.99938 33.6207 3.99256 33.737 4.00815 33.8513C4.02375 33.9656 4.06145 34.0757 4.11912 34.1753C4.17678 34.2749 4.25327 34.362 4.34422 34.4317C4.43517 34.5014 4.5388 34.5523 4.64919 34.5814C4.75958 34.6106 4.87457 34.6175 4.9876 34.6017C5.10063 34.586 5.20948 34.5478 5.30794 34.4895C8.96999 32.3143 15.4637 28.9488 17.2559 29.0515C18.4507 29.1421 21.2525 30.7373 23.7317 32.1451C27.0054 34.0001 29.1083 35.1662 30.4285 35.2388C30.4861 35.2446 30.5442 35.2446 30.6018 35.2388H36.5758C37.0986 35.2388 37.6 35.4488 37.9698 35.8228C38.3395 36.1967 38.5472 36.7039 38.5472 37.2327C38.5472 37.7615 38.3395 38.2687 37.9698 38.6426C37.6 39.0166 37.0986 39.2266 36.5758 39.2266H36.516C36.4563 39.2266 30.6316 39.6375 28.2361 39.2266C25.9839 38.846 23.1104 36.2659 23.0805 36.2418C22.9094 36.0863 22.6843 36.006 22.4546 36.0185C22.2249 36.0309 22.0096 36.1352 21.8559 36.3082C21.7022 36.4813 21.6228 36.709 21.6351 36.9413C21.6474 37.1736 21.7505 37.3915 21.9216 37.5469C22.053 37.6677 25.2013 40.4955 27.9493 40.9608C29.1058 41.1147 30.2719 41.1814 31.4381 41.1602C33.9173 41.1602 36.4742 40.9789 36.6355 40.9668C37.5497 40.8635 38.3933 40.4198 39.0019 39.7221C39.6105 39.0244 39.9406 38.1225 39.9279 37.1922C39.9152 36.2618 39.5607 35.3695 38.9333 34.689C38.306 34.0085 37.4507 33.5884 36.5339 33.5107H34.5028C37.0433 31.8225 39.4848 29.9866 41.8149 28.0122C42.0295 27.8625 42.2831 27.7804 42.5438 27.7762C42.8045 27.7721 43.0605 27.8461 43.2796 27.9889C43.4988 28.1317 43.6712 28.337 43.7752 28.5787C43.8792 28.8205 43.9101 29.088 43.864 29.3475C43.8344 29.5208 43.7711 29.6863 43.6778 29.8346C43.5845 29.983 43.463 30.1111 43.3204 30.2116L43.2606 30.2599L43.1949 30.3143L43.1412 30.3808L43.0874 30.4533L43.0515 30.5258L43.0097 30.6043C43.0097 30.6043 43.0097 30.6527 43.0097 30.6829C43.0084 30.7111 43.0084 30.7393 43.0097 30.7675C43.0097 30.7675 43.0097 30.8219 43.0097 30.846C43.0082 30.8762 43.0082 30.9065 43.0097 30.9367C43.0097 30.9367 43.0097 30.991 43.0097 31.0213C43.0083 31.0494 43.0083 31.0777 43.0097 31.1058C43.0084 31.134 43.0084 31.1623 43.0097 31.1904C43.0097 31.1904 43.0097 31.2448 43.0097 31.269C43.0222 31.2979 43.0361 31.3262 43.0515 31.3536L43.0814 31.414L43.1113 31.4503C43.1401 31.4891 43.1721 31.5255 43.2069 31.559L43.2606 31.6013L43.3682 31.6738L43.4219 31.698L43.5534 31.7463H43.6012C43.6627 31.753 43.7248 31.753 43.7863 31.7463C43.857 31.745 43.9272 31.7348 43.9954 31.7161H44.0492C44.1187 31.6925 44.185 31.66 44.2463 31.6194L47.0123 29.8068C47.3 29.6027 47.6559 29.5225 48.002 29.5837C48.3481 29.6449 48.6561 29.8424 48.8583 30.133C48.958 30.2766 49.0287 30.4387 49.0665 30.61C49.1042 30.7812 49.1083 30.9583 49.0783 31.1312C49.0483 31.304 48.985 31.4692 48.8919 31.6172C48.7988 31.7653 48.6777 31.8933 48.5357 31.9941L47.6455 32.5983C47.5471 32.6673 47.463 32.7553 47.3982 32.8572C47.3334 32.9591 47.289 33.0729 47.2676 33.1921C47.2463 33.3113 47.2483 33.4336 47.2737 33.5521C47.2991 33.6705 47.3473 33.7827 47.4155 33.8823C47.4838 33.9818 47.5708 34.0669 47.6715 34.1324C47.7722 34.198 47.8848 34.2429 48.0026 34.2645C48.1205 34.2861 48.2415 34.284 48.3585 34.2583C48.4756 34.2327 48.5866 34.1839 48.685 34.1149L49.5632 33.5107L51.1881 32.4049C51.3296 32.2897 51.4931 32.2052 51.6684 32.1567C51.8437 32.1083 52.027 32.097 52.2068 32.1235C52.3866 32.1501 52.5591 32.2138 52.7134 32.3109C52.8677 32.4079 53.0005 32.5361 53.1036 32.6875C53.2067 32.8389 53.2777 33.0101 53.3123 33.1905C53.347 33.3709 53.3444 33.5566 53.3048 33.736C53.2651 33.9154 53.1894 34.0845 53.0821 34.2329C52.9749 34.3813 52.8386 34.5057 52.6816 34.5983C43.2606 41.2871 32.5732 48.2236 30.9961 48.2417C29.8013 48.2417 27.2444 46.6828 24.9623 45.3112C22.3875 43.7583 19.9621 42.2901 18.2476 42.0665C14.8305 41.6073 9.54946 45.5952 8.95804 46.0786C8.77583 46.2204 8.65679 46.4296 8.6271 46.6602C8.59741 46.8908 8.65951 47.1239 8.79973 47.3082C8.93995 47.4925 9.14681 47.6129 9.37479 47.6429C9.60278 47.6729 9.83323 47.6101 10.0154 47.4683C11.4611 46.3444 15.7146 43.4925 18.0206 43.8006C19.3826 43.9819 21.8738 45.4864 24.0782 46.8218C26.7904 48.4592 29.3532 50 30.9961 50C33.8695 50 50.3936 38.3686 53.6972 36.0363L53.7748 35.9699C54.4142 35.4856 54.8408 34.7676 54.9636 33.9693C55.0864 33.171 54.8956 32.3558 54.432 31.698Z" fill="white"/>
<path d="M25 23.5C25 24.7856 25.3812 26.0423 26.0954 27.1112C26.8097 28.1801 27.8248 29.0132 29.0126 29.5052C30.2003 29.9972 31.5072 30.1259 32.7681 29.8751C34.029 29.6243 35.1871 29.0052 36.0962 28.0962C37.0052 27.1872 37.6243 26.029 37.8751 24.7681C38.1259 23.5072 37.9972 22.2003 37.5052 21.0126C37.0132 19.8248 36.1801 18.8097 35.1112 18.0954C34.0423 17.3812 32.7856 17 31.5 17C29.7766 17.0016 28.1242 17.687 26.9056 18.9056C25.687 20.1242 25.0016 21.7766 25 23.5ZM31.5 18.7895C32.4316 18.7895 33.3424 19.0658 34.117 19.5834C34.8917 20.101 35.4954 20.8366 35.8519 21.6974C36.2085 22.5581 36.3017 23.5052 36.12 24.419C35.9382 25.3327 35.4896 26.172 34.8308 26.8308C34.1721 27.4896 33.3327 27.9382 32.419 28.12C31.5052 28.3017 30.5581 28.2085 29.6974 27.8519C28.8366 27.4954 28.101 26.8916 27.5834 26.117C27.0658 25.3424 26.7895 24.4316 26.7895 23.5C26.7911 22.2512 27.2879 21.054 28.171 20.171C29.054 19.2879 30.2512 18.7911 31.5 18.7895Z" fill="white"/>
<path d="M40 15C40.9889 15 41.9556 14.7068 42.7779 14.1573C43.6001 13.6079 44.241 12.827 44.6194 11.9134C44.9978 10.9998 45.0969 9.99445 44.9039 9.02455C44.711 8.05465 44.2348 7.16373 43.5355 6.46447C42.8363 5.76521 41.9454 5.289 40.9754 5.09608C40.0055 4.90315 39.0002 5.00217 38.0866 5.3806C37.173 5.75904 36.3921 6.39991 35.8427 7.22215C35.2932 8.0444 35 9.0111 35 10C35.0016 11.3256 35.5289 12.5964 36.4663 13.5337C37.4036 14.4711 38.6744 14.9984 40 15ZM40 6.79187C40.6342 6.79309 41.2539 6.98228 41.7807 7.33553C42.3074 7.68878 42.7177 8.19025 42.9595 8.77656C43.2014 9.36288 43.2641 10.0077 43.1396 10.6296C43.0151 11.2516 42.7091 11.8226 42.2602 12.2707C41.8112 12.7187 41.2396 13.0236 40.6175 13.1469C39.9953 13.2702 39.3506 13.2063 38.7647 12.9633C38.1789 12.7203 37.6782 12.3091 37.326 11.7817C36.9737 11.2543 36.7857 10.6342 36.7857 10C36.7857 9.14752 37.1244 8.32995 37.7272 7.72716C38.33 7.12436 39.1475 6.78572 40 6.78572V6.79187Z" fill="white"/>
<path d="M24.4939 17C25.78 17.0012 27.0375 16.6209 28.1074 15.9071C29.1772 15.1934 30.0113 14.1783 30.504 12.9903C30.9968 11.8023 31.126 10.4949 30.8754 9.23342C30.6248 7.97197 30.0056 6.81322 29.0962 5.90381C28.1868 4.9944 27.028 4.37521 25.7666 4.1246C24.5051 3.87399 23.1977 4.00323 22.0097 4.49596C20.8217 4.98869 19.8066 5.82277 19.0929 6.89263C18.3791 7.96249 17.9988 9.22005 18 10.5061C18.0033 12.2274 18.6885 13.8773 19.9056 15.0944C21.1227 16.3115 22.7726 16.9967 24.4939 17ZM24.4939 5.7895C25.4255 5.7895 26.3362 6.06576 27.1109 6.58336C27.8855 7.10096 28.4893 7.83664 28.8458 8.69737C29.2023 9.5581 29.2956 10.5052 29.1138 11.419C28.9321 12.3327 28.4835 13.172 27.8247 13.8308C27.1659 14.4896 26.3266 14.9382 25.4128 15.12C24.4991 15.3017 23.552 15.2085 22.6912 14.8519C21.8305 14.4954 21.0948 13.8916 20.5772 13.117C20.0596 12.3424 19.7834 11.4316 19.7834 10.5C19.785 9.2512 20.2818 8.05401 21.1648 7.17097C22.0479 6.28793 23.245 5.79113 24.4939 5.7895Z" fill="white"/>
</svg>
