<svg width="67" height="65" viewBox="0 0 67 65" fill="none" xmlns="http://www.w3.org/2000/svg">
<path d="M56.1391 55.5921C59.0189 55.5898 61.7802 54.3943 63.8165 52.268C65.8529 50.1416 66.9978 47.2584 67 44.2513V6.41447C67 6.07423 66.8706 5.74792 66.6402 5.50733C66.4097 5.26674 66.0972 5.13158 65.7714 5.13158H55.533V1.28289C55.533 0.94265 55.4036 0.61634 55.1732 0.375751C54.9427 0.135162 54.6302 0 54.3044 0C53.9786 0 53.6661 0.135162 53.4356 0.375751C53.2052 0.61634 53.0758 0.94265 53.0758 1.28289V5.13158H24.4083V1.28289C24.4083 0.94265 24.2789 0.61634 24.0485 0.375751C23.8181 0.135162 23.5056 0 23.1797 0C22.8539 0 22.5414 0.135162 22.3109 0.375751C22.0805 0.61634 21.9511 0.94265 21.9511 1.28289V5.13158H10.8936C10.5678 5.13158 10.2553 5.26674 10.0249 5.50733C9.79448 5.74792 9.66504 6.07423 9.66504 6.41447V44.3026C9.64988 46.6262 8.75357 48.8489 7.17237 50.4839C5.59117 52.119 3.45392 53.0332 1.22861 53.0263C0.90276 53.0263 0.590259 53.1615 0.359851 53.4021C0.129442 53.6427 0 53.969 0 54.3092C0 54.6495 0.129442 54.9758 0.359851 55.2164C0.590259 55.4569 0.90276 55.5921 1.22861 55.5921H9.66504V63.7171C9.66504 64.0574 9.79448 64.3837 10.0249 64.6243C10.2553 64.8648 10.5678 65 10.8936 65H65.7714C66.0972 65 66.4097 64.8648 66.6402 64.6243C66.8706 64.3837 67 64.0574 67 63.7171V56.875C67 56.5348 66.8706 56.2084 66.6402 55.9679C66.4097 55.7273 66.0972 55.5921 65.7714 55.5921C65.4455 55.5921 65.133 55.7273 64.9026 55.9679C64.6722 56.2084 64.5428 56.5348 64.5428 56.875V62.4342H12.1222V55.5921H56.1391ZM12.1222 44.3026V7.69737H21.9511V11.5461C21.9511 11.8863 22.0805 12.2126 22.3109 12.4532C22.5414 12.6938 22.8539 12.8289 23.1797 12.8289C23.5056 12.8289 23.8181 12.6938 24.0485 12.4532C24.2789 12.2126 24.4083 11.8863 24.4083 11.5461V7.69737H53.0758V11.5461C53.0758 11.8863 53.2052 12.2126 53.4356 12.4532C53.6661 12.6938 53.9786 12.8289 54.3044 12.8289C54.6302 12.8289 54.9427 12.6938 55.1732 12.4532C55.4036 12.2126 55.533 11.8863 55.533 11.5461V7.69737H64.5428V44.2513C64.5406 46.5779 63.6545 48.8085 62.079 50.4537C60.5035 52.0988 58.3672 53.0241 56.1391 53.0263H8.13337C9.37755 51.9733 10.3812 50.6439 11.0712 49.1348C11.7613 47.6257 12.1203 45.9749 12.1222 44.3026Z" fill="#7DF17B"/>
</svg>
