<svg width="28" height="27" viewBox="0 0 28 27" fill="none" xmlns="http://www.w3.org/2000/svg">
<path d="M23.4611 23.0921C24.6646 23.0912 25.8186 22.5945 26.6696 21.7113C27.5206 20.8281 27.9991 19.6304 28 18.3813V2.66447C28 2.52314 27.9459 2.3876 27.8496 2.28766C27.7533 2.18772 27.6227 2.13158 27.4866 2.13158H23.2078V0.532895C23.2078 0.391562 23.1537 0.256018 23.0574 0.156081C22.9611 0.056144 22.8306 0 22.6944 0C22.5582 0 22.4276 0.056144 22.3313 0.156081C22.235 0.256018 22.1809 0.391562 22.1809 0.532895V2.13158H10.2005V0.532895C10.2005 0.391562 10.1464 0.256018 10.0501 0.156081C9.95381 0.056144 9.82322 0 9.68704 0C9.55087 0 9.42027 0.056144 9.32398 0.156081C9.22769 0.256018 9.17359 0.391562 9.17359 0.532895V2.13158H4.55257C4.41639 2.13158 4.2858 2.18772 4.18951 2.28766C4.09321 2.3876 4.03912 2.52314 4.03912 2.66447V18.4026C4.03278 19.3678 3.65821 20.2911 2.99741 20.9702C2.33661 21.6494 1.44343 22.0292 0.513447 22.0263C0.377273 22.0263 0.246675 22.0825 0.150385 22.1824C0.0540953 22.2823 0 22.4179 0 22.5592C0 22.7005 0.0540953 22.8361 0.150385 22.936C0.246675 23.036 0.377273 23.0921 0.513447 23.0921H4.03912V26.4671C4.03912 26.6084 4.09321 26.744 4.18951 26.8439C4.2858 26.9439 4.41639 27 4.55257 27H27.4866C27.6227 27 27.7533 26.9439 27.8496 26.8439C27.9459 26.744 28 26.6084 28 26.4671V23.625C28 23.4837 27.9459 23.3481 27.8496 23.2482C27.7533 23.1482 27.6227 23.0921 27.4866 23.0921C27.3504 23.0921 27.2198 23.1482 27.1235 23.2482C27.0272 23.3481 26.9731 23.4837 26.9731 23.625V25.9342H5.06601V23.0921H23.4611ZM5.06601 18.4026V3.19737H9.17359V4.79605C9.17359 4.93739 9.22769 5.07293 9.32398 5.17287C9.42027 5.2728 9.55087 5.32895 9.68704 5.32895C9.82322 5.32895 9.95381 5.2728 10.0501 5.17287C10.1464 5.07293 10.2005 4.93739 10.2005 4.79605V3.19737H22.1809V4.79605C22.1809 4.93739 22.235 5.07293 22.3313 5.17287C22.4276 5.2728 22.5582 5.32895 22.6944 5.32895C22.8306 5.32895 22.9611 5.2728 23.0574 5.17287C23.1537 5.07293 23.2078 4.93739 23.2078 4.79605V3.19737H26.9731V18.3813C26.9722 19.3477 26.6019 20.2743 25.9435 20.9577C25.285 21.641 24.3923 22.0254 23.4611 22.0263H3.39902C3.91898 21.5889 4.33841 21.0367 4.62678 20.4098C4.91515 19.783 5.06521 19.0973 5.06601 18.4026Z" fill="#7DF17B"/>
</svg>
