<svg width="98" height="82" viewBox="0 0 98 82" fill="none" xmlns="http://www.w3.org/2000/svg">
<path d="M33.69 65.6584C35.0851 65.6584 36.1713 66.1323 36.9487 67.0801C37.7261 68.0279 38.1148 69.4496 38.1148 71.3452C38.1148 73.2621 37.7048 74.7317 36.8848 75.754C36.0648 76.7657 34.9306 77.2716 33.4823 77.2716C32.7582 77.2716 32.1245 77.1651 31.5814 76.9521C31.0383 76.7284 30.5538 76.409 30.1278 75.9936L31.2939 74.54C31.624 74.8062 31.9382 75.0032 32.2364 75.131C32.5452 75.2482 32.9019 75.3068 33.3066 75.3068C34.6591 75.3068 35.3726 74.2897 35.4471 72.2557H31.7092V70.4027H35.4471C35.3407 68.5071 34.691 67.5593 33.4983 67.5593C33.1043 67.5593 32.7529 67.6232 32.444 67.751C32.1352 67.8788 31.8104 68.0865 31.4696 68.374L30.2236 66.9044C30.7242 66.4891 31.2406 66.1803 31.7731 65.9779C32.3056 65.7649 32.9445 65.6584 33.69 65.6584ZM47.2522 68.5178L44.9999 72.4474L47.4439 77H44.7762L42.9232 73.3579H42.1565V77H39.6326V68.5178H42.1565V71.8244H42.9871L44.8241 68.5178H47.2522ZM51.8552 68.2462C53.1544 68.2462 54.1714 68.6456 54.9063 69.4443C55.6411 70.2323 56.0085 71.3399 56.0085 72.7669C56.0085 73.6721 55.8381 74.4655 55.4973 75.147C55.1672 75.8179 54.6879 76.3397 54.0596 76.7125C53.442 77.0852 52.7072 77.2716 51.8552 77.2716C50.5666 77.2716 49.5496 76.8775 48.8042 76.0895C48.0694 75.2908 47.702 74.1779 47.702 72.7509C47.702 71.8457 47.867 71.0577 48.1972 70.3868C48.5379 69.7052 49.0172 69.1781 49.6348 68.8053C50.2631 68.4326 51.0033 68.2462 51.8552 68.2462ZM51.8552 70.0992C51.344 70.0992 50.9607 70.3175 50.7051 70.7542C50.4495 71.1801 50.3217 71.8457 50.3217 72.7509C50.3217 73.6774 50.4442 74.3536 50.6891 74.7796C50.9447 75.2056 51.3334 75.4186 51.8552 75.4186C52.3664 75.4186 52.7498 75.2056 53.0053 74.7796C53.2609 74.343 53.3887 73.6721 53.3887 72.7669C53.3887 71.8404 53.2609 71.1642 53.0053 70.7382C52.7604 70.3122 52.377 70.0992 51.8552 70.0992ZM62.3659 77V73.6295H60.0337V77H57.5098V68.5178H60.0337V71.7605H62.3659V68.5178H64.8898V77H62.3659ZM70.5436 68.2462C71.8428 68.2462 72.8598 68.6456 73.5946 69.4443C74.3294 70.2323 74.6968 71.3399 74.6968 72.7669C74.6968 73.6721 74.5264 74.4655 74.1857 75.147C73.8555 75.8179 73.3763 76.3397 72.748 76.7125C72.1303 77.0852 71.3955 77.2716 70.5436 77.2716C69.255 77.2716 68.238 76.8775 67.4925 76.0895C66.7577 75.2908 66.3903 74.1779 66.3903 72.7509C66.3903 71.8457 66.5554 71.0577 66.8855 70.3868C67.2263 69.7052 67.7055 69.1781 68.3232 68.8053C68.9515 68.4326 69.6916 68.2462 70.5436 68.2462ZM70.5436 70.0992C70.0324 70.0992 69.649 70.3175 69.3934 70.7542C69.1379 71.1801 69.0101 71.8457 69.0101 72.7509C69.0101 73.6774 69.1325 74.3536 69.3775 74.7796C69.6331 75.2056 70.0218 75.4186 70.5436 75.4186C71.0547 75.4186 71.4381 75.2056 71.6937 74.7796C71.9493 74.343 72.0771 73.6721 72.0771 72.7669C72.0771 71.8404 71.9493 71.1642 71.6937 70.7382C71.4488 70.3122 71.0654 70.0992 70.5436 70.0992ZM85.479 77H83.0829L82.8912 73.9649C82.8699 73.4325 82.8593 73.0491 82.8593 72.8148C82.8593 72.293 82.8859 71.5955 82.9392 70.7222L81.5654 76.1374H79.4728L78.147 70.7382C78.2002 71.2919 78.2268 71.9256 78.2268 72.6391C78.2268 72.9266 78.2162 73.3686 78.1949 73.9649L78.0511 77H75.671L76.3898 68.5178H79.361L80.5271 73.9809L81.7251 68.5178H84.7442L85.479 77Z" fill="white"/>
<path d="M10 62C7.34784 62 4.8043 63.0536 2.92893 64.9289C1.05357 66.8043 2.3186e-07 69.3478 0 72C-2.3186e-07 74.6522 1.05357 77.1957 2.92893 79.0711C4.80429 80.9464 7.34783 82 10 82L10 72V62Z" fill="#8E9195"/>
<path d="M10 82C12.6522 82 15.1957 80.9464 17.0711 79.0711C18.9464 77.1957 20 74.6522 20 72C20 69.3478 18.9464 66.8043 17.0711 64.9289C15.1957 63.0536 12.6522 62 10 62L10 72V82Z" fill="#03AE00"/>
<path d="M39.5684 35.93V47H36.9487V37.9427H33.6581V47H31.0383V35.93H39.5684ZM46.3903 38.2462C47.4553 38.2462 48.2487 38.6403 48.7705 39.4283C49.2923 40.2164 49.5532 41.3186 49.5532 42.7349C49.5532 43.6082 49.4148 44.3909 49.1379 45.0831C48.8716 45.7647 48.4829 46.3025 47.9718 46.6965C47.4606 47.0799 46.8642 47.2716 46.1827 47.2716C45.3307 47.2716 44.6439 46.9787 44.122 46.393V50.2747L41.5981 50.5462V38.5178H43.8185L43.9463 39.4603C44.2765 39.0449 44.6545 38.7414 45.0805 38.5497C45.5065 38.3474 45.9431 38.2462 46.3903 38.2462ZM45.4159 45.4186C46.4276 45.4186 46.9335 44.5347 46.9335 42.7669C46.9335 41.7658 46.8216 41.0736 46.598 40.6903C46.3744 40.2962 46.0389 40.0992 45.5916 40.0992C45.3041 40.0992 45.0326 40.1844 44.777 40.3548C44.532 40.5252 44.3137 40.7701 44.122 41.0896V44.6678C44.4628 45.1683 44.8941 45.4186 45.4159 45.4186ZM58.5255 42.5912C58.5255 42.9426 58.5095 43.2461 58.4776 43.5017H53.2221C53.3073 44.2152 53.5096 44.7157 53.8291 45.0032C54.1486 45.2908 54.5906 45.4345 55.155 45.4345C55.4958 45.4345 55.8259 45.376 56.1454 45.2588C56.4648 45.131 56.8109 44.9394 57.1837 44.6838L58.222 46.0895C57.2316 46.8775 56.1294 47.2716 54.9154 47.2716C53.5416 47.2716 52.4873 46.8669 51.7525 46.0575C51.0177 45.2482 50.6503 44.1619 50.6503 42.7988C50.6503 41.9362 50.8047 41.1642 51.1135 40.4826C51.4224 39.7904 51.875 39.2473 52.4713 38.8532C53.0677 38.4486 53.7812 38.2462 54.6119 38.2462C55.8365 38.2462 56.795 38.6296 57.4872 39.3964C58.1794 40.1631 58.5255 41.2281 58.5255 42.5912ZM56.0495 41.8723C56.0282 40.5731 55.5703 39.9235 54.6758 39.9235C54.2391 39.9235 53.8984 40.0832 53.6534 40.4027C53.4191 40.7222 53.2754 41.2494 53.2221 41.9842H56.0495V41.8723ZM69.2242 47H66.8281L66.6364 43.9649C66.6151 43.4325 66.6045 43.0491 66.6045 42.8148C66.6045 42.293 66.6311 41.5955 66.6844 40.7222L65.3106 46.1374H63.218L61.8921 40.7382C61.9454 41.2919 61.972 41.9256 61.972 42.6391C61.972 42.9266 61.9614 43.3686 61.9401 43.9649L61.7963 47H59.4162L60.135 38.5178H63.1062L64.2723 43.9809L65.4703 38.5178H68.4894L69.2242 47ZM78.1357 47H75.7396V43.9809C75.7396 43.3845 75.7716 42.8201 75.8355 42.2877C75.8994 41.7552 75.9792 41.3079 76.0751 40.9458L73.2477 47H70.6759V38.5178H73.0879V41.5848C73.0879 42.1492 73.0507 42.703 72.9761 43.2461C72.9122 43.7892 72.8377 44.2365 72.7525 44.5879L75.5479 38.5178H78.1357V47ZM84.794 47.016C84.4533 48.1129 83.8942 48.9542 83.1168 49.5399C82.35 50.1362 81.317 50.4717 80.0178 50.5462L79.7462 48.7731C80.5556 48.6666 81.152 48.4856 81.5353 48.23C81.9294 47.9744 82.2435 47.5644 82.4778 47H81.6152L79.0274 38.5178H81.711L83.2286 45.3866L84.8899 38.5178H87.4936L84.794 47.016ZM97.5376 47H95.1415L94.9498 43.9649C94.9285 43.4325 94.9178 43.0491 94.9178 42.8148C94.9178 42.293 94.9444 41.5955 94.9977 40.7222L93.6239 46.1374H91.5313L90.2055 40.7382C90.2587 41.2919 90.2854 41.9256 90.2854 42.6391C90.2854 42.9266 90.2747 43.3686 90.2534 43.9649L90.1096 47H87.7295L88.4483 38.5178H91.4195L92.5856 43.9809L93.7837 38.5178H96.8028L97.5376 47Z" fill="white"/>
<path d="M10 31C7.34784 31 4.8043 32.0536 2.92893 33.9289C1.05357 35.8043 2.3186e-07 38.3478 0 41C-2.3186e-07 43.6522 1.05357 46.1957 2.92893 48.0711C4.80429 49.9464 7.34783 51 10 51L10 41V31Z" fill="#C5C5C5"/>
<path d="M10 51C11.3132 51 12.6136 50.7413 13.8268 50.2388C15.0401 49.7362 16.1425 48.9997 17.0711 48.0711C17.9997 47.1425 18.7362 46.0401 19.2388 44.8268C19.7413 43.6136 20 42.3132 20 41C20 39.6868 19.7413 38.3864 19.2388 37.1732C18.7362 35.9599 17.9997 34.8575 17.0711 33.9289C16.1425 33.0003 15.0401 32.2638 13.8268 31.7612C12.6136 31.2587 11.3132 31 10 31L10 41V51Z" fill="#34F131"/>
<path d="M39.4407 4.93V16H36.8209V6.91078H34.5206L34.1053 10.6647C33.9562 11.9319 33.7645 12.933 33.5303 13.6678C33.3066 14.4026 32.9712 14.9777 32.5239 15.393C32.0766 15.8083 31.4536 16.1012 30.6549 16.2716L30.0319 14.4345C30.4153 14.2855 30.7029 14.0778 30.8945 13.8116C31.0862 13.5453 31.23 13.1886 31.3258 12.7413C31.4217 12.2834 31.5282 11.5486 31.6453 10.5369L32.3162 4.93H39.4407ZM48.9176 7.24623C49.7057 7.24623 50.3926 7.42727 50.9783 7.78935C51.5746 8.14078 52.0326 8.65727 52.352 9.33883C52.6822 10.0097 52.8472 10.8191 52.8472 11.7669C52.8472 12.6508 52.6822 13.4335 52.352 14.1151C52.0326 14.7966 51.5746 15.3291 50.9783 15.7125C50.3926 16.0852 49.7057 16.2716 48.9176 16.2716C47.842 16.2716 46.9741 15.9468 46.3138 15.2971C45.6536 14.6475 45.2436 13.737 45.0838 12.5656H43.9816V16H41.4577V7.51779H43.9816V10.8244H45.1158C45.2862 9.71688 45.6962 8.84364 46.3458 8.20467C47.0061 7.56571 47.8633 7.24623 48.9176 7.24623ZM48.9176 14.4186C49.4075 14.4186 49.7536 14.2056 49.9559 13.7796C50.1689 13.343 50.2754 12.6721 50.2754 11.7669C50.2754 10.8617 50.1636 10.1908 49.94 9.75416C49.727 9.31753 49.3862 9.09922 48.9176 9.09922C48.449 9.09922 48.1083 9.31221 47.8953 9.73818C47.6823 10.1642 47.5758 10.8351 47.5758 11.7509C47.5758 12.6668 47.6823 13.343 47.8953 13.7796C48.1189 14.2056 48.4597 14.4186 48.9176 14.4186ZM61.9627 7.51779L59.7103 11.4474L62.1543 16H59.4867L57.6337 12.3579H56.8669V16H54.343V7.51779H56.8669V10.8244H57.6976L59.5346 7.51779H61.9627ZM66.5657 7.24623C67.1514 7.24623 67.6785 7.33143 68.1471 7.50182C68.6157 7.67221 69.0576 7.93312 69.4729 8.28454L68.3867 9.7861C67.8542 9.38143 67.3164 9.17909 66.7733 9.17909C66.2089 9.17909 65.7829 9.38675 65.4954 9.80208C65.2079 10.2174 65.0641 10.8883 65.0641 11.8148C65.0641 12.7094 65.2079 13.343 65.4954 13.7157C65.7829 14.0884 66.1983 14.2748 66.7414 14.2748C67.0289 14.2748 67.2898 14.2322 67.5241 14.147C67.7584 14.0512 68.0406 13.9021 68.3707 13.6997L69.4729 15.2652C68.6316 15.9361 67.6785 16.2716 66.6136 16.2716C65.751 16.2716 65.0055 16.0905 64.3772 15.7284C63.7489 15.3557 63.2644 14.8392 62.9236 14.179C62.5828 13.5081 62.4124 12.7253 62.4124 11.8308C62.4124 10.9362 62.5828 10.1429 62.9236 9.45065C63.2644 8.75844 63.7489 8.22065 64.3772 7.83727C65.0055 7.44325 65.735 7.24623 66.5657 7.24623Z" fill="white"/>
<path d="M10 0C7.34784 -3.16267e-08 4.8043 1.05357 2.92893 2.92893C1.05357 4.8043 2.3186e-07 7.34783 0 10C-2.3186e-07 12.6522 1.05357 15.1957 2.92893 17.0711C4.80429 18.9464 7.34783 20 10 20L10 10V0Z" fill="#E4E4E4"/>
<path d="M10 20C12.6522 20 15.1957 18.9464 17.0711 17.0711C18.9464 15.1957 20 12.6522 20 10C20 7.34784 18.9464 4.8043 17.0711 2.92893C15.1957 1.05357 12.6522 5.16396e-07 10 0L10 10V20Z" fill="#7DF17B"/>
</svg>
