<svg width="19" height="19" viewBox="0 0 19 19" fill="none" xmlns="http://www.w3.org/2000/svg">
<path d="M16.7479 2.89545C16.6912 2.83868 16.6155 2.80083 16.5398 2.80083H13.6633V1.47613C13.6633 1.32473 13.5308 1.19226 13.3794 1.19226H5.29873C5.14733 1.19226 5.01486 1.32473 5.01486 1.47613V2.80083H2.06267C1.98698 2.80083 1.91128 2.83868 1.85451 2.89545C1.79773 2.95222 1.77881 3.02792 1.77881 3.10362C1.77881 3.16039 1.83558 4.37154 2.27084 5.77194C2.87642 7.64545 3.89833 8.97015 5.26088 9.57573C5.71506 11.0897 6.7559 12.2819 8.06168 12.755V12.8118C8.06168 14.3825 6.86945 15.6315 5.33658 15.6315C5.18518 15.6315 5.05271 15.764 5.05271 15.9154V17.5239C5.05271 17.6753 5.18518 17.8078 5.33658 17.8078H13.3794C13.5308 17.8078 13.6633 17.6753 13.6633 17.5239V15.9154C13.6633 15.764 13.5308 15.6315 13.3794 15.6315C11.8276 15.6315 10.5597 14.3636 10.5597 12.8118V12.7739C11.9222 12.3008 12.982 11.0897 13.4362 9.53788C14.742 8.91338 15.7449 7.6076 16.3316 5.77194C16.7858 4.37154 16.8236 3.14146 16.8236 3.10362C16.8426 3.02792 16.8047 2.95222 16.7479 2.89545ZM2.36546 3.36856H5.01486V7.91039C5.01486 8.2321 5.03379 8.53489 5.09056 8.83768C2.93319 7.55083 2.46008 4.35262 2.36546 3.36856ZM13.0955 16.1803V17.2211H5.62044V16.1803C7.28578 16.0478 8.57263 14.6664 8.61048 12.9064C8.83757 12.9443 9.08359 12.9821 9.32961 12.9821C9.5567 12.9821 9.78379 12.9632 9.99196 12.9253C10.0677 14.6474 11.4113 16.0478 13.0955 16.1803ZM10.0866 12.3387C9.84056 12.3954 9.59455 12.4333 9.34853 12.4333C9.06467 12.4333 8.7808 12.3954 8.51586 12.3197C8.45909 12.3008 8.36447 12.263 8.32662 12.263C6.7559 11.7331 5.58259 9.99206 5.58259 7.92931V1.77891H13.0955V2.91437V3.27393V7.92931C13.0955 9.99206 11.9222 11.7331 10.3326 12.263L10.0866 12.3387ZM13.6065 8.79983C13.6443 8.51597 13.6822 8.21318 13.6822 7.91039V3.36856H16.2559C16.1613 4.35262 15.7071 7.4562 13.6065 8.79983Z" fill="#9F6BC9"/>
<path d="M12.0737 5.16636L10.5219 4.93927L9.8217 3.51995C9.74601 3.36855 9.57569 3.255 9.40537 3.255C9.23505 3.255 9.06473 3.34963 8.98903 3.51995L8.28883 4.93927L6.73704 5.16636C6.56672 5.18528 6.41533 5.31775 6.35856 5.48807C6.30178 5.65839 6.33963 5.84763 6.4721 5.96118L7.60756 7.05879L7.34262 8.61058C7.30477 8.7809 7.38047 8.95122 7.53186 9.06477C7.60756 9.12154 7.70218 9.15939 7.81573 9.15939C7.89142 9.15939 7.96712 9.14046 8.02389 9.10261L9.46214 8.38349L10.8247 9.10261C10.9761 9.17831 11.1653 9.17831 11.3167 9.06477C11.4681 8.95122 11.5249 8.7809 11.506 8.61058L11.241 7.05879L12.3765 5.96118C12.509 5.82871 12.5468 5.65839 12.49 5.48807C12.3954 5.31775 12.2629 5.18528 12.0737 5.16636ZM10.7111 6.756C10.6354 6.81277 10.6165 6.90739 10.6354 7.00202L10.9004 8.49704L9.59461 7.81576C9.51891 7.77791 9.42429 7.77791 9.32967 7.81576L7.92927 8.51596L8.19421 7.00202C8.21314 6.90739 8.17529 6.81277 8.11852 6.756L7.03983 5.69624L8.53485 5.46915C8.62947 5.45022 8.70517 5.39345 8.74302 5.31775L9.40537 3.9552L10.0677 5.31775C10.1056 5.39345 10.1813 5.46915 10.2759 5.46915L11.7709 5.69624L10.7111 6.756Z" fill="#9F6BC9"/>
</svg>
