<svg width="186" height="270" viewBox="0 0 186 270" fill="none" xmlns="http://www.w3.org/2000/svg">
<path d="M105.515 266C105.415 266 105.365 265.95 105.365 265.85V264.817C105.365 264.338 105.45 263.914 105.62 263.545C105.8 263.165 106.034 262.831 106.324 262.541C106.613 262.252 106.927 261.988 107.267 261.748C107.616 261.498 107.961 261.264 108.3 261.044C108.649 260.815 108.969 260.59 109.258 260.371C109.548 260.141 109.777 259.896 109.947 259.637C110.126 259.367 110.216 259.068 110.216 258.739V258.424C110.216 257.995 110.062 257.676 109.752 257.466C109.453 257.246 109.009 257.137 108.42 257.137C107.831 257.137 107.392 257.266 107.102 257.526C106.823 257.785 106.683 258.15 106.683 258.619C106.683 258.719 106.638 258.769 106.548 258.769H105.575C105.475 258.769 105.425 258.719 105.425 258.619C105.425 258.06 105.54 257.586 105.77 257.196C105.999 256.807 106.344 256.513 106.803 256.313C107.272 256.114 107.856 256.014 108.554 256.014C109.543 256.014 110.276 256.223 110.755 256.643C111.244 257.062 111.489 257.676 111.489 258.484C111.489 259.013 111.399 259.467 111.219 259.847C111.05 260.216 110.82 260.545 110.531 260.835C110.251 261.114 109.937 261.369 109.588 261.598C109.248 261.818 108.909 262.032 108.569 262.242C108.23 262.452 107.916 262.676 107.626 262.916C107.347 263.155 107.117 263.43 106.937 263.739C106.768 264.049 106.683 264.418 106.683 264.847H111.294C111.394 264.847 111.444 264.897 111.444 264.997V265.85C111.444 265.95 111.394 266 111.294 266H105.515ZM116.745 266.18C115.697 266.18 114.878 265.88 114.289 265.281C113.7 264.682 113.406 263.849 113.406 262.781V259.412C113.406 258.344 113.7 257.511 114.289 256.912C114.878 256.313 115.697 256.014 116.745 256.014C117.793 256.014 118.611 256.313 119.2 256.912C119.789 257.511 120.083 258.344 120.083 259.412V262.781C120.083 263.849 119.789 264.682 119.2 265.281C118.611 265.88 117.793 266.18 116.745 266.18ZM116.745 265.057C117.393 265.057 117.898 264.867 118.257 264.488C118.626 264.099 118.811 263.57 118.811 262.901V259.293C118.811 258.614 118.626 258.085 118.257 257.706C117.898 257.326 117.393 257.137 116.745 257.137C116.096 257.137 115.587 257.326 115.218 257.706C114.858 258.085 114.679 258.614 114.679 259.293V262.901C114.679 263.57 114.858 264.099 115.218 264.488C115.587 264.867 116.096 265.057 116.745 265.057ZM122.285 266C122.186 266 122.136 265.95 122.136 265.85V264.817C122.136 264.338 122.221 263.914 122.39 263.545C122.57 263.165 122.805 262.831 123.094 262.541C123.383 262.252 123.698 261.988 124.037 261.748C124.387 261.498 124.731 261.264 125.07 261.044C125.42 260.815 125.739 260.59 126.028 260.371C126.318 260.141 126.548 259.896 126.717 259.637C126.897 259.367 126.987 259.068 126.987 258.739V258.424C126.987 257.995 126.832 257.676 126.523 257.466C126.223 257.246 125.779 257.137 125.19 257.137C124.601 257.137 124.162 257.266 123.873 257.526C123.593 257.785 123.453 258.15 123.453 258.619C123.453 258.719 123.408 258.769 123.319 258.769H122.345C122.246 258.769 122.196 258.719 122.196 258.619C122.196 258.06 122.31 257.586 122.54 257.196C122.77 256.807 123.114 256.513 123.573 256.313C124.042 256.114 124.626 256.014 125.325 256.014C126.313 256.014 127.047 256.223 127.526 256.643C128.015 257.062 128.259 257.676 128.259 258.484C128.259 259.013 128.169 259.467 127.99 259.847C127.82 260.216 127.591 260.545 127.301 260.835C127.022 261.114 126.707 261.369 126.358 261.598C126.018 261.818 125.679 262.032 125.34 262.242C125 262.452 124.686 262.676 124.397 262.916C124.117 263.155 123.887 263.43 123.708 263.739C123.538 264.049 123.453 264.418 123.453 264.847H128.065C128.164 264.847 128.214 264.897 128.214 264.997V265.85C128.214 265.95 128.164 266 128.065 266H122.285ZM133.515 266.18C132.467 266.18 131.649 265.905 131.06 265.356C130.471 264.807 130.176 264.009 130.176 262.961V259.188C130.176 258.19 130.476 257.411 131.075 256.852C131.673 256.293 132.522 256.014 133.62 256.014C134.219 256.014 134.733 256.099 135.162 256.268C135.601 256.428 135.94 256.662 136.18 256.972C136.42 257.271 136.539 257.636 136.539 258.065C136.539 258.165 136.489 258.215 136.39 258.215H135.431C135.332 258.215 135.282 258.165 135.282 258.065C135.282 257.775 135.132 257.551 134.833 257.391C134.543 257.221 134.144 257.137 133.635 257.137C132.906 257.137 132.357 257.301 131.988 257.631C131.629 257.96 131.449 258.464 131.449 259.143V262.946C131.449 263.604 131.629 264.124 131.988 264.503C132.357 264.872 132.861 265.057 133.5 265.057C134.149 265.057 134.653 264.867 135.012 264.488C135.372 264.109 135.551 263.585 135.551 262.916V262.497C135.551 261.958 135.411 261.553 135.132 261.284C134.853 261.004 134.438 260.865 133.889 260.865C133.46 260.865 133.011 260.959 132.542 261.149C132.083 261.329 131.649 261.593 131.239 261.943V260.865C131.698 260.495 132.173 260.221 132.662 260.041C133.161 259.852 133.675 259.757 134.204 259.757C135.072 259.757 135.726 260.001 136.165 260.49C136.604 260.969 136.824 261.683 136.824 262.631C136.824 263.749 136.534 264.623 135.955 265.251C135.387 265.87 134.573 266.18 133.515 266.18Z" fill="white"/>
<path d="M41.2271 266C41.1273 266 41.0774 265.95 41.0774 265.85V264.817C41.0774 264.338 41.1623 263.914 41.3319 263.545C41.5116 263.165 41.7462 262.831 42.0356 262.541C42.3251 262.252 42.6395 261.988 42.9789 261.748C43.3282 261.498 43.6726 261.264 44.0119 261.044C44.3613 260.815 44.6807 260.59 44.9701 260.371C45.2596 260.141 45.4892 259.896 45.6588 259.637C45.8385 259.367 45.9283 259.068 45.9283 258.739V258.424C45.9283 257.995 45.7736 257.676 45.4642 257.466C45.1648 257.246 44.7206 257.137 44.1317 257.137C43.5428 257.137 43.1036 257.266 42.8142 257.526C42.5347 257.785 42.3949 258.15 42.3949 258.619C42.3949 258.719 42.35 258.769 42.2602 258.769H41.287C41.1872 258.769 41.1373 258.719 41.1373 258.619C41.1373 258.06 41.2521 257.586 41.4817 257.196C41.7112 256.807 42.0556 256.513 42.5147 256.313C42.9838 256.114 43.5678 256.014 44.2664 256.014C45.2546 256.014 45.9882 256.223 46.4673 256.643C46.9564 257.062 47.2009 257.676 47.2009 258.484C47.2009 259.013 47.1111 259.467 46.9315 259.847C46.7618 260.216 46.5322 260.545 46.2427 260.835C45.9633 261.114 45.6489 261.369 45.2995 261.598C44.9601 261.818 44.6208 262.032 44.2814 262.242C43.9421 262.452 43.6276 262.676 43.3382 262.916C43.0587 263.155 42.8291 263.43 42.6495 263.739C42.4798 264.049 42.3949 264.418 42.3949 264.847H47.0063C47.1061 264.847 47.156 264.897 47.156 264.997V265.85C47.156 265.95 47.1061 266 47.0063 266H41.2271ZM52.4567 266.18C51.4087 266.18 50.5902 265.88 50.0013 265.281C49.4124 264.682 49.1179 263.849 49.1179 262.781V259.412C49.1179 258.344 49.4124 257.511 50.0013 256.912C50.5902 256.313 51.4087 256.014 52.4567 256.014C53.5047 256.014 54.3232 256.313 54.9121 256.912C55.501 257.511 55.7954 258.344 55.7954 259.412V262.781C55.7954 263.849 55.501 264.682 54.9121 265.281C54.3232 265.88 53.5047 266.18 52.4567 266.18ZM52.4567 265.057C53.1055 265.057 53.6095 264.867 53.9689 264.488C54.3382 264.099 54.5228 263.57 54.5228 262.901V259.293C54.5228 258.614 54.3382 258.085 53.9689 257.706C53.6095 257.326 53.1055 257.137 52.4567 257.137C51.8079 257.137 51.2989 257.326 50.9296 257.706C50.5702 258.085 50.3906 258.614 50.3906 259.293V262.901C50.3906 263.57 50.5702 264.099 50.9296 264.488C51.2989 264.867 51.8079 265.057 52.4567 265.057ZM57.9975 266C57.8977 266 57.8478 265.95 57.8478 265.85V264.817C57.8478 264.338 57.9326 263.914 58.1023 263.545C58.282 263.165 58.5165 262.831 58.806 262.541C59.0954 262.252 59.4098 261.988 59.7492 261.748C60.0986 261.498 60.4429 261.264 60.7823 261.044C61.1316 260.815 61.451 260.59 61.7405 260.371C62.0299 260.141 62.2595 259.896 62.4292 259.637C62.6089 259.367 62.6987 259.068 62.6987 258.739V258.424C62.6987 257.995 62.544 257.676 62.2346 257.466C61.9351 257.246 61.4909 257.137 60.902 257.137C60.3132 257.137 59.874 257.266 59.5845 257.526C59.305 257.785 59.1653 258.15 59.1653 258.619C59.1653 258.719 59.1204 258.769 59.0306 258.769H58.0574C57.9576 258.769 57.9077 258.719 57.9077 258.619C57.9077 258.06 58.0224 257.586 58.252 257.196C58.4816 256.807 58.8259 256.513 59.2851 256.313C59.7542 256.114 60.3381 256.014 61.0368 256.014C62.0249 256.014 62.7586 256.223 63.2377 256.643C63.7268 257.062 63.9713 257.676 63.9713 258.484C63.9713 259.013 63.8815 259.467 63.7018 259.847C63.5321 260.216 63.3026 260.545 63.0131 260.835C62.7336 261.114 62.4192 261.369 62.0699 261.598C61.7305 261.818 61.3911 262.032 61.0518 262.242C60.7124 262.452 60.398 262.676 60.1085 262.916C59.8291 263.155 59.5995 263.43 59.4198 263.739C59.2501 264.049 59.1653 264.418 59.1653 264.847H63.7767C63.8765 264.847 63.9264 264.897 63.9264 264.997V265.85C63.9264 265.95 63.8765 266 63.7767 266H57.9975ZM66.0829 266C65.9831 266 65.9332 265.95 65.9332 265.85V264.817C65.9332 264.338 66.0181 263.914 66.1877 263.545C66.3674 263.165 66.602 262.831 66.8914 262.541C67.1809 262.252 67.4953 261.988 67.8347 261.748C68.184 261.498 68.5284 261.264 68.8677 261.044C69.2171 260.815 69.5365 260.59 69.8259 260.371C70.1154 260.141 70.345 259.896 70.5146 259.637C70.6943 259.367 70.7841 259.068 70.7841 258.739V258.424C70.7841 257.995 70.6294 257.676 70.32 257.466C70.0206 257.246 69.5764 257.137 68.9875 257.137C68.3986 257.137 67.9594 257.266 67.67 257.526C67.3905 257.785 67.2507 258.15 67.2507 258.619C67.2507 258.719 67.2058 258.769 67.116 258.769H66.1428C66.043 258.769 65.9931 258.719 65.9931 258.619C65.9931 258.06 66.1079 257.586 66.3375 257.196C66.567 256.807 66.9114 256.513 67.3705 256.313C67.8396 256.114 68.4235 256.014 69.1222 256.014C70.1104 256.014 70.844 256.223 71.3231 256.643C71.8122 257.062 72.0567 257.676 72.0567 258.484C72.0567 259.013 71.9669 259.467 71.7873 259.847C71.6176 260.216 71.388 260.545 71.0985 260.835C70.8191 261.114 70.5047 261.369 70.1553 261.598C69.8159 261.818 69.4766 262.032 69.1372 262.242C68.7978 262.452 68.4834 262.676 68.194 262.916C67.9145 263.155 67.6849 263.43 67.5053 263.739C67.3356 264.049 67.2507 264.418 67.2507 264.847H71.8621C71.9619 264.847 72.0118 264.897 72.0118 264.997V265.85C72.0118 265.95 71.9619 266 71.8621 266H66.0829Z" fill="white"/>
<path d="M17 247L159 247" stroke="#8D8D8D" stroke-width="0.499065"/>
<path d="M153.044 241.15C152.529 241.15 152.088 241.067 151.722 240.9C151.364 240.734 151.09 240.493 150.898 240.177C150.715 239.852 150.624 239.453 150.624 238.979C150.624 238.937 150.636 238.908 150.661 238.891C150.686 238.866 150.715 238.854 150.749 238.854H151.535C151.618 238.854 151.659 238.896 151.659 238.979C151.659 239.386 151.784 239.694 152.034 239.902C152.283 240.11 152.649 240.214 153.132 240.214C153.731 240.214 154.163 240.089 154.429 239.84C154.695 239.59 154.828 239.203 154.828 238.679V238.305C154.828 237.939 154.766 237.64 154.641 237.407C154.525 237.166 154.338 236.991 154.08 236.883C153.83 236.766 153.506 236.708 153.107 236.708C152.849 236.708 152.533 236.75 152.158 236.833C151.792 236.908 151.439 237.024 151.098 237.182C151.031 237.215 150.973 237.215 150.923 237.182C150.882 237.149 150.865 237.103 150.873 237.045L151.248 232.953C151.256 232.869 151.298 232.828 151.372 232.828H155.29C155.373 232.828 155.415 232.869 155.415 232.953V233.664C155.415 233.747 155.373 233.789 155.29 233.789H152.183L152.021 235.984C152.287 235.918 152.533 235.872 152.757 235.847C152.99 235.822 153.198 235.81 153.381 235.81C154.163 235.81 154.774 236.03 155.215 236.471C155.664 236.912 155.889 237.565 155.889 238.43C155.889 239.311 155.644 239.985 155.153 240.451C154.67 240.917 153.968 241.15 153.044 241.15ZM158.317 241C158.275 241 158.246 240.988 158.23 240.963C158.213 240.929 158.213 240.892 158.23 240.85L161.449 233.789H158.18V234.812C158.18 234.895 158.138 234.936 158.055 234.936H157.256C157.173 234.936 157.132 234.895 157.132 234.812V232.953C157.132 232.869 157.173 232.828 157.256 232.828H162.734C162.775 232.828 162.804 232.84 162.821 232.865C162.846 232.882 162.858 232.911 162.858 232.953V233.015C162.858 233.048 162.854 233.081 162.846 233.115C162.846 233.14 162.838 233.169 162.821 233.202L159.34 240.888C159.323 240.921 159.298 240.95 159.265 240.975C159.24 240.992 159.207 241 159.165 241H158.317ZM166.131 241C166.081 241 166.048 240.988 166.031 240.963C166.015 240.929 166.019 240.892 166.044 240.85L168.502 236.745L170.747 232.89C170.789 232.832 170.839 232.803 170.897 232.803H171.721C171.837 232.803 171.866 232.853 171.808 232.953L169.487 236.82L167.104 240.913C167.063 240.971 167.013 241 166.954 241H166.131ZM165.906 237.045C165.441 237.045 165.05 236.966 164.734 236.808C164.418 236.65 164.181 236.425 164.022 236.134C163.873 235.835 163.798 235.473 163.798 235.049V234.674C163.798 234.25 163.877 233.888 164.035 233.589C164.193 233.289 164.426 233.065 164.734 232.915C165.05 232.757 165.441 232.678 165.906 232.678C166.381 232.678 166.771 232.757 167.079 232.915C167.387 233.065 167.616 233.289 167.765 233.589C167.924 233.888 168.003 234.25 168.003 234.674V235.049C168.003 235.473 167.924 235.835 167.765 236.134C167.616 236.425 167.383 236.65 167.067 236.808C166.759 236.966 166.372 237.045 165.906 237.045ZM165.906 236.246C166.314 236.246 166.609 236.155 166.792 235.972C166.975 235.789 167.067 235.489 167.067 235.074V234.649C167.067 234.225 166.975 233.926 166.792 233.751C166.609 233.568 166.314 233.477 165.906 233.477C165.499 233.477 165.199 233.568 165.008 233.751C164.825 233.934 164.734 234.234 164.734 234.649V235.074C164.734 235.489 164.825 235.789 165.008 235.972C165.199 236.155 165.499 236.246 165.906 236.246ZM171.945 241.15C171.479 241.15 171.088 241.075 170.772 240.925C170.465 240.767 170.232 240.538 170.074 240.239C169.924 239.939 169.849 239.578 169.849 239.153V238.779C169.849 238.355 169.924 237.997 170.074 237.706C170.232 237.407 170.465 237.178 170.772 237.02C171.088 236.862 171.479 236.783 171.945 236.783C172.419 236.783 172.81 236.862 173.118 237.02C173.434 237.178 173.667 237.407 173.817 237.706C173.975 237.997 174.054 238.355 174.054 238.779V239.153C174.054 239.578 173.975 239.939 173.817 240.239C173.659 240.538 173.422 240.767 173.105 240.925C172.798 241.075 172.411 241.15 171.945 241.15ZM171.945 240.351C172.353 240.351 172.648 240.26 172.831 240.077C173.022 239.894 173.118 239.594 173.118 239.178V238.754C173.118 238.338 173.026 238.039 172.843 237.856C172.66 237.673 172.361 237.581 171.945 237.581C171.538 237.581 171.242 237.673 171.059 237.856C170.876 238.039 170.785 238.338 170.785 238.754V239.178C170.785 239.603 170.876 239.906 171.059 240.089C171.242 240.264 171.538 240.351 171.945 240.351Z" fill="white"/>
<path d="M4.53182 241.15C3.65846 241.15 2.9764 240.921 2.48565 240.464C1.9949 240.006 1.74953 239.341 1.74953 238.467V235.323C1.74953 234.491 1.99906 233.843 2.49813 233.377C2.99719 232.911 3.7042 232.678 4.61916 232.678C5.11822 232.678 5.54659 232.749 5.90425 232.89C6.27023 233.023 6.55304 233.219 6.75266 233.477C6.95229 233.726 7.0521 234.03 7.0521 234.387C7.0521 234.471 7.01051 234.512 6.92733 234.512H6.12883C6.04565 234.512 6.00406 234.471 6.00406 234.387C6.00406 234.146 5.8793 233.959 5.62976 233.826C5.38855 233.685 5.05584 233.614 4.63163 233.614C4.02444 233.614 3.56696 233.751 3.2592 234.026C2.95976 234.3 2.81004 234.72 2.81004 235.286V238.455C2.81004 239.004 2.95976 239.436 3.2592 239.752C3.56696 240.06 3.98701 240.214 4.51934 240.214C5.06 240.214 5.48004 240.056 5.77948 239.74C6.07892 239.424 6.22864 238.987 6.22864 238.43V238.08C6.22864 237.631 6.11219 237.294 5.8793 237.07C5.6464 236.837 5.30121 236.721 4.84374 236.721C4.48607 236.721 4.11177 236.8 3.72084 236.958C3.33822 237.107 2.9764 237.328 2.63537 237.619V236.721C3.01799 236.413 3.41308 236.184 3.82065 236.034C4.23654 235.876 4.6649 235.797 5.10575 235.797C5.82939 235.797 6.3742 236.001 6.74018 236.409C7.10617 236.808 7.28916 237.403 7.28916 238.193C7.28916 239.124 7.04794 239.852 6.56551 240.376C6.0914 240.892 5.4135 241.15 4.53182 241.15ZM11.623 241.15C10.7497 241.15 10.0676 240.9 9.57686 240.401C9.08612 239.902 8.84074 239.208 8.84074 238.318V235.51C8.84074 234.62 9.08612 233.926 9.57686 233.427C10.0676 232.928 10.7497 232.678 11.623 232.678C12.4964 232.678 13.1785 232.928 13.6692 233.427C14.1599 233.926 14.4053 234.62 14.4053 235.51V238.318C14.4053 239.208 14.1599 239.902 13.6692 240.401C13.1785 240.9 12.4964 241.15 11.623 241.15ZM11.623 240.214C12.1637 240.214 12.5837 240.056 12.8832 239.74C13.1909 239.415 13.3448 238.975 13.3448 238.417V235.41C13.3448 234.845 13.1909 234.404 12.8832 234.088C12.5837 233.772 12.1637 233.614 11.623 233.614C11.0824 233.614 10.6582 233.772 10.3504 234.088C10.051 234.404 9.90126 234.845 9.90126 235.41V238.417C9.90126 238.975 10.051 239.415 10.3504 239.74C10.6582 240.056 11.0824 240.214 11.623 240.214ZM18.324 241C18.2741 241 18.2408 240.988 18.2241 240.963C18.2075 240.929 18.2117 240.892 18.2366 240.85L20.6945 236.745L22.9403 232.89C22.9819 232.832 23.0318 232.803 23.09 232.803H23.9135C24.0299 232.803 24.0591 232.853 24.0008 232.953L21.6802 236.82L19.2971 240.913C19.2555 240.971 19.2056 241 19.1474 241H18.324ZM18.0994 237.045C17.6336 237.045 17.2427 236.966 16.9266 236.808C16.6105 236.65 16.3734 236.425 16.2154 236.134C16.0657 235.835 15.9908 235.473 15.9908 235.049V234.674C15.9908 234.25 16.0698 233.888 16.2279 233.589C16.3859 233.289 16.6188 233.065 16.9266 232.915C17.2427 232.757 17.6336 232.678 18.0994 232.678C18.5735 232.678 18.9644 232.757 19.2722 232.915C19.5799 233.065 19.8087 233.289 19.9584 233.589C20.1164 233.888 20.1955 234.25 20.1955 234.674V235.049C20.1955 235.473 20.1164 235.835 19.9584 236.134C19.8087 236.425 19.5758 236.65 19.2597 236.808C18.952 236.966 18.5652 237.045 18.0994 237.045ZM18.0994 236.246C18.507 236.246 18.8022 236.155 18.9852 235.972C19.1682 235.789 19.2597 235.489 19.2597 235.074V234.649C19.2597 234.225 19.1682 233.926 18.9852 233.751C18.8022 233.568 18.507 233.477 18.0994 233.477C17.6918 233.477 17.3924 233.568 17.2011 233.751C17.0181 233.934 16.9266 234.234 16.9266 234.649V235.074C16.9266 235.489 17.0181 235.789 17.2011 235.972C17.3924 236.155 17.6918 236.246 18.0994 236.246ZM24.1381 241.15C23.6723 241.15 23.2813 241.075 22.9653 240.925C22.6575 240.767 22.4246 240.538 22.2666 240.239C22.1169 239.939 22.042 239.578 22.042 239.153V238.779C22.042 238.355 22.1169 237.997 22.2666 237.706C22.4246 237.407 22.6575 237.178 22.9653 237.02C23.2813 236.862 23.6723 236.783 24.1381 236.783C24.6122 236.783 25.0031 236.862 25.3109 237.02C25.627 237.178 25.8598 237.407 26.0096 237.706C26.1676 237.997 26.2466 238.355 26.2466 238.779V239.153C26.2466 239.578 26.1676 239.939 26.0096 240.239C25.8515 240.538 25.6145 240.767 25.2984 240.925C24.9906 241.075 24.6039 241.15 24.1381 241.15ZM24.1381 240.351C24.5456 240.351 24.8409 240.26 25.0239 240.077C25.2152 239.894 25.3109 239.594 25.3109 239.178V238.754C25.3109 238.338 25.2194 238.039 25.0364 237.856C24.8534 237.673 24.554 237.581 24.1381 237.581C23.7305 237.581 23.4352 237.673 23.2522 237.856C23.0692 238.039 22.9777 238.338 22.9777 238.754V239.178C22.9777 239.603 23.0692 239.906 23.2522 240.089C23.4352 240.264 23.7305 240.351 24.1381 240.351Z" fill="white"/>
<path d="M3.45082 174.15C2.89353 174.15 2.42358 174.062 2.04096 173.888C1.66666 173.705 1.38386 173.451 1.19255 173.127C1.00956 172.794 0.918062 172.411 0.918062 171.979C0.918062 171.896 0.959651 171.854 1.04283 171.854H1.84133C1.92451 171.854 1.9661 171.896 1.9661 171.979C1.9661 172.378 2.08671 172.686 2.32792 172.902C2.57745 173.11 2.94344 173.214 3.42587 173.214C3.99147 173.214 4.42816 173.098 4.73591 172.865C5.04367 172.623 5.19755 172.291 5.19755 171.866V171.542C5.19755 171.126 5.05199 170.81 4.76087 170.594C4.47806 170.378 4.05386 170.269 3.48825 170.269H2.40278C2.3196 170.269 2.27802 170.228 2.27802 170.145V169.471C2.27802 169.388 2.3196 169.346 2.40278 169.346H3.50073C3.99147 169.346 4.36161 169.234 4.61115 169.009C4.869 168.785 4.99792 168.456 4.99792 168.024V167.699C4.99792 167.333 4.869 167.063 4.61115 166.888C4.36161 166.705 3.98316 166.614 3.47577 166.614C2.96839 166.614 2.58993 166.714 2.3404 166.913C2.09918 167.105 1.97858 167.416 1.97858 167.849C1.97858 167.932 1.93699 167.974 1.85381 167.974H1.05531C1.02203 167.974 0.992922 167.961 0.967969 167.936C0.943016 167.911 0.930539 167.882 0.930539 167.849C0.930539 167.125 1.1468 166.585 1.57932 166.227C2.02017 165.861 2.68143 165.678 3.56311 165.678C4.41152 165.678 5.03951 165.849 5.44708 166.19C5.85465 166.522 6.05844 167.046 6.05844 167.762C6.05844 168.294 5.94615 168.727 5.72157 169.059C5.50531 169.384 5.21418 169.604 4.8482 169.721V169.745C5.33063 169.904 5.68414 170.149 5.90872 170.482C6.14161 170.806 6.25806 171.23 6.25806 171.754C6.25806 172.528 6.01685 173.122 5.53442 173.538C5.05199 173.946 4.35746 174.15 3.45082 174.15ZM10.623 174.15C9.74967 174.15 9.06761 173.9 8.57686 173.401C8.08612 172.902 7.84074 172.208 7.84074 171.318V168.51C7.84074 167.62 8.08612 166.926 8.57686 166.427C9.06761 165.928 9.74967 165.678 10.623 165.678C11.4964 165.678 12.1785 165.928 12.6692 166.427C13.1599 166.926 13.4053 167.62 13.4053 168.51V171.318C13.4053 172.208 13.1599 172.902 12.6692 173.401C12.1785 173.9 11.4964 174.15 10.623 174.15ZM10.623 173.214C11.1637 173.214 11.5837 173.056 11.8832 172.74C12.1909 172.415 12.3448 171.975 12.3448 171.417V168.41C12.3448 167.845 12.1909 167.404 11.8832 167.088C11.5837 166.772 11.1637 166.614 10.623 166.614C10.0824 166.614 9.65817 166.772 9.35042 167.088C9.05098 167.404 8.90126 167.845 8.90126 168.41V171.417C8.90126 171.975 9.05098 172.415 9.35042 172.74C9.65817 173.056 10.0824 173.214 10.623 173.214ZM17.324 174C17.2741 174 17.2408 173.988 17.2241 173.963C17.2075 173.929 17.2117 173.892 17.2366 173.85L19.6945 169.745L21.9403 165.89C21.9819 165.832 22.0318 165.803 22.09 165.803H22.9135C23.0299 165.803 23.0591 165.853 23.0008 165.953L20.6802 169.82L18.2971 173.913C18.2555 173.971 18.2056 174 18.1474 174H17.324ZM17.0994 170.045C16.6336 170.045 16.2427 169.966 15.9266 169.808C15.6105 169.65 15.3734 169.425 15.2154 169.134C15.0657 168.835 14.9908 168.473 14.9908 168.049V167.674C14.9908 167.25 15.0698 166.888 15.2279 166.589C15.3859 166.289 15.6188 166.065 15.9266 165.915C16.2427 165.757 16.6336 165.678 17.0994 165.678C17.5735 165.678 17.9644 165.757 18.2722 165.915C18.5799 166.065 18.8087 166.289 18.9584 166.589C19.1164 166.888 19.1955 167.25 19.1955 167.674V168.049C19.1955 168.473 19.1164 168.835 18.9584 169.134C18.8087 169.425 18.5758 169.65 18.2597 169.808C17.952 169.966 17.5652 170.045 17.0994 170.045ZM17.0994 169.246C17.507 169.246 17.8022 169.155 17.9852 168.972C18.1682 168.789 18.2597 168.489 18.2597 168.074V167.649C18.2597 167.225 18.1682 166.926 17.9852 166.751C17.8022 166.568 17.507 166.477 17.0994 166.477C16.6918 166.477 16.3924 166.568 16.2011 166.751C16.0181 166.934 15.9266 167.234 15.9266 167.649V168.074C15.9266 168.489 16.0181 168.789 16.2011 168.972C16.3924 169.155 16.6918 169.246 17.0994 169.246ZM23.1381 174.15C22.6723 174.15 22.2813 174.075 21.9653 173.925C21.6575 173.767 21.4246 173.538 21.2666 173.239C21.1169 172.939 21.042 172.578 21.042 172.153V171.779C21.042 171.355 21.1169 170.997 21.2666 170.706C21.4246 170.407 21.6575 170.178 21.9653 170.02C22.2813 169.862 22.6723 169.783 23.1381 169.783C23.6122 169.783 24.0031 169.862 24.3109 170.02C24.627 170.178 24.8598 170.407 25.0096 170.706C25.1676 170.997 25.2466 171.355 25.2466 171.779V172.153C25.2466 172.578 25.1676 172.939 25.0096 173.239C24.8515 173.538 24.6145 173.767 24.2984 173.925C23.9906 174.075 23.6039 174.15 23.1381 174.15ZM23.1381 173.351C23.5456 173.351 23.8409 173.26 24.0239 173.077C24.2152 172.894 24.3109 172.594 24.3109 172.178V171.754C24.3109 171.338 24.2194 171.039 24.0364 170.856C23.8534 170.673 23.554 170.581 23.1381 170.581C22.7305 170.581 22.4352 170.673 22.2522 170.856C22.0692 171.039 21.9777 171.338 21.9777 171.754V172.178C21.9777 172.603 22.0692 172.906 22.2522 173.089C22.4352 173.264 22.7305 173.351 23.1381 173.351Z" fill="white"/>
<path d="M31 180H81V246H31V180Z" fill="#8E9195"/>
<path d="M31 125H81V177H31V125Z" fill="#C5C5C5"/>
<path d="M31 113.989C31 110.681 33.6813 108 36.9888 108H75.0112C78.3187 108 81 110.681 81 113.989V122H31V113.989Z" fill="#E4E4E4"/>
<path d="M1.96298 120C1.8798 120 1.83821 119.958 1.83821 119.875V119.164C1.83821 119.081 1.8798 119.039 1.96298 119.039H3.90934V113.038L2.03784 113.624C1.99625 113.633 1.96298 113.633 1.93803 113.624C1.92139 113.608 1.91307 113.579 1.91307 113.537V112.801C1.91307 112.734 1.93803 112.693 1.98793 112.676L4.59555 111.803C4.6205 111.795 4.64546 111.79 4.67041 111.79C4.70368 111.782 4.73695 111.778 4.77022 111.778H4.84508C4.92826 111.778 4.96985 111.819 4.96985 111.903V119.039H6.69163C6.7748 119.039 6.81639 119.081 6.81639 119.164V119.875C6.81639 119.958 6.7748 120 6.69163 120H1.96298ZM10.623 120.15C9.74967 120.15 9.06761 119.9 8.57687 119.401C8.08612 118.902 7.84074 118.208 7.84074 117.318V114.51C7.84074 113.62 8.08612 112.926 8.57687 112.427C9.06761 111.928 9.74967 111.678 10.623 111.678C11.4964 111.678 12.1785 111.928 12.6692 112.427C13.1599 112.926 13.4053 113.62 13.4053 114.51V117.318C13.4053 118.208 13.1599 118.902 12.6692 119.401C12.1785 119.9 11.4964 120.15 10.623 120.15ZM10.623 119.214C11.1637 119.214 11.5837 119.056 11.8832 118.74C12.1909 118.415 12.3448 117.975 12.3448 117.417V114.41C12.3448 113.845 12.1909 113.404 11.8832 113.088C11.5837 112.772 11.1637 112.614 10.623 112.614C10.0824 112.614 9.65817 112.772 9.35042 113.088C9.05098 113.404 8.90126 113.845 8.90126 114.41V117.417C8.90126 117.975 9.05098 118.415 9.35042 118.74C9.65817 119.056 10.0824 119.214 10.623 119.214ZM17.324 120C17.2741 120 17.2408 119.988 17.2241 119.963C17.2075 119.929 17.2117 119.892 17.2366 119.85L19.6945 115.745L21.9403 111.89C21.9819 111.832 22.0318 111.803 22.09 111.803H22.9135C23.0299 111.803 23.0591 111.853 23.0008 111.953L20.6802 115.82L18.2971 119.913C18.2556 119.971 18.2056 120 18.1474 120H17.324ZM17.0994 116.045C16.6336 116.045 16.2427 115.966 15.9266 115.808C15.6105 115.65 15.3734 115.425 15.2154 115.134C15.0657 114.835 14.9908 114.473 14.9908 114.049V113.674C14.9908 113.25 15.0699 112.888 15.2279 112.589C15.3859 112.289 15.6188 112.065 15.9266 111.915C16.2427 111.757 16.6336 111.678 17.0994 111.678C17.5735 111.678 17.9644 111.757 18.2722 111.915C18.5799 112.065 18.8087 112.289 18.9584 112.589C19.1164 112.888 19.1955 113.25 19.1955 113.674V114.049C19.1955 114.473 19.1164 114.835 18.9584 115.134C18.8087 115.425 18.5758 115.65 18.2597 115.808C17.952 115.966 17.5652 116.045 17.0994 116.045ZM17.0994 115.246C17.507 115.246 17.8022 115.155 17.9852 114.972C18.1682 114.789 18.2597 114.489 18.2597 114.074V113.649C18.2597 113.225 18.1682 112.926 17.9852 112.751C17.8022 112.568 17.507 112.477 17.0994 112.477C16.6918 112.477 16.3924 112.568 16.2011 112.751C16.0181 112.934 15.9266 113.234 15.9266 113.649V114.074C15.9266 114.489 16.0181 114.789 16.2011 114.972C16.3924 115.155 16.6918 115.246 17.0994 115.246ZM23.1381 120.15C22.6723 120.15 22.2813 120.075 21.9653 119.925C21.6575 119.767 21.4246 119.538 21.2666 119.239C21.1169 118.939 21.042 118.578 21.042 118.153V117.779C21.042 117.355 21.1169 116.997 21.2666 116.706C21.4246 116.407 21.6575 116.178 21.9653 116.02C22.2813 115.862 22.6723 115.783 23.1381 115.783C23.6122 115.783 24.0031 115.862 24.3109 116.02C24.627 116.178 24.8599 116.407 25.0096 116.706C25.1676 116.997 25.2466 117.355 25.2466 117.779V118.153C25.2466 118.578 25.1676 118.939 25.0096 119.239C24.8515 119.538 24.6145 119.767 24.2984 119.925C23.9906 120.075 23.6039 120.15 23.1381 120.15ZM23.1381 119.351C23.5456 119.351 23.8409 119.26 24.0239 119.077C24.2152 118.894 24.3109 118.594 24.3109 118.178V117.754C24.3109 117.338 24.2194 117.039 24.0364 116.856C23.8534 116.673 23.554 116.581 23.1381 116.581C22.7305 116.581 22.4352 116.673 22.2522 116.856C22.0692 117.039 21.9777 117.338 21.9777 117.754V118.178C21.9777 118.603 22.0692 118.906 22.2522 119.089C22.4352 119.264 22.7305 119.351 23.1381 119.351Z" fill="white"/>
<path d="M153.281 117.15C152.724 117.15 152.254 117.062 151.871 116.888C151.497 116.705 151.214 116.451 151.023 116.127C150.84 115.794 150.749 115.411 150.749 114.979C150.749 114.896 150.79 114.854 150.873 114.854H151.672C151.755 114.854 151.797 114.896 151.797 114.979C151.797 115.378 151.917 115.686 152.158 115.902C152.408 116.11 152.774 116.214 153.256 116.214C153.822 116.214 154.259 116.098 154.566 115.865C154.874 115.623 155.028 115.291 155.028 114.866V114.542C155.028 114.126 154.883 113.81 154.591 113.594C154.309 113.378 153.884 113.269 153.319 113.269H152.233C152.15 113.269 152.109 113.228 152.109 113.145V112.471C152.109 112.388 152.15 112.346 152.233 112.346H153.331C153.822 112.346 154.192 112.234 154.442 112.009C154.7 111.785 154.828 111.456 154.828 111.024V110.699C154.828 110.333 154.7 110.063 154.442 109.888C154.192 109.705 153.814 109.614 153.306 109.614C152.799 109.614 152.42 109.714 152.171 109.913C151.93 110.105 151.809 110.416 151.809 110.849C151.809 110.932 151.768 110.974 151.684 110.974H150.886C150.853 110.974 150.823 110.961 150.799 110.936C150.774 110.911 150.761 110.882 150.761 110.849C150.761 110.125 150.977 109.585 151.41 109.227C151.851 108.861 152.512 108.678 153.394 108.678C154.242 108.678 154.87 108.849 155.278 109.19C155.685 109.522 155.889 110.046 155.889 110.762C155.889 111.294 155.777 111.727 155.552 112.059C155.336 112.384 155.045 112.604 154.679 112.721V112.745C155.161 112.904 155.515 113.149 155.739 113.482C155.972 113.806 156.089 114.23 156.089 114.754C156.089 115.528 155.847 116.122 155.365 116.538C154.883 116.946 154.188 117.15 153.281 117.15ZM159.88 117.15C159.364 117.15 158.923 117.067 158.557 116.9C158.199 116.734 157.925 116.493 157.734 116.177C157.551 115.852 157.459 115.453 157.459 114.979C157.459 114.937 157.472 114.908 157.497 114.891C157.522 114.866 157.551 114.854 157.584 114.854H158.37C158.453 114.854 158.495 114.896 158.495 114.979C158.495 115.386 158.62 115.694 158.869 115.902C159.119 116.11 159.485 116.214 159.967 116.214C160.566 116.214 160.998 116.089 161.265 115.84C161.531 115.59 161.664 115.203 161.664 114.679V114.305C161.664 113.939 161.601 113.64 161.477 113.407C161.36 113.166 161.173 112.991 160.915 112.883C160.666 112.766 160.341 112.708 159.942 112.708C159.684 112.708 159.368 112.75 158.994 112.833C158.628 112.908 158.274 113.024 157.933 113.182C157.867 113.215 157.809 113.215 157.759 113.182C157.717 113.149 157.7 113.103 157.709 113.045L158.083 108.953C158.091 108.869 158.133 108.828 158.208 108.828H162.125C162.209 108.828 162.25 108.869 162.25 108.953V109.664C162.25 109.747 162.209 109.789 162.125 109.789H159.019L158.857 111.984C159.123 111.918 159.368 111.872 159.593 111.847C159.826 111.822 160.034 111.81 160.217 111.81C160.998 111.81 161.61 112.03 162.051 112.471C162.5 112.912 162.724 113.565 162.724 114.43C162.724 115.311 162.479 115.985 161.988 116.451C161.506 116.917 160.803 117.15 159.88 117.15ZM166.436 117C166.386 117 166.352 116.988 166.336 116.963C166.319 116.929 166.323 116.892 166.348 116.85L168.806 112.745L171.052 108.89C171.094 108.832 171.143 108.803 171.202 108.803H172.025C172.142 108.803 172.171 108.853 172.112 108.953L169.792 112.82L167.409 116.913C167.367 116.971 167.317 117 167.259 117H166.436ZM166.211 113.045C165.745 113.045 165.354 112.966 165.038 112.808C164.722 112.65 164.485 112.425 164.327 112.134C164.177 111.835 164.102 111.473 164.102 111.049V110.674C164.102 110.25 164.182 109.888 164.34 109.589C164.498 109.289 164.73 109.065 165.038 108.915C165.354 108.757 165.745 108.678 166.211 108.678C166.685 108.678 167.076 108.757 167.384 108.915C167.692 109.065 167.92 109.289 168.07 109.589C168.228 109.888 168.307 110.25 168.307 110.674V111.049C168.307 111.473 168.228 111.835 168.07 112.134C167.92 112.425 167.687 112.65 167.371 112.808C167.064 112.966 166.677 113.045 166.211 113.045ZM166.211 112.246C166.619 112.246 166.914 112.155 167.097 111.972C167.28 111.789 167.371 111.489 167.371 111.074V110.649C167.371 110.225 167.28 109.926 167.097 109.751C166.914 109.568 166.619 109.477 166.211 109.477C165.803 109.477 165.504 109.568 165.313 109.751C165.13 109.934 165.038 110.234 165.038 110.649V111.074C165.038 111.489 165.13 111.789 165.313 111.972C165.504 112.155 165.803 112.246 166.211 112.246ZM172.25 117.15C171.784 117.15 171.393 117.075 171.077 116.925C170.769 116.767 170.536 116.538 170.378 116.239C170.229 115.939 170.154 115.578 170.154 115.153V114.779C170.154 114.355 170.229 113.997 170.378 113.706C170.536 113.407 170.769 113.178 171.077 113.02C171.393 112.862 171.784 112.783 172.25 112.783C172.724 112.783 173.115 112.862 173.423 113.02C173.739 113.178 173.972 113.407 174.121 113.706C174.279 113.997 174.358 114.355 174.358 114.779V115.153C174.358 115.578 174.279 115.939 174.121 116.239C173.963 116.538 173.726 116.767 173.41 116.925C173.102 117.075 172.716 117.15 172.25 117.15ZM172.25 116.351C172.657 116.351 172.953 116.26 173.136 116.077C173.327 115.894 173.423 115.594 173.423 115.178V114.754C173.423 114.338 173.331 114.039 173.148 113.856C172.965 113.673 172.666 113.581 172.25 113.581C171.842 113.581 171.547 113.673 171.364 113.856C171.181 114.039 171.089 114.338 171.089 114.754V115.178C171.089 115.603 171.181 115.906 171.364 116.089C171.547 116.264 171.842 116.351 172.25 116.351ZM176.871 111.81L176.372 111.435C176.339 111.41 176.322 111.381 176.322 111.348C176.322 111.315 176.334 111.286 176.359 111.261L177.195 110.3L175.948 110.026C175.898 110.017 175.869 110.001 175.86 109.976C175.86 109.942 175.864 109.909 175.873 109.876L176.072 109.302C176.089 109.26 176.11 109.235 176.135 109.227C176.168 109.21 176.201 109.21 176.235 109.227L177.382 109.714L177.27 108.454C177.262 108.412 177.27 108.383 177.295 108.366C177.32 108.341 177.349 108.329 177.382 108.329H177.994C178.027 108.329 178.056 108.341 178.081 108.366C178.106 108.383 178.114 108.412 178.106 108.454L177.994 109.726L179.154 109.227C179.187 109.21 179.221 109.21 179.254 109.227C179.287 109.235 179.308 109.26 179.316 109.302L179.516 109.876C179.533 109.926 179.533 109.963 179.516 109.988C179.508 110.005 179.483 110.017 179.441 110.026L178.181 110.313L179.017 111.261C179.05 111.294 179.063 111.327 179.054 111.361C179.046 111.386 179.025 111.41 178.992 111.435L178.493 111.797C178.426 111.847 178.372 111.835 178.331 111.76L177.682 110.674L177.033 111.772C177.008 111.806 176.983 111.826 176.958 111.835C176.933 111.843 176.904 111.835 176.871 111.81ZM182.037 111.81L181.538 111.435C181.505 111.41 181.488 111.381 181.488 111.348C181.488 111.315 181.5 111.286 181.525 111.261L182.361 110.3L181.114 110.026C181.064 110.017 181.035 110.001 181.026 109.976C181.026 109.942 181.031 109.909 181.039 109.876L181.238 109.302C181.255 109.26 181.276 109.235 181.301 109.227C181.334 109.21 181.367 109.21 181.401 109.227L182.549 109.714L182.436 108.454C182.428 108.412 182.436 108.383 182.461 108.366C182.486 108.341 182.515 108.329 182.549 108.329H183.16C183.193 108.329 183.222 108.341 183.247 108.366C183.272 108.383 183.28 108.412 183.272 108.454L183.16 109.726L184.32 109.227C184.353 109.21 184.387 109.21 184.42 109.227C184.453 109.235 184.474 109.26 184.482 109.302L184.682 109.876C184.699 109.926 184.699 109.963 184.682 109.988C184.674 110.005 184.649 110.017 184.607 110.026L183.347 110.313L184.183 111.261C184.216 111.294 184.229 111.327 184.22 111.361C184.212 111.386 184.191 111.41 184.158 111.435L183.659 111.797C183.592 111.847 183.538 111.835 183.497 111.76L182.848 110.674L182.199 111.772C182.174 111.806 182.149 111.826 182.124 111.835C182.099 111.843 182.07 111.835 182.037 111.81Z" fill="white"/>
<path d="M34.8275 97.2276C33.9045 97.2276 33.127 97.0948 32.4949 96.8293C31.8627 96.5512 31.3886 96.134 31.0725 95.5777C30.7691 95.0214 30.63 94.3134 30.6553 93.4536C30.6679 93.3019 30.7438 93.2261 30.8829 93.2261H32.6276C32.7667 93.2261 32.8362 93.3082 32.8362 93.4726C32.8236 94.0542 32.9753 94.5093 33.2914 94.838C33.6201 95.1668 34.1511 95.3311 34.8844 95.3311C35.5924 95.3311 36.1044 95.211 36.4205 94.9708C36.7492 94.7306 36.9136 94.326 36.9136 93.7571C36.9136 93.4916 36.8757 93.264 36.7998 93.0744C36.7239 92.8847 36.5912 92.714 36.4015 92.5623C36.2245 92.398 35.978 92.2462 35.6619 92.1072L33.0448 90.8745C32.2862 90.5205 31.7173 90.0843 31.338 89.5659C30.9714 89.0349 30.7944 88.3775 30.807 87.5936C30.8197 86.481 31.1863 85.6656 31.907 85.1472C32.6276 84.6288 33.6138 84.3697 34.8654 84.3697C36.2309 84.3697 37.2739 84.6731 37.9946 85.2799C38.7152 85.8868 39.0566 86.8161 39.0186 88.0677C39.0186 88.2194 38.9491 88.2953 38.81 88.2953H37.0653C36.9136 88.2953 36.844 88.2194 36.8567 88.0677C36.8567 87.4609 36.686 87.012 36.3446 86.7212C36.0159 86.4178 35.5229 86.2661 34.8654 86.2661C34.2838 86.2661 33.835 86.3799 33.5189 86.6075C33.2155 86.8224 33.0575 87.1574 33.0448 87.6126C33.0448 88.0172 33.146 88.3459 33.3483 88.5987C33.5632 88.8389 33.9109 89.0728 34.3913 89.3004L36.9515 90.5141C37.4446 90.7291 37.8555 90.9819 38.1842 91.2727C38.5129 91.5509 38.7595 91.8859 38.9238 92.2778C39.0882 92.6698 39.1704 93.1692 39.1704 93.776C39.1704 94.9265 38.7847 95.7926 38.0135 96.3742C37.2549 96.9431 36.1929 97.2276 34.8275 97.2276ZM34.1637 98.6689C34.0373 98.6689 33.9741 98.6057 33.9741 98.4792V96.9052L35.9464 96.8104V98.4792C35.9464 98.6057 35.8832 98.6689 35.7567 98.6689H34.1637ZM33.9741 84.692V83.118C33.9741 82.9916 34.0373 82.9283 34.1637 82.9283H35.7567C35.8832 82.9283 35.9464 82.9916 35.9464 83.118V84.7869L33.9741 84.692ZM41.8801 97C41.741 97 41.6714 96.9241 41.6714 96.7724V95.2553C41.6714 95.1162 41.741 95.0467 41.8801 95.0467H44.7627V86.9678L42.0128 87.8212C41.9496 87.8338 41.8927 87.8275 41.8421 87.8022C41.8042 87.7769 41.7852 87.7264 41.7852 87.6505V86.1523C41.7852 86.0259 41.8358 85.9437 41.9369 85.9058L46.1281 84.5403C46.1787 84.5277 46.2292 84.515 46.2798 84.5024C46.343 84.4898 46.3999 84.4834 46.4505 84.4834H46.7919C46.9309 84.4834 47.0005 84.5593 47.0005 84.711V95.0467H49.5986C49.7503 95.0467 49.8262 95.1162 49.8262 95.2553V96.7724C49.8262 96.9241 49.7503 97 49.5986 97H41.8801ZM54.7692 97C54.6614 97 54.6075 96.9416 54.6075 96.8248L54.7288 90.5052C54.7288 90.3884 54.7827 90.33 54.8905 90.33H56.4266C56.5074 90.33 56.5748 90.3749 56.6287 90.4647L58.2861 93.7795L59.9435 90.4647C59.9884 90.3749 60.0558 90.33 60.1456 90.33H61.6683C61.7851 90.33 61.8434 90.3884 61.8434 90.5052L61.9647 96.8248C61.9647 96.9416 61.9108 97 61.803 97H60.4151C60.2983 97 60.24 96.9416 60.24 96.8248L60.213 94.6554C60.213 94.5027 60.2175 94.332 60.2265 94.1433C60.2444 93.9457 60.2579 93.7481 60.2669 93.5505C60.2849 93.3528 60.2939 93.1687 60.2939 92.998H60.2534C60.1546 93.2226 60.0423 93.4561 59.9166 93.6987C59.7998 93.9412 59.6875 94.1568 59.5797 94.3455L58.4748 96.2589C58.4568 96.2948 58.4298 96.3218 58.3939 96.3397C58.367 96.3487 58.331 96.3532 58.2861 96.3532C58.2502 96.3532 58.2142 96.3487 58.1783 96.3397C58.1514 96.3308 58.1199 96.3038 58.084 96.2589L56.9925 94.3455C56.8847 94.1568 56.7724 93.9412 56.6557 93.6987C56.5479 93.4561 56.4356 93.2226 56.3188 92.998H56.2784C56.2963 93.1687 56.3098 93.3528 56.3188 93.5505C56.3278 93.7481 56.3368 93.9457 56.3457 94.1433C56.3547 94.332 56.3592 94.5027 56.3592 94.6554L56.3323 96.8248C56.3323 96.9416 56.2739 97 56.1571 97H54.7692ZM62.8202 97C62.6854 97 62.6405 96.9326 62.6854 96.7979L64.9087 90.5052C64.9447 90.3884 65.021 90.33 65.1378 90.33H66.8222C66.93 90.33 67.0063 90.3884 67.0512 90.5052L69.2746 96.7979C69.3195 96.9326 69.2746 97 69.1398 97H67.4824C67.3746 97 67.3073 96.9506 67.2803 96.8518L66.4044 93.8604C66.3236 93.5729 66.2472 93.3079 66.1754 93.0654C66.1035 92.8138 66.0361 92.5443 65.9733 92.2569H65.9463C65.8834 92.5354 65.8205 92.8049 65.7577 93.0654C65.6948 93.3169 65.6184 93.5819 65.5286 93.8604L64.6527 96.8518C64.6258 96.9506 64.5629 97 64.4641 97H62.8202ZM73.642 97.1617C73.3366 97.1617 72.9997 97.1213 72.6314 97.0404C72.272 96.9596 71.9711 96.8473 71.7286 96.7036L71.7016 95.2618C71.9172 95.3785 72.1463 95.4684 72.3888 95.5313C72.6314 95.5941 72.856 95.6256 73.0626 95.6256C73.4309 95.6256 73.7004 95.5088 73.871 95.2752C74.0417 95.0417 74.1271 94.7048 74.1271 94.2646V92.8767C74.1271 92.5084 74.0597 92.2344 73.9249 92.0548C73.7992 91.8751 73.5926 91.7853 73.3051 91.7853C73.0356 91.7853 72.7661 91.8661 72.4966 92.0278C72.2361 92.1895 71.9486 92.4186 71.6342 92.715L71.5264 91.4349C71.76 91.2103 72.0025 91.0037 72.2541 90.8151C72.5146 90.6175 72.7886 90.4602 73.076 90.3435C73.3635 90.2267 73.6869 90.1683 74.0462 90.1683C74.702 90.1683 75.1916 90.3569 75.515 90.7342C75.8384 91.1115 76.0001 91.6999 76.0001 92.4994V94.4263C76.0001 95.3785 75.7934 96.0747 75.3802 96.5149C74.976 96.9461 74.3966 97.1617 73.642 97.1617ZM70.2463 99.4928C70.1296 99.4928 70.0712 99.4344 70.0712 99.3177V91.9874C70.0712 91.7359 70.0622 91.4843 70.0442 91.2328C70.0352 90.9813 70.0173 90.7432 69.9903 90.5186C69.9813 90.3929 70.0397 90.33 70.1655 90.33H71.4995C71.5983 90.33 71.6612 90.3794 71.6881 90.4782C71.7061 90.5591 71.7241 90.6579 71.742 90.7747C71.76 90.8825 71.7735 90.9992 71.7825 91.125C71.8004 91.2418 71.8049 91.3451 71.7959 91.4349L71.9442 92.2299V99.3177C71.9442 99.4344 71.8858 99.4928 71.769 99.4928H70.2463ZM80.2038 99.6545C79.2605 99.6545 78.5509 99.4928 78.0748 99.1694C77.6076 98.855 77.401 98.3789 77.4549 97.7411C77.4639 97.6692 77.4819 97.6153 77.5088 97.5794C77.5447 97.5435 77.5942 97.5255 77.657 97.5255H79.0719C79.1168 97.5255 79.1527 97.539 79.1797 97.5659C79.2156 97.5929 79.2336 97.6423 79.2336 97.7142C79.2336 97.8938 79.3189 98.0286 79.4896 98.1184C79.6693 98.2082 79.9118 98.2532 80.2172 98.2532C80.6574 98.2532 80.9539 98.1543 81.1066 97.9567C81.2683 97.7681 81.3491 97.4896 81.3491 97.1213V96.6901C81.3491 96.5733 81.3491 96.452 81.3491 96.3263C81.3581 96.1915 81.3671 96.0657 81.3761 95.949H81.3491C81.0078 96.2454 80.6574 96.461 80.2981 96.5958C79.9477 96.7215 79.5794 96.7844 79.1932 96.7844C78.5284 96.7844 78.0343 96.6002 77.7109 96.2319C77.3875 95.8636 77.2258 95.2842 77.2258 94.4937V92.9037C77.2258 91.9784 77.4594 91.2912 77.9265 90.842C78.4026 90.3929 79.1393 90.1683 80.1364 90.1683C80.5317 90.1683 80.891 90.1908 81.2144 90.2357C81.5468 90.2806 81.8746 90.3255 82.198 90.3704C82.5214 90.4153 82.8628 90.4513 83.2221 90.4782V96.8653C83.2221 97.521 83.1053 98.0555 82.8718 98.4687C82.6382 98.882 82.2968 99.1829 81.8477 99.3716C81.3985 99.5602 80.8506 99.6545 80.2038 99.6545ZM79.9343 95.2079C80.1589 95.2079 80.3834 95.1584 80.608 95.0596C80.8326 94.9518 81.0796 94.7901 81.3491 94.5745V91.8257C81.1874 91.7898 81.0078 91.7628 80.8101 91.7448C80.6215 91.7179 80.4373 91.7044 80.2577 91.7044C79.8534 91.7044 79.557 91.8167 79.3683 92.0413C79.1887 92.2569 79.0988 92.5982 79.0988 93.0654V94.1164C79.0988 94.4937 79.1662 94.7722 79.301 94.9518C79.4357 95.1225 79.6468 95.2079 79.9343 95.2079Z" fill="white"/>
<path d="M153.593 44.1497C152.67 44.1497 151.955 43.9584 151.447 43.5758C150.94 43.1849 150.686 42.5943 150.686 41.8041C150.686 41.2635 150.811 40.8101 151.061 40.4442C151.318 40.0699 151.664 39.8037 152.096 39.6457C151.738 39.4793 151.472 39.2589 151.298 38.9844C151.123 38.7016 151.036 38.3107 151.036 37.8116C151.036 37.1545 151.256 36.6346 151.697 36.252C152.138 35.8694 152.77 35.6781 153.593 35.6781C154.417 35.6781 155.049 35.8694 155.49 36.252C155.931 36.6346 156.151 37.1545 156.151 37.8116C156.151 38.3107 156.064 38.7016 155.889 38.9844C155.714 39.2589 155.448 39.4793 155.09 39.6457C155.523 39.8037 155.864 40.0699 156.114 40.4442C156.371 40.8101 156.5 41.2635 156.5 41.8041C156.5 42.5943 156.247 43.1849 155.739 43.5758C155.232 43.9584 154.517 44.1497 153.593 44.1497ZM153.593 43.2514C154.209 43.2514 154.67 43.1308 154.978 42.8896C155.286 42.6484 155.44 42.3073 155.44 41.8665V41.6544C155.44 41.147 155.273 40.7561 154.941 40.4816C154.616 40.1988 154.167 40.0574 153.593 40.0574C153.019 40.0574 152.566 40.1988 152.233 40.4816C151.909 40.7561 151.747 41.147 151.747 41.6544V41.8665C151.747 42.3073 151.901 42.6484 152.208 42.8896C152.516 43.1308 152.978 43.2514 153.593 43.2514ZM153.593 39.2339C154.076 39.2339 154.446 39.1216 154.704 38.8971C154.962 38.6725 155.09 38.3647 155.09 37.9738V37.7866C155.09 37.4207 154.962 37.1295 154.704 36.9133C154.454 36.6887 154.084 36.5764 153.593 36.5764C153.111 36.5764 152.741 36.6887 152.483 36.9133C152.225 37.1295 152.096 37.4207 152.096 37.7866V37.9738C152.096 38.3647 152.225 38.6725 152.483 38.8971C152.741 39.1216 153.111 39.2339 153.593 39.2339ZM160.27 44C160.221 44 160.187 43.9875 160.171 43.9626C160.154 43.9293 160.158 43.8919 160.183 43.8503L162.641 39.7455L164.887 35.8902C164.928 35.832 164.978 35.8029 165.036 35.8029H165.86C165.976 35.8029 166.006 35.8528 165.947 35.9526L163.627 39.8203L161.244 43.9127C161.202 43.9709 161.152 44 161.094 44H160.27ZM160.046 40.0449C159.58 40.0449 159.189 39.9659 158.873 39.8079C158.557 39.6498 158.32 39.4252 158.162 39.1341C158.012 38.8347 157.937 38.4728 157.937 38.0486V37.6743C157.937 37.2501 158.016 36.8883 158.174 36.5889C158.332 36.2894 158.565 36.0649 158.873 35.9151C159.189 35.7571 159.58 35.6781 160.046 35.6781C160.52 35.6781 160.911 35.7571 161.219 35.9151C161.526 36.0649 161.755 36.2894 161.905 36.5889C162.063 36.8883 162.142 37.2501 162.142 37.6743V38.0486C162.142 38.4728 162.063 38.8347 161.905 39.1341C161.755 39.4252 161.522 39.6498 161.206 39.8079C160.898 39.9659 160.512 40.0449 160.046 40.0449ZM160.046 39.2464C160.453 39.2464 160.749 39.1549 160.932 38.9719C161.115 38.7889 161.206 38.4895 161.206 38.0736V37.6494C161.206 37.2252 161.115 36.9257 160.932 36.7511C160.749 36.5681 160.453 36.4766 160.046 36.4766C159.638 36.4766 159.339 36.5681 159.148 36.7511C158.965 36.9341 158.873 37.2335 158.873 37.6494V38.0736C158.873 38.4895 158.965 38.7889 159.148 38.9719C159.339 39.1549 159.638 39.2464 160.046 39.2464ZM166.085 44.1497C165.619 44.1497 165.228 44.0749 164.912 43.9251C164.604 43.7671 164.371 43.5384 164.213 43.2389C164.063 42.9395 163.988 42.5777 163.988 42.1535V41.7792C163.988 41.355 164.063 40.9973 164.213 40.7062C164.371 40.4067 164.604 40.178 164.912 40.02C165.228 39.8619 165.619 39.7829 166.085 39.7829C166.559 39.7829 166.95 39.8619 167.257 40.02C167.573 40.178 167.806 40.4067 167.956 40.7062C168.114 40.9973 168.193 41.355 168.193 41.7792V42.1535C168.193 42.5777 168.114 42.9395 167.956 43.2389C167.798 43.5384 167.561 43.7671 167.245 43.9251C166.937 44.0749 166.55 44.1497 166.085 44.1497ZM166.085 43.3512C166.492 43.3512 166.787 43.2597 166.97 43.0767C167.162 42.8937 167.257 42.5943 167.257 42.1784V41.7542C167.257 41.3383 167.166 41.0389 166.983 40.8559C166.8 40.6729 166.5 40.5814 166.085 40.5814C165.677 40.5814 165.382 40.6729 165.199 40.8559C165.016 41.0389 164.924 41.3383 164.924 41.7542V42.1784C164.924 42.6026 165.016 42.9062 165.199 43.0892C165.382 43.2639 165.677 43.3512 166.085 43.3512Z" fill="white"/>
<path d="M95 124H145V246H95V124Z" fill="#03AE00" fill-opacity="0.7"/>
<path d="M95 49H145V121H95V49Z" fill="#34F131"/>
<path d="M95 35.9888C95 32.6813 97.6813 30 100.989 30H139.011C142.319 30 145 32.6813 145 35.9888V47H95V35.9888Z" fill="#7DF17B" fill-opacity="0.7"/>
<path d="M76.6814 19.2935C75.4912 19.2935 74.4886 19.1223 73.6735 18.7799C72.8583 18.4213 72.247 17.8833 71.8394 17.1659C71.4482 16.4486 71.2688 15.5357 71.3014 14.4271C71.3177 14.2314 71.4155 14.1336 71.5949 14.1336H73.8447C74.024 14.1336 74.1137 14.2396 74.1137 14.4515C74.0974 15.2014 74.293 15.7883 74.7006 16.2122C75.1244 16.6361 75.8092 16.848 76.7547 16.848C77.6677 16.848 78.3279 16.6932 78.7355 16.3834C79.1594 16.0736 79.3713 15.552 79.3713 14.8183C79.3713 14.476 79.3224 14.1825 79.2246 13.938C79.1268 13.6934 78.9556 13.4733 78.7111 13.2777C78.4828 13.0658 78.1649 12.8701 77.7573 12.6908L74.3827 11.1013C73.4045 10.6448 72.6709 10.0824 72.1818 9.41395C71.709 8.72923 71.4808 7.88149 71.4971 6.87071C71.5134 5.43607 71.9861 4.38454 72.9154 3.71612C73.8447 3.04771 75.1163 2.7135 76.7303 2.7135C78.491 2.7135 79.8359 3.10477 80.7652 3.8873C81.6945 4.66983 82.1346 5.86809 82.0857 7.48207C82.0857 7.6777 81.9961 7.77552 81.8167 7.77552H79.5669C79.3713 7.77552 79.2816 7.6777 79.298 7.48207C79.298 6.69953 79.0779 6.12078 78.6377 5.74582C78.2138 5.35455 77.578 5.15892 76.7303 5.15892C75.9803 5.15892 75.4016 5.30564 74.994 5.59909C74.6027 5.87624 74.399 6.30827 74.3827 6.89517C74.3827 7.41686 74.5131 7.84073 74.7739 8.16679C75.0511 8.47654 75.4994 8.77814 76.1189 9.07159L79.4202 10.6367C80.056 10.9138 80.5859 11.2399 81.0097 11.6148C81.4336 11.9735 81.7515 12.4055 81.9635 12.9109C82.1754 13.4163 82.2814 14.0603 82.2814 14.8428C82.2814 16.3263 81.7841 17.4431 80.7897 18.193C79.8115 18.9266 78.4421 19.2935 76.6814 19.2935ZM75.8255 21.152C75.6624 21.152 75.5809 21.0705 75.5809 20.9074V18.8777L78.1241 18.7555V20.9074C78.1241 21.0705 78.0426 21.152 77.8796 21.152H75.8255ZM75.5809 3.12922V1.09952C75.5809 0.936492 75.6624 0.854978 75.8255 0.854978H77.8796C78.0426 0.854978 78.1241 0.936492 78.1241 1.09952V3.25149L75.5809 3.12922ZM85.7755 19C85.5961 19 85.5065 18.9022 85.5065 18.7065V16.7502C85.5065 16.5709 85.5961 16.4812 85.7755 16.4812H89.4925V6.06372L85.9466 7.16416C85.8651 7.18047 85.7918 7.17232 85.7265 7.13971C85.6776 7.1071 85.6532 7.04189 85.6532 6.94408V5.01219C85.6532 4.84917 85.7184 4.7432 85.8488 4.69429L91.2532 2.93359C91.3184 2.91728 91.3836 2.90098 91.4488 2.88468C91.5303 2.86837 91.6037 2.86022 91.6689 2.86022H92.1091C92.2884 2.86022 92.3781 2.95804 92.3781 3.15367V16.4812H95.7283C95.9239 16.4812 96.0218 16.5709 96.0218 16.7502V18.7065C96.0218 18.9022 95.9239 19 95.7283 19H85.7755ZM98.0207 22.3991C97.7925 22.3991 97.7028 22.285 97.7517 22.0568L99.0233 15.8699C99.0559 15.7068 99.1537 15.6253 99.3168 15.6253H102.056C102.17 15.6253 102.243 15.6579 102.276 15.7231C102.325 15.7883 102.333 15.878 102.3 15.9921L100.295 22.179C100.246 22.3258 100.148 22.3991 100.001 22.3991H98.0207ZM109.751 19.2935C108.593 19.2935 107.615 19.1141 106.816 18.7555C106.034 18.3805 105.455 17.8588 105.08 17.1904C104.705 16.522 104.534 15.7313 104.566 14.8183C104.566 14.7205 104.591 14.6472 104.64 14.5982C104.705 14.5493 104.778 14.5249 104.86 14.5249H107.061C107.256 14.5249 107.354 14.6227 107.354 14.8183C107.354 15.4215 107.558 15.9025 107.966 16.2611C108.389 16.6198 109.033 16.7991 109.897 16.7991C110.925 16.7991 111.666 16.5953 112.123 16.1878C112.579 15.7639 112.807 15.1199 112.807 14.2559V13.669C112.807 13.0984 112.702 12.6175 112.49 12.2262C112.278 11.8349 111.952 11.5496 111.511 11.3703C111.088 11.1747 110.525 11.0768 109.824 11.0768C109.221 11.0768 108.528 11.1502 107.745 11.2969C106.963 11.4436 106.229 11.6474 105.545 11.9083C105.382 11.9735 105.251 11.9735 105.153 11.9083C105.055 11.8431 105.015 11.7371 105.031 11.5904L105.789 3.27595C105.805 3.08031 105.903 2.98249 106.083 2.98249H114.397C114.593 2.98249 114.69 3.08031 114.69 3.27595V5.23228C114.69 5.41161 114.593 5.50128 114.397 5.50128H108.259L107.99 9.09605C108.512 8.96562 109.001 8.86781 109.457 8.8026C109.914 8.73738 110.354 8.70478 110.778 8.70478C112.359 8.70478 113.574 9.1368 114.421 10.0009C115.269 10.8486 115.693 12.1365 115.693 13.8646C115.693 15.6905 115.188 17.0518 114.177 17.9485C113.182 18.8451 111.707 19.2935 109.751 19.2935ZM122.936 19C122.785 19 122.709 18.9178 122.709 18.7535L122.879 9.85912C122.879 9.69476 122.955 9.61258 123.107 9.61258H125.269C125.383 9.61258 125.478 9.67579 125.553 9.80222L127.886 14.4675L130.219 9.80222C130.282 9.67579 130.377 9.61258 130.503 9.61258H132.646C132.811 9.61258 132.893 9.69476 132.893 9.85912L133.063 18.7535C133.063 18.9178 132.988 19 132.836 19H130.882C130.718 19 130.636 18.9178 130.636 18.7535L130.598 15.7002C130.598 15.4852 130.604 15.245 130.617 14.9795C130.642 14.7014 130.661 14.4232 130.674 14.1451C130.699 13.8669 130.712 13.6078 130.712 13.3675H130.655C130.516 13.6836 130.358 14.0123 130.181 14.3537C130.016 14.6951 129.858 14.9985 129.707 15.264L128.152 17.957C128.126 18.0075 128.088 18.0455 128.038 18.0707C128 18.0834 127.949 18.0897 127.886 18.0897C127.836 18.0897 127.785 18.0834 127.734 18.0707C127.696 18.0581 127.652 18.0202 127.602 17.957L126.066 15.264C125.914 14.9985 125.756 14.6951 125.591 14.3537C125.44 14.0123 125.282 13.6836 125.117 13.3675H125.06C125.086 13.6078 125.105 13.8669 125.117 14.1451C125.13 14.4232 125.143 14.7014 125.155 14.9795C125.168 15.245 125.174 15.4852 125.174 15.7002L125.136 18.7535C125.136 18.9178 125.054 19 124.89 19H122.936ZM134.267 19C134.078 19 134.014 18.9052 134.078 18.7155L137.207 9.85912C137.257 9.69476 137.365 9.61258 137.529 9.61258H139.9C140.052 9.61258 140.159 9.69476 140.222 9.85912L143.351 18.7155C143.415 18.9052 143.351 19 143.162 19H140.829C140.677 19 140.583 18.9305 140.545 18.7914L139.312 14.5813C139.198 14.1767 139.091 13.8037 138.99 13.4624C138.888 13.1084 138.794 12.7291 138.705 12.3245H138.667C138.579 12.7164 138.49 13.0957 138.402 13.4624C138.313 13.8164 138.206 14.1893 138.079 14.5813L136.847 18.7914C136.809 18.9305 136.72 19 136.581 19H134.267ZM149.498 19.2276C149.068 19.2276 148.594 19.1707 148.076 19.0569C147.57 18.9431 147.146 18.7851 146.805 18.5828L146.767 16.5536C147.071 16.7179 147.393 16.8444 147.734 16.9329C148.076 17.0214 148.392 17.0656 148.683 17.0656C149.201 17.0656 149.58 16.9013 149.82 16.5725C150.061 16.2438 150.181 15.7697 150.181 15.1502V13.1969C150.181 12.6785 150.086 12.2929 149.896 12.04C149.719 11.7872 149.429 11.6607 149.024 11.6607C148.645 11.6607 148.265 11.7745 147.886 12.0021C147.519 12.2297 147.115 12.5521 146.672 12.9693L146.521 11.1677C146.849 10.8516 147.191 10.5608 147.545 10.2953C147.911 10.0172 148.297 9.7959 148.702 9.63154C149.106 9.46718 149.561 9.385 150.067 9.385C150.99 9.385 151.679 9.65051 152.134 10.1815C152.589 10.7125 152.817 11.5406 152.817 12.6659V15.3778C152.817 16.7179 152.526 17.6978 151.944 18.3173C151.376 18.9241 150.56 19.2276 149.498 19.2276ZM144.719 22.5084C144.555 22.5084 144.472 22.4263 144.472 22.2619V11.9452C144.472 11.5912 144.46 11.2372 144.435 10.8832C144.422 10.5292 144.397 10.1942 144.359 9.87808C144.346 9.70108 144.428 9.61258 144.605 9.61258H146.483C146.622 9.61258 146.71 9.68211 146.748 9.82119C146.774 9.93497 146.799 10.074 146.824 10.2384C146.849 10.3901 146.868 10.5545 146.881 10.7315C146.906 10.8958 146.913 11.0412 146.9 11.1677L147.109 12.2866V22.2619C147.109 22.4263 147.026 22.5084 146.862 22.5084H144.719ZM158.733 22.736C157.406 22.736 156.407 22.5084 155.737 22.0533C155.079 21.6108 154.789 20.9407 154.864 20.043C154.877 19.9419 154.902 19.866 154.94 19.8155C154.991 19.7649 155.06 19.7396 155.149 19.7396H157.14C157.203 19.7396 157.254 19.7586 157.292 19.7965C157.342 19.8344 157.368 19.904 157.368 20.0051C157.368 20.258 157.488 20.4476 157.728 20.5741C157.981 20.7005 158.322 20.7637 158.752 20.7637C159.372 20.7637 159.789 20.6246 160.004 20.3465C160.231 20.081 160.345 19.689 160.345 19.1707V18.5638C160.345 18.3995 160.345 18.2288 160.345 18.0518C160.358 17.8621 160.37 17.6851 160.383 17.5208H160.345C159.865 17.938 159.372 18.2414 158.866 18.4311C158.373 18.6081 157.854 18.6966 157.311 18.6966C156.375 18.6966 155.68 18.4374 155.225 17.919C154.77 17.4007 154.542 16.5852 154.542 15.4726V13.2348C154.542 11.9326 154.871 10.9654 155.528 10.3332C156.198 9.70108 157.235 9.385 158.638 9.385C159.195 9.385 159.7 9.41661 160.156 9.47983C160.623 9.54304 161.085 9.60626 161.54 9.66947C161.995 9.73269 162.476 9.78326 162.981 9.82119V18.8104C162.981 19.7333 162.817 20.4856 162.488 21.0671C162.159 21.6487 161.679 22.0722 161.047 22.3377C160.415 22.6033 159.643 22.736 158.733 22.736ZM158.354 16.4777C158.67 16.4777 158.986 16.4082 159.302 16.2691C159.618 16.1174 159.966 15.8898 160.345 15.5864V11.7176C160.118 11.6671 159.865 11.6291 159.587 11.6038C159.321 11.5659 159.062 11.547 158.809 11.547C158.24 11.547 157.823 11.705 157.557 12.0211C157.305 12.3245 157.178 12.8049 157.178 13.4624V14.9416C157.178 15.4726 157.273 15.8645 157.463 16.1174C157.652 16.3576 157.949 16.4777 158.354 16.4777ZM166.811 11.4521L165.54 10.4849C165.477 10.4217 165.445 10.3522 165.445 10.2763C165.445 10.2005 165.477 10.1373 165.54 10.0867L166.678 8.98675L165.047 8.72125C164.958 8.69596 164.895 8.65171 164.857 8.5885C164.832 8.52528 164.826 8.45574 164.838 8.37989L165.331 6.91962C165.357 6.83112 165.407 6.77423 165.483 6.74894C165.572 6.72366 165.654 6.72998 165.73 6.76791L167.152 7.58338L166.981 5.76279C166.969 5.68693 166.981 5.63004 167.019 5.59211C167.07 5.55418 167.127 5.53521 167.19 5.53521H168.669C168.72 5.53521 168.764 5.55418 168.802 5.59211C168.852 5.63004 168.871 5.68693 168.859 5.76279L168.688 7.60234L170.129 6.78687C170.205 6.7363 170.281 6.72998 170.357 6.76791C170.433 6.79319 170.483 6.85008 170.509 6.93859L171.002 8.37989C171.027 8.46839 171.021 8.54425 170.983 8.60746C170.945 8.65803 170.888 8.68964 170.812 8.70228L169.143 9.00572L170.281 10.0867C170.357 10.1499 170.395 10.2258 170.395 10.3143C170.395 10.3901 170.357 10.4533 170.281 10.5039L168.991 11.3952C168.827 11.5217 168.707 11.4901 168.631 11.3004L167.911 9.91601L167.209 11.3573C167.158 11.4332 167.095 11.4837 167.019 11.509C166.956 11.5343 166.886 11.5153 166.811 11.4521Z" fill="white"/>
</svg>
