<svg width="50" height="50" viewBox="0 0 50 50" fill="none" xmlns="http://www.w3.org/2000/svg">
<path d="M38.4512 7.67112C38.738 7.3342 39.3032 7.48564 39.3832 7.92085L40.4218 13.5724C40.4544 13.7498 40.579 13.8993 40.7507 13.9671L46.2238 16.1304C46.6453 16.2969 46.6801 16.8656 46.2812 17.0681L41.1017 19.6978C40.9391 19.7803 40.8335 19.9399 40.8227 20.1192L40.4801 25.8312C40.4537 26.2711 39.91 26.471 39.5835 26.161L35.3438 22.1347C35.2107 22.0083 35.0209 21.9575 34.8425 22.0004L29.1576 23.3674C28.7198 23.4726 28.349 23.0276 28.5461 22.6335L31.1054 17.5154C31.1857 17.3548 31.174 17.1638 31.0745 17.011L27.9037 12.1438C27.6595 11.769 27.974 11.294 28.4223 11.3605L34.2437 12.2236C34.4264 12.2507 34.6091 12.1835 34.726 12.0462L38.4512 7.67112Z" fill="url(#paint0_linear_157_4646)"/>
<g filter="url(#filter0_bi_157_4646)">
<path fill-rule="evenodd" clip-rule="evenodd" d="M16.4476 15H33.0087C39.9538 15 44.2278 29.9179 40.0605 34.1495C36.5346 37.5349 29.1623 29.706 24.7815 29.9176C20.2941 29.706 12.9213 37.5351 9.50249 34.1495C5.33546 29.9176 9.60946 15 16.4476 15Z" fill="url(#paint1_linear_157_4646)" fill-opacity="0.5"/>
<path d="M18.2644 19.8657H15.2728V22.5108H12.6016V25.4731H15.2728V28.1182H18.2644V25.4731H20.9356V22.5108H18.2644V19.8657Z" fill="white"/>
<path d="M31.9407 21.876C31.9407 20.9239 31.0859 20.1832 30.1242 20.1832C29.1625 20.1832 28.3077 20.9237 28.3077 21.876C28.3077 22.934 29.1625 23.6747 30.1242 23.6747C31.0859 23.6747 31.9407 22.9339 31.9407 21.876Z" fill="white"/>
<path d="M36.8555 26.0022C36.8555 25.0501 36.1077 24.3095 35.146 24.3095C34.0775 24.3095 33.3295 25.0499 33.3295 26.0022C33.3295 27.0602 34.0776 27.8009 35.146 27.8009C36.1075 27.8009 36.8555 27.0601 36.8555 26.0022Z" fill="white"/>
</g>
<defs>
<filter id="filter0_bi_157_4646" x="-2.14258" y="5" width="53.8457" height="40" filterUnits="userSpaceOnUse" color-interpolation-filters="sRGB">
<feFlood flood-opacity="0" result="BackgroundImageFix"/>
<feGaussianBlur in="BackgroundImageFix" stdDeviation="5"/>
<feComposite in2="SourceAlpha" operator="in" result="effect1_backgroundBlur_157_4646"/>
<feBlend mode="normal" in="SourceGraphic" in2="effect1_backgroundBlur_157_4646" result="shape"/>
<feColorMatrix in="SourceAlpha" type="matrix" values="0 0 0 0 0 0 0 0 0 0 0 0 0 0 0 0 0 0 127 0" result="hardAlpha"/>
<feOffset/>
<feGaussianBlur stdDeviation="1"/>
<feComposite in2="hardAlpha" operator="arithmetic" k2="-1" k3="1"/>
<feColorMatrix type="matrix" values="0 0 0 0 0.708333 0 0 0 0 0.330556 0 0 0 0 0.330556 0 0 0 0.25 0"/>
<feBlend mode="normal" in2="shape" result="effect2_innerShadow_157_4646"/>
</filter>
<linearGradient id="paint0_linear_157_4646" x1="31.3434" y1="8.4917" x2="37.2257" y2="21.9454" gradientUnits="userSpaceOnUse">
<stop stop-color="#9F6BC9"/>
<stop offset="1" stop-color="#9F6BC9"/>
</linearGradient>
<linearGradient id="paint1_linear_157_4646" x1="18.2716" y1="20.6522" x2="36.2332" y2="22.8072" gradientUnits="userSpaceOnUse">
<stop stop-color="#F5CED5"/>
<stop offset="1" stop-color="#F3B9C3"/>
</linearGradient>
</defs>
</svg>
