<svg width="50" height="50" viewBox="0 0 50 50" fill="none" xmlns="http://www.w3.org/2000/svg">
<g filter="url(#filter0_bi_677_4588)">
<path d="M39.8659 10.4812C35.9135 6.90976 29.7836 7.22011 26.2063 11.179C24.5745 12.9848 23.6965 15.2767 23.7043 17.6923L21.0356 19.6049C20.4325 20.0431 20.6448 20.9535 21.3355 21.1262L24.7021 21.9319C25.2332 23.0198 25.9694 23.9947 26.8975 24.8333C30.8503 28.4051 36.9742 28.1006 40.5513 24.1419C44.1286 20.1831 43.8183 14.0526 39.8659 10.4812Z" fill="url(#paint0_linear_677_4588)"/>
<g filter="url(#filter1_bi_677_4588)">
<path d="M25.1995 10.001C17.3749 10.001 11 16.3758 11 24.2132C11 27.7881 12.3 31.1506 14.6874 33.7755L13.6625 38.488C13.4368 39.5594 14.5647 40.3426 15.4875 39.8506L19.95 37.4133C21.6 38.0758 23.3625 38.4133 25.1998 38.4133C33.0251 38.4133 39.3993 32.0507 39.3993 24.2138C39.3993 16.3765 33.0239 10.001 25.1995 10.001Z" fill="url(#paint1_linear_677_4588)" fill-opacity="0.5"/>
<g filter="url(#filter2_d_677_4588)">
<path d="M23.2467 26.7951C23.2467 26.2569 23.3087 25.7879 23.4328 25.3881C23.5723 24.9729 23.7893 24.5807 24.0839 24.2117C24.394 23.8426 24.8048 23.4659 25.3165 23.0814C25.8436 22.6816 26.2545 22.3356 26.549 22.0434C26.8591 21.7512 27.0839 21.4668 27.2235 21.19C27.363 20.8978 27.4328 20.5672 27.4328 20.1981C27.4328 19.6137 27.2235 19.1678 26.8048 18.8602C26.4017 18.5527 25.8204 18.3989 25.0607 18.3989C24.3785 18.3989 23.7273 18.4989 23.1072 18.6988C22.487 18.8833 21.8669 19.137 21.2467 19.46L20.2002 17.2917C20.9134 16.9227 21.6886 16.6151 22.5258 16.3691C23.363 16.123 24.2855 16 25.2932 16C26.8436 16 28.0452 16.3768 28.8979 17.1303C29.7661 17.8838 30.2002 18.8602 30.2002 20.0597C30.2002 20.7209 30.0917 21.2899 29.8746 21.7666C29.6731 22.228 29.3707 22.6585 28.9676 23.0583C28.5645 23.4582 28.0684 23.881 27.4793 24.327C26.9986 24.6961 26.6266 25.0113 26.363 25.2727C26.1149 25.5341 25.9444 25.7956 25.8514 26.057C25.7738 26.303 25.7351 26.6106 25.7351 26.9796V27.5563H23.2467V26.7951ZM22.8048 31.2239C22.8048 30.5626 22.9754 30.1013 23.3165 29.8399C23.6731 29.5785 24.0994 29.4478 24.5955 29.4478C25.0762 29.4478 25.487 29.5785 25.8281 29.8399C26.1847 30.1013 26.363 30.5626 26.363 31.2239C26.363 31.8544 26.1847 32.308 25.8281 32.5848C25.487 32.8616 25.0762 33 24.5955 33C24.0994 33 23.6731 32.8616 23.3165 32.5848C22.9754 32.308 22.8048 31.8544 22.8048 31.2239Z" fill="white"/>
</g>
</g>
</g>
<defs>
<filter id="filter0_bi_677_4588" x="1" y="-2.00684" width="52.0449" height="52.0078" filterUnits="userSpaceOnUse" color-interpolation-filters="sRGB">
<feFlood flood-opacity="0" result="BackgroundImageFix"/>
<feGaussianBlur in="BackgroundImageFix" stdDeviation="5"/>
<feComposite in2="SourceAlpha" operator="in" result="effect1_backgroundBlur_677_4588"/>
<feBlend mode="normal" in="SourceGraphic" in2="effect1_backgroundBlur_677_4588" result="shape"/>
<feColorMatrix in="SourceAlpha" type="matrix" values="0 0 0 0 0 0 0 0 0 0 0 0 0 0 0 0 0 0 127 0" result="hardAlpha"/>
<feOffset/>
<feGaussianBlur stdDeviation="1"/>
<feComposite in2="hardAlpha" operator="arithmetic" k2="-1" k3="1"/>
<feColorMatrix type="matrix" values="0 0 0 0 0.708333 0 0 0 0 0.330556 0 0 0 0 0.330556 0 0 0 0.25 0"/>
<feBlend mode="normal" in2="shape" result="effect2_innerShadow_677_4588"/>
</filter>
<filter id="filter1_bi_677_4588" x="1" y="0.000976562" width="48.3994" height="50" filterUnits="userSpaceOnUse" color-interpolation-filters="sRGB">
<feFlood flood-opacity="0" result="BackgroundImageFix"/>
<feGaussianBlur in="BackgroundImageFix" stdDeviation="5"/>
<feComposite in2="SourceAlpha" operator="in" result="effect1_backgroundBlur_677_4588"/>
<feBlend mode="normal" in="SourceGraphic" in2="effect1_backgroundBlur_677_4588" result="shape"/>
<feColorMatrix in="SourceAlpha" type="matrix" values="0 0 0 0 0 0 0 0 0 0 0 0 0 0 0 0 0 0 127 0" result="hardAlpha"/>
<feOffset/>
<feGaussianBlur stdDeviation="0.5"/>
<feComposite in2="hardAlpha" operator="arithmetic" k2="-1" k3="1"/>
<feColorMatrix type="matrix" values="0 0 0 0 0.708333 0 0 0 0 0.330556 0 0 0 0 0.330556 0 0 0 0.25 0"/>
<feBlend mode="normal" in2="shape" result="effect2_innerShadow_677_4588"/>
</filter>
<filter id="filter2_d_677_4588" x="20.2002" y="16" width="10" height="18" filterUnits="userSpaceOnUse" color-interpolation-filters="sRGB">
<feFlood flood-opacity="0" result="BackgroundImageFix"/>
<feColorMatrix in="SourceAlpha" type="matrix" values="0 0 0 0 0 0 0 0 0 0 0 0 0 0 0 0 0 0 127 0" result="hardAlpha"/>
<feOffset dy="1"/>
<feComposite in2="hardAlpha" operator="out"/>
<feColorMatrix type="matrix" values="0 0 0 0 0 0 0 0 0 0 0 0 0 0 0 0 0 0 0.1 0"/>
<feBlend mode="normal" in2="BackgroundImageFix" result="effect1_dropShadow_677_4588"/>
<feBlend mode="normal" in="SourceGraphic" in2="effect1_dropShadow_677_4588" result="shape"/>
</filter>
<linearGradient id="paint0_linear_677_4588" x1="32.3421" y1="8.18317" x2="32.4087" y2="24.0024" gradientUnits="userSpaceOnUse">
<stop stop-color="#9F6BC9"/>
<stop offset="1" stop-color="#9F6BC9"/>
</linearGradient>
<linearGradient id="paint1_linear_677_4588" x1="19.7382" y1="18.4792" x2="34.9576" y2="19.5007" gradientUnits="userSpaceOnUse">
<stop stop-color="#F5CED5"/>
<stop offset="1" stop-color="#F3B9C3"/>
</linearGradient>
</defs>
</svg>
