<svg width="30" height="30" viewBox="0 0 30 30" fill="none" xmlns="http://www.w3.org/2000/svg">
<path d="M10.4044 6.35886C10.5756 6.13321 10.6 5.78212 10.4534 5.50626C10.3555 5.3056 10.1111 4.97958 9.52443 4.97958C8.74219 4.97958 8.49765 5.45608 8.42432 5.88239C8.37537 6.08303 8.20433 6.23347 8.00873 6.23347H7.42193C7.29966 6.23347 7.17739 6.18326 7.10406 6.08303C7.03073 5.9828 6.98196 5.85737 7.00634 5.73194C7.15303 4.7037 7.88647 3.5 9.52447 3.5C10.5025 3.5 11.3337 4.00156 11.7493 4.82914C12.1403 5.60651 12.067 6.53435 11.5781 7.2115C11.2641 7.63253 10.9503 7.85784 10.707 8.03255L10.6979 8.03908L10.6574 8.06918C10.419 8.24593 10.3298 8.31206 10.3067 8.71623C10.2823 8.94189 10.1111 9.11752 9.89113 9.11752H9.32888C9.20661 9.11752 9.08433 9.06731 9.011 8.96708C8.91311 8.89186 8.88873 8.76643 8.88873 8.64101C8.96203 7.58755 9.37764 7.21146 9.86655 6.86038C10.0621 6.73496 10.2332 6.60972 10.4044 6.35886Z" fill="#9F6BC9"/>
<path d="M10.4289 10.6222C10.4289 11.1069 10.0459 11.5 9.57331 11.5C9.10077 11.5 8.71755 11.1069 8.71755 10.6222C8.71755 10.1375 9.10074 9.74436 9.57331 9.74436C10.0459 9.74436 10.4289 10.1374 10.4289 10.6222Z" fill="#9F6BC9"/>
<path d="M22.3209 15.9041L19.0002 19.2534L17.6415 17.8658C17.5007 17.7248 17.3095 17.6458 17.1105 17.6458C16.6954 17.6458 16.3592 17.982 16.3592 18.3968C16.3592 18.5961 16.4385 18.787 16.5792 18.928L18.4931 20.8419C18.6335 20.9837 18.8249 21.063 19.0244 21.0619C19.232 21.0649 19.4321 20.9837 19.5793 20.837L23.4071 17.0092C23.5515 16.8663 23.6326 16.6717 23.6326 16.4686C23.6326 16.2654 23.5515 16.0709 23.4071 15.928C23.111 15.6276 22.63 15.6172 22.3209 15.9041Z" fill="#9F6BC9"/>
<path fill-rule="evenodd" clip-rule="evenodd" d="M25.9907 10.5742H19.4118V3.71313C19.418 2.73032 19.0303 1.78601 18.3352 1.09115C17.6393 0.387115 16.6888 -0.0061074 15.6989 7.1739e-05H3.71306C2.72855 0.00135334 1.78484 0.393103 1.08895 1.08902C0.39284 1.78513 0.0012577 2.72884 0 3.71313V11.7034C0.0012816 12.6876 0.392818 13.6314 1.08895 14.3272C1.78489 15.0234 2.72855 15.4149 3.71306 15.4162H3.98092V17.6985C3.97814 18.0437 4.08003 18.3816 4.27291 18.6677C4.466 18.9539 4.74113 19.1748 5.0622 19.3014C5.2664 19.3822 5.48385 19.4245 5.70346 19.4258C6.1595 19.4255 6.5961 19.241 6.91397 18.914L10.2633 15.5647V22.2633C10.2594 23.2555 10.652 24.2081 11.3535 24.9098C12.0552 25.6115 13.0079 26.0039 14.0003 26.0001H19.2921L22.7896 29.4786C23.1105 29.8114 23.5524 29.9996 24.0146 30C24.2342 29.9987 24.4515 29.9564 24.6557 29.8757C24.9727 29.7473 25.2437 29.5269 25.4338 29.2428C25.6241 28.9589 25.7247 28.6242 25.7228 28.2824V26.0001H25.9907C26.9758 26.0001 27.9208 25.609 28.6178 24.9129C29.315 24.2167 29.7072 23.2724 29.7084 22.2872V14.2871C29.7072 13.302 29.315 12.3575 28.6178 11.6613C27.9208 10.9652 26.9759 10.5742 25.9907 10.5742ZM9.62693 14.1913L5.89484 17.8948C5.82243 17.9783 5.70452 18.0054 5.60306 17.9619C5.49476 17.9206 5.42513 17.8145 5.43068 17.6987V14.6987C5.43068 14.3024 5.10942 13.9809 4.71297 13.9809H3.7131C3.10902 13.9809 2.52972 13.7411 2.10254 13.3139C1.67554 12.8869 1.43546 12.3076 1.43546 11.7035V3.7133C1.43546 3.10922 1.67555 2.52991 2.10254 2.10273C2.52974 1.67574 3.10902 1.43566 3.7131 1.43566H15.699C16.3028 1.43502 16.8817 1.67639 17.3065 2.10552C17.7359 2.53038 17.9771 3.10944 17.9764 3.7133V11.7035C17.9764 12.3076 17.7365 12.8869 17.3093 13.3139C16.8821 13.7411 16.3028 13.9809 15.699 13.9809H10.1246C9.93431 13.9812 9.7519 14.0568 9.61733 14.1916L9.62693 14.1913ZM28.2874 22.278C28.2886 22.8865 28.0468 23.4705 27.6156 23.8999C27.1843 24.3294 26.5993 24.5688 25.9907 24.565H24.9859C24.5895 24.565 24.2682 24.8863 24.2682 25.2827V28.2828C24.2735 28.3988 24.205 28.5056 24.0971 28.5487C23.9892 28.5919 23.8658 28.562 23.7897 28.4742L20.072 24.7756C19.9387 24.6421 19.7582 24.5665 19.5696 24.565H14.0001C13.3956 24.565 12.8157 24.3251 12.3879 23.8981C11.96 23.4711 11.7191 22.8921 11.7178 22.2876V15.4167H15.6987C16.6298 15.4152 17.5263 15.0643 18.2114 14.4335C18.8961 13.8027 19.3193 12.9378 19.3973 12.01H25.9904C26.5949 12.01 27.1746 12.2499 27.6024 12.6768C28.0305 13.1038 28.2714 13.6831 28.2727 14.2876L28.2874 22.278Z" fill="#9F6BC9"/>
</svg>
