<svg width="89" height="119" viewBox="0 0 89 119" fill="none" xmlns="http://www.w3.org/2000/svg">
<path d="M44.0254 0.904297C19.7549 0.904297 0.00390625 20.7922 0.00390625 45.2437C0.00390625 79.9864 39.8874 115.859 41.5846 117.366C42.2841 117.987 43.1547 118.295 44.0254 118.295C44.896 118.295 45.7667 117.987 46.4661 117.37C48.1634 115.859 88.0469 79.9864 88.0469 45.2437C88.0469 20.7922 68.2959 0.904297 44.0254 0.904297ZM44.0254 69.3822C30.5401 69.3822 19.569 58.411 19.569 44.9258C19.569 31.4405 30.5401 20.4694 44.0254 20.4694C57.5106 20.4694 68.4818 31.4405 68.4818 44.9258C68.4818 58.411 57.5106 69.3822 44.0254 69.3822Z" fill="#9F6BC9"/>
</svg>
