<svg width="26" height="32" viewBox="0 0 26 32" fill="none" xmlns="http://www.w3.org/2000/svg">
<g filter="url(#filter0_bi_945_6238)">
<path d="M12.7635 0.0412073L0.447675 4.47331C0.178692 4.57011 0 4.81843 0 5.09844V17.3327C0 26.6028 11.1158 31.3011 12.7899 31.9562C12.9307 32.0113 13.0705 32.0145 13.2136 31.9655C14.8997 31.3884 26 27.2139 26 17.3327V5.10043C26 4.82043 25.8213 4.57011 25.5523 4.47331L13.2365 0.0412073C13.0839 -0.0137358 12.9161 -0.0137357 12.7635 0.0412073Z" fill="url(#paint0_linear_945_6238)" fill-opacity="0.5"/>
<path d="M26 7L26 13.4001L13.294 22L8 18.8L8 12.3999L13.294 15.5999L26 7Z" fill="url(#paint1_linear_945_6238)"/>
</g>
<defs>
<filter id="filter0_bi_945_6238" x="-10" y="-10" width="46" height="52" filterUnits="userSpaceOnUse" color-interpolation-filters="sRGB">
<feFlood flood-opacity="0" result="BackgroundImageFix"/>
<feGaussianBlur in="BackgroundImageFix" stdDeviation="5"/>
<feComposite in2="SourceAlpha" operator="in" result="effect1_backgroundBlur_945_6238"/>
<feBlend mode="normal" in="SourceGraphic" in2="effect1_backgroundBlur_945_6238" result="shape"/>
<feColorMatrix in="SourceAlpha" type="matrix" values="0 0 0 0 0 0 0 0 0 0 0 0 0 0 0 0 0 0 127 0" result="hardAlpha"/>
<feOffset/>
<feGaussianBlur stdDeviation="0.5"/>
<feComposite in2="hardAlpha" operator="arithmetic" k2="-1" k3="1"/>
<feColorMatrix type="matrix" values="0 0 0 0 0.708333 0 0 0 0 0.330556 0 0 0 0 0.330556 0 0 0 0.25 0"/>
<feBlend mode="normal" in2="shape" result="effect2_innerShadow_945_6238"/>
</filter>
<linearGradient id="paint0_linear_945_6238" x1="8" y1="9.04348" x2="21.9501" y2="9.84707" gradientUnits="userSpaceOnUse">
<stop stop-color="#F5CED5"/>
<stop offset="1" stop-color="#F3B9C3"/>
</linearGradient>
<linearGradient id="paint1_linear_945_6238" x1="23.0571" y1="8.97368" x2="13.952" y2="18.3992" gradientUnits="userSpaceOnUse">
<stop stop-color="#9F6BC9"/>
<stop offset="1" stop-color="#9F6BC9"/>
</linearGradient>
</defs>
</svg>
