
<svg width="224" height="57" viewBox="0 0 224 57" fill="none" xmlns="http://www.w3.org/2000/svg">
<path d="M68.6653 24.5529L71.2187 15.6134L73.8478 6.78198H79.1006L71.0726 31.9237H65.8928L57.8296 6.78198H63.1933L65.9279 15.8676L68.4462 24.5529H68.6653Z" fill="#263238"/>
<path d="M79.9772 9.00813C79.973 8.66399 80.0386 8.32256 80.1702 8.00454C80.3018 7.68652 80.4966 7.39852 80.7427 7.158C80.9807 6.91551 81.2646 6.72289 81.5778 6.5914C81.8911 6.4599 82.2274 6.39218 82.5672 6.39218C82.9069 6.39218 83.2432 6.4599 83.5565 6.5914C83.8697 6.72289 84.1536 6.91551 84.3916 7.158C84.7029 7.45722 84.935 7.82906 85.0671 8.24014C85.1992 8.65123 85.2272 9.08869 85.1485 9.51324C85.0697 9.93779 84.8868 10.3362 84.6161 10.6726C84.3454 11.009 83.9955 11.2729 83.5976 11.4406C83.1997 11.6083 82.7664 11.6746 82.3366 11.6336C81.9067 11.5925 81.4938 11.4453 81.1349 11.2052C80.776 10.9652 80.4824 10.6397 80.2803 10.2581C80.0782 9.87652 79.9741 9.45072 79.9772 9.01895M80.2694 31.9345V13.8985H84.9082V31.9237L80.2694 31.9345Z" fill="#263238"/>
<path d="M87.2593 17.6558V13.8988H89.5963L90.4077 9.37354H94.1296V13.8988H98.5088V17.6558H94.1188V25.1726C94.0851 25.8647 94.2236 26.5543 94.5218 27.1796C94.814 27.6665 95.4685 27.9099 96.491 27.9099C96.8815 27.9069 97.2716 27.8826 97.6595 27.8369C98.1506 27.7523 98.6372 27.6431 99.1174 27.5096L99.9586 31.4479C99.1756 31.7384 98.3566 31.9205 97.5242 31.9889C96.8216 32.0779 96.1145 32.1267 95.4063 32.135C94.4107 32.1672 93.4182 32.0083 92.4824 31.667C91.7826 31.3924 91.1664 30.9403 90.6945 30.3552C90.2443 29.748 89.9314 29.0503 89.7775 28.3103C89.6025 27.4587 89.5173 26.5911 89.5232 25.7217V17.6558H87.2593Z" fill="#263238"/>
<path d="M111.268 24.5148H107.389C107.096 24.5149 106.803 24.5393 106.513 24.5878C106.242 24.614 105.98 24.7019 105.748 24.8448C105.523 24.9745 105.336 25.161 105.207 25.3857C105.021 25.7173 104.948 26.1006 105.001 26.4771C105.053 26.8537 105.227 27.2028 105.496 27.4712C105.967 27.7944 106.533 27.9489 107.103 27.9094C107.89 27.9078 108.669 27.7592 109.402 27.4712C110.037 27.2107 110.658 26.9182 111.263 26.5948L111.268 24.5148ZM111.195 30.4195C110.267 30.9769 109.274 31.4175 108.239 31.7313C107.444 31.9398 106.626 32.0506 105.804 32.0613C103.956 32.0613 102.521 31.5745 101.498 30.6007C100.503 29.6017 100.004 28.2493 100.002 26.5434C99.9731 25.6627 100.188 24.791 100.625 24.0252C101.015 23.3449 101.55 22.7593 102.193 22.3103C102.854 21.8707 103.586 21.5495 104.357 21.3609C105.084 21.1728 105.83 21.0747 106.581 21.0688H111.23V20.3033C111.23 19.4504 110.987 18.8192 110.5 18.4099C110.013 18.0006 109.15 17.7815 107.911 17.7526C107.175 17.7691 106.441 17.8542 105.72 18.0069C104.763 18.2296 103.874 18.6806 103.129 19.3214L101.052 15.9268C102.164 15.0315 103.455 14.3857 104.839 14.0334C105.999 13.7569 107.187 13.61 108.379 13.5952C110.956 13.5952 112.85 14.1786 114.06 15.3453C115.27 16.512 115.878 18.2756 115.885 20.636V31.9126H111.633L111.303 30.4519L111.195 30.4195Z" fill="#263238"/>
<path d="M127.92 13.6497C128.899 13.6156 129.869 13.8425 130.731 14.307C131.477 14.7357 132.084 15.3694 132.481 16.1328C133.119 15.6493 133.789 15.2101 134.488 14.8182C134.988 14.5189 135.513 14.2629 136.057 14.0527C136.446 13.9016 136.851 13.791 137.263 13.7228C137.601 13.6759 137.942 13.6515 138.283 13.6497C140.255 13.6497 141.679 14.2583 142.554 15.4755C143.428 16.6927 143.865 18.2859 143.865 20.255V31.9319H139.232V20.7202C139.232 19.7483 139.026 19.0676 138.613 18.6781C138.41 18.4815 138.17 18.3283 137.906 18.2278C137.642 18.1274 137.361 18.0818 137.079 18.0938C136.512 18.1007 135.953 18.225 135.437 18.459C134.716 18.816 134.032 19.2436 133.395 19.7357C133.419 20.0278 133.43 20.3199 133.43 20.612V31.9238H128.759V20.6824C128.759 19.6852 128.551 19.0045 128.137 18.6402C127.747 18.2873 127.239 18.0941 126.714 18.0992C126.139 18.1025 125.57 18.2144 125.037 18.4292C124.305 18.7592 123.608 19.1625 122.957 19.6329V31.9292H118.323V13.8986H122.594L122.96 15.5404C123.484 15.176 124.033 14.847 124.601 14.5558C125.018 14.318 125.458 14.1223 125.913 13.9716C126.252 13.8324 126.609 13.7413 126.974 13.7011C127.287 13.6525 127.603 13.6281 127.92 13.6281" fill="#263238"/>
<path d="M146.708 9.00817C146.703 8.66196 146.768 8.31822 146.9 7.99815C147.032 7.67809 147.228 7.38849 147.477 7.14723C147.715 6.90474 147.998 6.71212 148.312 6.58062C148.625 6.44913 148.961 6.38141 149.301 6.38141C149.641 6.38141 149.977 6.44913 150.29 6.58062C150.604 6.71212 150.887 6.90474 151.125 7.14723C151.436 7.44671 151.668 7.81861 151.799 8.22959C151.931 8.64056 151.958 9.07777 151.879 9.502C151.8 9.92622 151.617 10.3242 151.346 10.6603C151.076 10.9963 150.726 11.2599 150.328 11.4275C149.931 11.595 149.497 11.6613 149.068 11.6202C148.638 11.5792 148.226 11.4322 147.867 11.1924C147.508 10.9526 147.214 10.6276 147.012 10.2463C146.81 9.86513 146.706 9.43969 146.708 9.00817ZM147.001 31.9238V13.8986H151.637V31.9238H147.001Z" fill="#263238"/>
<path d="M166.106 31.9237V20.7932C166.106 19.7734 165.874 19.0675 165.414 18.678C164.953 18.2656 164.352 18.0442 163.734 18.0586C163.094 18.0749 162.463 18.2107 161.873 18.4589C161.043 18.7766 160.248 19.18 159.501 19.6625V31.9237H154.868V13.8985H159.136L159.501 15.4673C160.841 14.6396 161.96 14.1284 162.858 13.9336C163.612 13.7596 164.383 13.6617 165.157 13.6415C167.153 13.6415 168.589 14.2375 169.463 15.4294C170.338 16.6214 170.788 18.1911 170.816 20.1386V31.9237H166.106Z" fill="#263238"/>
<path fill-rule="evenodd" clip-rule="evenodd" d="M183.354 25.635C183.367 25.9927 183.25 26.3432 183.026 26.6223C182.91 26.7596 182.764 26.8692 182.6 26.9431C182.436 27.0171 182.257 27.0535 182.077 27.0497C181.897 27.0584 181.718 27.0292 181.551 26.9639C181.384 26.8987 181.232 26.7989 181.106 26.671C180.853 26.4132 180.711 26.0665 180.711 25.7054C180.702 25.5365 180.729 25.3677 180.788 25.2095C180.848 25.0512 180.939 24.907 181.057 24.7857C181.176 24.6567 181.32 24.5537 181.481 24.4829C181.641 24.4122 181.815 24.3753 181.99 24.3746C182.166 24.3644 182.341 24.3914 182.505 24.4539C182.669 24.5163 182.818 24.6128 182.942 24.737C183.07 24.8495 183.173 24.9876 183.243 25.1423C183.314 25.297 183.352 25.4649 183.354 25.635ZM187.259 16.3871L187.313 18.4753L189.334 18.4212L189.377 20.155L187.357 20.2091L187.449 23.6767C187.439 23.9959 187.511 24.3123 187.657 24.5963C187.798 24.8181 188.103 24.9236 188.574 24.9101C188.755 24.9052 188.936 24.8899 189.115 24.8641C189.318 24.8236 189.54 24.7668 189.786 24.6937L190.219 26.5006C189.859 26.6417 189.483 26.7327 189.099 26.7711C188.775 26.8195 188.449 26.8501 188.122 26.863C187.664 26.8888 187.205 26.8263 186.77 26.6791C186.445 26.5595 186.156 26.3583 185.931 26.0949C185.716 25.8204 185.563 25.5017 185.485 25.1617C185.393 24.7713 185.344 24.3724 185.336 23.9715L185.239 20.2497L184.195 20.2767L184.151 18.5429L185.233 18.5158L185.55 16.4168L187.259 16.3871ZM197.733 23.5604C197.756 24.0284 197.657 24.4945 197.446 24.9128C197.253 25.2974 196.976 25.6331 196.634 25.8947C196.29 26.156 195.902 26.3538 195.488 26.4789C194.609 26.7495 193.674 26.7738 192.783 26.5493C192.358 26.4449 191.954 26.2673 191.59 26.0245C191.248 25.7756 190.963 25.4554 190.757 25.0859C190.536 24.6741 190.42 24.2143 190.419 23.747L190.356 21.3397C190.334 20.8735 190.427 20.409 190.627 19.9873C190.824 19.6113 191.101 19.2828 191.438 19.0243C191.786 18.7539 192.18 18.5495 192.602 18.4212C193.039 18.2775 193.494 18.1974 193.954 18.1831C194.427 18.1681 194.899 18.2237 195.355 18.3481C195.779 18.4483 196.179 18.6322 196.532 18.8891C196.874 19.1389 197.152 19.4661 197.343 19.8439C197.555 20.2632 197.665 20.7265 197.665 21.1964L197.733 23.5604ZM204.765 18.6916C205.107 18.942 205.385 19.2691 205.577 19.6465C205.789 20.0655 205.9 20.529 205.899 20.9989L205.958 23.3738C205.986 23.8403 205.893 24.3061 205.688 24.7262C205.495 25.1106 205.217 25.4464 204.876 25.7081C204.532 25.9699 204.143 26.1678 203.729 26.2923C202.851 26.5634 201.915 26.5877 201.024 26.3626C200.599 26.2583 200.196 26.0807 199.832 25.8379C199.489 25.5889 199.205 25.2687 198.998 24.8993C198.776 24.4834 198.659 24.0187 198.66 23.5469L198.598 21.1395C198.576 20.6734 198.669 20.2089 198.869 19.7871C199.065 19.4106 199.342 19.0818 199.68 18.8242C200.028 18.5538 200.422 18.3493 200.843 18.221C201.28 18.0759 201.736 17.9957 202.196 17.983C202.669 17.9678 203.142 18.0234 203.599 18.148C204.02 18.245 204.416 18.4253 204.765 18.6781V18.6916ZM211.912 23.509C212.284 23.8187 212.713 24.053 213.175 24.1987C213.588 24.3117 214.015 24.3636 214.443 24.3529C214.769 24.3559 215.091 24.2778 215.379 24.1257C215.488 24.0688 215.579 23.9828 215.642 23.8773C215.705 23.7717 215.738 23.6508 215.736 23.5279C215.736 23.4333 215.714 23.3399 215.67 23.2557C215.627 23.1715 215.564 23.0988 215.487 23.0438C215.243 22.8879 214.965 22.7949 214.676 22.7733L213.475 22.5866C213.089 22.5122 212.713 22.3914 212.355 22.2269C212.024 22.0755 211.735 21.8463 211.511 21.5588C211.275 21.2219 211.152 20.818 211.162 20.4065C211.143 20.0085 211.224 19.6119 211.4 19.2542C211.563 18.925 211.798 18.6365 212.087 18.4103C212.378 18.1714 212.71 17.988 213.066 17.8694C213.446 17.7471 213.842 17.6797 214.24 17.6692C214.846 17.6484 215.452 17.6947 216.047 17.8072C216.636 17.9272 217.191 18.1776 217.67 18.5402L216.702 20.1631C216.322 19.9047 215.893 19.727 215.441 19.6411C215.075 19.5627 214.701 19.5273 214.327 19.5356C214.037 19.5214 213.751 19.6063 213.515 19.7763C213.44 19.8382 213.379 19.9163 213.337 20.0047C213.296 20.0932 213.274 20.1898 213.275 20.2875C213.277 20.3897 213.312 20.4885 213.375 20.569C213.437 20.6496 213.525 20.7074 213.624 20.7338C213.9 20.8297 214.184 20.9012 214.473 20.9475C214.822 21.0043 215.195 21.0665 215.59 21.1368C215.974 21.2007 216.345 21.3211 216.694 21.4939C217.041 21.6502 217.342 21.8922 217.57 22.1971C217.824 22.5585 217.954 22.9921 217.941 23.4333C217.956 23.8347 217.862 24.2327 217.67 24.5855C217.495 24.9208 217.243 25.21 216.934 25.4295C216.604 25.6746 216.232 25.8579 215.836 25.9704C215.405 26.0949 214.96 26.1631 214.511 26.1733C214.201 26.1803 213.892 26.1713 213.583 26.1462C213.27 26.1309 212.959 26.0884 212.653 26.0191C212.331 25.9315 212.018 25.8156 211.717 25.6729C211.38 25.5041 211.065 25.2972 210.775 25.0562L211.912 23.509ZM207.313 24.0148L207.059 14.234L209.199 14.1772L209.442 23.555C209.442 23.7076 209.458 23.8598 209.488 24.0094C209.518 24.1147 209.578 24.2088 209.661 24.2799C209.772 24.3393 209.893 24.3761 210.018 24.3881C210.209 24.4082 210.4 24.4145 210.592 24.407L210.673 26.2085C210.494 26.2448 210.313 26.2719 210.132 26.2896C209.964 26.3058 209.802 26.314 209.645 26.3194C209.234 26.3446 208.822 26.2979 208.428 26.1814C208.159 26.0927 207.918 25.9362 207.727 25.727C207.56 25.5134 207.45 25.2614 207.405 24.994C207.351 24.6658 207.322 24.3339 207.319 24.0013L207.313 24.0148ZM200.735 21.456L200.778 23.106C200.778 23.3416 200.824 23.575 200.914 23.793C201.003 23.9654 201.128 24.1173 201.279 24.2393C201.434 24.3462 201.607 24.4241 201.79 24.4692C201.978 24.51 202.171 24.5272 202.363 24.5206C202.54 24.5158 202.716 24.4886 202.885 24.4395C203.061 24.3794 203.224 24.2877 203.367 24.169C203.511 24.0402 203.628 23.8827 203.708 23.7065C203.797 23.4861 203.837 23.2487 203.824 23.0113L203.781 21.3613C203.784 21.1298 203.732 20.9009 203.629 20.6932C203.542 20.5237 203.417 20.3765 203.264 20.2632C203.12 20.1456 202.951 20.064 202.769 20.0251C202.599 19.9722 202.422 19.9475 202.244 19.9521C202.06 19.9597 201.878 19.9934 201.703 20.0522C201.524 20.1033 201.359 20.196 201.222 20.3227C201.075 20.4438 200.958 20.5963 200.878 20.769C200.782 20.9802 200.735 21.2105 200.74 21.4425L200.735 21.456ZM195.542 21.5913C195.542 21.3597 195.49 21.131 195.388 20.9232C195.301 20.7543 195.177 20.6073 195.025 20.4931C194.88 20.3776 194.711 20.2963 194.53 20.255C194.36 20.2033 194.183 20.1796 194.005 20.1847C193.821 20.1914 193.639 20.2242 193.464 20.2821C193.285 20.3333 193.12 20.4259 192.983 20.5526C192.836 20.673 192.72 20.8258 192.642 20.9989C192.551 21.213 192.51 21.4454 192.523 21.6778L192.566 23.3278C192.568 23.5632 192.614 23.7962 192.702 24.0148C192.792 24.1859 192.916 24.3368 193.067 24.4584C193.216 24.5669 193.384 24.6483 193.562 24.6991C193.751 24.74 193.944 24.7572 194.138 24.7505C194.314 24.7482 194.489 24.7209 194.657 24.6694C194.833 24.6093 194.996 24.5177 195.139 24.3989C195.283 24.2701 195.399 24.1126 195.479 23.9364C195.57 23.7162 195.61 23.4789 195.598 23.2412L195.542 21.5913ZM222.861 13.1034C222.833 12.0341 222.382 11.0197 221.606 10.2831C220.831 9.54659 219.794 9.14832 218.725 9.17594L178.915 10.2146C177.852 10.2486 176.846 10.7007 176.115 11.4727C175.384 12.2446 174.988 13.274 175.012 14.3368L175.393 28.9431C175.421 30.0123 175.872 31.0268 176.648 31.7633C177.423 32.4999 178.46 32.8981 179.529 32.8705L219.339 31.8346C220.403 31.8034 221.412 31.3529 222.145 30.5812C222.878 29.8095 223.276 28.7793 223.253 27.7151L222.861 13.1034Z" fill="#263238"/>
<path d="M65.9062 40.1434V43.6834H71.0214V45.0475H65.9062V49.9679H64.4122V38.7793H71.8821V40.1434H65.9062ZM81.222 46.3141C81.222 46.8879 81.1137 47.4076 80.8972 47.8731C80.6915 48.3386 80.3992 48.7337 80.0203 49.0585C79.6522 49.3833 79.2138 49.6377 78.705 49.8217C78.207 49.995 77.6657 50.0816 77.0811 50.0816C76.4748 50.0816 75.9173 49.995 75.4085 49.8217C74.8996 49.6377 74.4612 49.3833 74.0931 49.0585C73.7359 48.7337 73.4544 48.3386 73.2487 47.8731C73.0538 47.4076 72.9564 46.8879 72.9564 46.3141V42.4493C72.9564 41.8863 73.0538 41.3721 73.2487 40.9066C73.4544 40.4411 73.7359 40.0459 74.0931 39.7212C74.4612 39.3856 74.8996 39.1257 75.4085 38.9417C75.9173 38.7577 76.4748 38.6656 77.0811 38.6656C77.6765 38.6656 78.2286 38.7577 78.7374 38.9417C79.2463 39.1257 79.6847 39.3856 80.0528 39.7212C80.4209 40.0459 80.7077 40.4411 80.9134 40.9066C81.1191 41.3721 81.222 41.8863 81.222 42.4493V46.3141ZM79.7118 42.6279C79.7118 42.1732 79.6414 41.7835 79.5007 41.4587C79.3599 41.1339 79.1705 40.8687 78.9323 40.663C78.6941 40.4465 78.4127 40.2895 78.0879 40.1921C77.7739 40.0947 77.4383 40.0459 77.0811 40.0459C76.7238 40.0459 76.3828 40.0947 76.058 40.1921C75.7441 40.2895 75.468 40.4465 75.2298 40.663C75.0025 40.8687 74.8184 41.1339 74.6777 41.4587C74.537 41.7835 74.4666 42.1732 74.4666 42.6279V46.1355C74.4666 46.5902 74.537 46.9799 74.6777 47.3047C74.8184 47.6295 75.0079 47.8947 75.2461 48.1004C75.4842 48.3061 75.7603 48.4577 76.0743 48.5551C76.399 48.6525 76.7346 48.7013 77.0811 48.7013C77.4383 48.7013 77.7739 48.6525 78.0879 48.5551C78.4018 48.4577 78.6779 48.3061 78.9161 48.1004C79.1651 47.8947 79.3599 47.6295 79.5007 47.3047C79.6414 46.9799 79.7118 46.5902 79.7118 46.1355V42.6279ZM91.181 46.3141C91.181 46.8879 91.0727 47.4076 90.8562 47.8731C90.6505 48.3386 90.3582 48.7337 89.9793 49.0585C89.6112 49.3833 89.1728 49.6377 88.664 49.8217C88.166 49.995 87.6247 50.0816 87.0401 50.0816C86.4338 50.0816 85.8763 49.995 85.3675 49.8217C84.8586 49.6377 84.4202 49.3833 84.0521 49.0585C83.6949 48.7337 83.4134 48.3386 83.2077 47.8731C83.0128 47.4076 82.9154 46.8879 82.9154 46.3141V42.4493C82.9154 41.8863 83.0128 41.3721 83.2077 40.9066C83.4134 40.4411 83.6949 40.0459 84.0521 39.7212C84.4202 39.3856 84.8586 39.1257 85.3675 38.9417C85.8763 38.7577 86.4338 38.6656 87.0401 38.6656C87.6355 38.6656 88.1876 38.7577 88.6964 38.9417C89.2053 39.1257 89.6437 39.3856 90.0118 39.7212C90.3799 40.0459 90.6667 40.4411 90.8724 40.9066C91.0781 41.3721 91.181 41.8863 91.181 42.4493V46.3141ZM89.6708 42.6279C89.6708 42.1732 89.6004 41.7835 89.4597 41.4587C89.3189 41.1339 89.1295 40.8687 88.8913 40.663C88.6531 40.4465 88.3717 40.2895 88.0469 40.1921C87.7329 40.0947 87.3973 40.0459 87.0401 40.0459C86.6828 40.0459 86.3418 40.0947 86.017 40.1921C85.7031 40.2895 85.427 40.4465 85.1888 40.663C84.9615 40.8687 84.7774 41.1339 84.6367 41.4587C84.496 41.7835 84.4256 42.1732 84.4256 42.6279V46.1355C84.4256 46.5902 84.496 46.9799 84.6367 47.3047C84.7774 47.6295 84.9669 47.8947 85.2051 48.1004C85.4432 48.3061 85.7193 48.4577 86.0333 48.5551C86.358 48.6525 86.6936 48.7013 87.0401 48.7013C87.3973 48.7013 87.7329 48.6525 88.0469 48.5551C88.3608 48.4577 88.6369 48.3061 88.8751 48.1004C89.1241 47.8947 89.3189 47.6295 89.4597 47.3047C89.6004 46.9799 89.6708 46.5902 89.6708 46.1355V42.6279ZM96.873 40.1596V49.9679H95.3627V40.1596H92.1312V38.7793H100.088V40.1596H96.873ZM109.287 46.6876C109.287 47.0882 109.217 47.4833 109.076 47.8731C108.946 48.2628 108.746 48.6147 108.475 48.9286C108.215 49.2317 107.885 49.4807 107.484 49.6756C107.084 49.8705 106.624 49.9679 106.104 49.9679H101.281V38.7793H105.926C106.434 38.7793 106.884 38.8605 107.273 39.0229C107.674 39.1853 108.009 39.4018 108.28 39.6724C108.551 39.9431 108.756 40.257 108.897 40.6143C109.038 40.9716 109.108 41.345 109.108 41.7348C109.108 42.1786 109.005 42.6171 108.8 43.0501C108.594 43.4723 108.237 43.8242 107.728 44.1057C108.269 44.3871 108.664 44.766 108.913 45.2424C109.162 45.7187 109.287 46.2005 109.287 46.6876ZM107.631 41.7673C107.631 41.1827 107.441 40.7659 107.062 40.5169C106.694 40.2679 106.218 40.1434 105.633 40.1434H102.791V43.4399H105.763C106.012 43.4399 106.25 43.4074 106.478 43.3424C106.705 43.2667 106.9 43.1584 107.062 43.0177C107.235 42.8769 107.371 42.7037 107.468 42.498C107.576 42.2815 107.631 42.0379 107.631 41.7673ZM107.809 46.6876C107.809 46.3845 107.75 46.1193 107.631 45.8919C107.522 45.6538 107.371 45.4535 107.176 45.2911C106.992 45.1287 106.775 45.0042 106.526 44.9176C106.288 44.831 106.039 44.7877 105.779 44.7877H102.791V48.6201H105.812C106.472 48.6201 106.97 48.4523 107.306 48.1167C107.641 47.7811 107.809 47.3047 107.809 46.6876ZM117.939 49.9679L117.062 47.4509H112.612L111.752 49.9679H110.193L114.09 38.7793H115.6L119.514 49.9679H117.939ZM114.804 40.8254L113.993 43.4236L113.099 46.0868H116.591L115.698 43.4236L114.869 40.8254H114.804ZM120.743 49.9679V38.7793H122.237V48.6201H128.213V49.9679H120.743ZM129.433 49.9679V38.7793H130.927V48.6201H136.903V49.9679H129.433ZM149.917 46.3304C149.917 46.8717 149.814 47.3697 149.608 47.8244C149.413 48.2682 149.143 48.6525 148.796 48.9773C148.45 49.2913 148.044 49.5349 147.578 49.7081C147.113 49.8813 146.615 49.9679 146.084 49.9679H141.895V38.7793H146.1C146.631 38.7793 147.129 38.8659 147.594 39.0391C148.06 39.2015 148.466 39.4397 148.812 39.7536C149.159 40.0676 149.429 40.4519 149.624 40.9066C149.819 41.3613 149.917 41.8701 149.917 42.4331V46.3304ZM148.39 42.6929C148.39 42.2274 148.314 41.8322 148.163 41.5074C148.011 41.1827 147.811 40.9174 147.562 40.7117C147.313 40.506 147.026 40.3599 146.701 40.2733C146.387 40.1867 146.068 40.1434 145.743 40.1434H143.389V48.6363H145.743C146.046 48.6363 146.355 48.593 146.669 48.5064C146.994 48.4198 147.281 48.2736 147.53 48.0679C147.779 47.8623 147.984 47.6024 148.147 47.2885C148.309 46.9637 148.39 46.5631 148.39 46.0868V42.6929ZM158.742 49.9679L157.865 47.4509H153.416L152.555 49.9679H150.996L154.893 38.7793H156.404L160.317 49.9679H158.742ZM155.608 40.8254L154.796 43.4236L153.903 46.0868H157.394L156.501 43.4236L155.673 40.8254H155.608ZM164.083 44.0569L165.284 41.3613L166.551 38.7793H168.175L164.781 45.6646V49.9679H163.271V45.6808L159.86 38.7793H161.501L162.8 41.4425L163.969 44.0569H164.083Z" fill="#263238"/>
<path d="M36.1924 8.59965C36.1924 8.59965 39.5639 8.0933 40.0356 5.76912C40.5074 3.44495 40.2841 0.963522 43.7436 1.36609C47.2031 1.76865 47.2566 4.82562 46.2596 8.59965C45.2626 12.3737 41.6522 15.4841 39.7368 16.6321" fill="#263238"/>
<path d="M43.1645 5.69985C44.2433 5.99548 45.2968 5.58663 45.5264 4.75634C45.756 3.92605 45.061 3.02343 43.9822 2.73409C42.9035 2.44475 41.8184 2.63974 41.614 3.6776C41.4096 4.71546 42.0858 5.40422 43.1645 5.69985Z" fill="#9F6BC9"/>
<path d="M11.1927 7.7033C11.1927 7.7033 7.73315 7.17809 7.37147 4.11483C7.00979 1.05157 5.03157 0.042013 3.12883 0.696179C1.22609 1.35034 -0.239494 8.6877 6.29902 14.4305L11.1927 7.7033Z" fill="#263238"/>
<path fill-rule="evenodd" clip-rule="evenodd" d="M37.9318 53.809C35.29 53.809 33.5696 51.9472 32.4846 49.1544C29.5183 49.8742 26.4726 50.2145 23.4206 50.1671C20.3676 50.2147 17.3208 49.8744 14.3535 49.1544C13.2685 51.9472 11.5544 53.809 8.90318 53.809C3.43083 53.809 0.990291 43.2763 0.943115 32.8034C0.943115 26.6769 1.75768 20.5661 3.31447 16.6222C3.49688 16.163 3.68558 15.7322 3.88686 15.3359C8.74907 5.61778 15.3851 3.69931 23.4426 3.69931C31.5002 3.69931 38.0733 5.58633 42.9418 15.3359C47.8103 25.0855 46.9737 53.8027 37.9098 53.8027" fill="#9F6BC9"/>
<path opacity="0.1" fill-rule="evenodd" clip-rule="evenodd" d="M37.9293 53.8091C35.2874 53.8091 33.5671 51.9472 32.4821 49.1544C29.5158 49.8743 26.4701 50.2146 23.4181 50.1671C20.1584 50.1424 16.9139 49.72 13.7566 48.9091C13.7566 48.9091 15.1058 45.7641 18.0936 45.9245C21.0814 46.0849 38.1526 48.2141 39.2156 41.7227C40.2786 35.2314 45.3641 18.6602 31.0731 4.55478C35.7372 5.90085 39.7282 8.88863 42.9519 15.3422C47.8141 25.0321 46.9838 53.8091 37.9198 53.8091" fill="black"/>
<path d="M32.4701 48.5159C32.598 48.5186 32.7224 48.5579 32.8286 48.6291C32.9334 48.7017 33.0162 48.8018 33.0677 48.9184C34.181 51.7773 35.7661 53.1674 37.9173 53.1674C39.386 53.1674 40.6944 52.249 41.814 50.469C43.9117 47.0975 45.1855 40.5841 45.2389 33.121C45.2861 25.9597 44.1822 19.2577 42.3675 15.6315C37.6814 6.24671 31.3976 4.33139 23.4061 4.33139C15.4146 4.33139 9.14658 6.253 4.46049 15.6032C2.63952 19.2325 1.53876 25.9346 1.57965 33.0958C1.66142 40.559 2.90999 47.0314 5.03918 50.4438C6.15251 52.249 7.46714 53.1391 8.92957 53.1391C11.0808 53.1391 12.6722 51.7521 13.7824 48.8933C13.8402 48.7442 13.9527 48.6228 14.0969 48.5536C14.2365 48.4811 14.3987 48.4653 14.5497 48.5096C17.4572 49.218 20.4421 49.5593 23.4344 49.5255C26.431 49.5693 29.4213 49.2365 32.3349 48.5348C32.3885 48.5221 32.4433 48.5158 32.4984 48.5159M37.9456 54.4474C35.3887 54.4474 33.4262 52.9252 32.1116 49.9091C29.2634 50.5415 26.3518 50.8433 23.4344 50.8086C20.515 50.8432 17.6014 50.5413 14.751 49.9091C13.4364 52.9252 11.4802 54.4474 8.91699 54.4474C6.97651 54.4474 5.29707 53.3278 3.93527 51.1168C-0.961536 43.2071 -0.612438 22.8587 3.31256 15.0308C8.58677 4.49807 16.0908 3.04822 23.4187 3.04822C30.7466 3.04822 38.2538 4.49807 43.5249 15.0308C47.4436 22.8587 47.799 43.2071 42.8959 51.1168C41.5498 53.3278 39.8703 54.4474 37.9299 54.4474H37.9456Z" fill="#263238"/>
<path fill-rule="evenodd" clip-rule="evenodd" d="M31.5279 18.5188C31.5279 22.969 30.1347 26.6109 23.7094 26.6109C17.2841 26.6109 15.9978 22.9816 15.9978 18.5188C15.9978 14.056 18.6616 10.3857 23.7723 10.3857C28.883 10.3857 31.5279 14.0811 31.5279 18.5188Z" fill="white"/>
<path d="M23.7728 11.0464C18.5049 11.0464 16.6367 15.0909 16.6367 18.5378C16.6367 22.3874 17.4953 25.9538 23.7193 25.9538C30.0503 25.9538 30.8994 22.2049 30.8994 18.5378C30.8994 15.0783 29.0313 11.0401 23.7728 11.0401V11.0464ZM23.7193 27.2276C16.3002 27.2276 15.3567 22.5761 15.3567 18.5315C15.3567 13.2856 18.7282 9.76636 23.7728 9.76636C28.8174 9.76636 32.1857 13.2919 32.1857 18.5315C32.1857 22.2647 31.3303 27.2276 23.7193 27.2276Z" fill="#263238"/>
<path fill-rule="evenodd" clip-rule="evenodd" d="M28.4639 20.6542C27.9465 21.9655 26.9323 23.0194 25.6418 23.5866C24.3513 24.1538 22.889 24.1884 21.5732 23.6829C20.8069 23.3539 20.1345 22.8396 19.6163 22.1864C19.098 21.5331 18.7503 20.7613 18.6042 19.9403L22.7808 17.9778L19.0068 16.5971C19.5369 15.3055 20.5513 14.2724 21.8331 13.7188C23.1148 13.1652 24.5623 13.1349 25.8661 13.6345C27.1435 14.2193 28.1367 15.2871 28.6274 16.6034C28.8648 17.2567 28.9717 17.9502 28.942 18.6446C28.9163 19.3401 28.7516 20.0234 28.4576 20.6542" fill="#263238"/>
<path d="M5.96688 3.81292C6.07381 4.92626 5.52029 5.90122 4.70887 5.9767C3.89745 6.05218 3.15837 5.22818 3.04829 4.08968C2.93822 2.95118 3.2999 1.94477 4.3063 1.9259C5.31271 1.90703 5.8568 2.687 5.96688 3.81292Z" fill="#9F6BC9"/>
<path fill-rule="evenodd" clip-rule="evenodd" d="M31.8651 28.9229L31.6921 29.0549C31.0631 29.4952 30.3429 29.7311 29.6698 30.1809L29.6069 30.2217L29.7548 31.2816C29.7778 31.4378 29.8301 31.5882 29.9089 31.7251C29.9891 31.8612 30.0954 31.9802 30.2217 32.0751C30.348 32.1701 30.4917 32.2393 30.6448 32.2786C30.7964 32.3193 30.9548 32.329 31.1103 32.3069C31.2667 32.2847 31.4173 32.2324 31.5537 32.1528C31.6896 32.0707 31.8091 31.9641 31.9059 31.8383C32.0015 31.7127 32.0711 31.5693 32.1105 31.4164C32.1499 31.2636 32.1584 31.1044 32.1355 30.9483L31.8651 28.9229Z" fill="white"/>
<path fill-rule="evenodd" clip-rule="evenodd" d="M27.9928 30.7403C27.3073 30.9192 26.6033 31.0174 25.895 31.0328L25.9768 32.1776C26.0072 32.4902 26.1581 32.7788 26.3977 32.9819C26.6373 33.1851 26.9466 33.2869 27.26 33.2658C27.5745 33.2447 27.8683 33.1012 28.0782 32.866C28.2881 32.6308 28.3974 32.3227 28.3827 32.0078L28.2821 30.6208C28.1888 30.6679 28.0921 30.7078 27.9928 30.7403Z" fill="white"/>
<path fill-rule="evenodd" clip-rule="evenodd" d="M24.3645 30.9698V32.319C24.377 32.484 24.3556 32.6499 24.3016 32.8064C24.2456 32.9634 24.159 33.1078 24.0468 33.231C23.9336 33.3529 23.7966 33.4503 23.6443 33.5172C23.4926 33.5837 23.3287 33.6179 23.1631 33.6179C22.9965 33.6176 22.8317 33.5833 22.6788 33.5172C22.5261 33.4505 22.3889 33.3529 22.2758 33.2306C22.1626 33.1082 22.076 32.9638 22.0214 32.8064C21.9675 32.6499 21.946 32.484 21.9585 32.319V30.9698H24.3645Z" fill="white"/>
<path fill-rule="evenodd" clip-rule="evenodd" d="M20.5017 30.6747L20.4262 31.7282C20.4153 31.8858 20.3734 32.0397 20.303 32.181C20.2326 32.3224 20.135 32.4486 20.0159 32.5522C19.8967 32.6559 19.7583 32.7351 19.6086 32.7853C19.4588 32.8355 19.3006 32.8557 19.1431 32.8447C18.9855 32.8338 18.8316 32.7919 18.6902 32.7215C18.5489 32.6511 18.4227 32.5535 18.3191 32.4344C18.2154 32.3152 18.1362 32.1768 18.086 32.0271C18.0358 31.8773 18.0156 31.7191 18.0266 31.5615L18.1083 30.4482L20.5017 30.6747Z" fill="white"/>
<path d="M34.114 26.8031C32.4501 29.0248 30.1071 30.6434 27.4403 31.4137C23.8676 32.2974 20.103 31.6432 16.6529 30.5236C15.797 30.2185 14.9572 29.87 14.1368 29.4795C14.0656 29.4461 14.0023 29.3978 13.9513 29.338C13.8979 29.2799 13.8572 29.2113 13.8318 29.1367C13.8072 29.0627 13.7965 28.9849 13.8003 28.9071C13.8057 28.8295 13.826 28.7537 13.8601 28.6838C13.8934 28.6133 13.9404 28.5502 13.9985 28.4982C14.0571 28.4456 14.1255 28.405 14.1997 28.3787C14.2746 28.3537 14.3538 28.344 14.4325 28.3504C14.5104 28.3557 14.5865 28.3772 14.6558 28.4133C15.4326 28.7813 16.2283 29.1084 17.0428 29.3977C20.2665 30.4544 23.8172 31.1715 27.1572 30.423C29.651 29.7622 31.8892 28.3687 33.5825 26.4225C33.6362 26.3657 33.7091 26.331 33.787 26.325C33.8652 26.3167 33.9438 26.338 34.0071 26.3848C34.072 26.4295 34.1177 26.4971 34.1352 26.5739C34.1527 26.6508 34.1406 26.7315 34.1015 26.7999L34.114 26.8031Z" fill="#263238"/>
<path d="M23.7617 55.6265C29.3441 55.6265 33.8696 51.0879 33.8696 45.4894C33.8696 39.8908 29.3441 35.3523 23.7617 35.3523C18.1793 35.3523 13.6538 39.8908 13.6538 45.4894C13.6538 51.0879 18.1793 55.6265 23.7617 55.6265Z" fill="white" stroke="#263238" stroke-width="0.958068"/>
<mask id="path-26-outside-1_10_2928" maskUnits="userSpaceOnUse" x="12.7612" y="34.3044" width="22" height="22" fill="black">
<rect fill="white" x="12.7612" y="34.3044" width="22" height="22"/>
<path d="M23.2404 35.4608C20.9351 35.8016 19.3979 36.9709 18.9661 37.3355C17.9294 37.6064 16.5592 38.4343 16.4356 38.5093C16.3561 38.5945 16.2776 38.6814 16.2003 38.7689C16.1659 38.809 16.132 38.8491 16.0976 38.8897C16.0468 38.9495 15.9954 39.0088 15.9458 39.0697C15.0626 40.2356 14.7263 41.598 14.6297 42.0788L13.8961 43.3553C13.8724 43.4648 13.8504 43.5748 13.8295 43.6854C13.8222 43.7261 13.8148 43.7673 13.8081 43.8085C13.7917 43.9033 13.7748 43.9975 13.7612 44.0929C13.7714 44.0839 13.781 44.0731 13.7883 44.0607L14.7505 42.3869C15.0592 42.5517 15.7573 42.7808 16.1072 42.8914C16.1489 43.2938 16.5039 46.594 17.0525 47.3339C16.7268 47.7447 16.2065 49.3345 16.1557 50.12C15.1636 50.155 14.4153 49.4637 14.4074 49.4564C14.4001 49.4496 14.391 49.4456 14.382 49.4406C14.4446 49.5991 14.5107 49.7555 14.5812 49.9101C14.9074 50.1217 15.4373 50.3813 16.0773 50.3813C16.1106 50.3813 16.1444 50.3796 16.1783 50.3785C16.4356 51.1658 18.5688 52.8046 19.0683 53.1799C19.167 53.6031 19.4345 54.3825 20.1462 55.2149C20.3172 55.2815 20.4898 55.3441 20.6648 55.4017C20.6603 55.3949 20.6569 55.387 20.6507 55.3808C19.8104 54.5405 19.478 53.7025 19.3482 53.2273C20.5006 53.0094 21.526 52.3413 21.9069 52.0687C22.3883 52.2487 24.136 52.8509 26.0175 52.8509C26.1552 52.8509 26.2941 52.8458 26.4329 52.839C26.6575 53.6759 27.1987 54.2657 27.4053 54.4666C27.1885 54.7053 26.526 55.3142 25.052 55.7832C25.0316 55.7894 25.0153 55.8018 25.0012 55.8159C25.1829 55.7933 25.3629 55.7651 25.5412 55.7335C25.5898 55.7245 25.6389 55.7166 25.6868 55.707C25.754 55.694 25.8206 55.6799 25.8872 55.6658C26.0164 55.6376 26.1451 55.6082 26.2726 55.5749C26.2732 55.5749 26.2738 55.5749 26.2743 55.5744C27.333 55.0524 27.688 54.5343 27.7066 54.5061C27.71 54.501 27.7106 54.4959 27.7128 54.4908C31.7349 53.567 32.0436 50.7814 32.0599 50.0619C32.3839 49.6889 33.1468 48.6838 33.7851 46.8937C33.8054 46.7267 33.8218 46.5579 33.8348 46.3886C33.8387 46.3333 33.8438 46.278 33.8472 46.2221C33.8511 46.1595 33.854 46.0969 33.8562 46.0342C33.8619 45.8903 33.8669 45.7458 33.8669 45.5997C33.8669 45.4417 33.8624 45.2848 33.8551 45.129C33.8534 45.0873 33.8511 45.0461 33.8489 45.0049C33.841 44.8666 33.8314 44.7289 33.8178 44.5923C33.8161 44.5731 33.815 44.5545 33.8128 44.5353C33.7975 44.3847 33.7783 44.2351 33.7569 44.0861C33.7507 44.0432 33.7439 44.0009 33.7371 43.9586C33.7179 43.8378 33.6971 43.7176 33.6739 43.598C33.6677 43.5652 33.6621 43.5319 33.6553 43.4992C33.6265 43.3576 33.5944 43.217 33.5599 43.0771C33.5487 43.0319 33.5368 42.9874 33.525 42.9422C33.4973 42.8367 33.4679 42.7317 33.4369 42.6273C33.4239 42.5844 33.4121 42.541 33.3985 42.4981C33.3579 42.366 33.3144 42.2357 33.2682 42.1064C33.2512 42.0585 33.2332 42.011 33.2157 41.9636C33.1813 41.8717 33.1463 41.7797 33.1096 41.6888C33.0893 41.6386 33.0695 41.5884 33.0481 41.5387C32.9967 41.4168 32.9431 41.296 32.8872 41.177C32.8647 41.1284 32.8404 41.0805 32.8167 41.0325C32.7766 40.9501 32.7354 40.8683 32.6931 40.787C32.666 40.7345 32.6384 40.682 32.6102 40.6295C32.5486 40.5161 32.486 40.4038 32.4205 40.2932C32.4205 40.2926 32.42 40.2926 32.42 40.2921C32.5193 40.6724 32.8511 42.0398 32.5994 42.48C31.5831 42.2069 30.2715 42.1894 29.8212 42.1922C29.5627 41.4687 27.4837 39.7458 26.8516 39.3807C26.8499 39.1476 26.8031 37.1611 26.7907 36.6171C27.4718 36.5178 29.0909 36.8648 29.0909 36.8648C29.0921 36.862 29.0932 36.8598 29.0943 36.8569C27.5452 35.8739 25.7173 35.3044 23.7579 35.3044C23.7111 35.3044 23.6648 35.3073 23.618 35.3078L23.2404 35.4608ZM17.351 47.3017C17.3437 47.2746 17.329 47.2492 17.3047 47.2312C16.9198 46.9496 16.5259 44.423 16.3662 42.8824C17.3216 41.4834 18.6862 40.287 19.075 39.9591C19.2206 39.9879 22.0858 40.5624 23.1016 41.0788C23.1659 41.8372 23.64 44.2678 23.8132 44.8976C23.4069 45.2989 21.2178 47.4722 20.6507 48.2267C20.0762 47.9964 18.0152 47.4693 17.351 47.3017ZM29.8093 42.4512C30.2411 42.449 31.618 42.4653 32.6135 42.7515C32.9076 43.1471 33.6192 44.3023 33.701 46.3147C33.701 46.3147 33.7044 46.3141 33.7095 46.3136C33.0842 48.2859 32.2608 49.418 31.9036 49.8458C31.4087 49.773 29.8793 49.7278 29.3951 49.7154C29.2947 48.6719 28.5164 46.5433 28.1959 45.7007C28.8821 45.0923 29.6265 42.9907 29.8093 42.4512ZM27.956 45.8C28.2947 46.6939 29.1474 49.0331 29.1474 49.9186C29.1474 49.9276 29.1508 49.9355 29.1524 49.9445C28.7162 50.6522 26.8325 52.2149 26.4555 52.5811C24.4972 52.6872 22.5813 52.0433 22.0322 51.8401C21.8618 51.2995 21.1027 48.9118 20.8482 48.3932C21.3561 47.7052 23.5119 45.5602 23.9701 45.1064C24.5762 45.3519 27.425 45.7306 27.956 45.8ZM26.596 39.3129C25.8669 39.3682 23.5446 40.6149 23.1642 40.8214C22.1247 40.3225 19.6298 39.8073 19.1828 39.717C19.1828 39.2283 19.1828 37.9867 19.1828 37.4929C19.662 37.1041 21.1727 36.0104 23.342 35.7063C24.7292 35.8321 26.0311 36.3214 26.5334 36.5291C26.5407 36.84 26.5887 38.8609 26.596 39.3129Z"/>
</mask>
<path d="M23.2404 35.4608C20.9351 35.8016 19.3979 36.9709 18.9661 37.3355C17.9294 37.6064 16.5592 38.4343 16.4356 38.5093C16.3561 38.5945 16.2776 38.6814 16.2003 38.7689C16.1659 38.809 16.132 38.8491 16.0976 38.8897C16.0468 38.9495 15.9954 39.0088 15.9458 39.0697C15.0626 40.2356 14.7263 41.598 14.6297 42.0788L13.8961 43.3553C13.8724 43.4648 13.8504 43.5748 13.8295 43.6854C13.8222 43.7261 13.8148 43.7673 13.8081 43.8085C13.7917 43.9033 13.7748 43.9975 13.7612 44.0929C13.7714 44.0839 13.781 44.0731 13.7883 44.0607L14.7505 42.3869C15.0592 42.5517 15.7573 42.7808 16.1072 42.8914C16.1489 43.2938 16.5039 46.594 17.0525 47.3339C16.7268 47.7447 16.2065 49.3345 16.1557 50.12C15.1636 50.155 14.4153 49.4637 14.4074 49.4564C14.4001 49.4496 14.391 49.4456 14.382 49.4406C14.4446 49.5991 14.5107 49.7555 14.5812 49.9101C14.9074 50.1217 15.4373 50.3813 16.0773 50.3813C16.1106 50.3813 16.1444 50.3796 16.1783 50.3785C16.4356 51.1658 18.5688 52.8046 19.0683 53.1799C19.167 53.6031 19.4345 54.3825 20.1462 55.2149C20.3172 55.2815 20.4898 55.3441 20.6648 55.4017C20.6603 55.3949 20.6569 55.387 20.6507 55.3808C19.8104 54.5405 19.478 53.7025 19.3482 53.2273C20.5006 53.0094 21.526 52.3413 21.9069 52.0687C22.3883 52.2487 24.136 52.8509 26.0175 52.8509C26.1552 52.8509 26.2941 52.8458 26.4329 52.839C26.6575 53.6759 27.1987 54.2657 27.4053 54.4666C27.1885 54.7053 26.526 55.3142 25.052 55.7832C25.0316 55.7894 25.0153 55.8018 25.0012 55.8159C25.1829 55.7933 25.3629 55.7651 25.5412 55.7335C25.5898 55.7245 25.6389 55.7166 25.6868 55.707C25.754 55.694 25.8206 55.6799 25.8872 55.6658C26.0164 55.6376 26.1451 55.6082 26.2726 55.5749C26.2732 55.5749 26.2738 55.5749 26.2743 55.5744C27.333 55.0524 27.688 54.5343 27.7066 54.5061C27.71 54.501 27.7106 54.4959 27.7128 54.4908C31.7349 53.567 32.0436 50.7814 32.0599 50.0619C32.3839 49.6889 33.1468 48.6838 33.7851 46.8937C33.8054 46.7267 33.8218 46.5579 33.8348 46.3886C33.8387 46.3333 33.8438 46.278 33.8472 46.2221C33.8511 46.1595 33.854 46.0969 33.8562 46.0342C33.8619 45.8903 33.8669 45.7458 33.8669 45.5997C33.8669 45.4417 33.8624 45.2848 33.8551 45.129C33.8534 45.0873 33.8511 45.0461 33.8489 45.0049C33.841 44.8666 33.8314 44.7289 33.8178 44.5923C33.8161 44.5731 33.815 44.5545 33.8128 44.5353C33.7975 44.3847 33.7783 44.2351 33.7569 44.0861C33.7507 44.0432 33.7439 44.0009 33.7371 43.9586C33.7179 43.8378 33.6971 43.7176 33.6739 43.598C33.6677 43.5652 33.6621 43.5319 33.6553 43.4992C33.6265 43.3576 33.5944 43.217 33.5599 43.0771C33.5487 43.0319 33.5368 42.9874 33.525 42.9422C33.4973 42.8367 33.4679 42.7317 33.4369 42.6273C33.4239 42.5844 33.4121 42.541 33.3985 42.4981C33.3579 42.366 33.3144 42.2357 33.2682 42.1064C33.2512 42.0585 33.2332 42.011 33.2157 41.9636C33.1813 41.8717 33.1463 41.7797 33.1096 41.6888C33.0893 41.6386 33.0695 41.5884 33.0481 41.5387C32.9967 41.4168 32.9431 41.296 32.8872 41.177C32.8647 41.1284 32.8404 41.0805 32.8167 41.0325C32.7766 40.9501 32.7354 40.8683 32.6931 40.787C32.666 40.7345 32.6384 40.682 32.6102 40.6295C32.5486 40.5161 32.486 40.4038 32.4205 40.2932C32.4205 40.2926 32.42 40.2926 32.42 40.2921C32.5193 40.6724 32.8511 42.0398 32.5994 42.48C31.5831 42.2069 30.2715 42.1894 29.8212 42.1922C29.5627 41.4687 27.4837 39.7458 26.8516 39.3807C26.8499 39.1476 26.8031 37.1611 26.7907 36.6171C27.4718 36.5178 29.0909 36.8648 29.0909 36.8648C29.0921 36.862 29.0932 36.8598 29.0943 36.8569C27.5452 35.8739 25.7173 35.3044 23.7579 35.3044C23.7111 35.3044 23.6648 35.3073 23.618 35.3078L23.2404 35.4608ZM17.351 47.3017C17.3437 47.2746 17.329 47.2492 17.3047 47.2312C16.9198 46.9496 16.5259 44.423 16.3662 42.8824C17.3216 41.4834 18.6862 40.287 19.075 39.9591C19.2206 39.9879 22.0858 40.5624 23.1016 41.0788C23.1659 41.8372 23.64 44.2678 23.8132 44.8976C23.4069 45.2989 21.2178 47.4722 20.6507 48.2267C20.0762 47.9964 18.0152 47.4693 17.351 47.3017ZM29.8093 42.4512C30.2411 42.449 31.618 42.4653 32.6135 42.7515C32.9076 43.1471 33.6192 44.3023 33.701 46.3147C33.701 46.3147 33.7044 46.3141 33.7095 46.3136C33.0842 48.2859 32.2608 49.418 31.9036 49.8458C31.4087 49.773 29.8793 49.7278 29.3951 49.7154C29.2947 48.6719 28.5164 46.5433 28.1959 45.7007C28.8821 45.0923 29.6265 42.9907 29.8093 42.4512ZM27.956 45.8C28.2947 46.6939 29.1474 49.0331 29.1474 49.9186C29.1474 49.9276 29.1508 49.9355 29.1524 49.9445C28.7162 50.6522 26.8325 52.2149 26.4555 52.5811C24.4972 52.6872 22.5813 52.0433 22.0322 51.8401C21.8618 51.2995 21.1027 48.9118 20.8482 48.3932C21.3561 47.7052 23.5119 45.5602 23.9701 45.1064C24.5762 45.3519 27.425 45.7306 27.956 45.8ZM26.596 39.3129C25.8669 39.3682 23.5446 40.6149 23.1642 40.8214C22.1247 40.3225 19.6298 39.8073 19.1828 39.717C19.1828 39.2283 19.1828 37.9867 19.1828 37.4929C19.662 37.1041 21.1727 36.0104 23.342 35.7063C24.7292 35.8321 26.0311 36.3214 26.5334 36.5291C26.5407 36.84 26.5887 38.8609 26.596 39.3129Z" fill="#263238"/>
<path d="M23.2404 35.4608C20.9351 35.8016 19.3979 36.9709 18.9661 37.3355C17.9294 37.6064 16.5592 38.4343 16.4356 38.5093C16.3561 38.5945 16.2776 38.6814 16.2003 38.7689C16.1659 38.809 16.132 38.8491 16.0976 38.8897C16.0468 38.9495 15.9954 39.0088 15.9458 39.0697C15.0626 40.2356 14.7263 41.598 14.6297 42.0788L13.8961 43.3553C13.8724 43.4648 13.8504 43.5748 13.8295 43.6854C13.8222 43.7261 13.8148 43.7673 13.8081 43.8085C13.7917 43.9033 13.7748 43.9975 13.7612 44.0929C13.7714 44.0839 13.781 44.0731 13.7883 44.0607L14.7505 42.3869C15.0592 42.5517 15.7573 42.7808 16.1072 42.8914C16.1489 43.2938 16.5039 46.594 17.0525 47.3339C16.7268 47.7447 16.2065 49.3345 16.1557 50.12C15.1636 50.155 14.4153 49.4637 14.4074 49.4564C14.4001 49.4496 14.391 49.4456 14.382 49.4406C14.4446 49.5991 14.5107 49.7555 14.5812 49.9101C14.9074 50.1217 15.4373 50.3813 16.0773 50.3813C16.1106 50.3813 16.1444 50.3796 16.1783 50.3785C16.4356 51.1658 18.5688 52.8046 19.0683 53.1799C19.167 53.6031 19.4345 54.3825 20.1462 55.2149C20.3172 55.2815 20.4898 55.3441 20.6648 55.4017C20.6603 55.3949 20.6569 55.387 20.6507 55.3808C19.8104 54.5405 19.478 53.7025 19.3482 53.2273C20.5006 53.0094 21.526 52.3413 21.9069 52.0687C22.3883 52.2487 24.136 52.8509 26.0175 52.8509C26.1552 52.8509 26.2941 52.8458 26.4329 52.839C26.6575 53.6759 27.1987 54.2657 27.4053 54.4666C27.1885 54.7053 26.526 55.3142 25.052 55.7832C25.0316 55.7894 25.0153 55.8018 25.0012 55.8159C25.1829 55.7933 25.3629 55.7651 25.5412 55.7335C25.5898 55.7245 25.6389 55.7166 25.6868 55.707C25.754 55.694 25.8206 55.6799 25.8872 55.6658C26.0164 55.6376 26.1451 55.6082 26.2726 55.5749C26.2732 55.5749 26.2738 55.5749 26.2743 55.5744C27.333 55.0524 27.688 54.5343 27.7066 54.5061C27.71 54.501 27.7106 54.4959 27.7128 54.4908C31.7349 53.567 32.0436 50.7814 32.0599 50.0619C32.3839 49.6889 33.1468 48.6838 33.7851 46.8937C33.8054 46.7267 33.8218 46.5579 33.8348 46.3886C33.8387 46.3333 33.8438 46.278 33.8472 46.2221C33.8511 46.1595 33.854 46.0969 33.8562 46.0342C33.8619 45.8903 33.8669 45.7458 33.8669 45.5997C33.8669 45.4417 33.8624 45.2848 33.8551 45.129C33.8534 45.0873 33.8511 45.0461 33.8489 45.0049C33.841 44.8666 33.8314 44.7289 33.8178 44.5923C33.8161 44.5731 33.815 44.5545 33.8128 44.5353C33.7975 44.3847 33.7783 44.2351 33.7569 44.0861C33.7507 44.0432 33.7439 44.0009 33.7371 43.9586C33.7179 43.8378 33.6971 43.7176 33.6739 43.598C33.6677 43.5652 33.6621 43.5319 33.6553 43.4992C33.6265 43.3576 33.5944 43.217 33.5599 43.0771C33.5487 43.0319 33.5368 42.9874 33.525 42.9422C33.4973 42.8367 33.4679 42.7317 33.4369 42.6273C33.4239 42.5844 33.4121 42.541 33.3985 42.4981C33.3579 42.366 33.3144 42.2357 33.2682 42.1064C33.2512 42.0585 33.2332 42.011 33.2157 41.9636C33.1813 41.8717 33.1463 41.7797 33.1096 41.6888C33.0893 41.6386 33.0695 41.5884 33.0481 41.5387C32.9967 41.4168 32.9431 41.296 32.8872 41.177C32.8647 41.1284 32.8404 41.0805 32.8167 41.0325C32.7766 40.9501 32.7354 40.8683 32.6931 40.787C32.666 40.7345 32.6384 40.682 32.6102 40.6295C32.5486 40.5161 32.486 40.4038 32.4205 40.2932C32.4205 40.2926 32.42 40.2926 32.42 40.2921C32.5193 40.6724 32.8511 42.0398 32.5994 42.48C31.5831 42.2069 30.2715 42.1894 29.8212 42.1922C29.5627 41.4687 27.4837 39.7458 26.8516 39.3807C26.8499 39.1476 26.8031 37.1611 26.7907 36.6171C27.4718 36.5178 29.0909 36.8648 29.0909 36.8648C29.0921 36.862 29.0932 36.8598 29.0943 36.8569C27.5452 35.8739 25.7173 35.3044 23.7579 35.3044C23.7111 35.3044 23.6648 35.3073 23.618 35.3078L23.2404 35.4608ZM17.351 47.3017C17.3437 47.2746 17.329 47.2492 17.3047 47.2312C16.9198 46.9496 16.5259 44.423 16.3662 42.8824C17.3216 41.4834 18.6862 40.287 19.075 39.9591C19.2206 39.9879 22.0858 40.5624 23.1016 41.0788C23.1659 41.8372 23.64 44.2678 23.8132 44.8976C23.4069 45.2989 21.2178 47.4722 20.6507 48.2267C20.0762 47.9964 18.0152 47.4693 17.351 47.3017ZM29.8093 42.4512C30.2411 42.449 31.618 42.4653 32.6135 42.7515C32.9076 43.1471 33.6192 44.3023 33.701 46.3147C33.701 46.3147 33.7044 46.3141 33.7095 46.3136C33.0842 48.2859 32.2608 49.418 31.9036 49.8458C31.4087 49.773 29.8793 49.7278 29.3951 49.7154C29.2947 48.6719 28.5164 46.5433 28.1959 45.7007C28.8821 45.0923 29.6265 42.9907 29.8093 42.4512ZM27.956 45.8C28.2947 46.6939 29.1474 49.0331 29.1474 49.9186C29.1474 49.9276 29.1508 49.9355 29.1524 49.9445C28.7162 50.6522 26.8325 52.2149 26.4555 52.5811C24.4972 52.6872 22.5813 52.0433 22.0322 51.8401C21.8618 51.2995 21.1027 48.9118 20.8482 48.3932C21.3561 47.7052 23.5119 45.5602 23.9701 45.1064C24.5762 45.3519 27.425 45.7306 27.956 45.8ZM26.596 39.3129C25.8669 39.3682 23.5446 40.6149 23.1642 40.8214C22.1247 40.3225 19.6298 39.8073 19.1828 39.717C19.1828 39.2283 19.1828 37.9867 19.1828 37.4929C19.662 37.1041 21.1727 36.0104 23.342 35.7063C24.7292 35.8321 26.0311 36.3214 26.5334 36.5291C26.5407 36.84 26.5887 38.8609 26.596 39.3129Z" stroke="#263238" stroke-width="0.383227" mask="url(#path-26-outside-1_10_2928)"/>
<path opacity="0.1" d="M24.7346 35.3523C28.729 36.7276 31.6054 40.573 31.6054 45.1057C31.6054 50.792 27.08 55.4015 21.4976 55.4015C21.1686 55.4015 20.8435 55.384 20.5229 55.353C21.5393 55.7029 22.6274 55.8959 23.76 55.8959C29.3424 55.8959 33.8679 51.2864 33.8679 45.6001C33.8679 40.249 29.8599 35.8523 24.7346 35.3523Z" fill="#263238"/>
<path d="M14.5931 43.2366C14.3777 44.2778 12.6783 44.8074 11.8555 44.942L12.7979 39.5116L14.1892 40.4092C14.4136 40.9178 14.8085 42.1954 14.5931 43.2366Z" fill="#9F6BC9"/>
<path d="M32.246 43.2366C32.4614 44.2778 34.1609 44.8074 34.9836 44.942L34.0412 39.5116L32.6499 40.4092C32.4255 40.9178 32.0306 42.1954 32.246 43.2366Z" fill="#9F6BC9"/>
<path opacity="0.1" fill-rule="evenodd" clip-rule="evenodd" d="M32.0759 42.5281C32.2175 44.1006 33.6138 45.5756 36.5261 45.1039C39.6554 44.5975 39.2969 39.4617 39.083 37.6879C39.083 37.6879 38.6081 42.9055 35.6424 43.3993C32.6766 43.893 32.0759 42.5281 32.0759 42.5281Z" fill="black"/>
<path opacity="0.1" fill-rule="evenodd" clip-rule="evenodd" d="M14.7624 42.5281C14.6146 44.1006 13.2214 45.5756 10.3153 45.1039C7.18604 44.5975 7.54143 39.4617 7.75844 37.6879C7.75844 37.6879 8.2239 42.9055 11.1897 43.3993C14.1554 43.893 14.7624 42.5281 14.7624 42.5281Z" fill="black"/>
<path d="M8.17919 37.2065C8.04395 39.2979 7.75461 44.0312 10.4059 44.5155C11.8746 44.808 13.7742 44.4275 14.1799 42.7575C14.2665 42.3574 14.2579 41.9426 14.1546 41.5465C14.0514 41.1504 13.8564 40.7842 13.5855 40.4773C12.8415 39.7689 12.2553 38.9116 11.8652 37.9613C11.5413 37.0045 11.3425 36.0097 11.2739 35.0018C11.2682 34.9165 11.2951 34.8321 11.3494 34.766C11.4055 34.7014 11.4843 34.6608 11.5695 34.6527C11.6486 34.6462 11.7273 34.6698 11.7897 34.7188C11.8514 34.767 11.8929 34.8366 11.906 34.9138C12.0591 36.304 12.5551 37.6343 13.3496 38.7853C13.6264 39.1344 13.9786 39.4584 14.334 39.8295C14.9355 40.4595 15.2833 41.2893 15.3106 42.1599C15.3378 43.0306 15.0427 43.8806 14.4818 44.547C13.4251 45.7484 11.7048 45.8962 10.2203 45.6855C7.64453 45.2735 7.07528 42.2543 7.1319 40.0685C7.15205 39.0614 7.27002 38.0587 7.48414 37.0744C7.49586 37.0296 7.515 36.9871 7.54075 36.9486C7.58048 36.8906 7.6371 36.8462 7.70293 36.8214C7.76875 36.7967 7.8406 36.7928 7.90872 36.8102C7.99423 36.8293 8.06944 36.8798 8.11943 36.9518C8.16719 37.023 8.18834 37.1087 8.17919 37.1939" fill="#263238"/>
<path d="M39.352 37.0744C39.9338 39.8703 40.2766 44.937 36.6567 45.676C34.5653 46.0692 32.0775 45.3144 31.6247 42.9808C31.5168 42.4184 31.5438 41.8384 31.7034 41.2884C31.8631 40.7384 32.1508 40.2341 32.543 39.8169C32.9078 39.4269 33.216 39.1438 33.5274 38.7727C34.3134 37.6133 34.7977 36.2761 34.9364 34.8823C34.9432 34.841 34.9581 34.8014 34.9804 34.7659C35.004 34.7314 35.0339 34.7015 35.0685 34.6779C35.1025 34.6538 35.141 34.6367 35.1817 34.6276C35.2231 34.6181 35.2661 34.6181 35.3075 34.6276C35.3863 34.6408 35.4572 34.6835 35.5056 34.7471C35.5543 34.8108 35.5768 34.8906 35.5685 34.9704C35.506 35.979 35.3071 36.9746 34.9773 37.9298C34.5901 38.8818 34.0035 39.7397 33.2569 40.4459C32.9871 40.7556 32.794 41.1247 32.6935 41.523C32.5929 41.9214 32.5877 42.3379 32.6782 42.7386C33.0273 44.4118 34.971 44.7608 36.4523 44.4967C39.0941 44.0123 38.8111 39.2791 38.6538 37.1876C38.6641 37.1116 38.697 37.0404 38.7482 36.9832C38.8007 36.9268 38.8703 36.8893 38.9463 36.8763C39.0222 36.8629 39.1003 36.8739 39.1696 36.9077C39.239 36.9424 39.2953 36.9987 39.33 37.0681L39.352 37.0744Z" fill="#263238"/>
</svg>
