<svg width="295" height="260" viewBox="0 0 295 260" fill="none" xmlns="http://www.w3.org/2000/svg">
<path d="M36.7122 0L0 0L51.9625 254.843L88.9932 254.843H147.526L170.063 110.673C170.859 107.077 172.73 103.827 175.438 101.487C178.504 98.8002 182.366 97.5001 186.308 97.8035C190.21 98.1068 193.874 100.014 196.542 103.134C199.209 106.253 200.683 110.37 200.683 114.617V178.967C200.683 189.627 202.594 200.157 206.377 209.993C210.119 219.83 215.614 228.757 222.543 236.297C229.471 243.837 237.713 249.773 246.752 253.847C255.791 257.92 265.506 260 275.341 260C285.176 260 294.852 257.92 303.931 253.847C313.009 249.773 321.212 243.793 328.14 236.297C335.068 228.8 340.563 219.83 344.306 209.993C348.049 200.157 350 189.627 350 178.967L350 0.000160386L312.969 0.000160386L312.969 178.967C312.969 184.34 312.014 189.627 310.102 194.61C308.191 199.594 305.444 204.057 301.94 207.87C298.436 211.684 294.295 214.673 289.716 216.71C285.137 218.747 280.239 219.83 275.301 219.83C270.364 219.83 265.466 218.79 260.887 216.71C256.308 214.673 252.167 211.64 248.663 207.87C245.159 204.057 242.412 199.594 240.501 194.61C238.589 189.627 237.634 184.34 237.634 178.967V114.617C237.634 100.187 232.617 86.3201 223.578 75.7468C214.539 65.1735 202.156 58.7168 188.896 57.6768C175.637 56.6368 162.537 61.0568 152.184 70.1134C142.668 78.4334 136.138 90.0036 133.669 102.917L133.629 103.047C133.43 104.13 133.231 105.257 133.072 106.383L117.582 208.78C117.423 211.9 115.114 214.413 112.207 214.587L85.3299 214.587C85.2503 214.587 85.1308 214.587 85.0512 214.587C82.025 214.587 79.5563 211.987 79.397 208.78L36.7122 0Z" fill="#7DF17B" fill-opacity="0.1"/>
</svg>
