<svg width="47" height="57" viewBox="0 0 47 57" fill="none" xmlns="http://www.w3.org/2000/svg">
<path d="M36.1924 8.59965C36.1924 8.59965 39.5639 8.0933 40.0356 5.76912C40.5074 3.44495 40.2841 0.963522 43.7436 1.36609C47.2031 1.76865 47.2566 4.82562 46.2596 8.59965C45.2626 12.3737 41.6522 15.4841 39.7368 16.6321" fill="#263238"/>
<path d="M43.1645 5.69985C44.2433 5.99548 45.2968 5.58663 45.5264 4.75634C45.756 3.92605 45.061 3.02343 43.9822 2.73409C42.9035 2.44475 41.8184 2.63974 41.614 3.6776C41.4096 4.71546 42.0858 5.40422 43.1645 5.69985Z" fill="#9F6BC9"/>
<path d="M11.1927 7.7033C11.1927 7.7033 7.73315 7.17809 7.37147 4.11483C7.00979 1.05157 5.03157 0.042013 3.12883 0.696179C1.22609 1.35034 -0.239494 8.6877 6.29902 14.4305L11.1927 7.7033Z" fill="#263238"/>
<path fill-rule="evenodd" clip-rule="evenodd" d="M37.9318 53.809C35.29 53.809 33.5696 51.9472 32.4846 49.1544C29.5183 49.8742 26.4726 50.2145 23.4206 50.1671C20.3676 50.2147 17.3208 49.8744 14.3535 49.1544C13.2685 51.9472 11.5544 53.809 8.90318 53.809C3.43083 53.809 0.990291 43.2763 0.943115 32.8034C0.943115 26.6769 1.75768 20.5661 3.31447 16.6222C3.49688 16.163 3.68558 15.7322 3.88686 15.3359C8.74907 5.61778 15.3851 3.69931 23.4426 3.69931C31.5002 3.69931 38.0733 5.58633 42.9418 15.3359C47.8103 25.0855 46.9737 53.8027 37.9098 53.8027" fill="#9F6BC9"/>
<path opacity="0.1" fill-rule="evenodd" clip-rule="evenodd" d="M37.9293 53.8091C35.2874 53.8091 33.5671 51.9472 32.4821 49.1544C29.5158 49.8743 26.4701 50.2146 23.4181 50.1671C20.1584 50.1424 16.9139 49.72 13.7566 48.9091C13.7566 48.9091 15.1058 45.7641 18.0936 45.9245C21.0814 46.0849 38.1526 48.2141 39.2156 41.7227C40.2786 35.2314 45.3641 18.6602 31.0731 4.55478C35.7372 5.90085 39.7282 8.88863 42.9519 15.3422C47.8141 25.0321 46.9838 53.8091 37.9198 53.8091" fill="black"/>
<path d="M32.4701 48.5159C32.598 48.5186 32.7224 48.5579 32.8286 48.6291C32.9334 48.7017 33.0162 48.8018 33.0677 48.9184C34.181 51.7773 35.7661 53.1674 37.9173 53.1674C39.386 53.1674 40.6944 52.249 41.814 50.469C43.9117 47.0975 45.1855 40.5841 45.2389 33.121C45.2861 25.9597 44.1822 19.2577 42.3675 15.6315C37.6814 6.24671 31.3976 4.33139 23.4061 4.33139C15.4146 4.33139 9.14658 6.253 4.46049 15.6032C2.63952 19.2325 1.53876 25.9346 1.57965 33.0958C1.66142 40.559 2.90999 47.0314 5.03918 50.4438C6.15251 52.249 7.46714 53.1391 8.92957 53.1391C11.0808 53.1391 12.6722 51.7521 13.7824 48.8933C13.8402 48.7442 13.9527 48.6228 14.0969 48.5536C14.2365 48.4811 14.3987 48.4653 14.5497 48.5096C17.4572 49.218 20.4421 49.5593 23.4344 49.5255C26.431 49.5693 29.4213 49.2365 32.3349 48.5348C32.3885 48.5221 32.4433 48.5158 32.4984 48.5159M37.9456 54.4474C35.3887 54.4474 33.4262 52.9252 32.1116 49.9091C29.2634 50.5415 26.3518 50.8433 23.4344 50.8086C20.515 50.8432 17.6014 50.5413 14.751 49.9091C13.4364 52.9252 11.4802 54.4474 8.91699 54.4474C6.97651 54.4474 5.29707 53.3278 3.93527 51.1168C-0.961536 43.2071 -0.612438 22.8587 3.31256 15.0308C8.58677 4.49807 16.0908 3.04822 23.4187 3.04822C30.7466 3.04822 38.2538 4.49807 43.5249 15.0308C47.4436 22.8587 47.799 43.2071 42.8959 51.1168C41.5498 53.3278 39.8703 54.4474 37.9299 54.4474H37.9456Z" fill="#263238"/>
<path fill-rule="evenodd" clip-rule="evenodd" d="M31.5279 18.5188C31.5279 22.969 30.1347 26.6109 23.7094 26.6109C17.2841 26.6109 15.9978 22.9816 15.9978 18.5188C15.9978 14.056 18.6616 10.3857 23.7723 10.3857C28.883 10.3857 31.5279 14.0811 31.5279 18.5188Z" fill="white"/>
<path d="M23.7728 11.0464C18.5049 11.0464 16.6367 15.0909 16.6367 18.5378C16.6367 22.3874 17.4953 25.9538 23.7193 25.9538C30.0503 25.9538 30.8994 22.2049 30.8994 18.5378C30.8994 15.0783 29.0313 11.0401 23.7728 11.0401V11.0464ZM23.7193 27.2276C16.3002 27.2276 15.3567 22.5761 15.3567 18.5315C15.3567 13.2856 18.7282 9.76636 23.7728 9.76636C28.8174 9.76636 32.1857 13.2919 32.1857 18.5315C32.1857 22.2647 31.3303 27.2276 23.7193 27.2276Z" fill="#263238"/>
<path fill-rule="evenodd" clip-rule="evenodd" d="M28.4639 20.6542C27.9465 21.9655 26.9323 23.0194 25.6418 23.5866C24.3513 24.1538 22.889 24.1884 21.5732 23.6829C20.8069 23.3539 20.1345 22.8396 19.6163 22.1864C19.098 21.5331 18.7503 20.7613 18.6042 19.9403L22.7808 17.9778L19.0068 16.5971C19.5369 15.3055 20.5513 14.2724 21.8331 13.7188C23.1148 13.1652 24.5623 13.1349 25.8661 13.6345C27.1435 14.2193 28.1367 15.2871 28.6274 16.6034C28.8648 17.2567 28.9717 17.9502 28.942 18.6446C28.9163 19.3401 28.7516 20.0234 28.4576 20.6542" fill="#263238"/>
<path d="M5.96688 3.81292C6.07381 4.92626 5.52029 5.90122 4.70887 5.9767C3.89745 6.05218 3.15837 5.22818 3.04829 4.08968C2.93822 2.95118 3.2999 1.94477 4.3063 1.9259C5.31271 1.90703 5.8568 2.687 5.96688 3.81292Z" fill="#9F6BC9"/>
<path fill-rule="evenodd" clip-rule="evenodd" d="M31.8651 28.9229L31.6921 29.0549C31.0631 29.4952 30.3429 29.7311 29.6698 30.1809L29.6069 30.2217L29.7548 31.2816C29.7778 31.4378 29.8301 31.5882 29.9089 31.7251C29.9891 31.8612 30.0954 31.9802 30.2217 32.0751C30.348 32.1701 30.4917 32.2393 30.6448 32.2786C30.7964 32.3193 30.9548 32.329 31.1103 32.3069C31.2667 32.2847 31.4173 32.2324 31.5537 32.1528C31.6896 32.0707 31.8091 31.9641 31.9059 31.8383C32.0015 31.7127 32.0711 31.5693 32.1105 31.4164C32.1499 31.2636 32.1584 31.1044 32.1355 30.9483L31.8651 28.9229Z" fill="white"/>
<path fill-rule="evenodd" clip-rule="evenodd" d="M27.9928 30.7403C27.3073 30.9192 26.6033 31.0174 25.895 31.0328L25.9768 32.1776C26.0072 32.4902 26.1581 32.7788 26.3977 32.9819C26.6373 33.1851 26.9466 33.2869 27.26 33.2658C27.5745 33.2447 27.8683 33.1012 28.0782 32.866C28.2881 32.6308 28.3974 32.3227 28.3827 32.0078L28.2821 30.6208C28.1888 30.6679 28.0921 30.7078 27.9928 30.7403Z" fill="white"/>
<path fill-rule="evenodd" clip-rule="evenodd" d="M24.3645 30.9698V32.319C24.377 32.484 24.3556 32.6499 24.3016 32.8064C24.2456 32.9634 24.159 33.1078 24.0468 33.231C23.9336 33.3529 23.7966 33.4503 23.6443 33.5172C23.4926 33.5837 23.3287 33.6179 23.1631 33.6179C22.9965 33.6176 22.8317 33.5833 22.6788 33.5172C22.5261 33.4505 22.3889 33.3529 22.2758 33.2306C22.1626 33.1082 22.076 32.9638 22.0214 32.8064C21.9675 32.6499 21.946 32.484 21.9585 32.319V30.9698H24.3645Z" fill="white"/>
<path fill-rule="evenodd" clip-rule="evenodd" d="M20.5017 30.6747L20.4262 31.7282C20.4153 31.8858 20.3734 32.0397 20.303 32.181C20.2326 32.3224 20.135 32.4486 20.0159 32.5522C19.8967 32.6559 19.7583 32.7351 19.6086 32.7853C19.4588 32.8355 19.3006 32.8557 19.1431 32.8447C18.9855 32.8338 18.8316 32.7919 18.6902 32.7215C18.5489 32.6511 18.4227 32.5535 18.3191 32.4344C18.2154 32.3152 18.1362 32.1768 18.086 32.0271C18.0358 31.8773 18.0156 31.7191 18.0266 31.5615L18.1083 30.4482L20.5017 30.6747Z" fill="white"/>
<path d="M34.114 26.8031C32.4501 29.0248 30.1071 30.6434 27.4403 31.4137C23.8676 32.2974 20.103 31.6432 16.6529 30.5236C15.797 30.2185 14.9572 29.87 14.1368 29.4795C14.0656 29.4461 14.0023 29.3978 13.9513 29.338C13.8979 29.2799 13.8572 29.2113 13.8318 29.1367C13.8072 29.0627 13.7965 28.9849 13.8003 28.9071C13.8057 28.8295 13.826 28.7537 13.8601 28.6838C13.8934 28.6133 13.9404 28.5502 13.9985 28.4982C14.0571 28.4456 14.1255 28.405 14.1997 28.3787C14.2746 28.3537 14.3538 28.344 14.4325 28.3504C14.5104 28.3557 14.5865 28.3772 14.6558 28.4133C15.4326 28.7813 16.2283 29.1084 17.0428 29.3977C20.2665 30.4544 23.8172 31.1715 27.1572 30.423C29.651 29.7622 31.8892 28.3687 33.5825 26.4225C33.6362 26.3657 33.7091 26.331 33.787 26.325C33.8652 26.3167 33.9438 26.338 34.0071 26.3848C34.072 26.4295 34.1177 26.4971 34.1352 26.5739C34.1527 26.6508 34.1406 26.7315 34.1015 26.7999L34.114 26.8031Z" fill="#263238"/>
<path d="M23.7617 55.6265C29.3441 55.6265 33.8696 51.0879 33.8696 45.4894C33.8696 39.8908 29.3441 35.3523 23.7617 35.3523C18.1793 35.3523 13.6538 39.8908 13.6538 45.4894C13.6538 51.0879 18.1793 55.6265 23.7617 55.6265Z" fill="white" stroke="#263238" stroke-width="0.958068"/>
<mask id="path-17-outside-1_10_2940" maskUnits="userSpaceOnUse" x="12.7612" y="34.3044" width="22" height="22" fill="black">
<rect fill="white" x="12.7612" y="34.3044" width="22" height="22"/>
<path d="M23.2404 35.4608C20.9351 35.8016 19.3979 36.9709 18.9661 37.3355C17.9294 37.6064 16.5592 38.4343 16.4356 38.5093C16.3561 38.5945 16.2776 38.6814 16.2003 38.7689C16.1659 38.809 16.132 38.8491 16.0976 38.8897C16.0468 38.9495 15.9954 39.0088 15.9458 39.0697C15.0626 40.2356 14.7263 41.598 14.6297 42.0788L13.8961 43.3553C13.8724 43.4648 13.8504 43.5748 13.8295 43.6854C13.8222 43.7261 13.8148 43.7673 13.8081 43.8085C13.7917 43.9033 13.7748 43.9975 13.7612 44.0929C13.7714 44.0839 13.781 44.0731 13.7883 44.0607L14.7505 42.3869C15.0592 42.5517 15.7573 42.7808 16.1072 42.8914C16.1489 43.2938 16.5039 46.594 17.0525 47.3339C16.7268 47.7447 16.2065 49.3345 16.1557 50.12C15.1636 50.155 14.4153 49.4637 14.4074 49.4564C14.4001 49.4496 14.391 49.4456 14.382 49.4406C14.4446 49.5991 14.5107 49.7555 14.5812 49.9101C14.9074 50.1217 15.4373 50.3813 16.0773 50.3813C16.1106 50.3813 16.1444 50.3796 16.1783 50.3785C16.4356 51.1658 18.5688 52.8046 19.0683 53.1799C19.167 53.6031 19.4345 54.3825 20.1462 55.2149C20.3172 55.2815 20.4898 55.3441 20.6648 55.4017C20.6603 55.3949 20.6569 55.387 20.6507 55.3808C19.8104 54.5405 19.478 53.7025 19.3482 53.2273C20.5006 53.0094 21.526 52.3413 21.9069 52.0687C22.3883 52.2487 24.136 52.8509 26.0175 52.8509C26.1552 52.8509 26.2941 52.8458 26.4329 52.839C26.6575 53.6759 27.1987 54.2657 27.4053 54.4666C27.1885 54.7053 26.526 55.3142 25.052 55.7832C25.0316 55.7894 25.0153 55.8018 25.0012 55.8159C25.1829 55.7933 25.3629 55.7651 25.5412 55.7335C25.5898 55.7245 25.6389 55.7166 25.6868 55.707C25.754 55.694 25.8206 55.6799 25.8872 55.6658C26.0164 55.6376 26.1451 55.6082 26.2726 55.5749C26.2732 55.5749 26.2738 55.5749 26.2743 55.5744C27.333 55.0524 27.688 54.5343 27.7066 54.5061C27.71 54.501 27.7106 54.4959 27.7128 54.4908C31.7349 53.567 32.0436 50.7814 32.0599 50.0619C32.3839 49.6889 33.1468 48.6838 33.7851 46.8937C33.8054 46.7267 33.8218 46.5579 33.8348 46.3886C33.8387 46.3333 33.8438 46.278 33.8472 46.2221C33.8511 46.1595 33.854 46.0969 33.8562 46.0342C33.8619 45.8903 33.8669 45.7458 33.8669 45.5997C33.8669 45.4417 33.8624 45.2848 33.8551 45.129C33.8534 45.0873 33.8511 45.0461 33.8489 45.0049C33.841 44.8666 33.8314 44.7289 33.8178 44.5923C33.8161 44.5731 33.815 44.5545 33.8128 44.5353C33.7975 44.3847 33.7783 44.2351 33.7569 44.0861C33.7507 44.0432 33.7439 44.0009 33.7371 43.9586C33.7179 43.8378 33.6971 43.7176 33.6739 43.598C33.6677 43.5652 33.6621 43.5319 33.6553 43.4992C33.6265 43.3576 33.5944 43.217 33.5599 43.0771C33.5487 43.0319 33.5368 42.9874 33.525 42.9422C33.4973 42.8367 33.4679 42.7317 33.4369 42.6273C33.4239 42.5844 33.4121 42.541 33.3985 42.4981C33.3579 42.366 33.3144 42.2357 33.2682 42.1064C33.2512 42.0585 33.2332 42.011 33.2157 41.9636C33.1813 41.8717 33.1463 41.7797 33.1096 41.6888C33.0893 41.6386 33.0695 41.5884 33.0481 41.5387C32.9967 41.4168 32.9431 41.296 32.8872 41.177C32.8647 41.1284 32.8404 41.0805 32.8167 41.0325C32.7766 40.9501 32.7354 40.8683 32.6931 40.787C32.666 40.7345 32.6384 40.682 32.6102 40.6295C32.5486 40.5161 32.486 40.4038 32.4205 40.2932C32.4205 40.2926 32.42 40.2926 32.42 40.2921C32.5193 40.6724 32.8511 42.0398 32.5994 42.48C31.5831 42.2069 30.2715 42.1894 29.8212 42.1922C29.5627 41.4687 27.4837 39.7458 26.8516 39.3807C26.8499 39.1476 26.8031 37.1611 26.7907 36.6171C27.4718 36.5178 29.0909 36.8648 29.0909 36.8648C29.0921 36.862 29.0932 36.8598 29.0943 36.8569C27.5452 35.8739 25.7173 35.3044 23.7579 35.3044C23.7111 35.3044 23.6648 35.3073 23.618 35.3078L23.2404 35.4608ZM17.351 47.3017C17.3437 47.2746 17.329 47.2492 17.3047 47.2312C16.9198 46.9496 16.5259 44.423 16.3662 42.8824C17.3216 41.4834 18.6862 40.287 19.075 39.9591C19.2206 39.9879 22.0858 40.5624 23.1016 41.0788C23.1659 41.8372 23.64 44.2678 23.8132 44.8976C23.4069 45.2989 21.2178 47.4722 20.6507 48.2267C20.0762 47.9964 18.0152 47.4693 17.351 47.3017ZM29.8093 42.4512C30.2411 42.449 31.618 42.4653 32.6135 42.7515C32.9076 43.1471 33.6192 44.3023 33.701 46.3147C33.701 46.3147 33.7044 46.3141 33.7095 46.3136C33.0842 48.2859 32.2608 49.418 31.9036 49.8458C31.4087 49.773 29.8793 49.7278 29.3951 49.7154C29.2947 48.6719 28.5164 46.5433 28.1959 45.7007C28.8821 45.0923 29.6265 42.9907 29.8093 42.4512ZM27.956 45.8C28.2947 46.6939 29.1474 49.0331 29.1474 49.9186C29.1474 49.9276 29.1508 49.9355 29.1524 49.9445C28.7162 50.6522 26.8325 52.2149 26.4555 52.5811C24.4972 52.6872 22.5813 52.0433 22.0322 51.8401C21.8618 51.2995 21.1027 48.9118 20.8482 48.3932C21.3561 47.7052 23.5119 45.5602 23.9701 45.1064C24.5762 45.3519 27.425 45.7306 27.956 45.8ZM26.596 39.3129C25.8669 39.3682 23.5446 40.6149 23.1642 40.8214C22.1247 40.3225 19.6298 39.8073 19.1828 39.717C19.1828 39.2283 19.1828 37.9867 19.1828 37.4929C19.662 37.1041 21.1727 36.0104 23.342 35.7063C24.7292 35.8321 26.0311 36.3214 26.5334 36.5291C26.5407 36.84 26.5887 38.8609 26.596 39.3129Z"/>
</mask>
<path d="M23.2404 35.4608C20.9351 35.8016 19.3979 36.9709 18.9661 37.3355C17.9294 37.6064 16.5592 38.4343 16.4356 38.5093C16.3561 38.5945 16.2776 38.6814 16.2003 38.7689C16.1659 38.809 16.132 38.8491 16.0976 38.8897C16.0468 38.9495 15.9954 39.0088 15.9458 39.0697C15.0626 40.2356 14.7263 41.598 14.6297 42.0788L13.8961 43.3553C13.8724 43.4648 13.8504 43.5748 13.8295 43.6854C13.8222 43.7261 13.8148 43.7673 13.8081 43.8085C13.7917 43.9033 13.7748 43.9975 13.7612 44.0929C13.7714 44.0839 13.781 44.0731 13.7883 44.0607L14.7505 42.3869C15.0592 42.5517 15.7573 42.7808 16.1072 42.8914C16.1489 43.2938 16.5039 46.594 17.0525 47.3339C16.7268 47.7447 16.2065 49.3345 16.1557 50.12C15.1636 50.155 14.4153 49.4637 14.4074 49.4564C14.4001 49.4496 14.391 49.4456 14.382 49.4406C14.4446 49.5991 14.5107 49.7555 14.5812 49.9101C14.9074 50.1217 15.4373 50.3813 16.0773 50.3813C16.1106 50.3813 16.1444 50.3796 16.1783 50.3785C16.4356 51.1658 18.5688 52.8046 19.0683 53.1799C19.167 53.6031 19.4345 54.3825 20.1462 55.2149C20.3172 55.2815 20.4898 55.3441 20.6648 55.4017C20.6603 55.3949 20.6569 55.387 20.6507 55.3808C19.8104 54.5405 19.478 53.7025 19.3482 53.2273C20.5006 53.0094 21.526 52.3413 21.9069 52.0687C22.3883 52.2487 24.136 52.8509 26.0175 52.8509C26.1552 52.8509 26.2941 52.8458 26.4329 52.839C26.6575 53.6759 27.1987 54.2657 27.4053 54.4666C27.1885 54.7053 26.526 55.3142 25.052 55.7832C25.0316 55.7894 25.0153 55.8018 25.0012 55.8159C25.1829 55.7933 25.3629 55.7651 25.5412 55.7335C25.5898 55.7245 25.6389 55.7166 25.6868 55.707C25.754 55.694 25.8206 55.6799 25.8872 55.6658C26.0164 55.6376 26.1451 55.6082 26.2726 55.5749C26.2732 55.5749 26.2738 55.5749 26.2743 55.5744C27.333 55.0524 27.688 54.5343 27.7066 54.5061C27.71 54.501 27.7106 54.4959 27.7128 54.4908C31.7349 53.567 32.0436 50.7814 32.0599 50.0619C32.3839 49.6889 33.1468 48.6838 33.7851 46.8937C33.8054 46.7267 33.8218 46.5579 33.8348 46.3886C33.8387 46.3333 33.8438 46.278 33.8472 46.2221C33.8511 46.1595 33.854 46.0969 33.8562 46.0342C33.8619 45.8903 33.8669 45.7458 33.8669 45.5997C33.8669 45.4417 33.8624 45.2848 33.8551 45.129C33.8534 45.0873 33.8511 45.0461 33.8489 45.0049C33.841 44.8666 33.8314 44.7289 33.8178 44.5923C33.8161 44.5731 33.815 44.5545 33.8128 44.5353C33.7975 44.3847 33.7783 44.2351 33.7569 44.0861C33.7507 44.0432 33.7439 44.0009 33.7371 43.9586C33.7179 43.8378 33.6971 43.7176 33.6739 43.598C33.6677 43.5652 33.6621 43.5319 33.6553 43.4992C33.6265 43.3576 33.5944 43.217 33.5599 43.0771C33.5487 43.0319 33.5368 42.9874 33.525 42.9422C33.4973 42.8367 33.4679 42.7317 33.4369 42.6273C33.4239 42.5844 33.4121 42.541 33.3985 42.4981C33.3579 42.366 33.3144 42.2357 33.2682 42.1064C33.2512 42.0585 33.2332 42.011 33.2157 41.9636C33.1813 41.8717 33.1463 41.7797 33.1096 41.6888C33.0893 41.6386 33.0695 41.5884 33.0481 41.5387C32.9967 41.4168 32.9431 41.296 32.8872 41.177C32.8647 41.1284 32.8404 41.0805 32.8167 41.0325C32.7766 40.9501 32.7354 40.8683 32.6931 40.787C32.666 40.7345 32.6384 40.682 32.6102 40.6295C32.5486 40.5161 32.486 40.4038 32.4205 40.2932C32.4205 40.2926 32.42 40.2926 32.42 40.2921C32.5193 40.6724 32.8511 42.0398 32.5994 42.48C31.5831 42.2069 30.2715 42.1894 29.8212 42.1922C29.5627 41.4687 27.4837 39.7458 26.8516 39.3807C26.8499 39.1476 26.8031 37.1611 26.7907 36.6171C27.4718 36.5178 29.0909 36.8648 29.0909 36.8648C29.0921 36.862 29.0932 36.8598 29.0943 36.8569C27.5452 35.8739 25.7173 35.3044 23.7579 35.3044C23.7111 35.3044 23.6648 35.3073 23.618 35.3078L23.2404 35.4608ZM17.351 47.3017C17.3437 47.2746 17.329 47.2492 17.3047 47.2312C16.9198 46.9496 16.5259 44.423 16.3662 42.8824C17.3216 41.4834 18.6862 40.287 19.075 39.9591C19.2206 39.9879 22.0858 40.5624 23.1016 41.0788C23.1659 41.8372 23.64 44.2678 23.8132 44.8976C23.4069 45.2989 21.2178 47.4722 20.6507 48.2267C20.0762 47.9964 18.0152 47.4693 17.351 47.3017ZM29.8093 42.4512C30.2411 42.449 31.618 42.4653 32.6135 42.7515C32.9076 43.1471 33.6192 44.3023 33.701 46.3147C33.701 46.3147 33.7044 46.3141 33.7095 46.3136C33.0842 48.2859 32.2608 49.418 31.9036 49.8458C31.4087 49.773 29.8793 49.7278 29.3951 49.7154C29.2947 48.6719 28.5164 46.5433 28.1959 45.7007C28.8821 45.0923 29.6265 42.9907 29.8093 42.4512ZM27.956 45.8C28.2947 46.6939 29.1474 49.0331 29.1474 49.9186C29.1474 49.9276 29.1508 49.9355 29.1524 49.9445C28.7162 50.6522 26.8325 52.2149 26.4555 52.5811C24.4972 52.6872 22.5813 52.0433 22.0322 51.8401C21.8618 51.2995 21.1027 48.9118 20.8482 48.3932C21.3561 47.7052 23.5119 45.5602 23.9701 45.1064C24.5762 45.3519 27.425 45.7306 27.956 45.8ZM26.596 39.3129C25.8669 39.3682 23.5446 40.6149 23.1642 40.8214C22.1247 40.3225 19.6298 39.8073 19.1828 39.717C19.1828 39.2283 19.1828 37.9867 19.1828 37.4929C19.662 37.1041 21.1727 36.0104 23.342 35.7063C24.7292 35.8321 26.0311 36.3214 26.5334 36.5291C26.5407 36.84 26.5887 38.8609 26.596 39.3129Z" fill="#263238"/>
<path d="M23.2404 35.4608C20.9351 35.8016 19.3979 36.9709 18.9661 37.3355C17.9294 37.6064 16.5592 38.4343 16.4356 38.5093C16.3561 38.5945 16.2776 38.6814 16.2003 38.7689C16.1659 38.809 16.132 38.8491 16.0976 38.8897C16.0468 38.9495 15.9954 39.0088 15.9458 39.0697C15.0626 40.2356 14.7263 41.598 14.6297 42.0788L13.8961 43.3553C13.8724 43.4648 13.8504 43.5748 13.8295 43.6854C13.8222 43.7261 13.8148 43.7673 13.8081 43.8085C13.7917 43.9033 13.7748 43.9975 13.7612 44.0929C13.7714 44.0839 13.781 44.0731 13.7883 44.0607L14.7505 42.3869C15.0592 42.5517 15.7573 42.7808 16.1072 42.8914C16.1489 43.2938 16.5039 46.594 17.0525 47.3339C16.7268 47.7447 16.2065 49.3345 16.1557 50.12C15.1636 50.155 14.4153 49.4637 14.4074 49.4564C14.4001 49.4496 14.391 49.4456 14.382 49.4406C14.4446 49.5991 14.5107 49.7555 14.5812 49.9101C14.9074 50.1217 15.4373 50.3813 16.0773 50.3813C16.1106 50.3813 16.1444 50.3796 16.1783 50.3785C16.4356 51.1658 18.5688 52.8046 19.0683 53.1799C19.167 53.6031 19.4345 54.3825 20.1462 55.2149C20.3172 55.2815 20.4898 55.3441 20.6648 55.4017C20.6603 55.3949 20.6569 55.387 20.6507 55.3808C19.8104 54.5405 19.478 53.7025 19.3482 53.2273C20.5006 53.0094 21.526 52.3413 21.9069 52.0687C22.3883 52.2487 24.136 52.8509 26.0175 52.8509C26.1552 52.8509 26.2941 52.8458 26.4329 52.839C26.6575 53.6759 27.1987 54.2657 27.4053 54.4666C27.1885 54.7053 26.526 55.3142 25.052 55.7832C25.0316 55.7894 25.0153 55.8018 25.0012 55.8159C25.1829 55.7933 25.3629 55.7651 25.5412 55.7335C25.5898 55.7245 25.6389 55.7166 25.6868 55.707C25.754 55.694 25.8206 55.6799 25.8872 55.6658C26.0164 55.6376 26.1451 55.6082 26.2726 55.5749C26.2732 55.5749 26.2738 55.5749 26.2743 55.5744C27.333 55.0524 27.688 54.5343 27.7066 54.5061C27.71 54.501 27.7106 54.4959 27.7128 54.4908C31.7349 53.567 32.0436 50.7814 32.0599 50.0619C32.3839 49.6889 33.1468 48.6838 33.7851 46.8937C33.8054 46.7267 33.8218 46.5579 33.8348 46.3886C33.8387 46.3333 33.8438 46.278 33.8472 46.2221C33.8511 46.1595 33.854 46.0969 33.8562 46.0342C33.8619 45.8903 33.8669 45.7458 33.8669 45.5997C33.8669 45.4417 33.8624 45.2848 33.8551 45.129C33.8534 45.0873 33.8511 45.0461 33.8489 45.0049C33.841 44.8666 33.8314 44.7289 33.8178 44.5923C33.8161 44.5731 33.815 44.5545 33.8128 44.5353C33.7975 44.3847 33.7783 44.2351 33.7569 44.0861C33.7507 44.0432 33.7439 44.0009 33.7371 43.9586C33.7179 43.8378 33.6971 43.7176 33.6739 43.598C33.6677 43.5652 33.6621 43.5319 33.6553 43.4992C33.6265 43.3576 33.5944 43.217 33.5599 43.0771C33.5487 43.0319 33.5368 42.9874 33.525 42.9422C33.4973 42.8367 33.4679 42.7317 33.4369 42.6273C33.4239 42.5844 33.4121 42.541 33.3985 42.4981C33.3579 42.366 33.3144 42.2357 33.2682 42.1064C33.2512 42.0585 33.2332 42.011 33.2157 41.9636C33.1813 41.8717 33.1463 41.7797 33.1096 41.6888C33.0893 41.6386 33.0695 41.5884 33.0481 41.5387C32.9967 41.4168 32.9431 41.296 32.8872 41.177C32.8647 41.1284 32.8404 41.0805 32.8167 41.0325C32.7766 40.9501 32.7354 40.8683 32.6931 40.787C32.666 40.7345 32.6384 40.682 32.6102 40.6295C32.5486 40.5161 32.486 40.4038 32.4205 40.2932C32.4205 40.2926 32.42 40.2926 32.42 40.2921C32.5193 40.6724 32.8511 42.0398 32.5994 42.48C31.5831 42.2069 30.2715 42.1894 29.8212 42.1922C29.5627 41.4687 27.4837 39.7458 26.8516 39.3807C26.8499 39.1476 26.8031 37.1611 26.7907 36.6171C27.4718 36.5178 29.0909 36.8648 29.0909 36.8648C29.0921 36.862 29.0932 36.8598 29.0943 36.8569C27.5452 35.8739 25.7173 35.3044 23.7579 35.3044C23.7111 35.3044 23.6648 35.3073 23.618 35.3078L23.2404 35.4608ZM17.351 47.3017C17.3437 47.2746 17.329 47.2492 17.3047 47.2312C16.9198 46.9496 16.5259 44.423 16.3662 42.8824C17.3216 41.4834 18.6862 40.287 19.075 39.9591C19.2206 39.9879 22.0858 40.5624 23.1016 41.0788C23.1659 41.8372 23.64 44.2678 23.8132 44.8976C23.4069 45.2989 21.2178 47.4722 20.6507 48.2267C20.0762 47.9964 18.0152 47.4693 17.351 47.3017ZM29.8093 42.4512C30.2411 42.449 31.618 42.4653 32.6135 42.7515C32.9076 43.1471 33.6192 44.3023 33.701 46.3147C33.701 46.3147 33.7044 46.3141 33.7095 46.3136C33.0842 48.2859 32.2608 49.418 31.9036 49.8458C31.4087 49.773 29.8793 49.7278 29.3951 49.7154C29.2947 48.6719 28.5164 46.5433 28.1959 45.7007C28.8821 45.0923 29.6265 42.9907 29.8093 42.4512ZM27.956 45.8C28.2947 46.6939 29.1474 49.0331 29.1474 49.9186C29.1474 49.9276 29.1508 49.9355 29.1524 49.9445C28.7162 50.6522 26.8325 52.2149 26.4555 52.5811C24.4972 52.6872 22.5813 52.0433 22.0322 51.8401C21.8618 51.2995 21.1027 48.9118 20.8482 48.3932C21.3561 47.7052 23.5119 45.5602 23.9701 45.1064C24.5762 45.3519 27.425 45.7306 27.956 45.8ZM26.596 39.3129C25.8669 39.3682 23.5446 40.6149 23.1642 40.8214C22.1247 40.3225 19.6298 39.8073 19.1828 39.717C19.1828 39.2283 19.1828 37.9867 19.1828 37.4929C19.662 37.1041 21.1727 36.0104 23.342 35.7063C24.7292 35.8321 26.0311 36.3214 26.5334 36.5291C26.5407 36.84 26.5887 38.8609 26.596 39.3129Z" stroke="#263238" stroke-width="0.383227" mask="url(#path-17-outside-1_10_2940)"/>
<path opacity="0.1" d="M24.7346 35.3523C28.729 36.7276 31.6054 40.573 31.6054 45.1057C31.6054 50.792 27.08 55.4015 21.4976 55.4015C21.1686 55.4015 20.8435 55.384 20.5229 55.353C21.5393 55.7029 22.6274 55.8959 23.76 55.8959C29.3424 55.8959 33.8679 51.2864 33.8679 45.6001C33.8679 40.249 29.8599 35.8523 24.7346 35.3523Z" fill="#263238"/>
<path d="M14.5931 43.2366C14.3777 44.2778 12.6783 44.8074 11.8555 44.942L12.7979 39.5116L14.1892 40.4092C14.4136 40.9178 14.8085 42.1954 14.5931 43.2366Z" fill="#9F6BC9"/>
<path d="M32.246 43.2366C32.4614 44.2778 34.1609 44.8074 34.9836 44.942L34.0412 39.5116L32.6499 40.4092C32.4255 40.9178 32.0306 42.1954 32.246 43.2366Z" fill="#9F6BC9"/>
<path opacity="0.1" fill-rule="evenodd" clip-rule="evenodd" d="M32.0759 42.5281C32.2175 44.1006 33.6138 45.5756 36.5261 45.1039C39.6554 44.5975 39.2969 39.4617 39.083 37.6879C39.083 37.6879 38.6081 42.9055 35.6424 43.3993C32.6766 43.893 32.0759 42.5281 32.0759 42.5281Z" fill="black"/>
<path opacity="0.1" fill-rule="evenodd" clip-rule="evenodd" d="M14.7624 42.5281C14.6146 44.1006 13.2214 45.5756 10.3153 45.1039C7.18604 44.5975 7.54143 39.4617 7.75844 37.6879C7.75844 37.6879 8.2239 42.9055 11.1897 43.3993C14.1554 43.893 14.7624 42.5281 14.7624 42.5281Z" fill="black"/>
<path d="M8.17919 37.2065C8.04395 39.2979 7.75461 44.0312 10.4059 44.5155C11.8746 44.808 13.7742 44.4275 14.1799 42.7575C14.2665 42.3574 14.2579 41.9426 14.1546 41.5465C14.0514 41.1504 13.8564 40.7842 13.5855 40.4773C12.8415 39.7689 12.2553 38.9116 11.8652 37.9613C11.5413 37.0045 11.3425 36.0097 11.2739 35.0018C11.2682 34.9165 11.2951 34.8321 11.3494 34.766C11.4055 34.7014 11.4843 34.6608 11.5695 34.6527C11.6486 34.6462 11.7273 34.6698 11.7897 34.7188C11.8514 34.767 11.8929 34.8366 11.906 34.9138C12.0591 36.304 12.5551 37.6343 13.3496 38.7853C13.6264 39.1344 13.9786 39.4584 14.334 39.8295C14.9355 40.4595 15.2833 41.2893 15.3106 42.1599C15.3378 43.0306 15.0427 43.8806 14.4818 44.547C13.4251 45.7484 11.7048 45.8962 10.2203 45.6855C7.64453 45.2735 7.07528 42.2543 7.1319 40.0685C7.15205 39.0614 7.27002 38.0587 7.48414 37.0744C7.49586 37.0296 7.515 36.9871 7.54075 36.9486C7.58048 36.8906 7.6371 36.8462 7.70293 36.8214C7.76875 36.7967 7.8406 36.7928 7.90872 36.8102C7.99423 36.8293 8.06944 36.8798 8.11943 36.9518C8.16719 37.023 8.18834 37.1087 8.17919 37.1939" fill="#263238"/>
<path d="M39.352 37.0744C39.9338 39.8703 40.2766 44.937 36.6567 45.676C34.5653 46.0692 32.0775 45.3144 31.6247 42.9808C31.5168 42.4184 31.5438 41.8384 31.7034 41.2884C31.8631 40.7384 32.1508 40.2341 32.543 39.8169C32.9078 39.4269 33.216 39.1438 33.5274 38.7727C34.3134 37.6133 34.7977 36.2761 34.9364 34.8823C34.9432 34.841 34.9581 34.8014 34.9804 34.7659C35.004 34.7314 35.0339 34.7015 35.0685 34.6779C35.1025 34.6538 35.141 34.6367 35.1817 34.6276C35.2231 34.6181 35.2661 34.6181 35.3075 34.6276C35.3863 34.6408 35.4572 34.6835 35.5056 34.7471C35.5543 34.8108 35.5768 34.8906 35.5685 34.9704C35.506 35.979 35.3071 36.9746 34.9773 37.9298C34.5901 38.8818 34.0035 39.7397 33.2569 40.4459C32.9871 40.7556 32.794 41.1247 32.6935 41.523C32.5929 41.9214 32.5877 42.3379 32.6782 42.7386C33.0273 44.4118 34.971 44.7608 36.4523 44.4967C39.0941 44.0123 38.8111 39.2791 38.6538 37.1876C38.6641 37.1116 38.697 37.0404 38.7482 36.9832C38.8007 36.9268 38.8703 36.8893 38.9463 36.8763C39.0222 36.8629 39.1003 36.8739 39.1696 36.9077C39.239 36.9424 39.2953 36.9987 39.33 37.0681L39.352 37.0744Z" fill="#263238"/>
</svg>
