<svg width="98" height="98" viewBox="0 0 98 98" fill="none" xmlns="http://www.w3.org/2000/svg">
<g filter="url(#filter0_d_0_187)">
<path d="M5 45C5 29.1231 5 21.1847 8.23456 15.1858C10.7372 10.5443 14.5443 6.73724 19.1858 4.23456C25.1847 1 33.1231 1 49 1C64.8769 1 72.8153 1 78.8142 4.23456C83.4557 6.73724 87.2628 10.5443 89.7654 15.1858C93 21.1847 93 29.1231 93 45C93 60.8769 93 68.8153 89.7654 74.8142C87.2628 79.4557 83.4557 83.2628 78.8142 85.7654C72.8153 89 64.8769 89 49 89C33.1231 89 25.1847 89 19.1858 85.7654C14.5443 83.2628 10.7372 79.4557 8.23456 74.8142C5 68.8153 5 60.8769 5 45Z" fill="#111319"/>
<path d="M4 28C4 12.8122 16.3122 0.5 31.5 0.5H66.5C81.6878 0.5 94 12.8122 94 28H92C92 13.3645 80.3594 1.5 66 1.5H32C17.6406 1.5 6 13.3645 6 28H4ZM94 62C94 77.464 81.464 90 66 90H32C16.536 90 4 77.464 4 62H6C6 76.3594 17.6406 88 32 88H66C80.3594 88 92 76.3594 92 62H94ZM32 90C16.536 90 4 77.464 4 62V28C4 12.8122 16.3122 0.5 31.5 0.5L32 1.5C17.6406 1.5 6 13.3645 6 28V62C6 76.3594 17.6406 88 32 88V90ZM66.5 0.5C81.6878 0.5 94 12.8122 94 28V62C94 77.464 81.464 90 66 90V88C80.3594 88 92 76.3594 92 62V28C92 13.3645 80.3594 1.5 66 1.5L66.5 0.5Z" fill="white" fill-opacity="0.33"/>
<path d="M28.4544 27L23 27L30.7173 61.3032L36.2218 61.3032L36.2215 61.3017H44.9181L48.2657 41.8965C48.3848 41.4109 48.6643 40.9753 49.0633 40.6599C49.5178 40.3006 50.0938 40.1239 50.6754 40.1654C51.2569 40.2069 51.801 40.4634 52.1981 40.8834C52.595 41.3033 52.8157 41.8554 52.8157 42.4288V51.0898C52.8157 52.5225 53.1026 53.9412 53.66 55.2649C54.2175 56.5886 55.0345 57.7914 56.0645 58.8045C57.0945 59.8176 58.3173 60.6212 59.6631 61.1695C61.0088 61.7178 62.4512 62 63.9079 62C65.3645 62 66.8069 61.7178 68.1526 61.1695C69.4984 60.6212 70.7212 59.8176 71.7512 58.8045C72.7812 57.7914 73.5982 56.5886 74.1557 55.2649C74.7131 53.9412 75 52.5225 75 51.0898V27H69.4983V51.0898C69.4983 51.8119 69.3537 52.5269 69.0727 53.1941C68.7918 53.8612 68.38 54.4674 67.8609 54.978C67.3418 55.4886 66.7255 55.8936 66.0472 56.17C65.369 56.4463 64.642 56.5885 63.9079 56.5885C63.1737 56.5885 62.4467 56.4463 61.7685 56.17C61.0902 55.8936 60.4739 55.4886 59.9548 54.978C59.4357 54.4674 59.0239 53.8612 58.743 53.1941C58.462 52.5269 58.3174 51.8119 58.3174 51.0898V42.4288C58.3174 40.4882 57.5706 38.6195 56.227 37.1983C54.883 35.7767 53.0416 34.9084 51.0732 34.7681C49.1047 34.6277 47.1553 35.2257 45.6169 36.4417C44.2035 37.5589 43.2335 39.1216 42.8647 40.8578L42.8639 40.8577L42.8609 40.8758C42.8299 41.0235 42.8033 41.1726 42.7811 41.3227L40.4812 55.1047L40.48 55.1059C40.4571 55.5282 40.1131 55.8666 39.6838 55.8891L39.6826 55.8903H35.6894L35.6882 55.8892C35.6739 55.8899 35.6595 55.8903 35.6451 55.8903C35.1947 55.8903 34.8269 55.543 34.8033 55.1058L34.802 55.1047L28.4544 27Z" fill="#7DF17B"/>
</g>
<defs>
<filter id="filter0_d_0_187" x="0" y="0.5" width="98" height="97.5" filterUnits="userSpaceOnUse" color-interpolation-filters="sRGB">
<feFlood flood-opacity="0" result="BackgroundImageFix"/>
<feColorMatrix in="SourceAlpha" type="matrix" values="0 0 0 0 0 0 0 0 0 0 0 0 0 0 0 0 0 0 127 0" result="hardAlpha"/>
<feOffset dy="4"/>
<feGaussianBlur stdDeviation="2"/>
<feComposite in2="hardAlpha" operator="out"/>
<feColorMatrix type="matrix" values="0 0 0 0 0 0 0 0 0 0 0 0 0 0 0 0 0 0 0.25 0"/>
<feBlend mode="normal" in2="BackgroundImageFix" result="effect1_dropShadow_0_187"/>
<feBlend mode="normal" in="SourceGraphic" in2="effect1_dropShadow_0_187" result="shape"/>
</filter>
</defs>
</svg>
