<svg width="122" height="93" viewBox="0 0 122 93" fill="none" xmlns="http://www.w3.org/2000/svg">
<path d="M61.0273 0.29541C27.3738 0.29541 0.0908203 27.8376 0.0908203 61.8129C0.0908203 80.2352 8.041 92.2499 8.041 92.2499L113.988 92.255C113.988 92.255 121.961 79.1243 121.961 61.8116C121.961 27.8376 94.6783 0.29541 61.0273 0.29541ZM109.519 84.7607L12.7286 84.7185C12.7286 84.7185 7.57109 74.9513 7.57109 61.6188C7.57109 31.8408 31.5953 7.69907 61.2316 7.69907C90.8667 7.69907 114.892 31.8395 114.892 61.6188C114.893 75.102 109.519 84.7607 109.519 84.7607Z" fill="#9F6BC9"/>
<path d="M78.247 16.6309L77.4821 16.6297L61.2281 48.4802L44.3892 16.3577L21.3341 74.3879H15.376V79.0487H48.0169V74.3879H41.5403L48.0169 56.2516L61.2281 79.0487L73.9221 56.2516L80.3974 74.3879H73.9221V79.0487H106.303V74.3879H100.693L78.247 16.6309Z" fill="#9F6BC9"/>
</svg>
