<svg width="19" height="19" viewBox="0 0 19 19" fill="none" xmlns="http://www.w3.org/2000/svg">
<path d="M14.1089 1.69312H4.8911C4.59175 1.69312 4.30466 1.81203 4.09298 2.02371C3.88131 2.23538 3.76239 2.52247 3.76239 2.82183V4.5149H2.72773C2.6529 4.5149 2.58112 4.54463 2.5282 4.59755C2.47529 4.65046 2.44556 4.72224 2.44556 4.79708C2.44556 4.87191 2.47529 4.94369 2.5282 4.99661C2.58112 5.04952 2.6529 5.07925 2.72773 5.07925H3.76239V6.77232H2.72773C2.6529 6.77232 2.58112 6.80205 2.5282 6.85497C2.47529 6.90789 2.44556 6.97966 2.44556 7.0545C2.44556 7.12934 2.47529 7.20111 2.5282 7.25403C2.58112 7.30695 2.6529 7.33668 2.72773 7.33668H3.76239V9.02975H2.72773C2.6529 9.02975 2.58112 9.05948 2.5282 9.1124C2.47529 9.16532 2.44556 9.23709 2.44556 9.31193C2.44556 9.38677 2.47529 9.45854 2.5282 9.51146C2.58112 9.56438 2.6529 9.59411 2.72773 9.59411H3.76239V11.4753H2.72773C2.6529 11.4753 2.58112 11.505 2.5282 11.5579C2.47529 11.6109 2.44556 11.6826 2.44556 11.7575C2.44556 11.8323 2.47529 11.9041 2.5282 11.957C2.58112 12.0099 2.6529 12.0396 2.72773 12.0396H3.76239V13.9208H2.72773C2.6529 13.9208 2.58112 13.9506 2.5282 14.0035C2.47529 14.0564 2.44556 14.1282 2.44556 14.203C2.44556 14.2779 2.47529 14.3496 2.5282 14.4025C2.58112 14.4555 2.6529 14.4852 2.72773 14.4852H3.76239V16.1783C3.76239 16.4776 3.88131 16.7647 4.09298 16.9764C4.30466 17.1881 4.59175 17.307 4.8911 17.307H14.1089C14.4083 17.307 14.6954 17.1881 14.907 16.9764C15.1187 16.7647 15.2376 16.4776 15.2376 16.1783V2.82183C15.2376 2.52247 15.1187 2.23538 14.907 2.02371C14.6954 1.81203 14.4083 1.69312 14.1089 1.69312ZM4.32674 16.1783V14.4852H5.17328C5.24812 14.4852 5.31989 14.4555 5.37281 14.4025C5.42573 14.3496 5.45546 14.2779 5.45546 14.203C5.45546 14.1282 5.42573 14.0564 5.37281 14.0035C5.31989 13.9506 5.24812 13.9208 5.17328 13.9208H4.32674V12.0396H5.17328C5.24812 12.0396 5.31989 12.0099 5.37281 11.957C5.42573 11.9041 5.45546 11.8323 5.45546 11.7575C5.45546 11.6826 5.42573 11.6109 5.37281 11.5579C5.31989 11.505 5.24812 11.4753 5.17328 11.4753H4.32674V9.59411H5.17328C5.24812 9.59411 5.31989 9.56438 5.37281 9.51146C5.42573 9.45854 5.45546 9.38677 5.45546 9.31193C5.45546 9.23709 5.42573 9.16532 5.37281 9.1124C5.31989 9.05948 5.24812 9.02975 5.17328 9.02975H4.32674V7.33668H5.17328C5.24812 7.33668 5.31989 7.30695 5.37281 7.25403C5.42573 7.20111 5.45546 7.12934 5.45546 7.0545C5.45546 6.97966 5.42573 6.90789 5.37281 6.85497C5.31989 6.80205 5.24812 6.77232 5.17328 6.77232H4.32674V5.07925H5.17328C5.24812 5.07925 5.31989 5.04952 5.37281 4.99661C5.42573 4.94369 5.45546 4.87191 5.45546 4.79708C5.45546 4.72224 5.42573 4.65046 5.37281 4.59755C5.31989 4.54463 5.24812 4.5149 5.17328 4.5149H4.32674V2.82183C4.32674 2.67215 4.3862 2.52861 4.49204 2.42277C4.59788 2.31693 4.74142 2.25747 4.8911 2.25747H12.0396V16.7426H4.8911C4.74142 16.7426 4.59788 16.6832 4.49204 16.5773C4.3862 16.4715 4.32674 16.3279 4.32674 16.1783ZM14.6733 16.1783C14.6733 16.3279 14.6138 16.4715 14.508 16.5773C14.4021 16.6832 14.2586 16.7426 14.1089 16.7426H12.604V2.25747H14.1089C14.2586 2.25747 14.4021 2.31693 14.508 2.42277C14.6138 2.52861 14.6733 2.67215 14.6733 2.82183V16.1783Z" fill="#9F6BC9"/>
</svg>
