<svg width="38" height="36" viewBox="0 0 38 36" fill="none" xmlns="http://www.w3.org/2000/svg">
<path d="M25.6244 18.0076C25.2563 18.1301 25.0538 18.538 25.1723 18.9183C25.2903 19.2986 25.6846 19.5095 26.0527 19.3859C26.8496 19.121 27.682 18.9863 28.5275 18.9863C32.9786 18.9863 36.6002 22.7324 36.6002 27.3376C36.6002 27.7377 36.9138 28.0615 37.3001 28.0615C37.6864 28.0615 38 27.7377 38 27.3376C38 21.9346 33.7508 17.5385 28.5275 17.5385C27.5365 17.5389 26.5599 17.6963 25.6244 18.0076Z" fill="#7DF17B"/>
<path d="M28.3524 15.7846C31.4155 15.7846 33.9076 13.2929 33.9076 10.2301C33.9076 7.16779 31.4155 4.67694 28.3524 4.67694C25.2906 4.67694 22.7999 7.16825 22.7999 10.2301C22.7999 13.2929 25.2906 15.7846 28.3524 15.7846ZM28.3524 6.06848C30.6478 6.06848 32.5159 7.93545 32.5159 10.2301C32.5159 12.5257 30.6482 14.3931 28.3524 14.3931C26.0584 14.3931 24.1916 12.5257 24.1916 10.2301C24.1916 7.93545 26.0579 6.06848 28.3524 6.06848Z" fill="#7DF17B"/>
<path d="M37.9788 34.5435C37.9909 34.4951 37.9975 34.4459 37.9998 34.3961C38.0003 34.3805 37.9998 34.3648 37.9993 34.3492C37.9984 34.3075 37.9937 34.2663 37.9853 34.2251C37.9825 34.2104 37.9802 34.1957 37.9764 34.1805C37.962 34.1265 37.9433 34.0735 37.9152 34.0228L33.917 26.687C33.7296 26.3425 33.303 26.2194 32.9648 26.4089C32.626 26.5989 32.5031 27.0309 32.6905 27.3749L36.1135 33.6561H25.9126C25.5603 30.1469 22.6288 27.399 19.0763 27.399C15.5243 27.399 12.5932 30.1469 12.2409 33.6561H6.08356V24.4418C6.08356 24.049 5.76957 23.7311 5.38269 23.7311C4.99581 23.7311 4.68182 24.049 4.68182 24.4418V33.6561H1.40221V15.4521H18.3002V17.0941C16.0429 17.4172 14.2996 19.3829 14.2996 21.7588C14.2996 24.3598 16.3864 26.4757 18.9515 26.4757C21.5172 26.4757 23.6044 24.3598 23.6044 21.7588C23.6044 19.4175 21.9111 17.4746 19.7015 17.1093V14.7414C19.7015 14.3487 19.3875 14.0308 19.0006 14.0308H0.700871C0.31399 14.0308 0 14.3487 0 14.7414V34.3663C0 34.759 0.31399 35.0769 0.700871 35.0769H37.2994C37.2999 35.0769 37.3003 35.0769 37.3013 35.0769C37.3606 35.0769 37.42 35.0689 37.4784 35.0532C37.5036 35.0466 37.526 35.0338 37.5498 35.0243C37.5797 35.0125 37.6106 35.0044 37.64 34.9883C37.6419 34.9874 37.6433 34.986 37.6447 34.985C37.6522 34.9807 37.6587 34.9746 37.6657 34.9703C37.7059 34.9452 37.7428 34.9168 37.7765 34.8855C37.7886 34.8741 37.7989 34.8618 37.8101 34.85C37.8386 34.8192 37.8638 34.7865 37.8863 34.7514C37.8914 34.7429 37.8993 34.7368 37.9045 34.7282C37.9073 34.7235 37.9082 34.7178 37.911 34.7126C37.9377 34.6638 37.9601 34.6131 37.975 34.56C37.9774 34.5539 37.9778 34.5487 37.9788 34.5435ZM22.2036 21.7588C22.2036 23.5757 20.7453 25.0544 18.9525 25.0544C17.1601 25.0544 15.7023 23.5762 15.7023 21.7588C15.7023 19.9415 17.1601 18.4633 18.9525 18.4633C20.7453 18.4633 22.2036 19.9415 22.2036 21.7588ZM19.0768 28.8199C21.855 28.8199 24.1511 30.9324 24.4968 33.6556H13.6576C14.0034 30.9324 16.299 28.8199 19.0768 28.8199Z" fill="#7DF17B"/>
<path d="M10.2297 12.2769C13.6152 12.2769 16.3693 9.5231 16.3693 6.13799C16.3693 2.75382 13.6147 0 10.2297 0C6.8456 0 4.09241 2.75335 4.09241 6.13799C4.09241 9.5231 6.8456 12.2769 10.2297 12.2769ZM10.2297 1.41439C12.8348 1.41439 14.9548 3.53315 14.9548 6.13799C14.9548 8.7433 12.8348 10.8625 10.2297 10.8625C7.62597 10.8625 5.50696 8.74283 5.50696 6.13799C5.50696 3.53315 7.62549 1.41439 10.2297 1.41439Z" fill="#7DF17B"/>
</svg>
