<svg width="26" height="24" viewBox="0 0 26 24" fill="none" xmlns="http://www.w3.org/2000/svg">
<path d="M17.5325 12.321C17.2806 12.4048 17.1421 12.6839 17.2232 12.9441C17.3039 13.2043 17.5737 13.3486 17.8256 13.2641C18.3708 13.0828 18.9404 12.9906 19.5188 12.9906C22.5644 12.9906 25.0423 15.5538 25.0423 18.7047C25.0423 18.9784 25.2568 19.2 25.5212 19.2C25.7855 19.2 26 18.9784 26 18.7047C26 15.0079 23.0927 12 19.5188 12C18.8408 12.0003 18.1726 12.108 17.5325 12.321Z" fill="#7DF17B"/>
<path d="M19.399 10.8C21.4949 10.8 23.2 9.09511 23.2 6.99954C23.2 4.90428 21.4949 3.20001 19.399 3.20001C17.3041 3.20001 15.6 4.90459 15.6 6.99954C15.6 9.09511 17.3041 10.8 19.399 10.8ZM19.399 4.15211C20.9696 4.15211 22.2478 5.42952 22.2478 6.99954C22.2478 8.57019 20.9699 9.84791 19.399 9.84791C17.8294 9.84791 16.5522 8.57019 16.5522 6.99954C16.5522 5.42952 17.8291 4.15211 19.399 4.15211Z" fill="#7DF17B"/>
<path d="M25.9855 23.635C25.9938 23.6019 25.9983 23.5682 25.9999 23.5342C26.0002 23.5235 25.9999 23.5128 25.9995 23.5021C25.9989 23.4735 25.9957 23.4453 25.99 23.4171C25.988 23.4071 25.9864 23.397 25.9839 23.3867C25.974 23.3497 25.9612 23.3134 25.942 23.2787L23.2064 18.2595C23.0782 18.0238 22.7863 17.9395 22.5548 18.0692C22.3231 18.1992 22.239 18.4948 22.3672 18.7302L24.7093 23.0278H17.7297C17.4886 20.6268 15.4828 18.7467 13.0522 18.7467C10.6219 18.7467 8.61643 20.6268 8.37538 23.0278H4.16243V16.7233C4.16243 16.4546 3.9476 16.2371 3.68289 16.2371C3.41818 16.2371 3.20335 16.4546 3.20335 16.7233V23.0278H0.959406V10.5724H12.5212V11.696C10.9767 11.917 9.78396 13.262 9.78396 14.8876C9.78396 16.6672 11.2117 18.1149 12.9668 18.1149C14.7223 18.1149 16.1504 16.6672 16.1504 14.8876C16.1504 13.2856 14.9918 11.9563 13.48 11.7063V10.0862C13.48 9.81748 13.2651 9.59998 13.0004 9.59998H0.479543C0.214835 9.59998 0 9.81748 0 10.0862V23.5137C0 23.7825 0.214835 24 0.479543 24H25.5206C25.521 24 25.5213 24 25.5219 24C25.5625 24 25.6031 23.9945 25.6431 23.9838C25.6603 23.9792 25.6757 23.9705 25.692 23.964C25.7125 23.9559 25.7336 23.9504 25.7537 23.9394C25.755 23.9387 25.7559 23.9377 25.7569 23.9371C25.762 23.9342 25.7665 23.93 25.7713 23.927C25.7988 23.9099 25.824 23.8904 25.8471 23.869C25.8554 23.8612 25.8624 23.8528 25.8701 23.8447C25.8896 23.8236 25.9068 23.8013 25.9222 23.7773C25.9257 23.7714 25.9311 23.7672 25.9346 23.7614C25.9366 23.7582 25.9372 23.7543 25.9391 23.7507C25.9573 23.7173 25.9727 23.6826 25.9829 23.6463C25.9845 23.6421 25.9848 23.6385 25.9855 23.635ZM15.1919 14.8876C15.1919 16.1308 14.1942 17.1424 12.9675 17.1424C11.7411 17.1424 10.7437 16.1311 10.7437 14.8876C10.7437 13.6442 11.7411 12.6328 12.9675 12.6328C14.1942 12.6328 15.1919 13.6442 15.1919 14.8876ZM13.0525 19.7188C14.9534 19.7188 16.5244 21.1643 16.761 23.0275H9.3447C9.58127 21.1643 11.1519 19.7188 13.0525 19.7188Z" fill="#7DF17B"/>
<path d="M6.99918 8.4C9.31558 8.4 11.2 6.51581 11.2 4.19968C11.2 1.88419 9.31525 0 6.99918 0C4.68375 0 2.79999 1.88387 2.79999 4.19968C2.79999 6.51581 4.68375 8.4 6.99918 8.4ZM6.99918 0.967742C8.78164 0.967742 10.2321 2.41742 10.2321 4.19968C10.2321 5.98226 8.78164 7.43226 6.99918 7.43226C5.21769 7.43226 3.76784 5.98193 3.76784 4.19968C3.76784 2.41742 5.21736 0.967742 6.99918 0.967742Z" fill="#7DF17B"/>
</svg>
