<svg width="33" height="38" viewBox="0 0 33 38" fill="none" xmlns="http://www.w3.org/2000/svg">
<path d="M17.1875 30.0834C17.9469 30.0834 18.5625 29.3745 18.5625 28.5C18.5625 27.6256 17.9469 26.9167 17.1875 26.9167C16.4281 26.9167 15.8125 27.6256 15.8125 28.5C15.8125 29.3745 16.4281 30.0834 17.1875 30.0834Z" fill="#7DF17B"/>
<path fill-rule="evenodd" clip-rule="evenodd" d="M24.75 3.16669H9.625C8.10622 3.16669 6.875 4.58445 6.875 6.33335V31.6667C6.875 33.4156 8.10622 34.8334 9.625 34.8334H24.75C26.2688 34.8334 27.5 33.4156 27.5 31.6667V6.33335C27.5 5.4935 27.2103 4.68805 26.6945 4.09418C26.1788 3.50032 25.4793 3.16669 24.75 3.16669ZM25.245 31.6667C25.245 31.9815 25.0234 32.2367 24.75 32.2367H9.625C9.35162 32.2367 9.13 31.9815 9.13 31.6667V6.33335C9.13 6.18218 9.18215 6.0372 9.27498 5.9303C9.36781 5.82341 9.49372 5.76335 9.625 5.76335H24.75C25.0234 5.76335 25.245 6.01855 25.245 6.33335V31.6667Z" fill="#7DF17B"/>
</svg>
