<svg width="70" height="81" viewBox="0 0 70 81" fill="none" xmlns="http://www.w3.org/2000/svg">
<path d="M36.4584 64.125C38.0692 64.125 39.375 62.614 39.375 60.75C39.375 58.886 38.0692 57.375 36.4584 57.375C34.8475 57.375 33.5417 58.886 33.5417 60.75C33.5417 62.614 34.8475 64.125 36.4584 64.125Z" fill="#7DF17B"/>
<path fill-rule="evenodd" clip-rule="evenodd" d="M52.5 6.75H20.4167C17.195 6.75 14.5834 9.77208 14.5834 13.5V67.5C14.5834 71.2279 17.195 74.25 20.4167 74.25H52.5C55.7217 74.25 58.3334 71.2279 58.3334 67.5V13.5C58.3334 11.7098 57.7188 9.9929 56.6248 8.72703C55.5309 7.46116 54.0471 6.75 52.5 6.75ZM53.55 67.5C53.55 68.171 53.0799 68.715 52.5 68.715H20.4167C19.8368 68.715 19.3667 68.171 19.3667 67.5V13.5C19.3667 13.1778 19.4773 12.8687 19.6742 12.6409C19.8712 12.413 20.1382 12.285 20.4167 12.285H52.5C53.0799 12.285 53.55 12.829 53.55 13.5V67.5Z" fill="#7DF17B"/>
</svg>
