<svg width="76" height="118" viewBox="0 0 76 118" fill="none" xmlns="http://www.w3.org/2000/svg">
<path d="M68.4654 0H6.92347C5.08725 0 3.32624 0.726552 2.02784 2.01982C0.729436 3.31309 0 5.06714 0 6.8961V111.104C0 112.933 0.729436 114.687 2.02784 115.98C3.32624 117.273 5.08725 118 6.92347 118H68.4654C70.3016 118 72.0627 117.273 73.3611 115.98C74.6595 114.687 75.3889 112.933 75.3889 111.104V6.8961C75.3889 5.06714 74.6595 3.31309 73.3611 2.01982C72.0627 0.726552 70.3016 0 68.4654 0ZM4.61565 19.9221H70.7733V91.9481H4.61565V19.9221ZM6.92347 4.5974H68.4654C69.0775 4.5974 69.6645 4.83959 70.0973 5.27068C70.5301 5.70177 70.7733 6.28645 70.7733 6.8961V15.3247H4.61565V6.8961C4.61565 6.28645 4.85879 5.70177 5.29159 5.27068C5.72439 4.83959 6.3114 4.5974 6.92347 4.5974ZM68.4654 113.403H6.92347C6.3114 113.403 5.72439 113.16 5.29159 112.729C4.85879 112.298 4.61565 111.714 4.61565 111.104V96.5455H70.7733V111.104C70.7733 111.714 70.5301 112.298 70.0973 112.729C69.6645 113.16 69.0775 113.403 68.4654 113.403Z" fill="#7DF17B"/>
<path d="M37.6946 108.924C39.5871 108.924 41.1214 107.4 41.1214 105.52C41.1214 103.64 39.5871 102.116 37.6946 102.116C35.802 102.116 34.2678 103.64 34.2678 105.52C34.2678 107.4 35.802 108.924 37.6946 108.924Z" fill="#7DF17B"/>
<path d="M40.0392 51.1952V35.8626C44.5096 36.6752 47.8546 39.7264 47.8546 43.3756C47.8546 43.9855 48.1016 44.5705 48.5413 45.0018C48.981 45.4331 49.5774 45.6755 50.1992 45.6755C50.8211 45.6755 51.4174 45.4331 51.8571 45.0018C52.2969 44.5705 52.5439 43.9855 52.5439 43.3756C52.5439 37.2425 47.12 32.1521 40.0392 31.2168V27.261C40.0392 26.651 39.7922 26.066 39.3524 25.6347C38.9127 25.2034 38.3164 24.9611 37.6945 24.9611C37.0727 24.9611 36.4763 25.2034 36.0366 25.6347C35.5969 26.066 35.3499 26.651 35.3499 27.261V31.1401C28.2691 32.0754 22.8452 37.1658 22.8452 43.2989C22.8452 49.432 28.2691 54.5071 35.3499 55.4424V70.775C30.8795 69.9624 27.5345 66.9112 27.5345 63.262C27.5345 62.652 27.2875 62.067 26.8478 61.6357C26.408 61.2044 25.8117 60.9621 25.1898 60.9621C24.568 60.9621 23.9716 61.2044 23.5319 61.6357C23.0922 62.067 22.8452 62.652 22.8452 63.262C22.8452 69.3951 28.2691 74.4855 35.3499 75.4208V79.3919C35.3499 80.0019 35.5969 80.5869 36.0366 81.0182C36.4763 81.4495 37.0727 81.6918 37.6945 81.6918C38.3164 81.6918 38.9127 81.4495 39.3524 81.0182C39.7922 80.5869 40.0392 80.0019 40.0392 79.3919V75.5128C47.12 74.5775 52.5439 69.4871 52.5439 63.354C52.5439 57.2209 47.0731 52.1305 40.0392 51.1952ZM27.5345 43.3142C27.5345 39.6651 30.8795 36.6139 35.3499 35.8012V50.8119C30.8795 49.9993 27.5345 46.9481 27.5345 43.2989V43.3142ZM40.0392 70.913V55.887C44.5096 56.6996 47.8546 59.7508 47.8546 63.3847C47.8546 67.0185 44.5096 70.0544 40.0392 70.867V70.913Z" fill="#7DF17B"/>
</svg>
