<svg width="23" height="36" viewBox="0 0 23 36" fill="none" xmlns="http://www.w3.org/2000/svg">
<path d="M20.8878 0H2.11225C1.55204 0 1.01479 0.22166 0.618662 0.616217C0.22254 1.01077 0 1.54591 0 2.1039V33.8961C0 34.4541 0.22254 34.9892 0.618662 35.3838C1.01479 35.7783 1.55204 36 2.11225 36H20.8878C21.448 36 21.9852 35.7783 22.3813 35.3838C22.7775 34.9892 23 34.4541 23 33.8961V2.1039C23 1.54591 22.7775 1.01077 22.3813 0.616217C21.9852 0.22166 21.448 0 20.8878 0ZM1.40816 6.07792H21.5918V28.0519H1.40816V6.07792ZM2.11225 1.4026H20.8878C21.0745 1.4026 21.2536 1.47648 21.3856 1.608C21.5177 1.73952 21.5918 1.9179 21.5918 2.1039V4.67532H1.40816V2.1039C1.40816 1.9179 1.48234 1.73952 1.61438 1.608C1.74643 1.47648 1.92551 1.4026 2.11225 1.4026ZM20.8878 34.5974H2.11225C1.92551 34.5974 1.74643 34.5235 1.61438 34.392C1.48234 34.2605 1.40816 34.0821 1.40816 33.8961V29.4545H21.5918V33.8961C21.5918 34.0821 21.5177 34.2605 21.3856 34.392C21.2536 34.5235 21.0745 34.5974 20.8878 34.5974Z" fill="#7DF17B"/>
<path d="M11.5 33.2309C12.0774 33.2309 12.5455 32.766 12.5455 32.1925C12.5455 31.6189 12.0774 31.154 11.5 31.154C10.9227 31.154 10.4546 31.6189 10.4546 32.1925C10.4546 32.766 10.9227 33.2309 11.5 33.2309Z" fill="#7DF17B"/>
<path d="M12.2153 15.6189V10.9411C13.5792 11.189 14.5997 12.1199 14.5997 13.2332C14.5997 13.4193 14.6751 13.5978 14.8092 13.7294C14.9434 13.861 15.1253 13.9349 15.315 13.9349C15.5047 13.9349 15.6867 13.861 15.8208 13.7294C15.955 13.5978 16.0303 13.4193 16.0303 13.2332C16.0303 11.3621 14.3756 9.8091 12.2153 9.52376V8.3169C12.2153 8.1308 12.14 7.95233 12.0058 7.82075C11.8717 7.68916 11.6897 7.61523 11.5 7.61523C11.3103 7.61523 11.1284 7.68916 10.9942 7.82075C10.8601 7.95233 10.7847 8.1308 10.7847 8.3169V9.50037C8.62448 9.78571 6.96973 11.3387 6.96973 13.2098C6.96973 15.0809 8.62448 16.6293 10.7847 16.9146V21.5924C9.42086 21.3444 8.40035 20.4136 8.40035 19.3003C8.40035 19.1142 8.32499 18.9357 8.19084 18.8041C8.05669 18.6725 7.87475 18.5986 7.68504 18.5986C7.49533 18.5986 7.31338 18.6725 7.17924 18.8041C7.04509 18.9357 6.96973 19.1142 6.96973 19.3003C6.96973 21.1714 8.62448 22.7244 10.7847 23.0097V24.2213C10.7847 24.4074 10.8601 24.5858 10.9942 24.7174C11.1284 24.849 11.3103 24.9229 11.5 24.9229C11.6897 24.9229 11.8717 24.849 12.0058 24.7174C12.14 24.5858 12.2153 24.4074 12.2153 24.2213V23.0378C14.3756 22.7524 16.0303 21.1994 16.0303 19.3283C16.0303 17.4572 14.3613 15.9042 12.2153 15.6189ZM8.40035 13.2145C8.40035 12.1012 9.42086 11.1703 10.7847 10.9224V15.5019C9.42086 15.254 8.40035 14.3231 8.40035 13.2098V13.2145ZM12.2153 21.6345V17.0503C13.5792 17.2982 14.5997 18.2291 14.5997 19.3377C14.5997 20.4463 13.5792 21.3725 12.2153 21.6204V21.6345Z" fill="#7DF17B"/>
</svg>
