<svg width="40" height="47" viewBox="0 0 40 47" fill="none" xmlns="http://www.w3.org/2000/svg">
<path d="M20.8333 36.4646C21.7538 36.4646 22.5 35.6054 22.5 34.5455C22.5 33.4855 21.7538 32.6263 20.8333 32.6263C19.9129 32.6263 19.1667 33.4855 19.1667 34.5455C19.1667 35.6054 19.9129 36.4646 20.8333 36.4646Z" fill="#7DF17B"/>
<path fill-rule="evenodd" clip-rule="evenodd" d="M30 3.83838H11.6667C9.82571 3.83838 8.33333 5.55688 8.33333 7.67676V38.3838C8.33333 40.5037 9.82571 42.2222 11.6667 42.2222H30C31.8409 42.2222 33.3333 40.5037 33.3333 38.3838V7.67676C33.3333 6.65876 32.9821 5.68245 32.357 4.96262C31.7319 4.24278 30.884 3.83838 30 3.83838ZM30.6 38.3838C30.6 38.7654 30.3314 39.0747 30 39.0747H11.6667C11.3353 39.0747 11.0667 38.7654 11.0667 38.3838V7.67676C11.0667 7.49352 11.1299 7.31779 11.2424 7.18822C11.3549 7.05865 11.5075 6.98585 11.6667 6.98585H30C30.3314 6.98585 30.6 7.29518 30.6 7.67676V38.3838Z" fill="#7DF17B"/>
</svg>
