<svg width="40" height="40" viewBox="0 0 40 40" fill="none" xmlns="http://www.w3.org/2000/svg">
<path fill-rule="evenodd" clip-rule="evenodd" d="M25 20.3287C25 19.8693 24.6224 19.4916 24.1609 19.4916H15.8391C15.3776 19.4916 15 19.8693 15 20.3287C15 20.7882 15.3776 21.1658 15.8391 21.1658H24.1609C24.6224 21.1658 25 20.7882 25 20.3287Z" fill="white"/>
<path fill-rule="evenodd" clip-rule="evenodd" d="M15.8391 16.1516C15.3776 16.1516 15 16.5293 15 16.9887C15 17.4481 15.3776 17.8258 15.8391 17.8258H24.1609C24.6224 17.8258 25 17.4481 25 16.9887C25 16.5293 24.6224 16.1516 24.1609 16.1516H15.8391Z" fill="white"/>
<path fill-rule="evenodd" clip-rule="evenodd" d="M25 23.6629C25 23.2035 24.6224 22.8258 24.1609 22.8258H15.8391C15.3776 22.8258 15 23.2035 15 23.6629C15 24.1223 15.3776 24.5 15.8391 24.5H24.1609C24.6224 24.5 25 24.1223 25 23.6629Z" fill="white"/>
<path fill-rule="evenodd" clip-rule="evenodd" d="M23.3621 8.47378L23.2597 8.44355L23.2579 8.44303C18.1903 6.99796 12.6254 9.17834 9.78115 13.6671L9.78026 13.6685C6.97225 18.1856 7.54503 24.1588 11.0819 28.0527L11.0826 28.0535L11.0833 28.0543C12.7472 29.9227 15.0886 31.2725 17.5832 31.7393L17.5857 31.7398C18.8854 31.9993 20.2411 32 21.5696 32H31.161C31.6224 32 32.0001 31.6223 32.0001 31.1629V20.0036C32.0001 14.707 28.4615 9.97967 23.3621 8.47378ZM20.7899 9.68157C26.1545 10.0603 30.3198 14.6545 30.3742 20.001L30.3742 30.3258H20.1383C18.2471 30.3258 16.3532 29.8406 14.727 28.867L14.726 28.8664C10.6099 26.4331 8.71642 21.3548 10.1783 16.8154L10.1786 16.8145C11.641 12.3279 16.0799 9.35743 20.7899 9.68157Z" fill="white"/>
</svg>
