<svg width="66" height="66" viewBox="0 0 66 66" fill="none" xmlns="http://www.w3.org/2000/svg">
<g filter="url(#filter0_d_0_325)">
<path d="M5 29C5 28.0715 5 27.6073 5.01142 27.2147C5.42739 12.9189 16.9189 1.42739 31.2147 1.01142C31.6073 1 32.0715 1 33 1C33.9285 1 34.3927 1 34.7853 1.01142C49.0811 1.42739 60.5726 12.9189 60.9886 27.2147C61 27.6073 61 28.0715 61 29C61 29.9285 61 30.3927 60.9886 30.7853C60.5726 45.0811 49.0811 56.5726 34.7853 56.9886C34.3927 57 33.9285 57 33 57C32.0715 57 31.6073 57 31.2147 56.9886C16.9189 56.5726 5.42739 45.0811 5.01142 30.7853C5 30.3927 5 29.9285 5 29Z" fill="#111319"/>
<path d="M4 28C4 12.8122 16.3122 0.5 31.5 0.5H34.5C49.6878 0.5 62 12.8122 62 28H60C60 13.3645 48.3594 1.5 34 1.5H32C17.6406 1.5 6 13.3645 6 28H4ZM62 30C62 45.464 49.464 58 34 58H32C16.536 58 4 45.464 4 30H6C6 44.3594 17.6406 56 32 56H34C48.3594 56 60 44.3594 60 30H62ZM32 58C16.536 58 4 45.464 4 30V28C4 12.8122 16.3122 0.5 31.5 0.5L32 1.5C17.6406 1.5 6 13.3645 6 28V30C6 44.3594 17.6406 56 32 56V58ZM34.5 0.5C49.6878 0.5 62 12.8122 62 28V30C62 45.464 49.464 58 34 58V56C48.3594 56 60 44.3594 60 30V28C60 13.3645 48.3594 1.5 34 1.5L34.5 0.5Z" fill="white" fill-opacity="0.33"/>
<path d="M20.4614 18L17 18L21.8975 39.562L25.3908 39.562L25.3906 39.5611H30.9096L33.034 27.3635C33.1096 27.0583 33.2869 26.7845 33.5401 26.5862C33.8286 26.3604 34.1941 26.2493 34.5632 26.2754C34.9323 26.3015 35.2776 26.4627 35.5296 26.7267C35.7815 26.9906 35.9215 27.3377 35.9215 27.6981V33.1421C35.9215 34.0427 36.1036 34.9345 36.4573 35.7665C36.8111 36.5986 37.3296 37.3546 37.9832 37.9914C38.6369 38.6282 39.4129 39.1333 40.2669 39.478C41.121 39.8226 42.0363 40 42.9608 40C43.8852 40 44.8005 39.8226 45.6546 39.478C46.5086 39.1333 47.2846 38.6282 47.9383 37.9914C48.5919 37.3546 49.1104 36.5986 49.4642 35.7665C49.8179 34.9345 50 34.0427 50 33.1421V18H46.5085V33.1421C46.5085 33.596 46.4168 34.0455 46.2385 34.4648C46.0602 34.8842 45.7989 35.2652 45.4694 35.5862C45.14 35.9071 44.7489 36.1617 44.3184 36.3354C43.888 36.5091 43.4267 36.5985 42.9608 36.5985C42.4948 36.5985 42.0335 36.5091 41.6031 36.3354C41.1726 36.1617 40.7815 35.9071 40.4521 35.5862C40.1226 35.2652 39.8613 34.8842 39.683 34.4648C39.5047 34.0455 39.413 33.596 39.413 33.1421V27.6981C39.413 26.4783 38.939 25.3037 38.0864 24.4104C37.2335 23.5168 36.0649 22.971 34.8157 22.8828C33.5665 22.7946 32.3293 23.1704 31.353 23.9348C30.4561 24.637 29.8405 25.6193 29.6065 26.7106L29.6059 26.7106L29.6041 26.7219C29.5844 26.8148 29.5675 26.9085 29.5534 27.0028L28.0939 35.6658L28.0931 35.6666C28.0786 35.932 27.8602 36.1447 27.5878 36.1589L27.587 36.1596H25.0529L25.0521 36.1589C25.0431 36.1594 25.0339 36.1596 25.0247 36.1596C24.739 36.1596 24.5055 35.9413 24.4905 35.6665L24.4898 35.6658L20.4614 18Z" fill="#7DF17B"/>
</g>
<defs>
<filter id="filter0_d_0_325" x="0" y="0.5" width="66" height="65.5" filterUnits="userSpaceOnUse" color-interpolation-filters="sRGB">
<feFlood flood-opacity="0" result="BackgroundImageFix"/>
<feColorMatrix in="SourceAlpha" type="matrix" values="0 0 0 0 0 0 0 0 0 0 0 0 0 0 0 0 0 0 127 0" result="hardAlpha"/>
<feOffset dy="4"/>
<feGaussianBlur stdDeviation="2"/>
<feComposite in2="hardAlpha" operator="out"/>
<feColorMatrix type="matrix" values="0 0 0 0 0 0 0 0 0 0 0 0 0 0 0 0 0 0 0.25 0"/>
<feBlend mode="normal" in2="BackgroundImageFix" result="effect1_dropShadow_0_325"/>
<feBlend mode="normal" in="SourceGraphic" in2="effect1_dropShadow_0_325" result="shape"/>
</filter>
</defs>
</svg>
