<svg width="94" height="86" viewBox="0 0 94 86" fill="none" xmlns="http://www.w3.org/2000/svg">
<path fill-rule="evenodd" clip-rule="evenodd" d="M53.5187 14.4723C51.4669 8.15748 42.5331 8.15752 40.4813 14.4723L35.4128 30.0715C35.2817 30.475 34.9057 30.7481 34.4815 30.7481H18.0795C11.4397 30.7481 8.67909 39.2447 14.0508 43.1474L27.3203 52.7883C27.6635 53.0376 27.8071 53.4796 27.676 53.883L22.6075 69.4823C20.5557 75.7971 27.7833 81.0482 33.155 77.1454L46.4244 67.5046C46.7676 67.2552 47.2323 67.2552 47.5755 67.5046L60.845 77.1454C66.2167 81.0482 73.4443 75.797 71.3925 69.4822L66.324 53.883C66.1929 53.4796 66.3365 53.0376 66.6797 52.7883L79.9492 43.1474C85.3209 39.2446 82.5602 30.7481 75.9204 30.7481C74.2981 30.7481 72.9829 32.0633 72.9829 33.6856C72.9829 35.308 74.2981 36.6231 75.9204 36.6231C76.869 36.6231 77.2633 37.8369 76.496 38.3945L63.2265 48.0353C60.8242 49.7807 59.8189 52.8744 60.7365 55.6985L65.805 71.2977C66.0982 72.1999 65.0656 72.95 64.2983 72.3925L51.0288 62.7516C48.6265 61.0062 45.3735 61.0062 42.9712 62.7516L29.7017 72.3925C28.9343 72.95 27.9018 72.1998 28.1949 71.2977L33.2634 55.6985C34.181 52.8744 33.1758 49.7807 30.7735 48.0353L17.504 38.3945C16.7366 37.8369 17.131 36.6231 18.0795 36.6231H34.4815C37.4509 36.6231 40.0826 34.7111 41.0002 31.887L46.0687 16.2878C46.3619 15.3857 47.6381 15.3857 47.9312 16.2878L52.9997 31.887C53.9173 34.7111 56.549 36.6231 59.5184 36.6231C61.1408 36.6231 62.4559 35.308 62.4559 33.6856C62.4559 32.0633 61.1408 30.7481 59.5184 30.7481C59.0942 30.7481 58.7183 30.475 58.5872 30.0715L53.5187 14.4723Z" fill="#7DF17B"/>
</svg>
