<svg width="27" height="25" viewBox="0 0 27 25" fill="none" xmlns="http://www.w3.org/2000/svg">
<path fill-rule="evenodd" clip-rule="evenodd" d="M15.7885 2.08071C15.0682 -0.136204 11.9318 -0.136189 11.2115 2.08071L9.43217 7.55703C9.38615 7.69866 9.25416 7.79456 9.10524 7.79456H3.34709C1.0161 7.79456 0.0469303 10.7774 1.93274 12.1475L6.59117 15.5321C6.71165 15.6196 6.76207 15.7747 6.71605 15.9164L4.93668 21.3927C4.21636 23.6096 6.75372 25.4531 8.63952 24.083L13.298 20.6984C13.4184 20.6109 13.5816 20.6109 13.7021 20.6984L18.3605 24.083C20.2463 25.4531 22.7836 23.6096 22.0633 21.3927L20.284 15.9164C20.238 15.7747 20.2884 15.6196 20.4088 15.5321L25.0673 12.1475C26.9531 10.7774 25.9839 7.79456 23.6529 7.79456C23.0834 7.79456 22.6217 8.25626 22.6217 8.82581C22.6217 9.39535 23.0834 9.85706 23.6529 9.85706C23.9859 9.85706 24.1244 10.2832 23.855 10.4789L19.1965 13.8635C18.3532 14.4762 18.0003 15.5623 18.3224 16.5537L20.1018 22.03C20.2047 22.3468 19.8422 22.6101 19.5728 22.4144L14.9144 19.0298C14.071 18.4171 12.929 18.4171 12.0857 19.0298L7.42722 22.4144C7.15781 22.6101 6.79534 22.3467 6.89824 22.0301L8.6776 16.5537C8.99973 15.5623 8.64684 14.4762 7.80348 13.8635L3.14504 10.4789C2.87564 10.2832 3.0141 9.85706 3.34709 9.85706H9.10524C10.1477 9.85706 11.0716 9.18581 11.3937 8.19438L13.1731 2.71806C13.276 2.40135 13.724 2.40136 13.8269 2.71805L15.6063 8.19438C15.9284 9.18581 16.8523 9.85706 17.8948 9.85706C18.4643 9.85706 18.926 9.39535 18.926 8.82581C18.926 8.25626 18.4643 7.79456 17.8948 7.79456C17.7459 7.79456 17.6139 7.69866 17.5679 7.55703L15.7885 2.08071Z" fill="#7DF17B"/>
</svg>
