<svg width="50" height="50" viewBox="0 0 50 50" fill="none" xmlns="http://www.w3.org/2000/svg">
<path d="M23.6709 20.1466L23.6941 20.1528C24.6028 20.4035 25.374 21.0064 25.8364 21.8278C26.3166 22.6389 26.4531 23.6082 26.2158 24.5205C26.0685 25.0609 25.7934 25.5579 25.4136 25.9694L32.7744 27.9418C33.6961 28.1873 34.6776 28.0573 35.5036 27.5803C36.3298 27.1035 36.9331 26.3185 37.1813 25.3974L39.4578 16.9013L39.4578 16.9014C39.7034 15.9797 39.5734 14.9981 39.0963 14.1721C38.6195 13.346 37.8345 12.7427 36.9134 12.4945L28.4173 10.218L28.4175 10.218C27.4957 9.97239 26.5142 10.1024 25.6882 10.5794C24.8621 11.0563 24.2587 11.8413 24.0105 12.7623L22.0382 20.1231C22.5762 19.998 23.1367 20.0059 23.6709 20.1466ZM21.9095 21.0655L24.5175 25.6055C24.5368 25.6348 24.5606 25.6607 24.5881 25.6823C25.0058 25.3239 25.3041 24.8464 25.4432 24.3138C25.6205 23.6055 25.5156 22.856 25.1505 22.2238C24.7855 21.5915 24.1889 21.1259 23.4868 20.9254C22.9573 20.7692 22.3915 20.7889 21.8742 20.9816C21.8829 21.0109 21.8948 21.039 21.9096 21.0657L21.9095 21.0655Z" fill="url(#paint0_linear_157_4657)"/>
<g filter="url(#filter0_bi_157_4657)">
<path d="M33.3335 21.2886L33.296 21.2924C31.8208 21.4274 30.3527 20.9684 29.2175 20.0169C28.0618 19.0902 27.3239 17.7407 27.1671 16.2676C27.0841 15.3914 27.2132 14.5081 27.5436 13.6925L15.6269 14.8722C14.1354 15.0219 12.7642 15.7572 11.814 16.9164C10.8636 18.0755 10.4115 19.5642 10.557 21.0561L11.9187 34.8109L11.9187 34.8107C12.0684 36.3022 12.8037 37.6734 13.9629 38.6235C15.122 39.574 16.6107 40.0261 18.1026 39.8805L31.8574 38.5189L31.8572 38.5189C33.3487 38.3691 34.7199 37.6339 35.6701 36.4746C36.6205 35.3156 37.0726 33.8269 36.927 32.335L35.7473 20.4183C35.0256 20.9004 34.197 21.1994 33.3335 21.2886ZM35.4143 18.9612L29.063 13.731C29.0183 13.6986 28.9689 13.6737 28.9166 13.6571C28.501 14.4157 28.3271 15.2831 28.4177 16.1433C28.5496 17.2832 29.1193 18.327 30.0066 19.0543C30.8937 19.7817 32.029 20.1357 33.1725 20.0415C34.0377 19.9776 34.8589 19.6351 35.5127 19.0649C35.4835 19.0268 35.4505 18.992 35.414 18.9609L35.4143 18.9612Z" fill="url(#paint1_linear_157_4657)" fill-opacity="0.5"/>
<path d="M29.1552 29.193L29.1607 29.2485C29.1936 29.5812 29.009 29.8795 28.6909 29.911C28.4788 29.9319 28.2612 29.8975 28.0802 29.6914C27.8992 29.4854 27.6597 29.2291 27.4513 28.7458C27.7582 26.9795 28.7047 21.3984 28.7047 21.3984L25.8948 21.6766C25.8948 21.6766 25.756 22.9782 25.6592 24.1636L25.6537 24.1082C25.3923 23.6301 24.9607 23.0569 24.4982 22.7108C23.6846 22.0634 22.8034 21.8146 21.7961 21.9144C20.3646 22.0561 19.2532 22.726 18.4031 23.8741C17.5531 25.0221 17.2132 26.4556 17.3669 28.0082C17.5371 29.7272 18.1515 31.0662 19.2101 32.0254C20.2742 33.0399 21.49 33.4235 23.0274 33.2713C23.9287 33.1821 24.7496 32.8208 25.4369 32.1929C25.8811 31.8129 26.3089 31.2666 26.7201 30.554C26.9396 31.1482 27.1955 31.5708 27.4405 31.8825C27.8611 32.3448 28.4242 32.625 29.0073 32.5673C29.5905 32.5096 30.1408 32.1192 30.3565 31.5938C30.5777 31.124 30.6288 30.559 30.53 29.5609L30.4751 29.0064L29.1552 29.193ZM24.5995 30.7639C24.2412 31.4713 23.7439 31.8565 23.1078 31.9195C22.3655 31.9929 21.8024 31.7128 21.3069 31.0338C20.8114 30.355 20.4896 29.267 20.3469 27.8252C20.2151 26.4944 20.3229 25.4199 20.7287 24.6517C21.0814 23.8889 21.5842 23.5592 22.2734 23.4909C22.9096 23.428 23.4142 23.658 23.8987 24.226C24.4362 24.7887 24.9117 25.8055 25.314 27.1655C25.2245 28.9662 24.9577 30.0565 24.5995 30.7639Z" fill="white"/>
</g>
<defs>
<filter id="filter0_bi_157_4657" x="0.529297" y="3.65723" width="46.4238" height="46.25" filterUnits="userSpaceOnUse" color-interpolation-filters="sRGB">
<feFlood flood-opacity="0" result="BackgroundImageFix"/>
<feGaussianBlur in="BackgroundImageFix" stdDeviation="5"/>
<feComposite in2="SourceAlpha" operator="in" result="effect1_backgroundBlur_157_4657"/>
<feBlend mode="normal" in="SourceGraphic" in2="effect1_backgroundBlur_157_4657" result="shape"/>
<feColorMatrix in="SourceAlpha" type="matrix" values="0 0 0 0 0 0 0 0 0 0 0 0 0 0 0 0 0 0 127 0" result="hardAlpha"/>
<feOffset/>
<feGaussianBlur stdDeviation="1"/>
<feComposite in2="hardAlpha" operator="arithmetic" k2="-1" k3="1"/>
<feColorMatrix type="matrix" values="0 0 0 0 0.708333 0 0 0 0 0.330556 0 0 0 0 0.330556 0 0 0 0.25 0"/>
<feBlend mode="normal" in2="shape" result="effect2_innerShadow_157_4657"/>
</filter>
<linearGradient id="paint0_linear_157_4657" x1="34.8942" y1="25.8029" x2="29.3749" y2="14.377" gradientUnits="userSpaceOnUse">
<stop stop-color="#9F6BC9"/>
<stop offset="1" stop-color="#9F6BC9"/>
</linearGradient>
<linearGradient id="paint1_linear_157_4657" x1="33.2249" y1="27.1916" x2="16.6343" y2="30.0394" gradientUnits="userSpaceOnUse">
<stop stop-color="#F5CED5"/>
<stop offset="1" stop-color="#F3B9C3"/>
</linearGradient>
</defs>
</svg>
