<svg width="19" height="19" viewBox="0 0 19 19" fill="none" xmlns="http://www.w3.org/2000/svg">
<g id="Tilda_Icons_15re_stock">
<g id="Group">
<path id="Vector" d="M13.5246 2.22183C13.4811 2.12493 13.3876 2.06014 13.2816 2.05387C13.1733 2.04589 13.0747 2.10061 13.0202 2.19162L11.8747 4.09865C11.7935 4.23355 11.8374 4.40873 11.9723 4.48967C12.107 4.5708 12.2824 4.52729 12.3635 4.3922L12.9364 3.4384C12.7291 5.33726 11.7474 7.22966 10.1696 8.72629C8.30038 10.4994 5.8851 11.4758 3.36874 11.4758C3.21123 11.4758 3.08374 11.6035 3.08374 11.7608C3.08374 11.9181 3.21123 12.0458 3.36874 12.0458C6.03178 12.0458 8.58633 11.0137 10.562 9.13992C12.2218 7.56558 13.2626 5.5702 13.498 3.55715L13.9232 4.50753C13.9705 4.61336 14.0747 4.67625 14.1835 4.67625C14.2225 4.67625 14.262 4.66827 14.2996 4.65136C14.4435 4.58714 14.5079 4.41842 14.4435 4.27478L13.5246 2.22183Z" fill="#9F6BC9"/>
<path id="Vector_2" d="M3.43954 13.572C3.28203 13.572 3.15454 13.6997 3.15454 13.857V16.6618C3.15454 16.8191 3.28203 16.9468 3.43954 16.9468C3.59705 16.9468 3.72454 16.8191 3.72454 16.6618V13.857C3.72454 13.6997 3.59705 13.572 3.43954 13.572Z" fill="#9F6BC9"/>
<path id="Vector_3" d="M7.73373 12.3832C7.57622 12.3832 7.44873 12.5109 7.44873 12.6682V16.6618C7.44873 16.8191 7.57622 16.9468 7.73373 16.9468C7.89124 16.9468 8.01873 16.8191 8.01873 16.6618V12.6682C8.01873 12.5109 7.89124 12.3832 7.73373 12.3832Z" fill="#9F6BC9"/>
<path id="Vector_4" d="M11.931 9.54822C11.7737 9.54822 11.646 9.6759 11.646 9.83322V16.6616C11.646 16.8189 11.7737 16.9466 11.931 16.9466C12.0883 16.9466 12.216 16.8189 12.216 16.6616V9.83322C12.216 9.6759 12.0883 9.54822 11.931 9.54822Z" fill="#9F6BC9"/>
<path id="Vector_5" d="M15.6314 2.71997C15.4741 2.71997 15.3464 2.84746 15.3464 3.00497V16.6616C15.3464 16.8189 15.4741 16.9466 15.6314 16.9466C15.7888 16.9466 15.9164 16.8189 15.9164 16.6616V3.00497C15.9164 2.84746 15.7889 2.71997 15.6314 2.71997Z" fill="#9F6BC9"/>
</g>
</g>
</svg>
