<svg width="35" height="35" viewBox="0 0 35 35" fill="none" xmlns="http://www.w3.org/2000/svg">
<path d="M17.5 20C10.6076 20 5 25.5944 5 32.4711C5 32.7631 5.23716 33 5.53016 33H29.4698C29.7625 33 30 32.7631 30 32.4711C30 25.5944 24.3927 20 17.5 20ZM6.07233 31.9423C6.35013 25.8934 11.3696 21.0577 17.5 21.0577C23.6304 21.0577 28.6502 25.8934 28.9277 31.9423H6.07233Z" fill="white"/>
<path d="M17 5C13.1403 5 10 8.14025 10 12C10 15.8597 13.1403 19 17 19C20.8601 19 24 15.8597 24 12C24 8.14025 20.8597 5 17 5ZM17 17.9687C13.7088 17.9687 11.0313 15.2912 11.0313 12C11.0313 8.70883 13.7088 6.03128 17 6.03128C20.2912 6.03128 22.9687 8.70883 22.9687 12C22.9687 15.2912 20.2912 17.9687 17 17.9687Z" fill="white"/>
<path d="M8.71363 15.7822C9.0066 15.7822 9.24373 15.5481 9.24373 15.2588V8.48475C9.24373 8.45125 9.23984 8.4188 9.23383 8.38704C10.6541 5.13507 13.8471 3.04653 17.4564 3.04653C21.1303 3.04653 24.3766 5.21079 25.7563 8.56571V15.2194C25.3117 16.3004 24.666 17.2726 23.8303 18.1088C23.6246 18.3146 23.6267 18.6458 23.8352 18.8489C23.9384 18.9497 24.073 19 24.2077 19C24.3444 19 24.4812 18.948 24.5848 18.8444C25.4753 17.9535 26.1733 16.9237 26.6673 15.7826H27.0398C29.2235 15.7826 31 14.0283 31 11.8721C31 9.71588 29.2235 7.96166 27.0398 7.96166H26.6447C25.0534 4.33141 21.4865 2 17.4564 2C13.4241 2 9.85687 4.33106 8.26623 7.96166H7.96018C5.77653 7.96166 4 9.71588 4 11.8721C4 14.0283 5.77653 15.7826 7.96018 15.7826H8.71363V15.7822ZM29.9398 11.8718C29.9398 13.4508 28.6386 14.7353 27.0398 14.7353H26.8165V9.00819H27.0398C28.6389 9.00819 29.9398 10.2927 29.9398 11.8718ZM5.0602 11.8718C5.0602 10.2927 6.36106 9.00819 7.96018 9.00819H8.18353V14.7353H7.96018C6.36106 14.7353 5.0602 13.4508 5.0602 11.8718Z" fill="white"/>
</svg>
