<svg width="50" height="50" viewBox="0 0 50 50" fill="none" xmlns="http://www.w3.org/2000/svg">
<path d="M26.0048 19.3575L27.5801 19.6352V19.6349C27.7648 20.3203 28.0387 20.9786 28.3943 21.5931L27.4773 22.9012C27.313 23.1341 27.2363 23.4174 27.2607 23.7012C27.2852 23.985 27.4088 24.251 27.6103 24.4525L28.5539 25.3954H28.5541C28.7556 25.5967 29.0221 25.7206 29.306 25.745C29.59 25.7694 29.8735 25.6927 30.1065 25.5286L31.4156 24.6122H31.4153C32.0303 24.9676 32.689 25.2411 33.3749 25.4259L33.6528 27.0001C33.7019 27.2801 33.8484 27.5337 34.066 27.7167C34.284 27.8995 34.5592 28 34.8437 28H36.1944C36.4789 28 36.7544 27.8995 36.9721 27.7167C37.19 27.5337 37.3362 27.2802 37.3856 27.0001L37.6635 25.4259H37.6632C38.3477 25.2408 39.0052 24.9673 39.6191 24.6122L40.9281 25.5286H40.9279C41.1609 25.6927 41.4444 25.7694 41.7283 25.745C42.0126 25.7206 42.2788 25.5967 42.4802 25.3954L43.4241 24.4525C43.6255 24.2509 43.7495 23.9849 43.7736 23.7012C43.7981 23.4174 43.7213 23.1341 43.5573 22.9012L42.6249 21.5931C42.9752 20.9778 43.2438 20.3195 43.4241 19.6349L44.9994 19.3572V19.3575C45.2796 19.3082 45.5334 19.162 45.7165 18.9443C45.8994 18.7268 46 18.4515 46 18.1672V16.8326C46 16.5485 45.8994 16.2732 45.7165 16.0557C45.5334 15.838 45.2797 15.6918 44.9994 15.6425L43.4241 15.3651C43.2391 14.6797 42.9654 14.0214 42.6098 13.4069L43.5268 12.0987C43.6948 11.8693 43.7768 11.5882 43.758 11.3044C43.7391 11.0206 43.621 10.7527 43.4241 10.5475L42.4652 9.60456C42.264 9.40245 41.998 9.27806 41.714 9.25313C41.43 9.22794 41.1463 9.30406 40.9127 9.4677L39.6191 10.3841C39.0041 10.0287 38.3453 9.75494 37.6595 9.57037L37.3816 7.99621C37.3317 7.71745 37.1857 7.46522 36.9686 7.283C36.7518 7.10105 36.4778 7.0008 36.1944 7H34.8399C34.5554 7 34.2801 7.10052 34.0622 7.28327C33.8443 7.46627 33.6981 7.71983 33.649 7.99994L33.3711 9.5741C32.6855 9.75763 32.0268 10.03 31.4115 10.3841L30.1065 9.46777C29.8729 9.30412 29.5892 9.228 29.3052 9.25319C29.0212 9.27812 28.7552 9.40252 28.554 9.60462L27.6104 10.5475H27.6102C27.4087 10.7491 27.285 11.0151 27.2606 11.2989C27.2362 11.5827 27.3129 11.866 27.4772 12.0988L28.3942 13.4069C28.0372 14.0212 27.7623 14.6795 27.5759 15.3651L26.0006 15.6428V15.6426C25.7206 15.6919 25.4666 15.838 25.2835 16.0558C25.1006 16.2733 25.0003 16.5486 25 16.8326V18.1672C25.0003 18.4521 25.1014 18.7277 25.2851 18.9454C25.4687 19.1632 25.7235 19.309 26.0046 19.3576L26.0048 19.3575Z" fill="url(#paint0_linear_677_4796)"/>
<g filter="url(#filter0_bi_677_4796)">
<g filter="url(#filter1_bi_677_4796)">
<path fill-rule="evenodd" clip-rule="evenodd" d="M22.6314 6.79855C22.2293 6.83764 21.8895 7.21317 21.8901 7.61664V11.145C18.3232 11.7257 15.8295 13.4253 14.2454 15.6832C12.5904 18.0422 11.8556 20.9009 11.4202 23.6223L8.09638 29.4132C7.83757 29.8592 8.1292 30.5189 8.63342 30.6276L13.8876 31.7399V39.0395C13.8893 39.4675 14.2774 39.8562 14.7057 39.8576H20.2155V41.9798C20.2172 42.4078 20.6053 42.7965 21.0336 42.7979H32.398C32.8263 42.7979 33.2147 42.4075 33.2161 41.9798V34.7827C36.1934 32.4839 38.2656 28.6645 38.2656 24.3767C38.2656 21.1061 37.5046 17.9897 35.6832 15.556C33.9123 13.1895 31.1273 11.5502 27.3226 11.056V7.61722C27.3209 7.18919 26.9328 6.80052 26.5045 6.79914H22.7205C22.6905 6.79742 22.6608 6.79742 22.6309 6.79914L22.6314 6.79855Z" fill="url(#paint1_linear_677_4796)" fill-opacity="0.5"/>
<g filter="url(#filter2_d_677_4796)">
<path d="M25.6865 8.43457H23.539V8.43468C23.539 11.6391 23.5418 14.8327 23.539 18.048C24.256 18.0272 24.7626 18.0141 25.6865 18.0224V8.43457Z" fill="white"/>
<path d="M29.0488 23.9537C28.9878 21.0183 26.7226 19.3992 24.4849 19.4665C23.313 19.502 22.1465 20.0002 21.3147 21.0135C18.7739 24.1851 21.4508 28.1512 24.8173 28.1595C26.9201 28.1184 28.8328 26.1578 29.0488 23.9537Z" fill="white"/>
</g>
</g>
</g>
<defs>
<filter id="filter0_bi_677_4796" x="-2" y="-3.20215" width="50.2656" height="56" filterUnits="userSpaceOnUse" color-interpolation-filters="sRGB">
<feFlood flood-opacity="0" result="BackgroundImageFix"/>
<feGaussianBlur in="BackgroundImageFix" stdDeviation="5"/>
<feComposite in2="SourceAlpha" operator="in" result="effect1_backgroundBlur_677_4796"/>
<feBlend mode="normal" in="SourceGraphic" in2="effect1_backgroundBlur_677_4796" result="shape"/>
<feColorMatrix in="SourceAlpha" type="matrix" values="0 0 0 0 0 0 0 0 0 0 0 0 0 0 0 0 0 0 127 0" result="hardAlpha"/>
<feOffset/>
<feGaussianBlur stdDeviation="1"/>
<feComposite in2="hardAlpha" operator="arithmetic" k2="-1" k3="1"/>
<feColorMatrix type="matrix" values="0 0 0 0 0.708333 0 0 0 0 0.330556 0 0 0 0 0.330556 0 0 0 0.25 0"/>
<feBlend mode="normal" in2="shape" result="effect2_innerShadow_677_4796"/>
</filter>
<filter id="filter1_bi_677_4796" x="-2" y="-3.20215" width="50.2656" height="56" filterUnits="userSpaceOnUse" color-interpolation-filters="sRGB">
<feFlood flood-opacity="0" result="BackgroundImageFix"/>
<feGaussianBlur in="BackgroundImageFix" stdDeviation="5"/>
<feComposite in2="SourceAlpha" operator="in" result="effect1_backgroundBlur_677_4796"/>
<feBlend mode="normal" in="SourceGraphic" in2="effect1_backgroundBlur_677_4796" result="shape"/>
<feColorMatrix in="SourceAlpha" type="matrix" values="0 0 0 0 0 0 0 0 0 0 0 0 0 0 0 0 0 0 127 0" result="hardAlpha"/>
<feOffset/>
<feGaussianBlur stdDeviation="0.5"/>
<feComposite in2="hardAlpha" operator="arithmetic" k2="-1" k3="1"/>
<feColorMatrix type="matrix" values="0 0 0 0 0.708333 0 0 0 0 0.330556 0 0 0 0 0.330556 0 0 0 0.25 0"/>
<feBlend mode="normal" in2="shape" result="effect2_innerShadow_677_4796"/>
</filter>
<filter id="filter2_d_677_4796" x="20.3086" y="8.43457" width="8.74023" height="20.7246" filterUnits="userSpaceOnUse" color-interpolation-filters="sRGB">
<feFlood flood-opacity="0" result="BackgroundImageFix"/>
<feColorMatrix in="SourceAlpha" type="matrix" values="0 0 0 0 0 0 0 0 0 0 0 0 0 0 0 0 0 0 127 0" result="hardAlpha"/>
<feOffset dy="1"/>
<feComposite in2="hardAlpha" operator="out"/>
<feColorMatrix type="matrix" values="0 0 0 0 0 0 0 0 0 0 0 0 0 0 0 0 0 0 0.1 0"/>
<feBlend mode="normal" in2="BackgroundImageFix" result="effect1_dropShadow_677_4796"/>
<feBlend mode="normal" in="SourceGraphic" in2="effect1_dropShadow_677_4796" result="shape"/>
</filter>
<linearGradient id="paint0_linear_677_4796" x1="27.7632" y1="10.4334" x2="38.6471" y2="23.0502" gradientUnits="userSpaceOnUse">
<stop stop-color="#9F6BC9"/>
<stop offset="1" stop-color="#9F6BC9"/>
</linearGradient>
<linearGradient id="paint1_linear_677_4796" x1="28.9532" y1="16.9718" x2="12.7183" y2="17.9394" gradientUnits="userSpaceOnUse">
<stop stop-color="#F5CED5"/>
<stop offset="1" stop-color="#F3B9C3"/>
</linearGradient>
</defs>
</svg>
