<svg width="32" height="36" viewBox="0 0 32 36" fill="none" xmlns="http://www.w3.org/2000/svg">
<path fill-rule="evenodd" clip-rule="evenodd" d="M21.3333 13.14C21.2898 15.5901 19.5116 17.5505 17.3333 17.55C15.181 17.5101 13.4428 15.5612 13.4 13.14V11.445C13.3997 10.4466 13.7577 9.49031 14.3927 8.79285C15.0277 8.09538 15.8861 7.71576 16.7733 7.74002H18.0267C18.9024 7.73603 19.7435 8.12461 20.364 8.81987C20.9845 9.51512 21.3334 10.4598 21.3333 11.445V13.14ZM16.7333 9.94502C15.997 9.94502 15.4 10.6166 15.4 11.445L15.4533 13.14C15.4533 14.3412 16.3189 15.315 17.3867 15.315C18.4544 15.315 19.32 14.3412 19.32 13.14V11.445C19.32 10.6166 18.7231 9.94502 17.9867 9.94502H16.7333Z" fill="#7DF17B"/>
<path fill-rule="evenodd" clip-rule="evenodd" d="M31.3067 22.95L31.4533 25.29C31.6074 26.0224 31.457 26.7938 31.0445 27.3863C30.632 27.9787 30.0023 28.3279 29.3333 28.335H23.3467C22.8244 28.9613 22.0967 29.3192 21.3333 29.325H13.3333C12.5315 29.3371 11.7638 28.96 11.2267 28.29C11.1026 28.3055 10.9774 28.3055 10.8533 28.29H4.73335C4.08264 28.2624 3.47625 27.9119 3.07736 27.3329C2.67848 26.7539 2.52809 26.0058 2.66668 25.29L2.86668 22.95C3.06124 21.8335 3.92215 21.0212 4.93335 21H10.6667C10.906 20.9851 11.1457 21.0207 11.3733 21.105C11.8849 20.3862 12.6615 19.9714 13.48 19.98H21.1867C21.9573 19.9768 22.6914 20.3487 23.2 21C23.2929 20.9852 23.3871 20.9852 23.48 21H29.24C30.2512 21.0212 31.1121 21.8335 31.3067 22.95ZM23.4 26.04H29.44C29.4808 25.9516 29.4857 25.8477 29.4534 25.755V25.455L29.32 23.325L29.24 23.205H23.2C22.6363 23.2073 22.0983 22.9401 21.72 22.47C21.5877 22.292 21.3929 22.1879 21.1867 22.185H13.48C13.2566 22.1882 13.0463 22.3038 12.9067 22.5C12.5261 23.0083 11.9641 23.2997 11.3734 23.295C11.1314 23.2963 10.8916 23.2453 10.6667 23.145H5.00002C4.92002 23.145 4.92002 23.175 4.92002 23.265L4.78668 25.395V25.695C4.75017 25.7856 4.75017 25.8895 4.78668 25.98H10.9067C11.0486 25.9654 11.1914 25.9654 11.3334 25.98C11.8752 25.9913 12.388 26.258 12.7467 26.715C12.8938 26.9087 13.107 27.0232 13.3334 27.03H21.3867C21.6135 27.0251 21.8273 26.9103 21.9734 26.715C22.3482 26.2823 22.8629 26.0388 23.4 26.04Z" fill="#7DF17B"/>
<path fill-rule="evenodd" clip-rule="evenodd" d="M29.2933 15.39C29.2933 17.2126 27.98 18.69 26.36 18.69C25.5797 18.694 24.8302 18.3481 24.2772 17.7288C23.7242 17.1095 23.4133 16.2678 23.4133 15.39V14.13C23.4133 13.394 23.6732 12.6882 24.1358 12.1678C24.5984 11.6474 25.2258 11.355 25.88 11.355H26.8267C28.189 11.355 29.2933 12.5974 29.2933 14.13V15.39ZM25.55 13.8188C25.4625 13.9172 25.4133 14.0508 25.4133 14.19V15.45C25.4701 15.9856 25.8739 16.3888 26.3533 16.3888C26.8328 16.3888 27.2365 15.9856 27.2933 15.45V14.19C27.2933 13.9001 27.0844 13.665 26.8267 13.665H25.88C25.7562 13.665 25.6375 13.7203 25.55 13.8188Z" fill="#7DF17B"/>
<path fill-rule="evenodd" clip-rule="evenodd" d="M9.89615 17.7288C9.34316 18.3481 8.59362 18.694 7.81335 18.69C7.03538 18.69 6.28928 18.3423 5.73917 17.7235C5.18906 17.1046 4.88002 16.2652 4.88002 15.39V14.13C4.88002 12.5974 5.98438 11.355 7.34668 11.355H8.29335C9.65565 11.355 10.76 12.5974 10.76 14.13V15.39C10.76 16.2678 10.4491 17.1095 9.89615 17.7288ZM7.34668 13.665C7.08895 13.665 6.88002 13.9001 6.88002 14.19V15.45C6.93682 15.9856 7.34057 16.3888 7.82002 16.3888C8.29947 16.3888 8.70322 15.9856 8.76002 15.45V14.19C8.76002 13.9001 8.55108 13.665 8.29335 13.665H7.34668Z" fill="#7DF17B"/>
</svg>
