<svg width="62" height="70" viewBox="0 0 62 70" fill="none" xmlns="http://www.w3.org/2000/svg">
<path fill-rule="evenodd" clip-rule="evenodd" d="M41.3333 25.55C41.2489 30.314 37.8037 34.1259 33.5833 34.125C29.4132 34.0474 26.0453 30.2578 25.9625 25.55V22.2541C25.962 20.3128 26.6555 18.4533 27.8859 17.0971C29.1162 15.741 30.7793 15.0028 32.4983 15.05H34.9267C36.6234 15.0422 38.2531 15.7978 39.4553 17.1497C40.6575 18.5016 41.3333 20.3384 41.3333 22.2541V25.55ZM32.4208 19.3375C30.9941 19.3375 29.8375 20.6433 29.8375 22.2541L29.9408 25.55C29.9408 27.8857 31.6179 29.7791 33.6867 29.7791C35.7554 29.7791 37.4325 27.8857 37.4325 25.55V22.2541C37.4325 20.6433 36.2759 19.3375 34.8492 19.3375H32.4208Z" fill="#7DF17B"/>
<path fill-rule="evenodd" clip-rule="evenodd" d="M60.6567 44.625L60.9408 49.175C61.2394 50.599 60.9479 52.099 60.1486 53.251C59.3494 54.4031 58.1294 55.082 56.8333 55.0958H45.2342C44.2223 56.3136 42.8122 57.0094 41.3333 57.0208H25.8333C24.2797 57.0443 22.7923 56.311 21.7517 55.0083C21.5113 55.0384 21.2687 55.0384 21.0283 55.0083H9.17083C7.91009 54.9546 6.7352 54.2731 5.96236 53.1472C5.18952 52.0214 4.89815 50.5668 5.16666 49.175L5.55416 44.625C5.93112 42.4539 7.59914 40.8744 9.55833 40.8333H20.6667C21.1303 40.8043 21.5947 40.8735 22.0358 41.0375C23.0269 39.6397 24.5317 38.8333 26.1175 38.85H41.0492C42.5422 38.8437 43.9646 39.5669 44.95 40.8333C45.1299 40.8046 45.3126 40.8046 45.4925 40.8333H56.6525C58.6117 40.8744 60.2797 42.4539 60.6567 44.625ZM45.3375 50.6333H57.04C57.1191 50.4615 57.1285 50.2594 57.0658 50.0791V49.4958L56.8075 45.3541L56.6525 45.1208H44.95C43.8579 45.1253 42.8155 44.6058 42.0825 43.6916C41.8262 43.3455 41.4487 43.1431 41.0492 43.1375H26.1175C25.6847 43.1438 25.2772 43.3685 25.0067 43.75C24.2692 44.7383 23.1804 45.3049 22.0358 45.2958C21.5671 45.2982 21.1024 45.1992 20.6667 45.0041H9.6875C9.5325 45.0041 9.5325 45.0625 9.5325 45.2375L9.27417 49.3791V49.9625C9.20343 50.1386 9.20343 50.3406 9.27417 50.5166H21.1317C21.4067 50.4881 21.6834 50.4881 21.9583 50.5166C23.0082 50.5387 24.0017 51.0572 24.6967 51.9458C24.9817 52.3224 25.3947 52.545 25.8333 52.5583H41.4367C41.8761 52.5487 42.2904 52.3254 42.5733 51.9458C43.2997 51.1044 44.2969 50.631 45.3375 50.6333Z" fill="#7DF17B"/>
<path fill-rule="evenodd" clip-rule="evenodd" d="M56.7558 29.925C56.7558 33.4688 54.2113 36.3416 51.0725 36.3416C49.5607 36.3494 48.1085 35.6768 47.0371 34.4726C45.9656 33.2684 45.3633 31.6319 45.3633 29.925V27.475C45.3633 26.0439 45.8669 24.6715 46.7631 23.6595C47.6594 22.6476 48.875 22.0791 50.1425 22.0791H51.9767C54.6161 22.0791 56.7558 24.4949 56.7558 27.475V29.925ZM49.5032 26.8698C49.3336 27.0613 49.2383 27.3209 49.2383 27.5916V30.0416C49.3484 31.0831 50.1307 31.8672 51.0596 31.8672C51.9885 31.8672 52.7708 31.0831 52.8808 30.0416V27.5916C52.8808 27.0279 52.476 26.5708 51.9767 26.5708H50.1425C49.9027 26.5708 49.6727 26.6784 49.5032 26.8698Z" fill="#7DF17B"/>
<path fill-rule="evenodd" clip-rule="evenodd" d="M19.1738 34.4726C18.1023 35.6768 16.6501 36.3494 15.1383 36.3416C13.631 36.3416 12.1854 35.6656 11.1196 34.4622C10.0538 33.2589 9.455 31.6268 9.455 29.925V27.475C9.455 24.4949 11.5947 22.0791 14.2342 22.0791H16.0683C18.7078 22.0791 20.8475 24.4949 20.8475 27.475V29.925C20.8475 31.6319 20.2452 33.2684 19.1738 34.4726ZM14.2342 26.5708C13.7348 26.5708 13.33 27.0279 13.33 27.5916V30.0416C13.4401 31.0831 14.2223 31.8672 15.1513 31.8672C16.0802 31.8672 16.8625 31.0831 16.9725 30.0416V27.5916C16.9725 27.0279 16.5677 26.5708 16.0683 26.5708H14.2342Z" fill="#7DF17B"/>
</svg>
