<svg width="24" height="28" viewBox="0 0 24 28" fill="none" xmlns="http://www.w3.org/2000/svg">
<path d="M9.40195 5.86524C9.57876 6.18946 9.54936 6.60208 9.34294 6.86729C9.13653 7.16211 8.93032 7.30931 8.69452 7.45671C8.1051 7.86933 7.60405 8.31134 7.51568 9.54944C7.51568 9.69685 7.54508 9.84426 7.66309 9.93266C7.7515 10.0505 7.89891 10.1095 8.04631 10.1095H8.72415C8.98937 10.1095 9.19578 9.90306 9.22518 9.63785C9.25305 9.16283 9.36057 9.08511 9.64796 8.87739C9.66369 8.86601 9.67997 8.85425 9.6968 8.84201L9.70776 8.83433C10.0011 8.629 10.3794 8.36419 10.7579 7.86938C11.3473 7.07353 11.4357 5.98306 10.9643 5.06943C10.4632 4.0968 9.46117 3.50733 8.28212 3.50733C6.30738 3.50733 5.42317 4.92201 5.24633 6.13048C5.21693 6.27789 5.27573 6.4253 5.36414 6.5431C5.45254 6.66091 5.59995 6.71991 5.74736 6.71991H6.45478C6.69059 6.71991 6.8968 6.5431 6.9558 6.30729C7.04421 5.80627 7.33902 5.24624 8.28206 5.24624C8.98933 5.24624 9.28395 5.62941 9.40195 5.86524Z" fill="#9F6BC9"/>
<path d="M8.341 12.9095C8.91071 12.9095 9.37247 12.4475 9.37247 11.8779C9.37247 11.3081 8.91068 10.8462 8.341 10.8462C7.77128 10.8462 7.30932 11.3082 7.30932 11.8779C7.30932 12.4476 7.77132 12.9095 8.341 12.9095Z" fill="#9F6BC9"/>
<path fill-rule="evenodd" clip-rule="evenodd" d="M22.724 26.3494C22.282 26.0546 22.0166 25.5536 22.0166 25.0232C22.0166 24.4927 22.2818 23.9915 22.6944 23.6969C22.9597 23.5201 23.1071 23.2549 23.1071 22.9306L23.1073 7.84014C23.1073 6.42546 21.9578 5.27599 20.5431 5.27599L15.8863 5.27578C14.7074 2.181 11.7305 0 8.22314 0C3.68431 0 0 3.6842 0 8.22314C0 11.4063 1.79789 14.1473 4.45047 15.5031V24.9936C4.45047 26.6441 5.80636 28 7.45683 28H22.2231C22.6357 28 22.96 27.7348 23.0777 27.3516C23.1958 26.9684 23.0482 26.5556 22.724 26.3494ZM1.65038 8.22314C1.65038 4.59793 4.59774 1.67999 8.19353 1.67999C11.7893 1.67999 14.7367 4.62736 14.7367 8.22314C14.7367 11.8189 11.7893 14.7663 8.19353 14.7663C4.59774 14.7663 1.65038 11.8189 1.65038 8.22314ZM20.3956 26.1726H7.42721C6.77879 26.1726 6.24837 25.6422 6.24837 24.9937C6.24837 24.3453 6.77879 23.8149 7.42721 23.8149H20.3956C20.2482 24.1981 20.1892 24.5812 20.1892 24.9937C20.1892 25.4062 20.2482 25.8188 20.3956 26.1726ZM21.2799 22.0167H7.42727C7.01465 22.0167 6.63142 22.1052 6.24843 22.2526L6.24822 16.181C6.86727 16.3284 7.51548 16.4168 8.19353 16.4168C12.7324 16.4168 16.4167 12.7326 16.4167 8.19366C16.4167 7.81044 16.3873 7.45682 16.3283 7.07361H20.5135C20.9261 7.07361 21.2798 7.39783 21.2798 7.83988L21.2799 22.0167Z" fill="#9F6BC9"/>
</svg>
