<svg width="27" height="23" viewBox="0 0 27 23" fill="none" xmlns="http://www.w3.org/2000/svg">
<path fill-rule="evenodd" clip-rule="evenodd" d="M0.399994 21.4C0.399994 20.7925 0.906552 20.3 1.53142 20.3H25.6686C26.2934 20.3 26.8 20.7925 26.8 21.4C26.8 22.0075 26.2934 22.5 25.6686 22.5H1.53142C0.906552 22.5 0.399994 22.0075 0.399994 21.4Z" fill="#7DF17B"/>
<path fill-rule="evenodd" clip-rule="evenodd" d="M10.2769 8.03894C10.2769 6.60912 11.5414 5.45001 13.1012 5.45001H17.2923C17.9041 5.45001 18.4 5.90462 18.4 6.4654C18.4 7.02618 17.9041 7.48078 17.2923 7.48078H13.1012C12.7649 7.48078 12.4923 7.73068 12.4923 8.03894C12.4923 8.27919 12.66 8.49249 12.9086 8.56846L14.9919 9.20501C16.1452 9.5574 16.9231 10.5467 16.9231 11.6611C16.9231 13.0909 15.6586 14.25 14.0988 14.25H9.90768C9.29592 14.25 8.79999 13.7954 8.79999 13.2346C8.79999 12.6738 9.29592 12.2192 9.90768 12.2192H14.0988C14.4351 12.2192 14.7077 11.9693 14.7077 11.6611C14.7077 11.4208 14.54 11.2075 14.2913 11.1316L12.2081 10.495C11.0548 10.1426 10.2769 9.1533 10.2769 8.03894Z" fill="#7DF17B"/>
<path fill-rule="evenodd" clip-rule="evenodd" d="M13.6 12.05C14.2627 12.05 14.8 12.5016 14.8 13.0587V14.8913C14.8 15.4484 14.2627 15.9 13.6 15.9C12.9373 15.9 12.4 15.4484 12.4 14.8913V13.0587C12.4 12.5016 12.9373 12.05 13.6 12.05Z" fill="#7DF17B"/>
<path fill-rule="evenodd" clip-rule="evenodd" d="M13.6 3.25C14.2627 3.25 14.8 3.70951 14.8 4.27634V6.07366C14.8 6.64049 14.2627 7.1 13.6 7.1C12.9373 7.1 12.4 6.64049 12.4 6.07366V4.27634C12.4 3.70951 12.9373 3.25 13.6 3.25Z" fill="#7DF17B"/>
<path fill-rule="evenodd" clip-rule="evenodd" d="M13.6 17.1222C17.9815 17.1222 21.5333 13.8663 21.5333 9.85001C21.5333 5.83368 17.9815 2.57779 13.6 2.57779C13.1482 2.57779 12.7061 2.6123 12.2764 2.67838C11.6591 2.77332 11.0747 2.39156 10.9712 1.8257C10.8676 1.25985 11.2841 0.724176 11.9014 0.629244C12.4545 0.544178 13.0221 0.500013 13.6 0.500013C19.2333 0.500013 23.8 4.68615 23.8 9.85001C23.8 15.0139 19.2333 19.2 13.6 19.2C7.96669 19.2 3.4 15.0139 3.4 9.85001C3.4 7.81585 4.10994 5.93062 5.3149 4.39519C5.68042 3.92942 6.38863 3.82346 6.89674 4.15852C7.40485 4.49358 7.52044 5.14278 7.15492 5.60854C6.21813 6.80226 5.66666 8.26556 5.66666 9.85001C5.66666 13.8663 9.21854 17.1222 13.6 17.1222Z" fill="#7DF17B"/>
</svg>
