<svg width="109" height="101" viewBox="0 0 109 101" fill="none" xmlns="http://www.w3.org/2000/svg">
<path fill-rule="evenodd" clip-rule="evenodd" d="M16.35 80.8C16.35 78.9406 17.8837 77.4333 19.7757 77.4333H92.8576C94.7496 77.4333 96.2833 78.9406 96.2833 80.8C96.2833 82.6593 94.7496 84.1666 92.8576 84.1666H19.7757C17.8837 84.1666 16.35 82.6593 16.35 80.8Z" fill="#7DF17B"/>
<path fill-rule="evenodd" clip-rule="evenodd" d="M46.2551 39.907C46.2551 35.5309 50.0837 31.9833 54.8064 31.9833H67.4961C69.3484 31.9833 70.85 33.3747 70.85 35.091C70.85 36.8074 69.3484 38.1987 67.4961 38.1987H54.8064C53.7882 38.1987 52.9628 38.9636 52.9628 39.907C52.9628 40.6423 53.4706 41.2952 54.2234 41.5277L60.531 43.4759C64.0229 44.5544 66.3782 47.5824 66.3782 50.993C66.3782 55.3691 62.5496 58.9167 57.8269 58.9167H45.1372C43.2849 58.9167 41.7833 57.5253 41.7833 55.809C41.7833 54.0926 43.2849 52.7013 45.1372 52.7013H57.8269C58.8451 52.7013 59.6705 51.9365 59.6705 50.993C59.6705 50.2577 59.1627 49.6049 58.4099 49.3723L52.1023 47.4241C48.6104 46.3456 46.2551 43.3176 46.2551 39.907Z" fill="#7DF17B"/>
<path fill-rule="evenodd" clip-rule="evenodd" d="M56.3167 52.1833C58.3233 52.1833 59.95 53.5655 59.95 55.2706V60.8793C59.95 62.5844 58.3233 63.9666 56.3167 63.9666C54.31 63.9666 52.6833 62.5844 52.6833 60.8793V55.2706C52.6833 53.5655 54.31 52.1833 56.3167 52.1833Z" fill="#7DF17B"/>
<path fill-rule="evenodd" clip-rule="evenodd" d="M56.3167 25.25C58.3233 25.25 59.95 26.6564 59.95 28.3912V33.8921C59.95 35.627 58.3233 37.0333 56.3167 37.0333C54.31 37.0333 52.6833 35.627 52.6833 33.8921V28.3912C52.6833 26.6564 54.31 25.25 56.3167 25.25Z" fill="#7DF17B"/>
<path fill-rule="evenodd" clip-rule="evenodd" d="M56.3166 67.7074C69.5827 67.7074 80.337 57.7424 80.337 45.45C80.337 33.1576 69.5827 23.1926 56.3166 23.1926C54.9488 23.1926 53.6101 23.2982 52.3091 23.5005C50.44 23.791 48.6707 22.6226 48.3571 20.8907C48.0436 19.1589 49.3045 17.5194 51.1735 17.2288C52.8483 16.9685 54.5667 16.8333 56.3166 16.8333C73.373 16.8333 87.2 29.6454 87.2 45.45C87.2 61.2545 73.373 74.0667 56.3166 74.0667C39.2602 74.0667 25.4333 61.2545 25.4333 45.45C25.4333 39.2242 27.5828 33.4543 31.2312 28.7549C32.3379 27.3294 34.4822 27.0051 36.0207 28.0306C37.5591 29.056 37.9091 31.043 36.8024 32.4685C33.966 36.122 32.2962 40.6006 32.2962 45.45C32.2962 57.7424 43.0505 67.7074 56.3166 67.7074Z" fill="#7DF17B"/>
</svg>
