<svg width="24" height="28" viewBox="0 0 24 28" fill="none" xmlns="http://www.w3.org/2000/svg">
<path d="M9.7606 5.86524C9.94415 6.18946 9.91363 6.60208 9.69934 6.86729C9.48505 7.16211 9.27098 7.30931 9.02618 7.45671C8.41428 7.86933 7.89412 8.31134 7.80238 9.54944C7.80238 9.69685 7.8329 9.84426 7.95541 9.93266C8.04719 10.0505 8.20022 10.1095 8.35325 10.1095H9.05695C9.33228 10.1095 9.54656 9.90306 9.57709 9.63785C9.60602 9.16283 9.71764 9.08511 10.016 8.87739C10.0323 8.86601 10.0492 8.85425 10.0667 8.84201L10.0781 8.83433C10.3826 8.629 10.7753 8.36419 11.1682 7.86938C11.7801 7.07353 11.8719 5.98306 11.3825 5.06943C10.8624 4.0968 9.82208 3.50733 8.59805 3.50733C6.54799 3.50733 5.63005 4.92201 5.44646 6.13048C5.41594 6.27789 5.47698 6.4253 5.56876 6.5431C5.66054 6.66091 5.81357 6.71991 5.9666 6.71991H6.701C6.94581 6.71991 7.15988 6.5431 7.22114 6.30729C7.31292 5.80627 7.61898 5.24624 8.59799 5.24624C9.33224 5.24624 9.63809 5.62941 9.7606 5.86524Z" fill="white"/>
<path d="M8.65918 12.9095C9.25062 12.9095 9.73 12.4475 9.73 11.8779C9.73 11.3081 9.25059 10.8462 8.65918 10.8462C8.06772 10.8462 7.58814 11.3082 7.58814 11.8779C7.58814 12.4476 8.06776 12.9095 8.65918 12.9095Z" fill="white"/>
<path fill-rule="evenodd" clip-rule="evenodd" d="M23.5909 26.3494C23.132 26.0546 22.8565 25.5536 22.8565 25.0232C22.8565 24.4927 23.1318 23.9915 23.5602 23.6969C23.8355 23.5201 23.9885 23.2549 23.9885 22.9306L23.9887 7.84014C23.9887 6.42546 22.7954 5.27599 21.3268 5.27599L16.4923 5.27578C15.2685 2.181 12.1779 0 8.53683 0C3.82485 0 0 3.6842 0 8.22314C0 11.4063 1.86647 14.1473 4.62023 15.5031V24.9936C4.62023 26.6441 6.02785 28 7.74128 28H23.0708C23.4992 28 23.8358 27.7348 23.9581 27.3516C24.0806 26.9684 23.9275 26.5556 23.5909 26.3494ZM1.71334 8.22314C1.71334 4.59793 4.77313 1.67999 8.50608 1.67999C12.239 1.67999 15.2988 4.62736 15.2988 8.22314C15.2988 11.8189 12.239 14.7663 8.50608 14.7663C4.77313 14.7663 1.71334 11.8189 1.71334 8.22314ZM21.1736 26.1726H7.71053C7.03738 26.1726 6.48672 25.6422 6.48672 24.9937C6.48672 24.3453 7.03738 23.8149 7.71053 23.8149H21.1736C21.0206 24.1981 20.9593 24.5812 20.9593 24.9937C20.9593 25.4062 21.0206 25.8188 21.1736 26.1726ZM22.0916 22.0167H7.71059C7.28223 22.0167 6.88439 22.1052 6.48678 22.2526L6.48657 16.181C7.12923 16.3284 7.80217 16.4168 8.50608 16.4168C13.2181 16.4168 17.0429 12.7326 17.0429 8.19366C17.0429 7.81044 17.0124 7.45682 16.9511 7.07361H21.296C21.7244 7.07361 22.0915 7.39783 22.0915 7.83988L22.0916 22.0167Z" fill="white"/>
</svg>
