<svg width="41" height="40" viewBox="0 0 41 40" fill="none" xmlns="http://www.w3.org/2000/svg">
<path d="M17.7606 11.8652C17.9441 12.1895 17.9136 12.6021 17.6993 12.8673C17.4851 13.1621 17.271 13.3093 17.0262 13.4567C16.4143 13.8693 15.8941 14.3113 15.8024 15.5494C15.8024 15.6969 15.8329 15.8443 15.9554 15.9327C16.0472 16.0505 16.2002 16.1095 16.3532 16.1095H17.0569C17.3323 16.1095 17.5466 15.9031 17.5771 15.6378C17.606 15.1628 17.7176 15.0851 18.016 14.8774C18.0323 14.866 18.0492 14.8542 18.0667 14.842L18.0781 14.8343C18.3826 14.629 18.7753 14.3642 19.1682 13.8694C19.7801 13.0735 19.8719 11.9831 19.3825 11.0694C18.8624 10.0968 17.8221 9.50733 16.598 9.50733C14.548 9.50733 13.63 10.922 13.4465 12.1305C13.4159 12.2779 13.477 12.4253 13.5688 12.5431C13.6605 12.6609 13.8136 12.7199 13.9666 12.7199H14.701C14.9458 12.7199 15.1599 12.5431 15.2211 12.3073C15.3129 11.8063 15.619 11.2462 16.598 11.2462C17.3322 11.2462 17.6381 11.6294 17.7606 11.8652Z" fill="white"/>
<path d="M16.6592 18.9095C17.2506 18.9095 17.73 18.4475 17.73 17.8779C17.73 17.3081 17.2506 16.8462 16.6592 16.8462C16.0677 16.8462 15.5881 17.3082 15.5881 17.8779C15.5881 18.4476 16.0678 18.9095 16.6592 18.9095Z" fill="white"/>
<path fill-rule="evenodd" clip-rule="evenodd" d="M31.5909 32.3494C31.132 32.0546 30.8565 31.5536 30.8565 31.0232C30.8565 30.4927 31.1318 29.9915 31.5602 29.6969C31.8355 29.5201 31.9885 29.2549 31.9885 28.9306L31.9887 13.8401C31.9887 12.4255 30.7954 11.276 29.3268 11.276L24.4923 11.2758C23.2685 8.181 20.1779 6 16.5368 6C11.8249 6 8 9.6842 8 14.2231C8 17.4063 9.86647 20.1473 12.6202 21.5031V30.9936C12.6202 32.6441 14.0278 34 15.7413 34H31.0708C31.4992 34 31.8358 33.7348 31.9581 33.3516C32.0806 32.9684 31.9275 32.5556 31.5909 32.3494ZM9.71334 14.2231C9.71334 10.5979 12.7731 7.67999 16.5061 7.67999C20.239 7.67999 23.2988 10.6274 23.2988 14.2231C23.2988 17.8189 20.239 20.7663 16.5061 20.7663C12.7731 20.7663 9.71334 17.8189 9.71334 14.2231ZM29.1736 32.1726H15.7105C15.0374 32.1726 14.4867 31.6422 14.4867 30.9937C14.4867 30.3453 15.0374 29.8149 15.7105 29.8149H29.1736C29.0206 30.1981 28.9593 30.5812 28.9593 30.9937C28.9593 31.4062 29.0206 31.8188 29.1736 32.1726ZM30.0916 28.0167H15.7106C15.2822 28.0167 14.8844 28.1052 14.4868 28.2526L14.4866 22.181C15.1292 22.3284 15.8022 22.4168 16.5061 22.4168C21.2181 22.4168 25.0429 18.7326 25.0429 14.1937C25.0429 13.8104 25.0124 13.4568 24.9511 13.0736H29.296C29.7244 13.0736 30.0915 13.3978 30.0915 13.8399L30.0916 28.0167Z" fill="white"/>
</svg>
